<svg width="110" height="109" viewBox="0 0 110 109" fill="none" xmlns="http://www.w3.org/2000/svg">
<g clip-path="url(#clip0)">
<path d="M27.5065 33.7945L25.4389 32.5249C24.9353 33.3468 24.4662 34.1983 24.0428 35.0528L26.2233 36.1306C26.6063 35.3402 27.0404 34.5546 27.5065 33.7945Z" fill="#46A408"/>
<path d="M22.9206 37.5825C20.7205 43.2173 20.1991 49.3687 21.4183 55.2932L23.8007 54.8069C22.676 49.3402 23.157 43.665 25.1861 38.4655L22.9206 37.5825Z" fill="#46A408"/>
<path d="M77.8861 14.9389C77.4259 14.7329 76.8855 14.832 76.5286 15.1883L72.9389 18.7786C59.749 9.85699 42.3019 10.4959 29.8008 20.3593L31.3138 22.2643C43.2615 12.8392 60.0073 12.4651 72.3635 21.348C72.8463 21.699 73.5126 21.6479 73.936 21.2269L75.9864 19.174L75.24 31.8605L62.553 32.6063L64.2555 30.9038C64.5227 30.6366 64.651 30.2601 64.6017 29.8854C64.553 29.5107 64.3321 29.1799 64.0049 28.9905C56.3826 24.6081 46.9385 24.905 39.6066 29.7577L40.9593 31.7791C47.0412 27.7536 54.7882 27.2085 61.3743 30.3426L58.5714 33.1401C58.2235 33.4881 58.1195 34.0107 58.3078 34.465C58.496 34.9198 58.939 35.2161 59.4313 35.2161C59.455 35.2173 59.4788 35.2173 59.5025 35.2161L76.4621 34.2185C77.0773 34.1829 77.5684 33.6924 77.6052 33.0766L78.6022 16.1165C78.6301 15.6135 78.3457 15.1456 77.8861 14.9389Z" fill="#242424"/>
<path d="M73.8346 78.5366L72.407 76.5675C60.5229 85.21 44.4261 85.2201 32.5307 76.5931C32.0479 76.2421 31.3817 76.2938 30.9583 76.7148L28.9078 78.7653L29.6531 66.0783L42.3412 65.3324L40.6388 67.0355C40.3715 67.3027 40.2439 67.6786 40.2931 68.0527C40.3424 68.4274 40.5627 68.7576 40.8893 68.947C48.4914 73.3152 57.9047 73.0331 65.2319 68.2172L63.878 66.1988C57.8026 70.1911 50.0829 70.7207 43.5188 67.5961L46.3157 64.7986C46.6678 64.4411 46.764 63.9037 46.558 63.4464C46.3513 62.9886 45.8852 62.7047 45.384 62.7315L28.425 63.7285C27.8098 63.7647 27.3181 64.2552 27.2819 64.8704L26.2843 81.8312C26.2558 82.3347 26.5408 82.8038 27.001 83.0105C27.4613 83.2171 28.001 83.118 28.3579 82.7611L31.9482 79.1714C44.6375 87.8335 61.4017 87.5835 73.8274 78.5473L73.8346 78.5366Z" fill="#242424"/>
<path d="M23.5128 71.2041L25.4391 69.7196C16.321 57.7719 16.0716 41.272 24.8239 29.0541C25.1749 28.5707 25.1232 27.9044 24.7022 27.4816L22.6517 25.4312L35.3387 26.1776L36.084 38.8646L34.3815 37.1621C34.1143 36.8943 33.7378 36.7666 33.3631 36.8153C32.9884 36.8646 32.6576 37.0855 32.4682 37.4121C28.0864 45.0332 28.3821 54.475 33.2325 61.8069L35.2532 60.4548C31.2289 54.3729 30.685 46.627 33.8209 40.0428L36.6178 42.8402C36.9753 43.1965 37.5157 43.2957 37.9759 43.0891C38.4361 42.8824 38.7211 42.4121 38.6915 41.9085L37.6944 24.9496C37.6582 24.3338 37.1677 23.8427 36.5525 23.8059L19.5918 22.8089C19.0888 22.7821 18.6209 23.0666 18.4125 23.525C18.2034 23.9888 18.305 24.5327 18.6666 24.8896L22.2563 28.4799C13.4701 41.5172 13.9754 58.7054 23.5128 71.2041Z" fill="#46A408"/>
<path d="M68.8146 59.0741L70.5171 60.7771C70.7843 61.0444 71.1608 61.172 71.5355 61.1233C71.9102 61.0741 72.241 60.8538 72.4304 60.5266C76.561 53.3799 76.5735 44.5747 72.4643 37.4162L70.358 38.6324C73.7534 44.5439 74.0218 51.7481 71.0753 57.8959L68.2784 55.0925C67.9203 54.7404 67.3835 54.6448 66.9257 54.8508C66.4678 55.0569 66.184 55.523 66.2107 56.0242L67.2083 72.9832C67.244 73.5989 67.7345 74.09 68.3503 74.1269L85.3104 75.1239H85.3822C85.8739 75.1233 86.3169 74.827 86.5046 74.3727C86.6922 73.9184 86.5883 73.3953 86.2409 73.0479L82.6507 69.4576C91.4369 56.4203 90.9315 39.2309 81.3941 26.7322L79.4678 28.2173C88.5859 40.1644 88.8359 56.6649 80.0836 68.8828C79.7326 69.3656 79.7843 70.0319 80.2053 70.4553L82.2433 72.5081L69.5563 71.7611L68.8146 59.0741Z" fill="#46A408"/>
<path d="M52.4482 55.0504C55.8062 55.0504 58.5289 52.3277 58.5289 48.9697C58.5289 45.611 55.8062 42.8889 52.4482 42.8889C49.0901 42.8889 46.3674 45.611 46.3674 48.9697C46.3716 52.3259 49.0913 55.0462 52.4482 55.0504ZM52.4482 45.3212C54.463 45.3212 56.0966 46.9542 56.0966 48.9697C56.0966 50.9845 54.463 52.6181 52.4482 52.6181C50.4333 52.6181 48.7997 50.9845 48.7997 48.9697C48.7997 46.9542 50.4333 45.3212 52.4482 45.3212Z" fill="#242424"/>
<path d="M39.0691 45.321C38.3974 45.321 37.8529 45.8656 37.8529 46.5372V51.4018C37.8529 52.0734 38.3974 52.6179 39.0691 52.6179H40.8517C41.0661 53.2967 41.3392 53.9558 41.6694 54.5864L40.4069 55.8489C39.9319 56.324 39.9319 57.0936 40.4069 57.5686L43.8475 61.0092C44.322 61.4837 45.0922 61.4837 45.5666 61.0092L46.8291 59.7479C47.4603 60.0775 48.1189 60.3507 48.7982 60.5639V62.3471C48.7982 63.0187 49.3428 63.5632 50.0144 63.5632H54.879C55.5506 63.5632 56.0951 63.0187 56.0951 62.3471V60.5639C56.7744 60.3501 57.433 60.0763 58.0642 59.7468L59.3267 61.0092C59.8011 61.4837 60.5713 61.4837 61.0458 61.0092L64.4864 57.5686C64.9615 57.0936 64.9615 56.324 64.4864 55.8489L63.2239 54.5864C63.5541 53.9558 63.8273 53.2967 64.0416 52.6179H65.8243C66.4959 52.6179 67.0404 52.0734 67.0404 51.4018V46.5372C67.0404 45.8656 66.4959 45.321 65.8243 45.321H64.0416C63.8273 44.6417 63.5535 43.9826 63.2227 43.3519L64.4864 42.0895C64.9615 41.6144 64.9615 40.8448 64.4864 40.3698L61.0458 36.9292C60.5713 36.4547 59.8011 36.4547 59.3267 36.9292L58.0642 38.1904C57.433 37.8609 56.7744 37.5883 56.0951 37.3745V35.5919C56.0951 34.9203 55.5506 34.3757 54.879 34.3757H50.0144C49.3428 34.3757 48.7982 34.9203 48.7982 35.5919V37.3745C48.1189 37.5883 47.4603 37.8621 46.8291 38.1916L45.5666 36.9292C45.0922 36.4547 44.322 36.4547 43.8475 36.9292L40.4069 40.3698C39.9319 40.8448 39.9319 41.6144 40.4069 42.0895L41.6682 43.3519C41.3386 43.9832 41.0655 44.6417 40.8517 45.321H39.0691ZM41.781 47.7533C42.3493 47.7539 42.8416 47.3608 42.9681 46.8068C43.2104 45.7409 43.6332 44.7237 44.2169 43.7997C44.5203 43.3187 44.4503 42.6922 44.0477 42.2902L42.9877 41.2296L44.7074 39.5099L45.7674 40.5705C46.1694 40.9725 46.7959 41.0432 47.2769 40.7397C48.2008 40.1554 49.2181 39.7332 50.2846 39.4909C50.838 39.3644 51.2311 38.8716 51.2305 38.3039V36.808H53.6628V38.3039C53.6622 38.8716 54.0553 39.3644 54.6088 39.4909C55.6753 39.7332 56.6919 40.1554 57.6165 40.7397C58.0975 41.0432 58.724 40.9725 59.126 40.5705L60.1859 39.5099L61.9057 41.2296L60.8451 42.2902C60.4437 42.6916 60.3736 43.3175 60.6764 43.7985C61.2602 44.7225 61.6824 45.7397 61.9252 46.8056C62.0505 47.3596 62.5428 47.7527 63.1111 47.7533H64.6081V50.1856H63.1111C62.5428 50.1856 62.0505 50.5787 61.9252 51.1328C61.6824 52.1987 61.2602 53.2159 60.6764 54.1405C60.3736 54.6209 60.4437 55.2468 60.8451 55.6482L61.9057 56.7088L60.1859 58.4285L59.126 57.3679C58.724 56.9659 58.0975 56.8958 57.6165 57.1987C56.6919 57.783 55.6753 58.2052 54.6088 58.4481C54.0553 58.574 53.6622 59.0668 53.6628 59.6351V61.1309H51.2305V59.6351C51.2311 59.0668 50.838 58.574 50.2846 58.4481C49.2181 58.2052 48.2008 57.783 47.2769 57.1987C46.7959 56.8958 46.1694 56.9659 45.7674 57.3679L44.7074 58.4285L42.9877 56.7088L44.0477 55.6482C44.4503 55.2468 44.5203 54.6197 44.2169 54.1393C43.6332 53.2147 43.2104 52.1975 42.9681 51.1316C42.8416 50.5776 42.3493 50.185 41.781 50.1856H40.2852V47.7533H41.781Z" fill="#242424"/>
</g>
<path d="M73.0912 102.816V105.794H76.0699V108.773H79.0485V105.794H82.0272V102.816H79.0485V99.8372H76.0699V102.816H73.0912Z" fill="#46A408"/>
<path d="M43.3881 104.305V101.326H46.3668V104.305H43.3881Z" fill="#46A408"/>
<path d="M106.247 50.9279V47.9492H109.226V50.9279H106.247Z" fill="#46A408"/>
<path d="M58.5287 3.7079V0.729248H61.5074V3.7079H58.5287Z" fill="#46A408"/>
<path d="M3.74959 11.1547H6.72824V8.17605H9.70689V5.1974H6.72824V2.21875H3.74959V5.1974H0.770935V8.17605H3.74959V11.1547Z" fill="#46A408"/>
<defs>
<clipPath id="clip0">
<rect width="73" height="73" fill="white" transform="translate(15.9662 12.5)"/>
</clipPath>
</defs>
</svg>
