<svg width="110" height="100" viewBox="0 0 110 100" fill="none" xmlns="http://www.w3.org/2000/svg">
<g clip-path="url(#clip0)">
<path d="M25.4308 60.2346C24.4402 60.2346 23.488 60.4818 22.6432 60.9461C18.1928 55.2412 15.7501 48.1543 15.7501 40.8942C15.7501 22.9104 30.3805 8.28003 48.3643 8.28003C50.5506 8.28003 52.7358 8.49758 54.8595 8.92674C55.6066 9.07789 56.3364 8.59421 56.4876 7.84601C56.6388 7.09781 56.1551 6.36904 55.4069 6.21735C53.1034 5.75202 50.7341 5.51611 48.3643 5.51611C38.9146 5.51611 30.0302 9.19611 23.3482 15.8781C16.6662 22.5601 12.9862 31.4445 12.9862 40.8942C12.9862 48.8431 15.6853 56.6005 20.5994 62.8193C19.9667 63.7645 19.6266 64.8755 19.6266 66.0388C19.6266 67.5892 20.2307 69.0467 21.3271 70.1425C22.4229 71.2389 23.8804 71.843 25.4308 71.843C26.9812 71.843 28.4387 71.2389 29.5351 70.1425C30.6315 69.0467 31.235 67.5886 31.235 66.0382C31.235 64.4884 30.6315 63.0303 29.5351 61.9345C28.4387 60.8381 26.9812 60.2346 25.4308 60.2346ZM27.5804 68.1884C27.0066 68.7627 26.2427 69.0791 25.4308 69.0791C24.6189 69.0791 23.8556 68.7627 23.2812 68.1884C22.7069 67.614 22.3905 66.8507 22.3905 66.0388C22.3905 65.2263 22.7069 64.463 23.2812 63.8887C23.8551 63.3143 24.6189 62.9985 25.4308 62.9985C26.2427 62.9985 27.006 63.3148 27.5804 63.8887C28.1548 64.463 28.4711 65.2263 28.4711 66.0388C28.4711 66.8507 28.1548 67.614 27.5804 68.1884Z" fill="#46A408"/>
<path d="M76.1265 18.9674C77.6288 16.7137 77.3875 13.6323 75.4004 11.6452C74.304 10.5494 72.8465 9.94531 71.2961 9.94531C69.7457 9.94531 68.2882 10.5494 67.1918 11.6452C66.0954 12.7416 65.4919 14.1991 65.4919 15.7495C65.4919 17.2999 66.0954 18.7574 67.1918 19.8538C68.2882 20.9502 69.7457 21.5537 71.2961 21.5537C72.2867 21.5537 73.239 21.3065 74.0838 20.8423C78.5341 26.5477 80.9768 33.634 80.9768 40.8941C80.9768 58.8779 66.3465 73.5083 48.3627 73.5083C46.198 73.5083 44.0333 73.2951 41.9296 72.874C41.1814 72.7245 40.4531 73.2098 40.3031 73.958C40.1535 74.7067 40.6388 75.4344 41.387 75.5845C43.6689 76.0406 46.016 76.2722 48.3627 76.2722C57.8123 76.2722 66.6968 72.5922 73.3788 65.9102C80.0608 59.2283 83.7408 50.3438 83.7408 40.8941C83.7408 32.9446 81.0411 25.1868 76.1265 18.9674ZM69.1465 17.8997C68.5722 17.3253 68.2558 16.562 68.2558 15.7495C68.2558 14.9376 68.5722 14.1743 69.1465 13.5999C69.7204 13.0256 70.4842 12.7092 71.2961 12.7092C72.108 12.7092 72.8719 13.0256 73.4463 13.5999C74.6312 14.7854 74.6312 16.7142 73.4463 17.8997C72.8719 18.4735 72.108 18.7898 71.2961 18.7898C70.4837 18.7898 69.7204 18.4735 69.1465 17.8997Z" fill="#46A408"/>
<path d="M42.6614 64.6639C42.6614 65.4272 43.2805 66.0459 44.0433 66.0459H52.6843C53.4476 66.0459 54.0663 65.4272 54.0663 64.6639V61.9848C55.8833 61.4957 57.6205 60.7756 59.2529 59.8352L61.1445 61.7267C61.4036 61.9859 61.755 62.1316 62.1221 62.1316C62.4881 62.1316 62.8401 61.9859 63.0992 61.7262L69.2068 55.6143C69.7461 55.0744 69.7461 54.1994 69.2068 53.6601L67.3174 51.7707C68.2578 50.1383 68.9779 48.4011 69.467 46.5841H72.1359C72.8992 46.5841 73.5179 45.9654 73.5179 45.2021V36.5611C73.5179 35.7978 72.8992 35.1791 72.1359 35.1791H69.4665C68.9774 33.3626 68.2578 31.6255 67.3174 29.993L69.1965 28.1139C69.4557 27.8548 69.6014 27.5028 69.6014 27.1363C69.6009 26.7697 69.4551 26.4177 69.196 26.1586L63.0835 20.051C62.5443 19.5117 61.6692 19.5117 61.1294 20.0516L59.2529 21.9285C57.6205 20.9882 55.8833 20.268 54.0663 19.779V17.1246C54.0663 16.3613 53.4476 15.7427 52.6843 15.7427H44.0433C43.2805 15.7427 42.6614 16.3613 42.6614 17.1246V19.7795C40.8449 20.268 39.1077 20.9882 37.4753 21.9285L35.5983 20.0516C35.059 19.5123 34.1839 19.5117 33.6441 20.051L27.5322 26.1592C27.2725 26.4183 27.1268 26.7697 27.1268 27.1363C27.1268 27.5028 27.2725 27.8548 27.5316 28.1139L29.4108 29.993C28.4704 31.6255 27.7503 33.3621 27.2612 35.1791H24.5971C23.8338 35.1791 23.2152 35.7978 23.2152 36.5606L23.2103 45.2016C23.2098 45.5681 23.3555 45.9201 23.6147 46.1792C23.8738 46.4383 24.2252 46.5841 24.5923 46.5841H27.2612C27.7503 48.4011 28.4704 50.1383 29.4108 51.7707L27.5214 53.6601C26.9821 54.1994 26.9816 55.0744 27.5214 55.6143L33.629 61.7262C33.8881 61.9853 34.2395 62.1316 34.6061 62.1316H34.6066C34.9732 62.1316 35.3246 61.9859 35.5837 61.7267L37.4747 59.8352C39.1077 60.7756 40.8449 61.4957 42.6614 61.9848V64.6639ZM38.0167 56.9288C37.4699 56.5752 36.7503 56.6518 36.2893 57.1123L34.6066 58.7949L30.4526 54.6377L32.1337 52.9562C32.5941 52.4957 32.6708 51.7761 32.3172 51.2293C31.0643 49.2902 30.1833 47.1649 29.6996 44.9117C29.5625 44.2752 29 43.8201 28.3484 43.8201H25.9748L25.978 37.943H28.3484C29 37.943 29.5625 37.4885 29.6996 36.8515C30.1833 34.5988 31.0643 32.4735 32.3172 30.5345C32.6708 29.9876 32.5941 29.268 32.1337 28.8076L30.4634 27.1368L34.6206 22.9828L36.2893 24.652C36.7503 25.1124 37.4693 25.1886 38.0167 24.8355C39.9552 23.5826 42.0805 22.7016 44.3337 22.2179C44.9702 22.0808 45.4253 21.5177 45.4253 20.8667V18.5066H51.3024V20.8662C51.3024 21.5177 51.7569 22.0808 52.3939 22.2174C54.6466 22.7016 56.7724 23.582 58.711 24.835C59.2578 25.1886 59.9774 25.1124 60.4379 24.6514L62.107 22.9828L66.2642 27.1368L64.594 28.807C64.133 29.268 64.0569 29.9876 64.4104 30.5345C65.6634 32.4735 66.5438 34.5988 67.0281 36.8515C67.1646 37.4885 67.7277 37.943 68.3792 37.943H70.7539V43.8201H68.3792C67.7277 43.8201 67.1652 44.2752 67.0281 44.9117C66.5444 47.1644 65.6634 49.2902 64.4104 51.2287C64.0569 51.7761 64.1335 52.4957 64.594 52.9562L66.275 54.6372L62.121 58.7944L60.4384 57.1123C59.9774 56.6513 59.2578 56.5752 58.711 56.9288C56.7719 58.1817 54.6466 59.0621 52.3939 59.5464C51.7569 59.6835 51.3024 60.246 51.3024 60.8976V63.282H45.4253V60.8976C45.4253 60.2465 44.9702 59.6835 44.3337 59.5464C42.0811 59.0627 39.9558 58.1817 38.0167 56.9288Z" fill="#242424"/>
<path d="M59.787 40.8943C59.787 34.5978 54.6646 29.4753 48.3681 29.4753C42.0715 29.4753 36.9491 34.5978 36.9491 40.8943C36.9491 47.1908 42.0715 52.3133 48.3681 52.3133C54.6646 52.3133 59.787 47.1908 59.787 40.8943ZM39.713 40.8943C39.713 36.1217 43.5954 32.2393 48.3681 32.2393C53.1407 32.2393 57.0231 36.1222 57.0231 40.8943C57.0231 45.6664 53.1407 49.5493 48.3681 49.5493C43.5954 49.5493 39.713 45.6669 39.713 40.8943Z" fill="#242424"/>
<path d="M61.0911 10.7428C61.4549 10.7428 61.8112 10.5949 62.0681 10.338C62.3251 10.0794 62.473 9.72309 62.473 9.35925C62.473 8.99757 62.3256 8.64074 62.0681 8.38216C61.8112 8.12521 61.4549 7.97729 61.0911 7.97729C60.7261 7.97729 60.3715 8.12521 60.1145 8.38216C59.857 8.64074 59.7091 8.99595 59.7091 9.35925C59.7091 9.72417 59.857 10.0794 60.1145 10.338C60.3715 10.5949 60.7261 10.7428 61.0911 10.7428Z" fill="#46A408"/>
<path d="M35.6992 71.0706C35.3359 71.0706 34.9791 71.2185 34.7221 71.4754C34.4652 71.7324 34.3173 72.0892 34.3173 72.4525C34.3173 72.8174 34.4652 73.1726 34.7221 73.4296C34.9791 73.6866 35.3359 73.8345 35.6992 73.8345C36.0625 73.8345 36.4193 73.6866 36.6763 73.4296C36.9333 73.1726 37.0812 72.8158 37.0812 72.4525C37.0812 72.0892 36.9333 71.7324 36.6763 71.4754C36.4193 71.2185 36.0625 71.0706 35.6992 71.0706Z" fill="#46A408"/>
</g>
<path d="M27.8281 93.9935V96.9722H30.8068V99.9508H33.7854V96.9722H36.7641V93.9935H33.7854V91.0149H30.8068V93.9935H27.8281Z" fill="#46A408"/>
<path d="M2.28442 68.53H4.49071V66.3237H6.697V64.1174H4.49071V61.9111H2.28442V64.1174H0.078125V66.3237H2.28442V68.53Z" fill="#46A408"/>
<path d="M106.59 27.9916V25.0129H109.568V27.9916H106.59Z" fill="#46A408"/>
<path d="M77.7852 76.2724V73.2937H80.7638V76.2724H77.7852Z" fill="#46A408"/>
<path d="M12.9844 3.07924V0.100586H15.963V3.07924H12.9844Z" fill="#46A408"/>
<path d="M95.6701 12.0151H98.6487V9.03641H101.627V6.05775H98.6487V3.0791H95.6701V6.05775H92.6914V9.03641H95.6701V12.0151Z" fill="#46A408"/>
<defs>
<clipPath id="clip0">
<rect width="70.7562" height="70.7562" fill="white" transform="translate(12.9844 5.51611)"/>
</clipPath>
</defs>
</svg>
