<svg width="105" height="116" viewBox="0 0 105 116" fill="none" xmlns="http://www.w3.org/2000/svg">
<path d="M41.1594 7.5327H43.3657V5.3264H45.572V3.12011H43.3657V0.913818H41.1594V3.12011H38.9531V5.3264H41.1594V7.5327Z" fill="#46A408"/>
<path d="M92.3945 95.8158V98.7945H95.3732V101.773H98.3518V98.7945H101.33V95.8158H98.3518V92.8372H95.3732V95.8158H92.3945Z" fill="#46A408"/>
<path d="M101.332 61.9894V59.0107H104.311V61.9894H101.332Z" fill="#46A408"/>
<path d="M58.7422 115.85V112.872H61.7208V115.85H58.7422Z" fill="#46A408"/>
<path d="M7.50781 23.1725V20.1938H10.4865V23.1725H7.50781Z" fill="#46A408"/>
<path d="M3.04115 67.1139H6.0198V64.1353H8.99846V61.1566H6.0198V58.178H3.04115V61.1566H0.0625V64.1353H3.04115V67.1139Z" fill="#46A408"/>
<path d="M37.0274 48.6257H34.9361V73.7443H37.0274V48.6257Z" fill="#242424"/>
<path d="M41.2028 72.9072V48.9148C46.2378 45.9678 47.9328 39.4934 44.9886 34.4537C43.7415 32.319 41.7861 30.6896 39.4628 29.8488C38.9189 29.6545 38.3207 29.9384 38.1266 30.4829C38.0865 30.5955 38.0658 30.7142 38.0658 30.8336V38.7397H33.8832V30.8336C33.8827 30.2556 33.4141 29.7874 32.8367 29.7879C32.7172 29.7881 32.5988 29.8086 32.4862 29.8488C31.1981 30.3076 30.0133 31.0169 29 31.9357C24.6691 35.8548 24.3323 42.5459 28.2477 46.8808C28.9718 47.6825 29.8145 48.3686 30.7461 48.9148L30.7461 72.9072C27.4976 74.7929 25.5037 78.2728 25.5179 82.0315C25.5514 87.8117 30.2598 92.4704 36.0347 92.4369C41.8095 92.4034 46.464 87.6907 46.4305 81.9105C46.4092 78.1931 44.4192 74.7661 41.2028 72.9072ZM43.472 85.6803C41.4218 89.8243 36.4036 91.5202 32.2634 89.4682C28.1233 87.4162 26.4289 82.3934 28.479 78.2493C29.292 76.6059 30.6216 75.2752 32.2635 74.4614C32.616 74.2831 32.8381 73.9211 32.8376 73.5257V48.2921C32.8377 47.8962 32.6149 47.5342 32.2614 47.3564C28.0838 45.2501 26.4029 40.153 28.5073 35.9714C29.242 34.5115 30.3827 33.2954 31.7919 32.4695V39.7863C31.7919 40.3643 32.2601 40.8329 32.8376 40.8329H39.1115C39.6889 40.8329 40.1571 40.3643 40.1571 39.7863V32.4705C44.1932 34.8441 45.5427 40.0431 43.1713 44.0829C42.3478 45.4858 41.1385 46.6222 39.6876 47.3564C39.3342 47.5342 39.1113 47.8962 39.1115 48.2921V73.5257C39.1113 73.9216 39.3342 74.2836 39.6876 74.4614C43.8278 76.5134 45.5221 81.5362 43.472 85.6803Z" fill="#242424"/>
<path d="M42.0361 81.4893L38.8991 77.3029C38.7016 77.0394 38.3917 76.8843 38.0626 76.8843H33.88C33.5509 76.8843 33.241 77.0394 33.0435 77.3029L29.9065 81.4893C29.6277 81.8614 29.6277 82.3731 29.9065 82.7453L33.0435 86.9317C33.241 87.1952 33.5509 87.3503 33.88 87.3503H38.0626C38.3917 87.3503 38.7016 87.1952 38.8991 86.9317L42.0361 82.7453C42.3149 82.3732 42.3149 81.8615 42.0361 81.4893ZM37.5398 85.2571H34.4028L32.0501 82.1173L34.4028 78.9775H37.5398L39.8925 82.1173L37.5398 85.2571Z" fill="#242424"/>
<path fill-rule="evenodd" clip-rule="evenodd" d="M78.3201 30.04H85.1125V91.0874H78.3201V30.04ZM80.4919 32.2138V88.9137H82.9408V32.2138H80.4919Z" fill="#242424"/>
<path d="M76.8066 71.1904H87.8011V76.6636H76.8066V71.1904Z" fill="white"/>
<path fill-rule="evenodd" clip-rule="evenodd" d="M74.8003 70.1035L89.2815 70.1035V78.1456H74.8003V70.1035ZM76.9721 72.2772V75.9719H87.1098V72.2772H76.9721Z" fill="#242424"/>
<path d="M55.3896 54.76L54.344 54.76C53.7665 54.76 53.2983 54.2914 53.2983 53.7134L53.2983 36.9677C53.2996 36.1428 53.4411 35.3242 53.7166 34.5469L53.7166 34.5249C53.7166 34.5113 53.7291 34.4987 53.7333 34.4851C53.9789 33.8107 54.3222 33.1759 54.7518 32.6012C54.78 32.5625 54.8083 32.5238 54.8375 32.4861C55.0468 32.2153 55.2746 31.9593 55.5193 31.72L55.5841 31.6614C55.8233 31.4349 56.0775 31.2251 56.3454 31.0334C56.3694 31.0156 56.3924 30.9968 56.4175 30.979C56.6989 30.7821 56.9939 30.6051 57.3 30.4494C57.3377 30.4295 57.3764 30.4128 57.4151 30.3939C57.7222 30.2417 58.0398 30.1115 58.3656 30.0046L58.3792 29.9994C58.705 29.8967 59.0377 29.8169 59.3746 29.7607C59.4436 29.7492 59.5116 29.7388 59.5837 29.7293C60.2668 29.6205 60.9627 29.6205 61.6458 29.7293C61.7148 29.7388 61.7827 29.7482 61.8549 29.7607C62.1919 29.8169 62.5245 29.8967 62.8504 29.9994L62.8639 29.9994C63.1897 30.1066 63.5073 30.2371 63.8144 30.3897C63.8531 30.4086 63.8918 30.4253 63.9295 30.4452C64.2356 30.6009 64.5306 30.7779 64.812 30.9748C64.8371 30.9926 64.8601 31.0114 64.8841 31.0292C65.152 31.2209 65.4062 31.4307 65.6454 31.6572L65.7102 31.7158C65.9551 31.9555 66.1834 32.2118 66.393 32.483C66.4212 32.5196 66.4495 32.5583 66.4777 32.596C66.9073 33.1708 67.2504 33.8055 67.4962 34.4799C67.4962 34.4935 67.5087 34.5061 67.5129 34.5197L67.5129 34.5416C67.7912 35.3203 67.9347 36.1407 67.9374 36.9677L67.9374 53.7134C67.9374 54.2914 67.4693 54.76 66.8918 54.76L65.8461 54.76C65.2687 54.76 64.8005 55.2286 64.8005 55.8066C64.8005 56.3846 65.2687 56.8532 65.8461 56.8532L66.8918 56.8532C67.4693 56.8532 67.9374 57.3218 67.9374 57.8998L67.9374 62.0862C67.9374 62.6642 67.4693 63.1328 66.8918 63.1328L63.7548 63.1328L63.7548 82.8488L64.7472 85.8274C64.8048 86.0001 64.816 86.185 64.7796 86.3633L63.7339 91.5963C63.6363 92.0854 63.2074 92.4375 62.7092 92.4378L58.5266 92.4378C58.0296 92.4379 57.6012 92.0878 57.5019 91.6005L56.4562 86.3675C56.4197 86.1892 56.431 86.0043 56.4886 85.8316L57.4809 82.8488L57.4809 63.1328L54.344 63.1328C53.7665 63.1328 53.2983 62.6642 53.2983 62.0862L53.2983 57.8998C53.2983 57.3218 53.7665 56.8532 54.344 56.8532L55.3896 56.8532C55.9671 56.8532 56.4353 56.3846 56.4353 55.8066C56.4353 55.2286 55.9672 54.76 55.3896 54.76ZM64.3592 33.3244C64.309 33.2731 64.2547 33.2271 64.2034 33.1779C64.025 33.0089 63.8352 32.8523 63.6356 32.709C63.5896 32.6766 63.5468 32.64 63.4997 32.6044C63.2667 32.4516 63.022 32.3175 62.7677 32.2035C62.6987 32.1721 62.6287 32.1407 62.5586 32.1125C62.2939 32.0052 62.0208 31.92 61.742 31.8581C61.6834 31.8445 61.6238 31.8372 61.5652 31.8257C60.9443 31.6991 60.3041 31.6991 59.6831 31.8257C59.6245 31.8372 59.5649 31.8445 59.5064 31.8581C59.2276 31.92 58.9544 32.0051 58.6897 32.1125C58.6186 32.1407 58.5485 32.1721 58.4806 32.2035C58.2264 32.3176 57.9817 32.4516 57.7486 32.6044C57.7016 32.6358 57.6587 32.6724 57.6127 32.709C57.4131 32.8523 57.2233 33.0089 57.0449 33.1779C56.9937 33.2271 56.9403 33.2732 56.8891 33.3244C56.7392 33.4833 56.5995 33.6514 56.4708 33.8279L64.7733 33.8279C64.6461 33.6515 64.5077 33.4834 64.3592 33.3244ZM59.384 90.3446L61.8518 90.3446L62.6747 86.2251L61.7169 83.3491C61.6815 83.2425 61.6634 83.1307 61.6635 83.0183L61.6635 63.1328L59.5722 63.1328L59.5722 83.0183C59.5724 83.1307 59.5543 83.2425 59.5189 83.3491L58.5611 86.2251L59.384 90.3446ZM55.3896 58.9464L55.3896 61.0396L65.8461 61.0396L65.8461 58.9464C64.1136 58.9464 62.7092 57.5407 62.7092 55.8066C62.7092 54.0725 64.1136 52.6668 65.8461 52.6668L65.8461 36.9677C65.8465 36.6161 65.8115 36.2655 65.7416 35.9211L55.4942 35.9211C55.4243 36.2655 55.3892 36.6161 55.3896 36.9677L55.3896 52.6668C57.1222 52.6668 58.5266 54.0725 58.5266 55.8066C58.5266 57.5407 57.1222 58.9464 55.3896 58.9464Z" fill="#242424"/>
<path d="M59.5753 38.0144L61.6666 38.0144L61.6666 52.6669L59.5753 52.6669L59.5753 38.0144Z" fill="#46A408"/>
<mask id="mask0" mask-type="alpha" maskUnits="userSpaceOnUse" x="53" y="29" width="15" height="64">
<path d="M55.3971 54.76L54.3514 54.76C53.774 54.76 53.3058 54.2914 53.3058 53.7134L53.3058 36.9677C53.3071 36.1428 53.4485 35.3242 53.724 34.5469L53.724 34.5249C53.724 34.5113 53.7366 34.4987 53.7408 34.4851C53.9864 33.8107 54.3296 33.1759 54.7592 32.6012C54.7875 32.5625 54.8157 32.5238 54.845 32.4861C55.0542 32.2153 55.2821 31.9593 55.5267 31.72L55.5916 31.6614C55.8308 31.4349 56.085 31.2251 56.3528 31.0334C56.3769 31.0156 56.3999 30.9968 56.425 30.979C56.7064 30.7821 57.0014 30.6051 57.3075 30.4494C57.3451 30.4295 57.3838 30.4128 57.4225 30.3939C57.7297 30.2417 58.0473 30.1115 58.373 30.0046L58.3866 29.9994C58.7124 29.8967 59.0451 29.8169 59.3821 29.7607C59.4511 29.7492 59.519 29.7388 59.5912 29.7293C60.2743 29.6205 60.9701 29.6205 61.6532 29.7293C61.7222 29.7388 61.7902 29.7482 61.8623 29.7607C62.1993 29.8169 62.5319 29.8967 62.8578 29.9994L62.8714 29.9994C63.1971 30.1066 63.5147 30.2371 63.8219 30.3897C63.8606 30.4086 63.8993 30.4253 63.9369 30.4452C64.243 30.6009 64.538 30.7779 64.8194 30.9748C64.8445 30.9926 64.8675 31.0114 64.8916 31.0292C65.1594 31.2209 65.4136 31.4307 65.6528 31.6572L65.7177 31.7158C65.9626 31.9555 66.1908 32.2118 66.4005 32.483C66.4287 32.5196 66.4569 32.5583 66.4852 32.596C66.9148 33.1708 67.2579 33.8055 67.5036 34.4799C67.5036 34.4935 67.5162 34.5061 67.5204 34.5197L67.5204 34.5416C67.7986 35.3203 67.9421 36.1407 67.9449 36.9677L67.9449 53.7134C67.9449 54.2914 67.4767 54.76 66.8992 54.76L65.8536 54.76C65.2761 54.76 64.8079 55.2286 64.8079 55.8066C64.8079 56.3846 65.2761 56.8532 65.8536 56.8532L66.8992 56.8532C67.4767 56.8532 67.9449 57.3218 67.9449 57.8998L67.9449 62.0862C67.9449 62.6642 67.4767 63.1328 66.8992 63.1328L63.7623 63.1328L63.7623 82.8488L64.7546 85.8274C64.8123 86.0001 64.8235 86.185 64.787 86.3633L63.7414 91.5963C63.6437 92.0854 63.2149 92.4375 62.7166 92.4378L58.534 92.4378C58.0371 92.4379 57.6086 92.0878 57.5093 91.6005L56.4637 86.3675C56.4272 86.1892 56.4384 86.0043 56.4961 85.8316L57.4884 82.8488L57.4884 63.1328L54.3514 63.1328C53.774 63.1328 53.3058 62.6642 53.3058 62.0862L53.3058 57.8998C53.3058 57.3218 53.774 56.8532 54.3514 56.8532L55.3971 56.8532C55.9745 56.8532 56.4427 56.3846 56.4427 55.8066C56.4427 55.2286 55.9747 54.76 55.3971 54.76ZM64.3667 33.3244C64.3165 33.2731 64.2621 33.2271 64.2109 33.1779C64.0325 33.0089 63.8427 32.8523 63.6431 32.709C63.5971 32.6766 63.5542 32.64 63.5071 32.6044C63.2741 32.4516 63.0294 32.3175 62.7752 32.2035C62.7062 32.1721 62.6361 32.1407 62.5661 32.1125C62.3014 32.0052 62.0282 31.92 61.7494 31.8581C61.6909 31.8445 61.6313 31.8372 61.5727 31.8257C60.9517 31.6991 60.3115 31.6991 59.6905 31.8257C59.632 31.8372 59.5724 31.8445 59.5138 31.8581C59.235 31.92 58.9618 32.0051 58.6972 32.1125C58.6261 32.1407 58.556 32.1721 58.488 32.2035C58.2338 32.3176 57.9891 32.4516 57.7561 32.6044C57.709 32.6358 57.6661 32.6724 57.6201 32.709C57.4205 32.8523 57.2308 33.0089 57.0523 33.1779C57.0011 33.2271 56.9478 33.2732 56.8965 33.3244C56.7466 33.4833 56.6069 33.6514 56.4783 33.8279L64.7807 33.8279C64.6536 33.6515 64.5152 33.4834 64.3667 33.3244ZM59.3915 90.3446L61.8592 90.3446L62.6821 86.2251L61.7243 83.3491C61.6889 83.2425 61.6709 83.1307 61.671 83.0183L61.671 63.1328L59.5797 63.1328L59.5797 83.0183C59.5798 83.1307 59.5618 83.2425 59.5264 83.3491L58.5685 86.2251L59.3915 90.3446ZM55.3971 58.9464L55.3971 61.0396L65.8536 61.0396L65.8536 58.9464C64.1211 58.9464 62.7166 57.5407 62.7166 55.8066C62.7166 54.0725 64.1211 52.6668 65.8536 52.6668L65.8536 36.9677C65.854 36.6161 65.819 36.2655 65.749 35.9211L55.5017 35.9211C55.4317 36.2655 55.3967 36.6161 55.3971 36.9677L55.3971 52.6668C57.1296 52.6668 58.534 54.0725 58.534 55.8066C58.534 57.5407 57.1296 58.9464 55.3971 58.9464Z" fill="black"/>
</mask>
<g mask="url(#mask0)">
<rect x="50.2562" y="20.5667" width="26.3963" height="42.5583" fill="#46A408"/>
</g>
</svg>
