<svg width="130" height="107" viewBox="0 0 130 107" fill="none" xmlns="http://www.w3.org/2000/svg">
<path d="M88.4961 11.4787V14.4573H91.4747V17.436H94.4534V14.4573H97.432V11.4787H94.4534V8.5H91.4747V11.4787H88.4961Z" fill="#46A408"/>
<path d="M117.667 59.2815H119.874V57.0752H122.08V54.8689H119.874V52.6626H117.667V54.8689H115.461V57.0752H117.667V59.2815Z" fill="#46A408"/>
<path d="M126.609 36.5336V33.5549H129.588V36.5336H126.609Z" fill="#46A408"/>
<path d="M38.0977 106.439V103.46H41.0763V106.439H38.0977Z" fill="#46A408"/>
<path d="M27.8438 3.36122V0.382568H30.8224V3.36122H27.8438Z" fill="#46A408"/>
<path d="M3.9435 98.2448H6.92215V95.2661H9.9008V92.2875H6.92215V89.3088H3.9435V92.2875H0.964844V95.2661H3.9435V98.2448Z" fill="#46A408"/>
<mask id="mask0" mask-type="alpha" maskUnits="userSpaceOnUse" x="9" y="29" width="87" height="51">
<path d="M93.024 31.5954H84.9016C83.3144 31.5954 82.0233 32.8866 82.0233 34.4737V35.7525H77.7726C76.3896 35.7525 75.0517 35.3448 73.9036 34.5737L69.6085 31.6883C64.5359 28.2807 57.8433 28.4072 52.9027 31.9861C48.4065 28.7297 42.3648 28.3093 37.464 30.9266C36.8491 31.2549 36.6168 32.0197 36.9451 32.6346C37.2735 33.2496 38.0381 33.4817 38.6532 33.1535C42.4666 31.1169 47.116 31.3041 50.75 33.5771L39.3997 41.9848C38.4943 42.6555 37.9681 43.6861 37.9555 44.8129C37.943 45.9394 38.4464 46.9815 39.3367 47.672C41.9683 49.713 45.576 50.0359 48.5281 48.4946L56.9114 44.1175C57.3569 45.2175 58.1329 46.788 59.388 48.3587C60.2075 49.3845 61.3003 50.4868 62.7164 51.4483C62.7196 51.4507 74.7047 59.6757 74.7047 59.6757C75.5872 60.2544 75.8282 61.5469 75.2135 62.4049C74.6348 63.2876 73.342 63.5284 72.4843 62.9138L56.7829 52.1479C56.2081 51.7537 55.4224 51.9003 55.0282 52.4751C54.6339 53.0501 54.7804 53.8356 55.3554 54.2299L70.8431 64.8495C71.7259 65.4282 71.9671 66.7209 71.3524 67.579C70.7401 68.4718 69.5161 68.7 68.6232 68.0878L53.1351 57.468C52.5604 57.0737 51.7746 57.2204 51.3804 57.7952C50.9862 58.3701 51.1326 59.1557 51.7076 59.5499L65.5722 69.0566C66.4549 69.6353 66.6959 70.928 66.0813 71.786C65.5027 72.6685 64.21 72.9095 63.3522 72.2947C63.3522 72.2947 49.3812 62.7227 49.3263 62.6958C49.2509 61.3541 48.5798 60.0597 47.3883 59.2427C45.692 58.0795 43.4724 58.2452 41.9677 59.5059C41.6321 58.8522 41.1378 58.288 40.5146 57.8608C38.5536 56.4558 35.5987 57.0066 34.276 59.0242L32.3593 61.8194C32.0509 62.2497 31.8369 62.7277 31.7117 63.2259C30.157 62.4939 28.4565 62.1105 26.7271 62.1105H23.7814V38.2769H28.0321C29.9183 38.2769 31.743 37.7209 33.3086 36.6691L34.5298 35.8487C35.1084 35.46 35.2624 34.6758 34.8736 34.0971C34.4849 33.5183 33.7007 33.3644 33.122 33.7531L31.9009 34.5735C30.7528 35.3448 29.4151 35.7523 28.0319 35.7523H23.7814V34.4735C23.7814 32.8864 22.4903 31.5952 20.9031 31.5952H12.7807C11.1935 31.5954 9.90234 32.8866 9.90234 34.4737V50.4586C9.90234 51.1557 10.4676 51.7209 11.1646 51.7209C11.8617 51.7209 12.4269 51.1557 12.4269 50.4586V34.4737C12.4269 34.2787 12.5856 34.1198 12.7808 34.1198H20.9033C21.0983 34.1198 21.2572 34.2785 21.2572 34.4737V66.0626C21.2572 66.2576 21.0985 66.4165 20.9033 66.4165H12.7807C12.5856 66.4165 12.4267 66.2578 12.4267 66.0626V55.5074C12.4267 54.8104 11.8615 54.2451 11.1645 54.2451C10.4674 54.2451 9.90234 54.8104 9.90234 55.5074V66.0626C9.90234 67.6497 11.1935 68.9409 12.7807 68.9409H20.9031C22.4903 68.9409 23.7814 67.6497 23.7814 66.0626V64.6342H26.7271C28.4187 64.6342 30.0756 65.101 31.5186 65.9838L32.0126 66.2862C32.3411 66.993 32.8497 67.6163 33.5226 68.0574C34.5622 68.7649 35.7724 68.9893 36.9564 68.7494C37.1561 69.9569 37.834 71.0135 38.8427 71.7052C39.8824 72.4126 41.0925 72.6371 42.2765 72.3972C42.476 73.6047 43.1539 74.6614 44.1628 75.3531C45.2032 76.0609 46.414 76.2853 47.5986 76.0446C47.7939 77.2036 48.4392 78.2853 49.4827 79.0009C51.4753 80.3735 54.2463 79.903 55.67 77.9088L56.2122 78.2806C58.1823 79.6877 61.1254 79.1336 62.4509 77.1173C62.8924 76.4733 63.1521 75.7423 63.2197 74.9854C65.0391 75.5092 67.0431 74.8418 68.1631 73.2129C68.6526 72.4988 68.9062 71.6921 68.9429 70.885C70.6472 71.206 72.4673 70.4481 73.4343 69.0057C74.0372 68.1264 74.3026 67.0852 74.1994 66.0366C75.6618 65.1211 77.352 64.6332 79.0774 64.6339H82.0231V66.0623C82.0231 67.6494 83.3143 68.9406 84.9014 68.9406H93.0239C94.611 68.9406 95.9022 67.6494 95.9022 66.0623V34.4737C95.9023 32.8866 94.6112 31.5954 93.024 31.5954ZM37.6793 65.4665C37.0673 66.3592 35.8429 66.5877 34.9502 65.9754C34.0574 65.3633 33.8292 64.139 34.4412 63.2463L36.3579 60.4511C36.9378 59.5691 38.2252 59.3267 39.0871 59.9423C39.9797 60.5544 40.2081 61.7787 39.5959 62.6713L37.6793 65.4665ZM42.9994 69.1144C42.3873 70.0072 41.163 70.2354 40.2703 69.6232C39.3877 69.0444 39.1467 67.752 39.7615 66.894L43.2317 61.833C43.8115 60.951 45.099 60.7086 45.9609 61.324C46.8536 61.9361 47.0819 63.1604 46.4696 64.0532L42.9994 69.1144ZM48.3195 72.7622C47.7074 73.6549 46.4833 73.8834 45.5903 73.2711C44.7078 72.6925 44.467 71.3998 45.0816 70.542L47.5729 66.9085C48.1225 66.0725 49.3071 65.8125 50.1633 66.3115L50.4393 66.5008C51.2074 67.1183 51.3921 68.3174 50.811 69.1287L48.3195 72.7622ZM50.9102 76.9189C50.0175 76.3068 49.7892 75.0825 50.4015 74.1898L52.8896 70.5613C53.4694 69.6793 54.7566 69.4369 55.6184 70.0522C56.5009 70.631 56.7421 71.9235 56.1275 72.7815L53.6394 76.4101C53.0273 77.3027 51.8032 77.5312 50.9102 76.9189ZM60.3689 75.6899C59.7902 76.5724 58.4977 76.8134 57.6397 76.1987L57.0994 75.8281L58.2095 74.2091C58.6007 73.6387 58.8491 72.9999 58.9479 72.3354L59.8599 72.9607C60.7428 73.5396 60.9837 74.8319 60.3689 75.6899ZM93.3779 66.0626C93.3779 66.2576 93.2192 66.4165 93.024 66.4165H84.9016C84.7066 66.4165 84.5477 66.2578 84.5477 66.0626V48.0525C84.5477 47.3554 83.9824 46.7902 83.2854 46.7902C82.5883 46.7902 82.0231 47.3552 82.0231 48.0525V62.1096H79.0774C78.7163 62.1096 78.3565 62.1267 77.9989 62.1598C78.3515 60.443 77.5968 58.5707 76.1319 57.5933L70.985 54.0641C71.2555 54.0755 71.5289 54.0832 71.8091 54.0832C72.5061 54.0832 73.0714 53.518 73.0714 52.8209C73.0714 52.1239 72.5061 51.5587 71.8091 51.5587C68.8873 51.5587 66.3575 50.8461 64.2441 49.4419L64.2083 49.4174C64.2045 49.4147 64.2001 49.4134 64.1962 49.411C63.1713 48.7228 62.2436 47.8731 61.4202 46.8572C59.4901 44.4759 58.8572 42.0373 58.8518 42.0164C58.7587 41.6404 58.4984 41.328 58.1453 41.1688C57.7923 41.0097 57.3856 41.0215 57.0423 41.2005L47.3592 46.2562C45.2794 47.342 42.7374 47.1149 40.8835 45.6767C40.623 45.4747 40.4757 45.1698 40.4794 44.8402C40.4829 44.5107 40.6371 44.209 40.902 44.0128L54.2789 34.1042C58.3748 31.0702 63.9696 30.9413 68.2006 33.7837L72.4957 36.6691C74.0614 37.7209 75.886 38.2769 77.7723 38.2769H82.0229V43.0035C82.0229 43.7006 82.5881 44.2658 83.2852 44.2658C83.9823 44.2658 84.5475 43.7007 84.5475 43.0035V34.4735C84.5475 34.2785 84.7062 34.1196 84.9014 34.1196H93.0239C93.2189 34.1196 93.3778 34.2784 93.3778 34.4735L93.3779 66.0626Z" fill="#242424"/>
<path d="M18.1028 62.31V60.2318C18.1028 59.5347 17.5378 58.9695 16.8405 58.9695C16.1433 58.9695 15.5782 59.5345 15.5782 60.2318V62.31C15.5782 63.0071 16.1433 63.5723 16.8405 63.5723C17.5378 63.5723 18.1028 63.0071 18.1028 62.31Z" fill="#242424"/>
<path d="M88.9614 58.9695C88.2643 58.9695 87.6991 59.5345 87.6991 60.2318V62.31C87.6991 63.0071 88.2643 63.5723 88.9614 63.5723C89.6585 63.5723 90.2237 63.0071 90.2237 62.31V60.2318C90.2237 59.5345 89.6586 58.9695 88.9614 58.9695Z" fill="#242424"/>
</mask>
<g mask="url(#mask0)">
<path d="M93.024 31.5954H84.9016C83.3144 31.5954 82.0233 32.8866 82.0233 34.4737V35.7525H77.7726C76.3896 35.7525 75.0517 35.3448 73.9036 34.5737L69.6085 31.6883C64.5359 28.2807 57.8433 28.4072 52.9027 31.9861C48.4065 28.7297 42.3648 28.3093 37.464 30.9266C36.8491 31.2549 36.6168 32.0197 36.9451 32.6346C37.2735 33.2496 38.0381 33.4817 38.6532 33.1535C42.4666 31.1169 47.116 31.3041 50.75 33.5771L39.3997 41.9848C38.4943 42.6555 37.9681 43.6861 37.9555 44.8129C37.943 45.9394 38.4464 46.9815 39.3367 47.672C41.9683 49.713 45.576 50.0359 48.5281 48.4946L56.9114 44.1175C57.3569 45.2175 58.1329 46.788 59.388 48.3587C60.2075 49.3845 61.3003 50.4868 62.7164 51.4483C62.7196 51.4507 74.7047 59.6757 74.7047 59.6757C75.5872 60.2544 75.8282 61.5469 75.2135 62.4049C74.6348 63.2876 73.342 63.5284 72.4843 62.9138L56.7829 52.1479C56.2081 51.7537 55.4224 51.9003 55.0282 52.4751C54.6339 53.0501 54.7804 53.8356 55.3554 54.2299L70.8431 64.8495C71.7259 65.4282 71.9671 66.7209 71.3524 67.579C70.7401 68.4718 69.5161 68.7 68.6232 68.0878L53.1351 57.468C52.5604 57.0737 51.7746 57.2204 51.3804 57.7952C50.9862 58.3701 51.1326 59.1557 51.7076 59.5499L65.5722 69.0566C66.4549 69.6353 66.6959 70.928 66.0813 71.786C65.5027 72.6685 64.21 72.9095 63.3522 72.2947C63.3522 72.2947 49.3812 62.7227 49.3263 62.6958C49.2509 61.3541 48.5798 60.0597 47.3883 59.2427C45.692 58.0795 43.4724 58.2452 41.9677 59.5059C41.6321 58.8522 41.1378 58.288 40.5146 57.8608C38.5536 56.4558 35.5987 57.0066 34.276 59.0242L32.3593 61.8194C32.0509 62.2497 31.8369 62.7277 31.7117 63.2259C30.157 62.4939 28.4565 62.1105 26.7271 62.1105H23.7814V38.2769H28.0321C29.9183 38.2769 31.743 37.7209 33.3086 36.6691L34.5298 35.8487C35.1084 35.46 35.2624 34.6758 34.8736 34.0971C34.4849 33.5183 33.7007 33.3644 33.122 33.7531L31.9009 34.5735C30.7528 35.3448 29.4151 35.7523 28.0319 35.7523H23.7814V34.4735C23.7814 32.8864 22.4903 31.5952 20.9031 31.5952H12.7807C11.1935 31.5954 9.90234 32.8866 9.90234 34.4737V50.4586C9.90234 51.1557 10.4676 51.7209 11.1646 51.7209C11.8617 51.7209 12.4269 51.1557 12.4269 50.4586V34.4737C12.4269 34.2787 12.5856 34.1198 12.7808 34.1198H20.9033C21.0983 34.1198 21.2572 34.2785 21.2572 34.4737V66.0626C21.2572 66.2576 21.0985 66.4165 20.9033 66.4165H12.7807C12.5856 66.4165 12.4267 66.2578 12.4267 66.0626V55.5074C12.4267 54.8104 11.8615 54.2451 11.1645 54.2451C10.4674 54.2451 9.90234 54.8104 9.90234 55.5074V66.0626C9.90234 67.6497 11.1935 68.9409 12.7807 68.9409H20.9031C22.4903 68.9409 23.7814 67.6497 23.7814 66.0626V64.6342H26.7271C28.4187 64.6342 30.0756 65.101 31.5186 65.9838L32.0126 66.2862C32.3411 66.993 32.8497 67.6163 33.5226 68.0574C34.5622 68.7649 35.7724 68.9893 36.9564 68.7494C37.1561 69.9569 37.834 71.0135 38.8427 71.7052C39.8824 72.4126 41.0925 72.6371 42.2765 72.3972C42.476 73.6047 43.1539 74.6614 44.1628 75.3531C45.2032 76.0609 46.414 76.2853 47.5986 76.0446C47.7939 77.2036 48.4392 78.2853 49.4827 79.0009C51.4753 80.3735 54.2463 79.903 55.67 77.9088L56.2122 78.2806C58.1823 79.6877 61.1254 79.1336 62.4509 77.1173C62.8924 76.4733 63.1521 75.7423 63.2197 74.9854C65.0391 75.5092 67.0431 74.8418 68.1631 73.2129C68.6526 72.4988 68.9062 71.6921 68.9429 70.885C70.6472 71.206 72.4673 70.4481 73.4343 69.0057C74.0372 68.1264 74.3026 67.0852 74.1994 66.0366C75.6618 65.1211 77.352 64.6332 79.0774 64.6339H82.0231V66.0623C82.0231 67.6494 83.3143 68.9406 84.9014 68.9406H93.0239C94.611 68.9406 95.9022 67.6494 95.9022 66.0623V34.4737C95.9023 32.8866 94.6112 31.5954 93.024 31.5954ZM37.6793 65.4665C37.0673 66.3592 35.8429 66.5877 34.9502 65.9754C34.0574 65.3633 33.8292 64.139 34.4412 63.2463L36.3579 60.4511C36.9378 59.5691 38.2252 59.3267 39.0871 59.9423C39.9797 60.5544 40.2081 61.7787 39.5959 62.6713L37.6793 65.4665ZM42.9994 69.1144C42.3873 70.0072 41.163 70.2354 40.2703 69.6232C39.3877 69.0444 39.1467 67.752 39.7615 66.894L43.2317 61.833C43.8115 60.951 45.099 60.7086 45.9609 61.324C46.8536 61.9361 47.0819 63.1604 46.4696 64.0532L42.9994 69.1144ZM48.3195 72.7622C47.7074 73.6549 46.4833 73.8834 45.5903 73.2711C44.7078 72.6925 44.467 71.3998 45.0816 70.542L47.5729 66.9085C48.1225 66.0725 49.3071 65.8125 50.1633 66.3115L50.4393 66.5008C51.2074 67.1183 51.3921 68.3174 50.811 69.1287L48.3195 72.7622ZM50.9102 76.9189C50.0175 76.3068 49.7892 75.0825 50.4015 74.1898L52.8896 70.5613C53.4694 69.6793 54.7566 69.4369 55.6184 70.0522C56.5009 70.631 56.7421 71.9235 56.1275 72.7815L53.6394 76.4101C53.0273 77.3027 51.8032 77.5312 50.9102 76.9189ZM60.3689 75.6899C59.7902 76.5724 58.4977 76.8134 57.6397 76.1987L57.0994 75.8281L58.2095 74.2091C58.6007 73.6387 58.8491 72.9999 58.9479 72.3354L59.8599 72.9607C60.7428 73.5396 60.9837 74.8319 60.3689 75.6899ZM93.3779 66.0626C93.3779 66.2576 93.2192 66.4165 93.024 66.4165H84.9016C84.7066 66.4165 84.5477 66.2578 84.5477 66.0626V48.0525C84.5477 47.3554 83.9824 46.7902 83.2854 46.7902C82.5883 46.7902 82.0231 47.3552 82.0231 48.0525V62.1096H79.0774C78.7163 62.1096 78.3565 62.1267 77.9989 62.1598C78.3515 60.443 77.5968 58.5707 76.1319 57.5933L70.985 54.0641C71.2555 54.0755 71.5289 54.0832 71.8091 54.0832C72.5061 54.0832 73.0714 53.518 73.0714 52.8209C73.0714 52.1239 72.5061 51.5587 71.8091 51.5587C68.8873 51.5587 66.3575 50.8461 64.2441 49.4419L64.2083 49.4174C64.2045 49.4147 64.2001 49.4134 64.1962 49.411C63.1713 48.7228 62.2436 47.8731 61.4202 46.8572C59.4901 44.4759 58.8572 42.0373 58.8518 42.0164C58.7587 41.6404 58.4984 41.328 58.1453 41.1688C57.7923 41.0097 57.3856 41.0215 57.0423 41.2005L47.3592 46.2562C45.2794 47.342 42.7374 47.1149 40.8835 45.6767C40.623 45.4747 40.4757 45.1698 40.4794 44.8402C40.4829 44.5107 40.6371 44.209 40.902 44.0128L54.2789 34.1042C58.3748 31.0702 63.9696 30.9413 68.2006 33.7837L72.4957 36.6691C74.0614 37.7209 75.886 38.2769 77.7723 38.2769H82.0229V43.0035C82.0229 43.7006 82.5881 44.2658 83.2852 44.2658C83.9823 44.2658 84.5475 43.7007 84.5475 43.0035V34.4735C84.5475 34.2785 84.7062 34.1196 84.9014 34.1196H93.0239C93.2189 34.1196 93.3778 34.2784 93.3778 34.4735L93.3779 66.0626Z" fill="#242424"/>
<path d="M18.1028 62.31V60.2318C18.1028 59.5347 17.5378 58.9695 16.8405 58.9695C16.1433 58.9695 15.5782 59.5345 15.5782 60.2318V62.31C15.5782 63.0071 16.1433 63.5723 16.8405 63.5723C17.5378 63.5723 18.1028 63.0071 18.1028 62.31Z" fill="#242424"/>
<path d="M88.9614 58.9695C88.2643 58.9695 87.6991 59.5345 87.6991 60.2318V62.31C87.6991 63.0071 88.2643 63.5723 88.9614 63.5723C89.6585 63.5723 90.2237 63.0071 90.2237 62.31V60.2318C90.2237 59.5345 89.6586 58.9695 88.9614 58.9695Z" fill="#242424"/>
<rect x="81.9336" y="21.9062" width="20.7972" height="49.3092" fill="#46A408"/>
<rect x="2.94531" y="21.9062" width="20.7972" height="49.3092" fill="#46A408"/>
</g>
</svg>
