<svg width="67" height="58" viewBox="0 0 67 58" fill="none" xmlns="http://www.w3.org/2000/svg">
<path d="M63.8199 24.3561H55.7715V22.3421H56.7775C57.3331 22.3421 57.7836 21.8913 57.7836 21.3352V13.2794C57.7836 12.7233 57.3331 12.2724 56.7775 12.2724H55.7715V8.24452C55.7715 7.68842 55.321 7.23755 54.7654 7.23755H51.7473V9.25149H53.7594V12.2724H52.7533C52.1978 12.2724 51.7473 12.7233 51.7473 13.2794V21.3352C51.7473 21.8913 52.1978 22.3421 52.7533 22.3421H53.7594V24.3561H33.4291L30.2922 11.0348C30.1852 10.5797 29.7794 10.2582 29.3123 10.2585H10.4992C9.94357 10.2585 9.49311 10.7093 9.49311 11.2654V29.55C7.61217 30.6335 5.96967 32.0865 4.66406 33.8216L6.27375 35.03C7.17617 33.8324 8.26284 32.7859 9.49311 31.9295V34.5074C4.53214 38.957 4.11425 46.5895 8.55987 51.555C13.0055 56.5205 20.631 56.9388 25.592 52.4891C27.8874 50.4302 29.3083 47.5699 29.5628 44.4955H40.73C40.1751 50.0291 44.2069 54.9651 49.7354 55.5206C55.2639 56.0761 60.1955 52.0405 60.7505 46.5069C60.8175 45.8382 60.8175 45.1643 60.7505 44.4955H63.8199C64.3755 44.4955 64.826 44.0446 64.826 43.4885V25.363C64.826 24.8069 64.3755 24.3561 63.8199 24.3561ZM11.5052 12.2724H28.5155L28.9894 14.2864H11.5052V12.2724ZM26.1392 46.3383L27.4008 45.5025C27.0368 47.2607 26.2085 48.8891 25.0024 50.2181L22.0094 49.619L21.615 51.5937L23.0768 51.8857C21.5832 52.8734 19.8517 53.4411 18.0637 53.5291L16.3685 50.9824L14.6944 52.1002L15.5294 53.3569C13.7729 52.9931 12.1459 52.1644 10.8181 50.9573L11.4167 47.9595L9.44382 47.5648L9.14804 49.0269C8.1621 47.5319 7.59545 45.7993 7.50717 44.0102L10.0505 42.3124L8.93475 40.6368L7.68222 41.4746C8.04553 39.715 8.87426 38.0855 10.0817 36.7559L13.0757 37.3551L13.471 35.3804L12.0082 35.0874C13.5019 34.1005 15.2329 33.5334 17.0204 33.445L18.7166 35.9916L20.3907 34.8739L19.5536 33.6202C21.3101 33.9842 22.937 34.8129 24.265 36.0198L23.6613 39.0176L25.6342 39.4123L25.926 37.9482C26.9121 39.4432 27.4792 41.1757 27.5678 42.9649L25.0235 44.6627L26.1392 46.3383ZM29.5628 42.4816C29.0238 35.8465 23.2131 30.905 16.5841 31.4445C14.7935 31.5903 13.0582 32.1351 11.5052 33.0392V30.7524C18.5246 27.4163 26.9168 30.4072 30.2498 37.433C31.002 39.0185 31.4515 40.7308 31.5749 42.4816H29.5628ZM16.5355 27.377V22.3421C16.5355 21.786 16.9859 21.3352 17.5415 21.3352C18.0971 21.3352 18.5476 21.786 18.5476 22.3421V27.377H16.5355ZM31.6263 28.9741L28.0186 25.363L29.3194 24.061L27.8968 22.6372L23.8726 26.6651L25.2952 28.0889L26.596 26.7869L31.6263 31.8218V35.7057C29.3091 31.5184 25.2558 28.5757 20.5597 27.671V22.3421C20.5597 20.6737 19.2084 19.3212 17.5415 19.3212C15.8746 19.3212 14.5234 20.6737 14.5234 22.3421V27.6791C13.4907 27.8731 12.4797 28.1688 11.5052 28.5622V16.3003H29.4642L31.6263 25.4799V28.9741ZM53.7594 14.2864H55.7715V20.3282H53.7594V14.2864ZM57.1015 47.4621L58.6589 46.9425C58.4091 48.3155 57.8061 49.5996 56.9093 50.6683L54.7473 49.5868L53.8479 51.3882L55.3158 52.1223C54.1721 52.9177 52.8407 53.4002 51.4535 53.522L50.6889 51.2261L48.7774 51.8625L49.2965 53.4213C47.9252 53.1737 46.6421 52.5723 45.5742 51.6762L46.6547 49.5123L44.8548 48.612L44.1214 50.0812C43.3266 48.9366 42.8445 47.604 42.723 46.2154L45.0168 45.4501L44.38 43.5369L42.8226 44.0565C43.071 42.684 43.6722 41.3998 44.5671 40.3307L46.7281 41.4122L47.6335 39.6107L46.1657 38.8766C47.309 38.0812 48.64 37.5988 50.0269 37.4769L50.7925 39.7728L52.704 39.1364L52.1849 37.5776C53.5563 37.8251 54.8395 38.4266 55.9073 39.3227L54.8268 41.4867L56.6277 42.3869L57.3611 40.9178C58.1557 42.0624 58.6377 43.395 58.7595 44.7835L56.4647 45.5488L57.1015 47.4621ZM62.8139 28.384H59.7957V30.3979H62.8139V32.4119H59.7957V34.4258H62.8139V36.4397H59.7957V38.4537H62.8139V42.4816H60.338C58.6704 37.1766 53.022 34.2292 47.7218 35.8982C44.5866 36.8856 42.1309 39.3435 41.1445 42.4816H33.6384V30.3979H48.7291V28.384H33.6384V26.37H62.8139V28.384Z" fill="white"/>
<path d="M17.5449 37.4468C14.2124 37.4501 11.5118 40.1531 11.5085 43.4886C11.5085 46.8255 14.2111 49.5304 17.5449 49.5304C20.8787 49.5304 23.5812 46.8255 23.5812 43.4886C23.5812 40.1518 20.8787 37.4468 17.5449 37.4468ZM17.5449 47.5165C15.3224 47.5165 13.5206 45.7131 13.5206 43.4886C13.5206 41.2641 15.3224 39.4607 17.5449 39.4607C19.7674 39.4607 21.5691 41.2641 21.5691 43.4886C21.5691 45.7131 19.7674 47.5165 17.5449 47.5165Z" fill="white"/>
<path d="M50.746 41.4749C48.5235 41.4749 46.7218 43.2782 46.7218 45.5027C46.7218 47.7273 48.5235 49.5306 50.746 49.5306C52.9685 49.5306 54.7702 47.7273 54.7702 45.5027C54.7702 43.2782 52.9685 41.4749 50.746 41.4749ZM50.746 47.5167C49.6347 47.5167 48.7339 46.6151 48.7339 45.5027C48.7339 44.3904 49.6347 43.4888 50.746 43.4888C51.8573 43.4888 52.7581 44.3904 52.7581 45.5027C52.7581 46.6151 51.8573 47.5167 50.746 47.5167Z" fill="white"/>
<path d="M56.781 28.3843H54.7689C53.102 28.3843 51.7507 29.7368 51.7507 31.4052C51.7507 33.0736 53.102 34.4261 54.7689 34.4261H56.781C57.3366 34.4261 57.787 33.9752 57.787 33.4191V29.3912C57.787 28.8351 57.3366 28.3843 56.781 28.3843ZM55.7749 32.4122H54.7689C54.2133 32.4122 53.7628 31.9613 53.7628 31.4052C53.7628 30.8491 54.2133 30.3982 54.7689 30.3982H55.7749V32.4122Z" fill="white"/>
<mask id="mask0" mask-type="alpha" maskUnits="userSpaceOnUse" x="4" y="7" width="61" height="49">
<path d="M63.82 24.3561H55.7716V22.3421H56.7777C57.3333 22.3421 57.7837 21.8913 57.7837 21.3352V13.2794C57.7837 12.7233 57.3333 12.2724 56.7777 12.2724H55.7716V8.24452C55.7716 7.68842 55.3212 7.23755 54.7656 7.23755H51.7474V9.25149H53.7595V12.2724H52.7535C52.1979 12.2724 51.7474 12.7233 51.7474 13.2794V21.3352C51.7474 21.8913 52.1979 22.3421 52.7535 22.3421H53.7595V24.3561H33.4292L30.2924 11.0348C30.1853 10.5797 29.7795 10.2582 29.3125 10.2585H10.4993C9.94369 10.2585 9.49323 10.7093 9.49323 11.2654V29.55C7.61229 30.6335 5.96979 32.0865 4.66418 33.8216L6.27387 35.03C7.1763 33.8324 8.26296 32.7859 9.49323 31.9295V34.5074C4.53227 38.9571 4.11438 46.5895 8.55999 51.555C13.0056 56.5205 20.6311 56.9388 25.5921 52.4891C27.8875 50.4302 29.3084 47.5699 29.563 44.4955H40.7301C40.1752 50.0291 44.2071 54.9651 49.7356 55.5206C55.2641 56.0761 60.1956 52.0405 60.7506 46.507C60.8176 45.8382 60.8176 45.1643 60.7506 44.4955H63.82C64.3756 44.4955 64.8261 44.0447 64.8261 43.4886V25.3631C64.8261 24.8069 64.3756 24.3561 63.82 24.3561ZM11.5053 12.2724H28.5157L28.9895 14.2864H11.5053V12.2724ZM26.1394 46.3383L27.401 45.5025C27.0369 47.2607 26.2087 48.8891 25.0025 50.2181L22.0095 49.619L21.6152 51.5937L23.0769 51.8857C21.5833 52.8734 19.8518 53.4411 18.0638 53.5291L16.3686 50.9824L14.6945 52.1002L15.5295 53.3569C13.773 52.9931 12.1461 52.1644 10.8182 50.9573L11.4168 47.9595L9.44394 47.5648L9.14816 49.0269C8.16223 47.5319 7.59557 45.7993 7.50729 44.0102L10.0506 42.3124L8.93488 40.6368L7.68234 41.4746C8.04565 39.715 8.87439 38.0855 10.0818 36.7559L13.0758 37.3551L13.4712 35.3804L12.0084 35.0874C13.502 34.1005 15.233 33.5334 17.0205 33.445L18.7167 35.9916L20.3908 34.8739L19.5538 33.6202C21.3102 33.9842 22.9371 34.8129 24.2651 36.0198L23.6615 39.0176L25.6343 39.4123L25.9261 37.9482C26.9123 39.4432 27.4793 41.1757 27.568 42.9649L25.0237 44.6627L26.1394 46.3383ZM29.563 42.4816C29.024 35.8465 23.2133 30.905 16.5843 31.4445C14.7936 31.5903 13.0583 32.1351 11.5053 33.0392V30.7524C18.5247 27.4163 26.9169 30.4072 30.25 37.433C31.0021 39.0185 31.4516 40.7308 31.5751 42.4816H29.563ZM16.5356 27.377V22.3421C16.5356 21.786 16.9861 21.3352 17.5416 21.3352C18.0972 21.3352 18.5477 21.786 18.5477 22.3421V27.377H16.5356ZM31.6264 28.9741L28.0187 25.3631L29.3195 24.061L27.8969 22.6372L23.8727 26.6651L25.2953 28.0889L26.5961 26.7869L31.6264 31.8218V35.7057C29.3092 31.5184 25.2559 28.5757 20.5598 27.671V22.3421C20.5598 20.6737 19.2086 19.3212 17.5416 19.3212C15.8747 19.3212 14.5235 20.6737 14.5235 22.3421V27.6791C13.4908 27.8731 12.4798 28.1689 11.5053 28.5622V16.3003H29.4644L31.6264 25.4799V28.9741ZM53.7595 14.2864H55.7716V20.3282H53.7595V14.2864ZM57.1016 47.4621L58.659 46.9425C58.4092 48.3155 57.8062 49.5996 56.9095 50.6683L54.7475 49.5868L53.8481 51.3882L55.3159 52.1223C54.1723 52.9177 52.8409 53.4002 51.4536 53.522L50.6891 51.2261L48.7775 51.8625L49.2967 53.4213C47.9253 53.1737 46.6422 52.5723 45.5743 51.6762L46.6548 49.5123L44.855 48.612L44.1215 50.0812C43.3268 48.9366 42.8446 47.604 42.7231 46.2154L45.0169 45.4501L44.3801 43.5369L42.8227 44.0565C43.0711 42.684 43.6723 41.3998 44.5672 40.3307L46.7282 41.4122L47.6337 39.6107L46.1658 38.8766C47.3091 38.0812 48.6401 37.5988 50.0271 37.4769L50.7927 39.7728L52.7042 39.1364L52.1851 37.5776C53.5564 37.8251 54.8396 38.4266 55.9074 39.3227L54.8269 41.4867L56.6278 42.3869L57.3612 40.9178C58.1558 42.0624 58.6379 43.395 58.7596 44.7835L56.4648 45.5488L57.1016 47.4621ZM62.814 28.384H59.7958V30.3979H62.814V32.4119H59.7958V34.4258H62.814V36.4397H59.7958V38.4537H62.814V42.4816H60.3381C58.6706 37.1766 53.0221 34.2292 47.722 35.8982C44.5867 36.8856 42.1311 39.3435 41.1446 42.4816H33.6385V30.3979H48.7293V28.384H33.6385V26.37H62.814V28.384Z" fill="black"/>
<path d="M17.545 37.4468C14.2126 37.4501 11.5119 40.1531 11.5087 43.4886C11.5087 46.8255 14.2112 49.5304 17.545 49.5304C20.8788 49.5304 23.5813 46.8255 23.5813 43.4886C23.5813 40.1518 20.8788 37.4468 17.545 37.4468ZM17.545 47.5165C15.3225 47.5165 13.5208 45.7131 13.5208 43.4886C13.5208 41.2641 15.3225 39.4607 17.545 39.4607C19.7675 39.4607 21.5692 41.2641 21.5692 43.4886C21.5692 45.7131 19.7675 47.5165 17.545 47.5165Z" fill="black"/>
<path d="M50.7461 41.4749C48.5236 41.4749 46.7219 43.2782 46.7219 45.5027C46.7219 47.7273 48.5236 49.5306 50.7461 49.5306C52.9686 49.5306 54.7703 47.7273 54.7703 45.5027C54.7703 43.2782 52.9686 41.4749 50.7461 41.4749ZM50.7461 47.5167C49.6348 47.5167 48.734 46.6151 48.734 45.5027C48.734 44.3904 49.6348 43.4888 50.7461 43.4888C51.8574 43.4888 52.7582 44.3904 52.7582 45.5027C52.7582 46.6151 51.8574 47.5167 50.7461 47.5167Z" fill="black"/>
<path d="M56.7811 28.3843H54.769C53.1021 28.3843 51.7509 29.7368 51.7509 31.4052C51.7509 33.0736 53.1021 34.4261 54.769 34.4261H56.7811C57.3367 34.4261 57.7872 33.9752 57.7872 33.4191V29.3912C57.7872 28.8351 57.3367 28.3843 56.7811 28.3843ZM55.7751 32.4122H54.769C54.2134 32.4122 53.763 31.9613 53.763 31.4052C53.763 30.8491 54.2134 30.3982 54.769 30.3982H55.7751V32.4122Z" fill="black"/>
</mask>
<g mask="url(#mask0)">
<rect x="51.2653" y="12.2588" width="7.56935" height="10.0935" fill="white"/>
<rect x="3.4397" y="3.71875" width="31.9356" height="12.7102" fill="white"/>
</g>
</svg>
