<svg width="67" height="67" viewBox="0 0 67 67" fill="none" xmlns="http://www.w3.org/2000/svg">
<path d="M44.1166 36.1687L42.7553 34.8062L34.7897 42.778C34.2169 42.4389 33.5575 42.2317 32.846 42.2317C30.7222 42.2317 28.9951 43.9604 28.9951 46.0861C28.9951 48.2118 30.7222 49.9405 32.846 49.9405C34.9698 49.9405 36.6969 48.2118 36.6969 46.0861C36.6969 45.373 36.489 44.7139 36.151 44.1406L44.1166 36.1687ZM32.846 48.0133C31.7841 48.0133 30.9206 47.149 30.9206 46.0861C30.9206 45.0232 31.7841 44.1589 32.846 44.1589C33.9079 44.1589 34.7715 45.0232 34.7715 46.0861C34.7715 47.149 33.9079 48.0133 32.846 48.0133Z" fill="white"/>
<path d="M42.4736 53.7949H23.2191V55.7221H42.4736V53.7949Z" fill="white"/>
<path d="M38.6237 57.6492H27.071V59.5764H38.6237V57.6492Z" fill="white"/>
<path d="M32.8473 21.9958C19.5761 21.9958 8.77917 32.8027 8.77917 46.0859C8.77917 52.5353 11.2938 58.5954 15.859 63.1494L16.1411 63.4308H49.5524L49.8345 63.1494C54.4007 58.5954 56.9153 52.5353 56.9153 46.0859C56.9153 32.8027 46.1184 21.9958 32.8473 21.9958ZM48.7524 61.5036H16.9421C12.917 57.3476 10.7046 51.8878 10.7046 46.0859C10.7046 33.8646 20.638 23.9231 32.8473 23.9231C45.0565 23.9231 54.9899 33.8646 54.9899 46.0859C54.9899 51.8878 52.7775 57.3476 48.7524 61.5036Z" fill="white"/>
<path d="M16.4806 24.8867H14.5552V26.8139H16.4806V24.8867Z" fill="white"/>
<path d="M51.1383 24.8867H49.2129V26.8139H51.1383V24.8867Z" fill="white"/>
<path d="M32.8468 3.01294L23.2543 16.2143H28.0332V20.0687H29.9587V14.2871H27.0358L32.8468 6.28919L38.6578 14.2871H35.735V20.0687H37.6605V16.2143H42.4394L32.8468 3.01294Z" fill="white"/>
<path d="M54.0267 6.86743L44.4341 20.0688H49.213V22.9596H51.1385V18.1416H48.2157L54.0267 10.1437L59.8377 18.1416H56.9148V33.5593H58.8403V20.0688H63.6192L54.0267 6.86743Z" fill="white"/>
<path d="M11.6668 6.86743L2.07422 20.0688H6.85318V33.5593H8.77862V18.1416H5.8558L11.6668 10.1437L17.4778 18.1416H14.555V22.9596H16.4804V20.0688H21.2594L11.6668 6.86743Z" fill="white"/>
<path d="M8.77872 35.4866H6.85327V37.4138H8.77872V35.4866Z" fill="white"/>
<path d="M58.8404 35.4866H56.9149V37.4138H58.8404V35.4866Z" fill="white"/>
<path d="M42.4744 57.6492H40.549V59.5764H42.4744V57.6492Z" fill="white"/>
<path d="M25.1446 57.6492H23.2191V59.5764H25.1446V57.6492Z" fill="white"/>
<path d="M32.8465 25.8503C21.6981 25.8503 12.6293 34.9285 12.6293 46.086C12.6293 50.4878 14.0368 54.6881 16.7006 58.2294L18.2391 57.0701C15.8284 53.8652 14.5547 50.0676 14.5547 46.086C14.5547 35.9903 22.76 27.7775 32.8465 27.7775C42.9329 27.7775 51.1382 35.9903 51.1382 46.086C51.1382 50.0676 49.8645 53.8652 47.4548 57.0692L48.9932 58.2284C51.6561 54.6881 53.0636 50.4878 53.0636 46.086C53.0636 34.9285 43.9948 25.8503 32.8465 25.8503Z" fill="white"/>
</svg>
