<svg width="180" height="52" viewBox="0 0 180 52" fill="none" xmlns="http://www.w3.org/2000/svg">
<path fill-rule="evenodd" clip-rule="evenodd" d="M15.0264 37.362C14.7707 37.3271 14.6392 37.1476 14.4057 37.165C14.4202 37.0453 14.5684 37.0044 14.7281 37.0422C14.9126 37.1004 14.9945 37.2315 15.0264 37.362ZM60.9415 38.1731C61.0865 38.1586 61.2311 38.1428 61.3753 38.1263C61.8943 38.5161 62.5553 39.0505 62.7808 39.1151C62.8742 39.2131 63.0187 39.2979 63.186 39.3373C63.3584 39.4246 63.5286 39.5155 63.6979 39.5921C63.7018 39.593 63.7018 39.593 63.7018 39.593L63.6979 39.5921C63.7532 39.7061 63.835 39.8141 63.9335 39.9182C63.9256 39.9211 63.9185 39.9237 63.9126 39.9243C63.875 40.177 63.9621 40.3427 64.3982 40.2955C64.5968 40.3416 64.7335 40.3662 64.8183 40.3588C65.037 40.4956 65.279 40.7414 65.1968 40.7729C64.6326 41.0161 64.8987 41.1163 65.3083 41.2005C65.3842 41.2186 65.422 41.2896 65.4858 41.3197C65.5003 41.3184 65.5477 41.3142 65.5759 41.3007C65.6775 41.2042 65.4482 41.1143 65.6191 41.0044C65.6814 41.2038 65.8576 41.1529 66.1175 41.1199C66.2972 41.0989 66.3468 41.0582 66.3501 41.0113C66.4062 41.0622 66.4724 41.1101 66.5591 41.153C66.7617 41.302 66.9242 41.4883 67.2689 41.519L67.2764 41.5209C67.4219 41.5904 67.5515 41.509 67.7042 41.5454C67.8206 41.618 67.9494 41.6837 68.0999 41.7382C68.1978 41.77 68.283 41.8888 68.438 41.8499C68.3403 42.1722 68.4286 42.5276 68.4028 42.8562C68.4426 42.8656 68.4656 42.8497 68.4962 42.8568C68.5014 42.8581 68.5014 42.8581 68.5014 42.8581C68.4656 42.8497 68.4299 42.8625 68.4028 42.8562C68.3287 42.9903 68.405 43.146 68.585 43.2751C68.7699 43.344 68.9459 43.4329 69.152 43.4343C69.2268 43.452 69.2971 43.4938 69.3718 43.5335C69.5083 43.7893 69.8438 43.7967 70.1415 43.8417C70.1813 43.8512 70.2214 43.8606 70.2499 43.878C70.2002 44.1046 70.4298 44.4443 69.826 44.4638C69.754 44.4468 69.6869 44.5181 69.6117 44.4385C69.3123 44.1189 69.3777 44.481 69.1747 44.4076C69.3642 44.5789 69.6214 44.5134 69.7668 44.6741C69.5712 44.7256 69.3472 44.6507 69.1505 44.6261C69.1308 44.9103 69.2193 45.1914 69.5266 45.5129C69.0101 45.243 68.749 45.2785 68.6107 45.5818C68.5432 45.7288 68.3259 45.6773 68.1191 45.6033C67.998 45.5634 67.8624 45.5061 67.7862 45.5859C67.736 45.6604 67.728 45.7345 67.8274 45.8085C68.052 45.9845 68.3049 46.1454 68.5574 46.3023C68.7068 46.3881 68.8735 46.3557 68.9365 46.2442C68.9353 46.2327 68.9132 46.2274 68.9048 46.2002C68.9114 46.2129 68.9165 46.2141 68.9205 46.2151C68.9205 46.2151 68.9165 46.2141 68.9189 46.2034C68.9343 46.2183 68.9441 46.2348 68.9598 46.2497C69.1127 46.3724 69.2813 46.4122 69.466 46.3441C69.7808 46.2195 70.0848 46.342 70.2948 46.54C70.4156 46.6443 70.4953 46.663 70.6337 46.6706C70.841 46.6437 70.7247 46.5438 70.6692 46.4799C70.5563 46.3017 70.7135 46.2921 70.9147 46.3144C71.2148 46.3096 71.5287 46.3332 71.662 46.1656C71.7156 46.3521 71.903 46.548 71.8403 46.7567C71.8061 46.8605 71.9676 47.1082 72.4351 47.1322C72.7317 47.1411 73.0817 47.3861 73.4216 47.2929L73.4214 47.2535C73.0956 47.1259 72.7503 47.0224 72.4833 46.8476C72.7232 47.063 72.994 47.2389 73.4214 47.2535C73.496 47.2598 73.5648 47.262 73.6462 47.2561C74.1537 47.3287 74.6975 47.4427 75.0821 47.2234C75.0828 47.1984 75.0794 47.1722 75.0762 47.1462C75.1828 47.0736 75.4048 47.0249 75.42 46.8801C75.6152 46.8251 75.5962 46.6871 75.6336 46.5694C75.7369 46.4315 75.6354 46.2851 75.5166 46.1558C75.5307 45.7979 75.1599 45.526 74.7551 45.2786C74.7611 45.1317 74.5421 44.9321 74.9358 44.8875C75.1232 44.8707 75.0894 44.7723 74.8629 44.7187C74.595 44.6447 74.7872 44.5671 74.7567 44.4953C74.8532 44.5068 75.0711 44.533 75.0304 44.4876C74.6498 44.1593 74.909 43.9712 75.0709 43.724C75.1565 43.5964 75.4228 43.4824 75.0309 43.2775C74.9521 43.2375 74.9936 43.0955 75.0079 43.0012C75.1098 43.1624 75.1928 43.3051 75.4292 43.3969C75.8561 43.6495 76.3023 43.8779 76.7966 44.143C76.7504 43.9079 76.408 43.827 76.3028 43.6792C76.4125 43.6293 76.6382 43.6466 76.4148 43.482C76.3423 43.4143 76.2674 43.3347 76.1923 43.2559C76.0768 43.1527 75.9713 43.0413 75.8672 42.9301C75.683 42.836 75.6256 42.6236 75.3277 42.5785C75.286 42.5541 75.2486 42.5344 75.2093 42.5C75.2149 42.4759 75.2531 42.4345 75.2338 42.4192C75.1658 42.3666 75.1103 42.39 75.0699 42.4164C74.9129 42.5058 75.0317 42.6821 74.9611 42.8026C74.674 42.5104 74.6779 42.5114 74.46 42.7202C74.423 42.7619 74.3073 42.7346 74.2245 42.751C74.0854 42.6209 74.0199 42.443 73.783 42.3366C73.7766 42.3238 73.7758 42.3094 73.7716 42.2865C73.8955 42.24 74.0134 42.2173 74.1361 42.1704C74.0488 42.1027 73.9081 42.1059 73.8697 42.0097C73.9501 41.9278 74.0946 42.0123 74.2058 42.0133C74.371 42.0271 74.5733 42.1255 74.7064 42.0345C74.7667 41.9981 74.691 41.9437 74.6312 41.9157C74.461 41.8248 74.2959 41.7134 74.1054 41.8054C73.8795 41.911 73.7731 41.6874 73.5866 41.6435C73.2585 41.6053 72.9331 41.5395 72.6066 41.4731C72.4598 41.4384 72.2822 41.3964 72.32 41.2823C72.3488 41.1772 72.5132 41.2922 72.6258 41.2933C72.7404 41.3204 72.8467 41.3309 72.9487 41.3298C73.0051 41.3324 73.0964 41.3034 73.0065 41.2463C72.9581 41.2094 72.8649 41.2129 72.798 41.1969C72.6997 41.1592 72.4325 41.1971 72.6018 41.0388C72.6676 40.9784 72.6125 40.8896 72.5017 40.8635C72.4618 40.8541 72.1455 40.7322 72.2767 40.9474C72.3168 40.9968 72.1999 41.0305 72.1497 41.0079C72.124 40.9967 72.0992 40.987 72.0752 40.9783C72.0565 40.9617 72.0305 40.9414 71.9984 40.9164C72.0486 40.9023 72.0453 40.8542 72.0751 40.8324C72.1048 40.8052 72.1006 40.756 72.028 40.7623C71.9643 40.7925 71.9097 40.822 71.8714 40.8396C71.8384 40.9024 71.884 40.923 71.9381 40.9183C71.9592 40.9208 71.9758 40.9205 71.9893 40.9183C71.9793 40.9274 71.9679 40.9358 71.9556 40.9437C71.6979 40.8891 71.5435 40.9919 71.3734 41.0839C71.2562 41.1432 71.2367 41.1276 71.0665 40.8997C70.8233 40.8926 70.8854 41.2288 70.7115 41.0904C70.5517 40.9661 70.3833 41.0159 70.2495 41.0017C70.3073 40.9309 70.3732 40.8624 70.4386 40.7939C70.5304 40.79 70.5969 40.768 70.6174 40.7177C70.6146 40.6816 70.5947 40.664 70.5669 40.6554C70.6644 40.5438 70.746 40.4281 70.7758 40.2992C70.5678 40.4406 70.4213 40.588 70.138 40.6722C70.1019 40.626 70.0123 40.6151 69.9238 40.6065C69.9099 40.5854 69.8946 40.5638 69.8776 40.5428C69.8707 40.5623 69.8633 40.5813 69.8554 40.5999C69.7568 40.5889 69.68 40.5698 69.7146 40.49C69.7943 40.3244 70.0972 40.4465 70.286 40.4053C70.3401 40.4006 70.3823 40.3828 70.4314 40.368C70.3602 40.2507 70.2111 40.2779 70.0686 40.3007C69.898 40.3401 69.8175 40.2979 69.7816 40.2059C69.7553 40.1342 69.767 40.0376 69.8848 40.0027C70.0981 39.9842 70.333 39.8898 70.5363 40.0171C70.7104 40.1254 70.903 40.2178 71.1618 40.2799C71.2419 40.1815 71.0771 40.079 71.1134 39.9972L71.1781 40.0304C71.238 40.0699 71.3215 40.1363 71.3791 40.0887C71.4345 40.0304 71.3905 39.9664 71.3217 39.9023C71.7619 39.7997 72.2299 39.6386 72.6831 39.806C73.1109 39.9664 73.5425 39.89 74.0047 39.8006C74.1579 39.7767 74.3387 39.8105 74.5009 39.7822C74.9527 39.6969 75.4172 39.6181 75.7893 39.2715C75.1463 39.3732 74.6092 39.7624 74.1125 39.3922C74.3097 39.3998 74.5296 39.3807 74.8028 39.3928C74.7525 39.2873 74.5558 39.2055 74.6544 39.1515C75.1541 38.8503 74.5053 38.9916 74.4154 38.9039C74.8306 38.8079 75.3903 38.879 75.5522 38.5127C75.8161 38.4651 76.0668 38.4927 76.3214 38.5201C76.5396 38.5258 76.7585 38.4926 76.7898 38.3346C76.8538 37.9865 76.7523 37.6566 76.3752 37.3969C76.4503 37.3761 76.5303 37.3478 76.6067 37.3274C77.0676 37.192 77.532 37.0529 77.9978 36.9138C78.0381 36.8888 78.0777 36.8854 78.1177 36.8572C77.9403 36.7243 77.7636 36.5844 77.3982 36.7012C77.3527 36.7298 77.2013 36.7429 77.2578 36.6887C77.4771 36.4506 76.9293 36.5476 76.9575 36.397C77.1789 36.2581 77.2362 36.1049 77.1312 35.9341C76.9357 35.9615 76.634 36.1111 76.5593 35.9694C76.4582 35.7982 76.3519 35.8425 76.1678 35.9079C76.0901 35.9146 76.0222 35.9453 75.9615 35.901C75.6208 35.6628 75.1683 35.5572 74.4761 35.6276C74.878 35.4238 75.1542 35.2413 75.4999 35.479C75.5736 35.3635 75.4655 35.1895 75.3956 35.2092C74.9451 35.3087 74.6878 35.0379 74.2777 35.0983C74.1802 35.1067 74.0071 35.1465 73.9928 35.0276C74.074 34.9711 74.1619 34.9744 74.2554 34.98C74.38 34.9939 74.5477 35.0749 74.596 34.9258C74.6397 34.7738 74.4547 34.769 74.2794 34.7842C74.0966 34.8002 73.9121 34.8161 73.7298 34.8423C73.7378 34.7819 73.7832 34.6929 73.7271 34.6593C73.5813 34.5374 73.5763 34.4533 73.7726 34.3414C73.8454 34.3103 73.8887 34.2573 73.9985 34.2828C74.196 34.3398 73.9129 34.4736 74.1006 34.5561C74.3258 34.2934 74.7343 34.3777 75.1452 34.342C74.9813 34.1976 74.5644 34.2726 74.6178 34.049C74.1947 34.0962 73.7485 34.1843 73.8499 33.7486C74.3791 34.1406 74.3626 33.7677 74.4408 33.5529C74.652 33.5841 74.4683 33.7936 74.7324 33.7461C74.8778 33.7087 74.9566 33.5927 74.8906 33.5491C74.6295 33.4164 74.8268 33.2264 74.7586 33.0524C75.0186 32.9451 75.0375 32.8096 75.0342 32.6507C75.0088 32.618 74.9765 32.5818 74.9398 32.5252C75.0686 32.4047 75.2005 32.3193 75.4674 32.3345C75.5829 32.3353 75.6452 32.2558 75.6603 32.1837C75.7065 32.1551 75.7511 32.1017 75.7956 32.0486C75.8024 31.9882 75.8104 31.9277 75.8158 31.8531C75.9454 31.8171 75.8335 31.7665 75.8424 31.7306C76.3136 31.7144 76.8032 31.6822 77.1425 31.907C77.3784 32.0699 77.658 31.9258 77.9249 31.9132C77.8139 31.8734 77.8269 31.6077 77.55 31.8612C77.4508 31.9543 77.2784 31.8952 77.1425 31.907C77.2434 31.8279 76.8362 31.6794 77.2685 31.6421C77.3592 31.6341 77.4587 31.7105 77.5032 31.6112C77.5418 31.5337 77.585 31.4208 77.3909 31.4019C77.2033 31.3688 77.0407 31.3445 76.9637 31.2206C77.5994 31.1407 77.5483 30.7077 78.0297 30.5178C78.0906 30.5015 78.006 30.4738 77.9515 30.4292C77.9963 30.4253 78.038 30.4321 78.0842 30.428C78.1058 30.4158 78.1296 30.3995 78.1546 30.3972C78.1896 30.4331 78.2554 30.4274 78.3299 30.4457C78.3801 30.4414 78.4329 30.4367 78.4753 30.4083C78.601 30.3585 78.7466 30.3212 78.8704 30.2649C78.9625 30.1932 79.0736 30.1127 79.179 30.0543C79.3032 29.9589 78.9734 29.9523 79.1093 29.8666C79.1007 29.8426 79.1011 29.8179 79.0964 29.7936C79.0903 29.7234 79.1451 29.6197 78.8918 29.6663C78.6734 29.6606 78.4586 29.6794 78.2352 29.674C77.6862 29.6969 77.2048 29.5944 76.697 29.5395C76.3419 29.3021 75.8109 29.4716 75.3824 29.4101C75.588 29.272 75.7727 29.1221 76.0427 28.9895C76.3283 28.8549 75.9691 28.9216 75.8999 28.8919C75.8698 28.8349 75.8424 28.7632 75.8111 28.7061C75.8162 28.6458 75.8265 28.5956 75.8348 28.5701C75.8311 28.5704 75.8311 28.5704 75.8256 28.5708C75.8311 28.5704 75.8247 28.56 75.8301 28.5596C75.8633 28.4688 75.813 28.3635 75.9826 28.3136C76.3053 28.2999 76.5435 28.2155 76.6871 28.0335C76.8265 27.9264 76.7411 27.7363 77.0656 27.6971C77.1889 27.6974 77.3176 27.711 77.4089 27.6323C77.5542 27.641 77.7085 27.6276 77.852 27.6289C77.8891 27.6257 77.9258 27.6226 77.9665 27.6189C78.0862 27.5735 78.4137 27.7394 78.3112 27.4903C78.2828 27.4224 78.1853 27.431 78.104 27.4133C78.0933 27.2908 77.9672 27.2913 77.7969 27.3307C77.583 27.3739 77.3682 27.3926 77.1731 27.2861C77.2876 27.2268 77.3942 27.1714 77.5946 27.08C77.254 27.1343 77.0626 27.0059 76.8128 27.1126C76.8484 26.9862 76.6798 26.9404 76.6305 26.8458C76.6944 26.8193 76.7616 26.7499 76.6772 26.7572C76.419 26.7797 76.4071 26.6716 76.3329 26.5825C76.0743 26.5062 75.6594 26.5916 75.5563 26.382C75.5095 26.2873 75.5643 26.1519 75.326 26.2077C75.1591 26.2574 75.172 26.4044 75.2486 26.4933C75.2872 26.525 75.4369 26.5368 75.33 26.6201C75.2893 26.6236 75.266 26.601 75.2303 26.604C75.1325 26.5773 75.0141 26.5878 74.9243 26.5356C74.6605 26.3856 74.3471 26.4128 74.0037 26.5414C73.7658 26.5374 73.4894 26.4873 73.3223 26.6746C73.2842 26.678 73.2435 26.6814 73.2065 26.6847C73.1735 26.6733 73.1381 26.6763 73.1011 26.6796C73.0211 26.6761 72.9515 26.6678 72.8737 26.6745C72.4884 26.7926 72.1698 26.9295 71.9193 27.135C71.8225 27.0831 71.0068 27.3398 71.3765 27.0125C71.6688 26.9377 71.6719 26.8387 71.4189 26.7658C71.2721 26.6796 71.3505 26.528 71.13 26.4977C70.595 26.5441 70.7357 26.7218 71.13 26.4977C71.1375 26.109 70.861 25.7061 71.1779 25.3043C71.1797 25.2794 71.183 25.2545 71.1882 25.2402C70.9467 25.1514 71.0846 24.9458 70.9106 24.8407C70.9094 24.8264 70.9164 24.8012 70.9155 24.7909C70.9585 24.5194 71.2221 24.2527 70.7993 24.0458C70.8005 24.0457 70.8038 24.0206 70.8038 24.0206C71.582 24.0272 71.0323 23.687 71.2212 23.5718C71.5427 23.558 71.8456 23.775 72.1721 23.514C72.1908 23.442 72.1709 23.3944 72.0651 23.3542C72.0651 23.3542 72.0561 23.3551 72.051 23.3554C72.0709 23.3427 72.0895 23.3274 72.1124 23.3007L72.1645 23.3207L72.2172 23.3163C72.3075 23.2234 72.5162 23.3041 72.6144 23.1969C72.4564 23.1506 72.3159 23.1381 72.1683 23.1016C72.1261 23.0312 72.022 23.0403 71.9351 23.0477C71.94 23.0259 71.9431 23.0009 71.9431 23.0009C71.8413 22.9604 71.8117 22.8642 71.6378 22.8792C71.5909 22.8131 71.5272 22.8433 71.4661 22.8589C71.4713 22.8586 71.4754 22.8583 71.4798 22.8474C71.4934 22.8214 71.4891 22.7725 71.4282 22.7285C71.2912 22.7402 71.1571 22.7409 71.0415 22.7372C70.9766 22.6475 71.3406 22.5912 71.1231 22.4865C71.0032 22.4513 70.8593 22.4743 70.7725 22.5911C70.6835 22.6975 70.5504 22.5999 70.4383 22.6095C70.437 22.5954 70.4403 22.5704 70.4419 22.5456C70.3826 22.536 70.3266 22.5397 70.2716 22.5493C70.279 22.07 70.2009 21.4853 70.0059 20.7424C70.0054 20.733 70.0032 20.7238 69.9987 20.7154C69.9767 20.6315 69.9529 20.5462 69.9278 20.4585C70.0454 20.4783 70.1557 20.5137 70.2861 20.5659C70.2842 20.8339 70.511 20.9376 70.9694 20.898C71.1077 20.8859 71.3061 20.8302 71.3926 20.9566C71.4475 21.0363 71.5488 21.088 71.7275 21.0511C71.5169 20.9355 72.0857 20.7763 71.7169 20.6848C71.5217 20.5926 72.0161 20.4156 71.645 20.3629C71.3182 20.282 71.103 20.096 70.761 20.0268C70.6555 20.0009 70.5235 19.9033 70.4406 20.0196C70.2917 20.2021 70.0343 20.0794 69.8532 20.166C69.8411 20.167 69.8428 20.1461 69.8338 20.1436L69.8327 20.1402C69.8557 20.0931 69.8716 20.0436 69.9177 20.0051C70.028 20.006 70.1073 19.9744 70.1598 19.9204C69.9636 19.7876 69.9072 19.589 69.624 19.5086C69.4341 18.9643 69.1976 18.355 68.9062 17.6666C68.875 17.6845 68.8332 17.6999 68.8061 17.6934C68.6775 17.6632 68.5419 17.667 68.4049 17.6492C68.3649 17.6397 68.343 17.6345 68.2942 17.6232C68.2852 17.6209 68.2761 17.6188 68.2725 17.618C68.1167 17.5812 67.9564 17.5686 67.8527 17.3924C67.8019 17.3085 67.6173 17.3367 67.5836 17.4046C67.5127 17.4856 67.4133 17.4873 67.3114 17.4632C67.2625 17.4517 67.2081 17.4641 67.159 17.4525C67.0626 17.4299 66.9705 17.3827 66.8488 17.3792C67.0354 17.2857 67.3575 17.3259 67.0495 17.1053C67.0182 17.082 66.9897 17.0593 66.9635 17.0377C67.0209 17.0216 67.0796 16.998 67.1288 16.9762C67.2628 16.9151 67.3971 16.8542 67.3549 16.7377C67.3181 16.681 67.2211 16.7245 67.1454 16.7557C67.0225 16.7813 66.8832 16.8161 66.8004 16.8654C66.6822 16.6773 66.8737 16.5835 67.3433 16.5748C67.0345 16.4153 66.9291 16.3904 66.764 16.5137C66.6815 16.5813 66.616 16.7029 66.4587 16.6151C65.9731 16.3522 65.9103 16.5613 65.7678 16.7265C65.6595 16.5528 65.5452 16.3992 65.4303 16.2351L65.4123 16.2307L65.3852 16.2243C65.1449 16.1311 65.0959 15.9824 64.9645 15.8648C64.9568 16.0362 65.097 16.1562 65.3852 16.2243C65.3181 16.0708 65.244 15.9309 64.9614 15.8387C64.9575 15.8379 64.9575 15.8379 64.9575 15.8379C64.88 15.7691 64.8629 15.7032 64.9692 15.667C64.9155 15.5787 64.7525 15.5147 64.7873 15.4257C64.7384 15.3384 64.7262 15.3102 64.8663 15.2928C64.9696 15.2918 65.0686 15.304 65.1721 15.3031C65.2064 15.3366 65.2398 15.3557 65.269 15.3879C65.3479 15.3701 65.4213 15.3987 65.4916 15.4405C65.5354 15.4509 65.5842 15.4625 65.6226 15.4967C65.686 15.4865 65.7007 15.4646 65.747 15.4643C65.9619 15.5264 66.1738 15.6017 66.3768 15.5772C66.5952 15.5024 66.8102 15.4668 67.026 15.4053C67.2455 15.4825 67.4027 15.4331 67.5725 15.3869C67.675 15.3097 67.7917 15.2756 67.9543 15.2781C68.0183 15.2427 68.1163 15.19 68.0925 15.1123C68.0303 14.9966 68.0616 14.8809 67.837 14.8027C67.7668 14.6849 67.6428 14.5943 67.4705 14.5537C67.2668 14.4436 67.0663 14.3205 66.8141 14.2608C66.8084 14.2848 66.7971 14.3327 66.7915 14.3566C66.7863 14.3554 66.7863 14.3554 66.7824 14.3544C66.8151 14.3369 66.8335 14.316 66.8141 14.2608C66.6348 14.1678 66.4582 14.065 66.28 13.9616C66.1115 13.9218 65.939 13.8809 65.7704 13.8411C65.7306 13.8318 65.6905 13.8224 65.6506 13.8128C65.585 13.6598 65.3883 13.6751 65.2564 13.6185C64.9593 13.4726 64.6804 13.2836 64.2859 13.2916C64.2629 13.3081 64.2778 13.3256 64.2817 13.3265L64.2778 13.3256C64.281 13.3123 64.281 13.3123 64.2859 13.2916C64.1306 13.2767 63.9567 13.2356 63.8162 13.2782C63.5199 13.2841 63.2582 13.0233 62.9496 13.0988C62.5158 12.9963 62.1362 12.6824 61.6424 12.7646C61.5015 12.8323 61.3442 12.7447 61.19 12.7588C60.9423 12.5991 61.0542 12.4014 60.855 12.2786C60.7762 12.0363 60.401 11.9005 60.2224 11.7065C60.0414 11.5406 59.7622 11.5725 59.5368 11.4973C59.2646 11.3211 58.8931 11.2082 58.7381 10.9731C58.7723 10.8688 59.1144 10.7261 58.5526 10.7053C58.4267 10.6861 58.2899 10.5925 58.1464 10.544C58.23 10.788 57.9824 10.7434 57.7406 10.7374C57.3382 10.5771 57.018 10.765 56.6318 10.6738C56.5605 10.6822 56.4665 10.66 56.4019 10.6807L56.4076 10.6567C56.4785 10.6734 56.5571 10.656 56.6318 10.6738C56.3923 10.6172 56.1588 10.4967 55.9185 10.5411C55.8748 10.5309 55.8311 10.5205 55.7859 10.5099C55.4169 10.3866 55.0686 10.2391 54.7058 10.1067C54.4552 10.0224 54.2093 9.91362 53.96 9.81825C53.9526 9.75193 53.8867 9.71435 53.788 9.71284C53.7611 9.69847 53.7336 9.68616 53.7056 9.67504L53.702 9.63075C53.7246 9.50914 53.7463 9.42231 53.7645 9.31139C53.9179 9.27348 54.0954 9.32888 54.2201 9.2225C54.3909 9.23243 54.5309 9.1956 54.5884 9.09181C54.6536 9.11082 54.7198 9.15456 54.8066 9.09764C55.3118 9.09278 55.3527 8.8312 55.5203 8.63344C55.9602 8.59532 55.9823 8.3145 56.2969 8.19213C56.3304 8.1647 56.2792 8.09493 56.1468 8.13122C55.9923 8.09515 55.8554 8.16697 55.7016 8.16989C55.4327 8.14386 55.1691 8.16665 54.9072 8.23879C54.9778 8.33135 55.1191 8.29441 55.2364 8.28426C55.2323 8.28459 55.223 8.28545 55.223 8.28545C55.1399 8.22896 55.0038 8.26558 54.9072 8.23879C54.7447 8.26331 54.5795 8.3023 54.5385 8.43979C54.2348 8.49077 53.9935 8.5857 53.811 8.74652C53.7733 8.78497 53.7286 8.85247 53.6882 8.9054C53.5953 9.05779 53.4242 9.16806 53.1498 9.03662C52.9812 8.98759 52.8932 9.04461 52.7863 9.11428C52.7455 9.11784 52.7139 9.12065 52.677 9.12367C52.4598 9.01351 52.2312 8.98003 51.984 8.99569C51.8191 8.95151 51.6497 8.90885 51.4987 8.82526C51.359 8.74739 51.1931 8.68874 51.0359 8.62599C51.0419 8.57048 51.0488 8.5182 51.0543 8.47424C51.1194 8.39788 51.1836 8.34291 51.2488 8.23847C51.2081 8.24192 51.1673 8.24549 51.1263 8.24905C51.1652 8.27033 51.2063 8.26687 51.2488 8.23847C51.3478 8.10962 51.5238 7.9501 51.229 7.8274C51.1042 7.71799 50.8203 7.7531 50.6301 7.68516C50.3703 7.59833 50.5312 7.45058 50.4855 7.33436C50.5335 7.18197 50.6187 7.07915 50.7981 6.98951C50.8021 6.98918 50.8021 6.98918 50.7999 6.96466C50.8968 6.93539 50.9906 6.91293 51.0978 6.87891C51.2022 6.84521 51.3079 6.83603 51.4122 6.81648C51.5168 6.78278 51.5731 6.72857 51.6581 6.69649C51.6005 6.75081 51.5072 6.73418 51.4643 6.78732C51.7563 6.88172 51.7643 6.71193 51.8737 6.62834C52.0447 6.51796 52.1592 6.38457 52.1466 6.24136C52.1225 6.09847 51.9955 5.95104 52.0682 5.8102C52.3847 5.29599 52.3626 4.8144 52.4504 4.29523C52.4692 4.14542 52.6287 3.97629 52.4159 3.83621C52.5063 3.74376 52.5984 3.67539 52.6781 3.56976C52.7978 3.52429 52.9062 3.49016 53.0162 3.44156C53.224 3.32869 53.1662 3.27329 52.9429 3.25428C52.9682 3.00835 52.9961 2.81211 53.0248 2.59081C52.7536 2.43431 53.2392 2.21927 52.9907 2.06094C52.9587 2.01417 52.9276 1.99214 52.8991 1.98415C52.924 1.79881 52.9434 1.65225 52.7409 1.52156C52.5898 1.26635 52.2433 1.1416 51.9133 0.996877C51.5643 0.981649 51.3644 0.741555 50.9409 0.80301C50.4934 0.817159 50.0534 0.855392 49.6113 0.932075C49.547 0.923866 49.452 0.93229 49.3691 0.953027C49.0501 1.0269 48.7229 1.09419 48.5341 1.29011C48.5381 1.28968 48.5381 1.28968 48.5381 1.28968L48.5341 1.29011C47.8624 1.45816 47.0837 1.3561 46.4863 1.67633C46.0536 1.61499 45.8538 1.80529 45.6032 1.96103C45.5332 1.96697 45.4523 1.98436 45.4034 1.93932C45.5465 1.72278 45.9512 1.96578 46.1428 1.69567C45.7993 1.76058 45.4952 1.71284 45.2429 1.83359C45.0695 1.91891 45.0038 1.87906 44.9557 1.7987C44.876 1.64652 44.6319 1.69232 44.4951 1.70431C44.3111 1.74481 44.1665 1.86718 44.243 2.01525C44.2904 2.08524 44.2671 2.18601 44.108 2.19994C43.9562 2.21301 43.9812 2.10155 43.9635 2.06429C43.8636 1.64977 43.4659 2.03718 43.2144 1.98479C42.9931 1.94418 42.8602 2.06493 42.829 2.17693C42.7856 2.33602 42.9779 2.31928 43.1552 2.28245C43.2663 2.24822 43.4025 2.16224 43.4773 2.27608C43.63 2.50635 43.6313 2.52006 43.9929 2.40407C44.0797 2.39662 44.095 2.42005 44.1543 2.41487C43.999 2.47438 43.848 2.52601 43.6931 2.57504C43.6246 2.58098 43.5858 2.60906 43.5253 2.61435C43.2998 2.63379 43.0767 2.67786 42.8666 2.67138C42.7539 2.53637 43.1666 2.5219 43.0014 2.40558C42.905 2.35028 42.7678 2.43636 42.6408 2.472C42.6137 2.44965 42.538 2.42113 42.5434 2.40644C42.6506 2.21711 42.7144 2.0037 42.3395 1.89115C42.312 1.89353 42.2932 1.83164 42.3097 1.80929C42.724 1.39585 42.0062 1.55353 41.7825 1.37867C41.7796 1.52707 42.0602 1.54889 41.9568 1.64242C41.8419 1.7406 41.6947 1.6651 41.5638 1.65506C41.4339 1.62795 41.2329 1.57449 41.2716 1.71608C41.305 1.85746 41.358 2.02249 41.7145 1.97021C41.7145 2.01633 41.9617 2.01957 41.7814 2.08448C41.6685 2.14367 41.5113 2.18212 41.3729 2.19411C40.9657 2.18007 40.5859 2.45602 40.1699 2.29844C40.052 2.28397 39.9395 2.24433 39.8269 2.24368C39.7867 2.2575 39.7528 2.30999 39.7142 2.33797C39.5554 2.32706 39.6044 2.17456 39.3996 2.21711C39.4462 2.27673 39.4849 2.35784 39.534 2.44856C39.2461 2.7419 38.7297 2.61716 38.3339 2.72236C38.0271 2.62872 37.6289 2.73737 37.3831 2.56489C36.9945 2.63012 36.6206 2.70486 36.301 2.8215C36.2625 2.76329 36.179 2.75141 36.084 2.76966C35.9382 2.78252 35.739 2.78586 35.7692 2.89419C35.785 2.98286 35.9071 2.94809 36.001 2.95306C35.9069 3.00295 35.8202 3.0589 35.7429 3.12208C35.3477 3.01224 34.9258 2.94409 34.553 2.79062L34.5491 2.78964C34.5491 2.78964 34.5491 2.78964 34.553 2.79062C34.3947 2.56942 34.0806 2.45537 33.7757 2.33602C33.6967 2.30341 33.6039 2.28138 33.5391 2.28019C33.1128 2.14011 32.683 2.03858 32.2423 1.95974C31.8322 1.83748 31.5995 2.04603 31.2521 2.0105L31.2235 2.01828C31.2351 1.97691 31.1445 1.96298 31.0766 1.96892C30.9959 1.99981 30.9738 2.02162 30.9534 2.09161L30.9486 2.09291C30.9436 2.09172 30.9376 2.09312 30.9306 2.09809C30.6973 2.16646 30.4857 2.25049 30.3572 2.40958C30.1378 2.50959 30.1358 2.65734 30.1335 2.8444C30.1041 2.84818 30.0702 2.86546 30.0319 2.90705C29.7629 3.02779 30.2122 3.31098 29.9211 3.42644C29.9175 3.64957 29.9167 3.84776 29.906 4.09477C29.6824 4.08116 29.6171 4.1276 29.8063 4.26941C29.9082 4.33346 30.0105 4.38293 30.1223 4.44535C30.1859 4.56135 30.267 4.64235 30.343 4.7469C30.2417 4.79431 30.2105 4.8575 30.2073 4.9264C30.0841 4.94682 29.9666 4.9776 29.8615 5.03797C29.6737 5.09327 29.4932 5.16877 29.3117 5.23389C29.0544 5.32699 28.7562 5.25733 28.4987 5.35043C28.4009 5.33758 28.3302 5.36523 28.3133 5.42981C28.0528 5.48792 27.7937 5.55985 27.5335 5.60705C27.1554 5.68546 26.7893 5.78083 26.4064 5.8493C26.3601 5.8533 26.3153 5.85719 26.2706 5.86108C26.0394 5.78234 25.7908 5.86755 25.5457 5.88883C25.6221 5.88213 25.6974 5.91076 25.77 5.90449L25.7721 5.9289C25.7111 5.8992 25.615 5.90752 25.5457 5.88883C25.1504 5.92307 24.8607 5.69075 24.4394 5.79098C24.1992 5.76193 23.9479 5.77013 24.0659 5.54084C23.9168 5.56806 23.768 5.64075 23.6406 5.6415C23.0817 5.5807 23.3995 5.77154 23.4182 5.87965C23.2389 6.08065 22.8796 6.14243 22.5906 6.26534C22.4058 6.06401 22.1765 5.89953 21.9547 5.73709C21.8292 5.64636 21.6442 5.66386 21.5615 5.75609C21.5611 5.78126 21.5764 5.78493 21.5799 5.81096C21.5747 5.80977 21.5681 5.80826 21.5681 5.80826C21.5559 5.77996 21.551 5.75361 21.5397 5.75091C21.4049 5.60726 21.2364 5.56741 21.042 5.60802C20.6897 5.71289 20.4013 5.58296 20.2361 5.35626C20.133 5.24545 20.0558 5.2272 19.9073 5.21737C19.6997 5.2043 19.7961 5.31349 19.8282 5.39698C19.9146 5.56579 19.7507 5.5524 19.539 5.52756C19.242 5.50801 18.9172 5.4566 18.7415 5.61385C18.7348 5.42409 18.588 5.21629 18.6975 5.01799C18.7534 4.91938 18.6441 4.66946 18.1695 4.61859C17.8601 4.57064 17.5634 4.30235 17.1964 4.37796L17.1883 4.41187C17.4936 4.5458 17.8196 4.67346 18.0454 4.87856C17.8553 4.63133 17.6191 4.45248 17.1883 4.41187C17.1138 4.39437 17.0403 4.37699 16.9639 4.38411C16.4505 4.27417 15.9179 4.11173 15.4798 4.29361C15.47 4.31661 15.4644 4.34048 15.4628 4.36532C15.339 4.42332 15.1103 4.43045 15.0624 4.58154C14.8397 4.616 14.8372 4.75252 14.7667 4.87283C14.6292 4.98862 14.7079 5.14436 14.7934 5.27645C14.71 5.60716 15.0298 5.8924 15.3882 6.17537C15.3479 6.32884 15.5288 6.52336 15.118 6.53794C14.9271 6.53999 14.9366 6.63212 15.1529 6.70524C15.4073 6.79056 15.2008 6.84284 15.2123 6.94339C15.1117 6.91973 14.9008 6.86984 14.9292 6.92719C15.2475 7.26578 14.9336 7.42649 14.7191 7.64995C14.6141 7.75266 14.3495 7.83604 14.596 8.03563C14.5575 8.04762 14.5196 8.06069 14.4822 8.07398C14.4383 8.01544 14.3789 7.96252 14.2896 7.92083C13.8948 7.65395 13.496 7.3862 13.0514 7.08271C13.0362 7.32464 13.3716 7.4293 13.4516 7.57456C13.3234 7.61679 13.1 7.58925 13.2816 7.75861C13.3454 7.84555 13.4066 7.92515 13.4727 8.00205C13.557 8.12301 13.6487 8.21719 13.733 8.33826C13.7475 8.3496 13.7607 8.36127 13.773 8.37358C13.6289 8.42866 13.6294 8.52868 13.5625 8.61886C13.5277 8.69219 13.617 8.75851 13.6752 8.8029C13.8364 8.82396 13.947 8.87472 14.0373 8.96577C14.1986 9.03619 14.3469 9.10791 14.5752 9.0633C14.7799 9.15543 14.9875 9.22196 15.1928 9.32748C15.3057 9.35815 15.4261 9.35696 15.5502 9.34476C15.564 9.35912 15.5738 9.37586 15.5772 9.39552C15.4708 9.47145 15.3476 9.36647 15.2311 9.3642C15.0621 9.34962 14.8772 9.23006 14.7218 9.29443C14.6652 9.32769 14.718 9.39066 14.7799 9.40535C14.9262 9.51573 15.0691 9.64739 15.2911 9.57664C15.5467 9.48938 15.5958 9.7245 15.7838 9.769C15.9492 9.8081 16.1154 9.84741 16.2818 9.88813C16.1862 9.94893 16.1322 10.0278 16.0801 10.1116C16.2927 10.0931 16.4332 10.0369 16.5014 9.94289L16.4193 9.92204C16.3358 9.99711 16.2488 10.073 16.0801 10.1116L16.0523 10.114L16.0338 10.1157C15.8963 10.2614 15.761 10.3968 15.6285 10.5531C15.5115 10.369 15.4797 10.1528 14.9612 10.3426C14.7928 10.4067 14.7457 10.2768 14.6738 10.198C14.5284 10.0521 14.4204 10.0614 14.0918 10.1744C14.7218 10.2789 14.8204 10.4641 14.3055 10.742C13.9688 10.9156 14.2933 10.9225 14.4644 11.0422C14.3435 11.0279 14.2455 11.0612 14.1468 11.0696C14.0967 11.074 14.0446 11.0538 13.9944 11.0581C13.8902 11.0672 13.7921 11.0511 13.7338 10.9606C13.7102 10.8886 13.5316 10.8338 13.4692 10.9095C13.3411 11.0689 13.1807 11.058 13.0212 11.072C13.0174 11.0722 13.0082 11.073 12.9989 11.0739C12.949 11.078 12.9265 11.08 12.8856 11.0836C12.7474 11.0814 12.614 11.0579 12.4822 11.0693C12.4545 11.0716 12.4154 11.0504 12.3871 11.0281C9.71287 15.4294 10.1058 16.5636 10.8384 17.8224C10.6942 17.8972 10.6074 18.0148 10.4546 18.0886C10.4988 18.1496 10.5727 18.1924 10.6819 18.2075C10.7228 18.2532 10.7309 18.3056 10.7474 18.3566C10.7357 18.3538 10.7352 18.379 10.7224 18.3761C10.5557 18.2641 10.2833 18.3481 10.1624 18.1459C10.0974 18.0188 9.95264 18.0964 9.84442 18.1066C9.496 18.1255 9.25612 18.2783 8.92098 18.3111C8.54621 18.3095 9.00976 18.5561 8.80315 18.6191C8.42503 18.6561 8.96472 18.8961 8.73964 18.9801C8.91105 19.0424 9.01883 19.006 9.08461 18.9351C9.18862 18.8225 9.37687 18.9064 9.51187 18.9384C9.95966 19.0441 10.1991 18.9743 10.2362 18.7089C10.6054 18.6205 10.813 18.6309 11.3901 18.8039L11.4337 18.8952C11.3046 18.8739 11.1747 18.8603 11.0682 18.9196C11.21 19.0055 11.3559 19.0241 11.4998 19.0428C11.5145 19.0768 11.5287 19.1119 11.543 19.1471C11.4847 19.1525 11.4281 19.1591 11.382 19.178C11.2032 19.2622 10.9925 19.2629 10.8966 19.0418C10.858 18.9569 10.8007 18.8675 10.6455 18.8563C10.3183 18.8547 10.627 19.1008 10.4411 19.1579C10.3057 19.213 10.4629 19.2609 10.5789 19.2882C10.6497 19.3049 10.75 19.3286 10.7848 19.3369C11.0899 19.6275 11.328 19.7107 11.7088 19.6193C11.8117 19.966 11.8898 20.362 11.9264 20.8275L11.877 20.8158C11.7981 20.8331 11.7216 20.8514 11.6492 20.8596C11.5886 20.9211 11.5393 20.9854 11.4793 21.0432C11.3808 21.1209 11.3307 21.1957 11.088 21.0265C10.9201 20.8857 10.6675 20.9018 10.4512 20.8401C10.4069 20.8149 10.3541 20.8024 10.2922 20.7879C10.1167 20.761 9.98029 20.6422 9.79495 20.6451C9.7929 20.6699 9.79258 20.6951 9.78923 20.7089C9.67971 20.6831 9.5338 20.7604 9.46122 20.6421C9.39231 20.514 9.2532 20.4704 9.12943 20.4879C8.89906 20.5598 9.25115 20.6684 9.17393 20.7478C9.0589 20.7346 8.92638 20.7146 8.79246 20.6831C8.72593 20.7178 8.71459 20.7656 8.72431 20.7932C8.72701 20.8046 8.731 20.8055 8.73608 20.8066C8.67797 20.7823 8.61932 20.7432 8.56327 20.8019C8.39349 20.7618 8.35018 20.8526 8.24358 20.878C8.24358 20.878 8.24304 20.9032 8.24466 20.9253C8.15977 20.9054 8.05814 20.8814 8.00619 20.9449C7.85487 20.9597 7.71392 20.9517 7.55094 20.9745C7.6326 21.0949 7.85077 21.0453 7.92669 21.1503L7.9781 21.1624L8.03265 21.15C8.05133 21.1798 8.06753 21.1976 8.08546 21.213C8.08049 21.212 8.07164 21.2098 8.07164 21.2098C7.96115 21.2342 7.93447 21.2785 7.94268 21.3525C8.22781 21.658 8.55895 21.4873 8.87508 21.5474C9.0453 21.6888 8.45203 21.9457 9.22307 22.0521C9.22307 22.0521 9.22264 22.0774 9.22372 22.0776C8.7755 22.2212 8.99766 22.5231 9.00069 22.798C8.99842 22.8081 9.00166 22.8341 8.99842 22.848C8.81114 22.9269 8.91753 23.1502 8.66577 23.203C8.66901 23.2179 8.66847 23.2431 8.66674 23.2679C8.92206 23.7114 8.59006 24.07 8.54102 24.4557C8.89873 24.7345 9.06376 24.5792 8.54102 24.4557C8.31864 24.4537 8.37416 24.6151 8.21636 24.679C7.95542 24.7144 7.94419 24.8129 8.22252 24.9293C8.54092 25.3068 7.77106 24.9344 7.6677 24.9718C7.44964 24.7322 7.15425 24.5505 6.79027 24.3779C6.71423 24.3599 6.64414 24.358 6.56443 24.3498C6.52836 24.3413 6.49369 24.3331 6.45945 24.3397C6.42327 24.331 6.38353 24.3217 6.34627 24.3129C6.20813 24.1033 5.92742 24.1127 5.69143 24.0823C5.37034 23.9053 5.06414 23.8329 4.78139 23.9431C4.68505 23.9816 4.56938 23.9541 4.46872 23.9664C4.43394 23.9582 4.40748 23.9772 4.36773 23.9678C4.27398 23.8698 4.42379 23.8799 4.46666 23.8542C4.55534 23.7773 4.58936 23.6337 4.43145 23.5603C4.20378 23.4707 4.23834 23.6126 4.17829 23.6995C4.04598 23.8919 3.64788 23.7473 3.38089 23.7853C3.29449 23.8626 3.26706 23.9679 3.01487 23.9082C2.93246 23.8887 2.98884 23.9672 3.04824 24.0026C2.98571 24.089 2.81225 24.1098 2.8291 24.2402C2.59754 24.0983 2.38952 24.1975 2.06032 24.0945C2.24544 24.2142 2.34286 24.2843 2.44752 24.3596C2.23907 24.4368 2.02933 24.3871 1.82379 24.3133C1.66103 24.2496 1.53639 24.2308 1.5081 24.3505C1.42504 24.3562 1.32978 24.3336 1.29187 24.3966C1.15427 24.6281 1.50248 24.5116 1.61427 24.5738C1.65401 24.5833 1.68998 24.5917 1.72605 24.6003C1.86829 24.6198 2.01896 24.6555 2.16412 24.668C2.24296 24.759 2.37235 24.7642 2.49429 24.7818C2.80977 24.8677 2.69766 25.0433 2.82003 25.1696C2.9357 25.3705 3.15916 25.4885 3.47648 25.5488C3.63708 25.6228 3.57196 25.7197 3.59183 25.8144C3.59701 25.8155 3.58913 25.8248 3.59453 25.8261C3.58913 25.8248 3.58913 25.8248 3.58545 25.8241C3.58999 25.8504 3.59291 25.9016 3.58934 25.9621C3.55003 26.0139 3.51255 26.0809 3.47432 26.1331C3.40174 26.1524 3.05602 26.0343 3.31901 26.2088C3.56699 26.3792 3.72791 26.5544 3.91141 26.7207C3.47842 26.7194 2.97761 26.4748 2.59181 26.6583C2.08149 26.639 1.59029 26.6705 1.05048 26.5682C0.828642 26.5411 0.618896 26.4915 0.401916 26.4655C0.158041 26.3826 0.197248 26.4931 0.181047 26.5616C0.172839 26.585 0.169707 26.6096 0.157719 26.6321C0.279656 26.7366 -0.0475991 26.6952 0.0615934 26.8077C0.157285 26.8808 0.255569 26.9765 0.336248 27.0607C0.450625 27.1344 0.589195 27.1925 0.706379 27.26C0.744289 27.2942 0.795808 27.3064 0.844842 27.318C0.921201 27.3109 0.985571 27.3259 1.02532 27.2955C1.04973 27.3014 1.0709 27.3209 1.09055 27.3361C1.1357 27.3468 1.17793 27.3462 1.22167 27.3566C1.16119 27.3927 1.0736 27.408 1.13138 27.4329C1.58024 27.6906 1.46695 28.1117 2.0843 28.2828C1.99012 28.3944 1.82563 28.3948 1.63533 28.4003C1.44049 28.3908 1.46684 28.5089 1.49384 28.5912C1.52343 28.6958 1.63306 28.6346 1.72162 28.6556C2.14381 28.7553 1.71946 28.8432 1.80781 28.936C1.67507 28.9048 1.496 28.9382 1.41122 28.8317C1.17415 28.5408 1.14833 28.8055 1.03277 28.8288C1.295 28.88 1.55076 29.063 1.80781 28.936C2.1761 28.7629 2.65597 28.8657 3.11974 28.95C3.12341 28.9869 3.00525 29.0208 3.12838 29.0751C3.12287 29.1497 3.12201 29.2107 3.11995 29.2714C3.15635 29.3305 3.19264 29.3897 3.23433 29.4247C3.23876 29.4984 3.28887 29.5861 3.40336 29.6019C3.66959 29.6255 3.78764 29.7292 3.89769 29.8671C3.8532 29.9178 3.81583 29.9489 3.78602 29.9776C3.75967 30.1343 3.75869 30.2712 4.00052 30.4149C3.90785 30.5772 4.07547 30.7938 3.79779 30.8873C3.72618 30.9209 3.78732 31.0471 3.92578 31.1052C4.18024 31.1905 4.02892 30.9566 4.24234 30.9563C4.28856 31.1802 4.21815 31.5468 4.79856 31.2355C4.83582 31.6814 4.40715 31.5296 3.99522 31.4215C4.01574 31.6505 3.61408 31.5158 3.43101 31.6349C3.83246 31.7299 4.24882 31.7056 4.43351 31.9983C4.63115 31.9438 4.37054 31.7704 4.57413 31.7426C4.68645 31.7332 4.72166 31.7921 4.78916 31.8334C4.96715 31.9726 4.95009 32.0551 4.78809 32.1545C4.72771 32.1795 4.75979 32.2742 4.75892 32.3351C4.58233 32.2829 4.40208 32.2403 4.22344 32.1981C4.05225 32.1575 3.86853 32.1354 3.88981 32.2922C3.91595 32.4467 4.09361 32.391 4.2189 32.3953C4.31222 32.4033 4.39959 32.4127 4.47185 32.4804C4.44053 32.596 4.27496 32.5315 4.1797 32.5091C3.78267 32.3899 3.4889 32.6205 3.05753 32.4567C2.99122 32.427 2.85902 32.5835 2.91518 32.7085C3.29179 32.5234 3.53858 32.7441 3.90655 33.004C3.23185 32.834 2.76894 32.8729 2.3973 33.0592C2.33077 33.0941 2.26802 33.054 2.1922 33.0361C2.0195 32.9446 1.92078 32.8853 1.79582 33.0402C1.70143 33.1695 1.42461 32.9778 1.23517 32.9222C1.10643 33.0761 1.14088 33.2359 1.33994 33.4054C1.34588 33.5586 0.817948 33.3832 1.00048 33.6506C1.04854 33.7124 0.900573 33.6775 0.859748 33.6425C0.515214 33.474 0.32005 33.5869 0.125209 33.6925C0.160635 33.7262 0.199408 33.7354 0.23559 33.7659C0.676356 33.9711 1.11572 34.1761 1.55205 34.3768C1.62474 34.4082 1.6997 34.4478 1.77109 34.4792C1.36035 34.6815 1.21195 34.9931 1.22491 35.3468C1.22685 35.3858 1.24079 35.4191 1.26368 35.4475L1.21487 35.4822C0.970127 35.6126 1.19575 35.6282 1.29717 35.6934C1.19834 35.7966 0.9603 35.8375 0.824538 35.9603C0.836095 35.8992 0.792244 35.8665 0.742346 35.8648C0.674843 35.8634 0.587468 35.8535 0.55377 35.8816C0.48832 35.9166 0.567594 35.9605 0.644169 35.9534C0.708971 35.9688 0.767619 35.9596 0.815249 35.9687C0.782739 36 0.756925 36.0368 0.741265 36.0808C1.19499 35.9169 1.6093 35.7746 2.00837 35.6184C2.1315 35.6305 2.25441 35.6508 2.37775 35.688C2.38855 35.766 2.47441 35.8429 2.50952 35.9164C2.6227 36.1605 2.82294 36.3679 2.53749 36.6066C2.39201 36.5378 2.24037 36.4693 2.0789 36.4189C2.2557 36.6396 2.47279 36.7826 2.70543 36.8917C2.68329 36.9081 2.64247 36.9219 2.57119 36.9307C2.3393 36.9509 2.29156 37.0434 2.47452 37.0872C2.85761 37.1884 2.6119 37.3542 2.59657 37.5003C2.16012 37.6865 1.75391 37.9018 1.7159 38.2579C1.57959 38.3686 1.45809 38.4987 1.54018 38.6501C1.56005 38.772 1.52127 38.9059 1.7065 38.9885C1.70045 39.134 1.91311 39.2145 2.00816 39.3016C2.00114 39.327 1.99401 39.3523 1.99109 39.3772C2.33984 39.6499 2.89433 39.616 3.40703 39.6177C3.48674 39.6354 3.55521 39.6432 3.62985 39.6477C4.05484 39.6953 4.34829 39.5606 4.6169 39.3821C4.32734 39.5164 3.97071 39.5688 3.62985 39.6477L3.6239 39.6867C3.94673 39.8283 4.32853 39.6366 4.62338 39.6708C5.08931 39.7147 5.28501 39.4932 5.26633 39.3855C5.23447 39.1699 5.44821 39.0031 5.52845 38.8265C5.63603 39.0115 5.95 39.0338 6.24625 39.0821C6.44855 39.0892 6.60267 39.1215 6.46518 39.2814C6.40092 39.3365 6.27142 39.4185 6.47263 39.4752C6.61066 39.4877 6.6922 39.4808 6.82689 39.3951C7.06342 39.2297 7.38181 39.1526 7.67526 39.3214C7.84817 39.4156 8.02077 39.4006 8.1899 39.3014C8.20751 39.2889 8.2196 39.2742 8.23699 39.2617C8.23785 39.2726 8.23375 39.273 8.23375 39.273C8.23785 39.2726 8.24304 39.2721 8.25135 39.2605C8.23915 39.2861 8.21658 39.2882 8.21366 39.2994C8.23429 39.3526 8.2776 39.3933 8.33333 39.4164C8.3478 39.4889 8.47255 39.5832 8.69191 39.7226C8.75466 39.5898 8.74007 39.4093 9.10923 39.4747C9.04486 39.5459 8.96613 39.6144 8.9792 39.7146C8.83555 39.7818 8.7647 39.8629 8.91202 39.9988C9.09724 40.1292 9.21335 39.9943 9.32956 39.9745C9.95081 39.8472 10.2641 39.4981 10.7593 39.265C10.7571 39.315 10.7618 39.3416 10.7647 39.3928C10.9858 39.445 10.9895 39.2689 11.1909 39.2913C11.3719 39.3986 10.9206 39.5267 11.3805 39.6501C11.633 39.7205 11.7998 39.7964 11.8905 39.6081C12.0436 39.7415 11.8037 39.7974 11.8902 39.9075C11.9162 39.9249 11.9625 39.9359 11.9766 39.9394C12.0441 39.9188 12.0919 39.8541 12.1695 39.8472C12.587 39.8234 12.8649 39.7627 12.3419 39.4402C12.2302 39.3779 12.8615 38.9668 13.0371 39.0337C13.5985 39.2282 13.7361 39.0724 13.7355 38.7869C13.7201 38.7832 13.6987 38.7641 13.6718 38.7577C13.341 38.6797 13.0679 38.8174 12.7118 38.708C12.5824 38.652 12.5059 38.7458 12.4866 38.8278C12.4577 38.9333 12.3624 38.9973 12.1988 39.0452C11.9287 39.1189 11.7616 39.3536 11.3164 39.0755C11.2205 39.0275 11.091 39.0582 10.9676 39.0795C11.086 38.9704 11.2042 38.8606 11.3187 38.7507C11.5761 38.3744 12.0476 38.1032 12.427 37.7917C12.9328 37.8248 13.202 37.7039 13.1949 37.3772C13.1912 37.3762 13.1861 37.3749 13.1821 37.374C13.1861 37.3749 13.1912 37.3762 13.1949 37.3772C13.2259 37.3843 13.2618 37.3822 13.2978 37.3908C13.7696 37.401 14.0936 37.3295 13.964 36.9627C13.9689 36.9134 13.968 36.8771 13.9693 36.8376C14.0254 36.7032 13.9326 36.5328 14.1075 36.4477L14.15 36.4472L14.1969 36.4436C14.3011 36.4681 14.4364 36.4642 14.3912 36.5653C14.5811 36.6355 14.7724 36.7168 14.9596 36.7755C15.2716 37.0589 15.7438 37.1598 16.1746 37.2869C16.5003 37.3744 16.8286 37.4627 17.1593 37.5409C17.1806 37.5605 17.2125 37.604 17.2137 37.6042C17.5997 37.5556 17.9668 37.6943 18.3402 37.7952C18.2932 37.8361 18.2457 37.875 18.1995 37.9214C18.2405 37.9178 18.2772 37.9147 18.3234 37.9107C18.3193 37.9248 18.3245 37.9242 18.3193 37.9248C18.2865 37.9139 18.2474 37.8926 18.1995 37.9214C18.0707 38.0561 17.8674 38.1933 18.1219 38.3408C18.2163 38.4809 18.5022 38.456 18.679 38.5357C18.9123 38.6389 18.7185 38.776 18.7392 38.9081C18.6564 39.0249 18.5516 39.1327 18.3533 39.2203C18.019 39.3585 17.8939 39.5533 17.9482 39.7669C17.912 39.8688 17.8425 39.9704 17.9951 40.0313C17.9972 40.0557 18.0071 40.0796 18.0184 40.1032C18.0165 40.1879 18.0627 40.2443 18.1745 40.3088C18.1855 40.3429 18.199 40.3768 18.2091 40.4007C18.156 40.4793 18.2351 40.5927 17.9982 40.6023C17.7295 40.6118 17.931 40.7776 17.7699 40.8164C17.7524 40.8283 17.8015 40.9228 17.9241 40.9122C18.0762 40.8743 18.254 40.9192 18.3826 40.8126C18.5644 40.6877 18.5592 40.6881 18.7942 40.812C18.9596 40.8223 19.0271 40.7567 19.0475 40.6705C19.3822 40.7364 19.7519 40.7893 20.0119 40.9395C20.0445 40.9472 20.0814 40.9439 20.1221 40.9404C20.0856 40.9331 20.0567 40.9214 20.0119 40.9395C19.9623 41.2085 19.964 41.4903 19.684 41.7337C19.4292 41.7062 19.3735 41.9049 19.3757 41.9294C19.3581 42.1993 19.0503 42.1271 18.7733 42.1019C19.2205 42.4654 19.2675 42.4717 19.5119 42.2321C19.6969 42.2655 19.5033 42.5604 19.9321 42.4387C19.9559 42.4509 19.9844 42.4588 20.0161 42.4562C20.3137 42.674 19.919 42.9761 20.126 43.2018C20.1641 43.4278 20.6605 43.4589 20.7437 43.6811C20.7356 43.6816 20.7264 43.6825 20.712 43.6837C20.6151 43.7306 20.5427 43.783 20.6083 43.8514C20.675 43.9302 20.7759 43.9461 20.923 43.8982C21.1985 43.8144 21.2783 43.8779 21.1581 44.0226C21.0838 44.1137 21.0676 44.1892 21.228 44.2C21.7817 44.2013 22.0886 44.6334 22.7885 44.3785C22.5084 44.6216 22.1038 44.4872 21.7833 44.5892C21.9564 44.7931 22.3716 44.5134 22.4891 44.722C22.3048 44.9073 21.9568 44.6448 21.7138 44.8882C22.0629 44.8579 22.3518 44.9278 22.6272 44.8299C22.8091 44.7685 22.8631 44.8093 22.8839 44.8958C22.9394 45.0463 23.1845 45.0394 23.3242 45.013C23.5078 44.9725 23.6823 44.8728 23.6391 44.7419C23.6125 44.6494 23.656 44.5715 23.8114 44.5717C23.9578 44.5591 23.9251 44.6574 23.9211 44.7176C23.9242 44.8161 24.0039 44.7845 24.0468 44.8055C24.0083 44.8828 24.0479 44.9254 24.2187 44.9354C24.2375 45.1527 24.2564 45.3694 24.2792 45.5865C24.5923 45.7075 24.1516 45.9505 24.4378 46.0842C24.4716 46.1059 24.5092 46.1274 24.5431 46.1492C24.5535 46.3178 24.5774 46.4848 24.8117 46.5985C25.0183 46.8243 25.3921 46.9256 25.7583 47.0283C26.1103 47.0328 26.3687 47.2542 26.7784 47.1445C27.2199 47.1063 27.6607 47.0323 28.0762 46.9117C28.1498 46.9157 28.2396 46.8976 28.3231 46.8656C28.6264 46.7794 28.9309 46.6926 29.0772 46.4824C29.7162 46.2579 30.5251 46.3112 31.0399 45.9242C31.5885 45.9752 31.6941 45.6489 32.0104 45.5013C32.0277 45.4769 32.0457 45.4553 32.064 45.434L32.0691 45.4346L32.1063 45.3834L32.1072 45.3822L32.1079 45.3811L32.1099 45.3788L32.1102 45.3782L32.1115 45.3764L32.122 45.3622H32.1221L32.1238 45.3598L32.1248 45.3582L32.1255 45.3573C32.7634 45.3372 33.1777 45.047 33.6494 44.8365C34.1868 44.7793 34.4799 44.5395 34.7784 44.3108C34.8504 44.3128 34.9201 44.3078 34.9858 44.2927C35.0309 44.3035 35.0709 44.3129 35.1197 44.3138C35.497 44.4137 35.8658 44.5261 36.241 44.6293C36.4998 44.7012 36.7629 44.7887 37.0097 44.8722C37.0359 44.9397 37.1067 44.9676 37.203 44.9685C37.4679 45.0782 37.7522 45.0477 38.0168 45.1355C38.1916 45.2127 38.3764 45.293 38.5613 45.3619C38.8677 45.5607 39.2459 45.5237 39.5887 45.6659C39.7123 45.7349 39.8475 45.7669 39.9865 45.7998C40.0173 45.8072 40.0024 45.854 40.0382 45.8626C40.1744 45.9307 40.3207 46.0013 40.4561 46.0839C40.5581 46.1584 40.6932 46.1904 40.7249 46.3209C40.7256 46.3352 40.7525 46.3416 40.7591 46.3543C40.9549 46.5376 41.1961 46.6958 41.5099 46.8059C41.5054 46.9278 41.5033 47.0285 41.6891 47.123C42.0624 47.446 42.2917 47.8615 42.9668 48.035C43.4029 48.3117 43.7708 48.6588 44.399 48.7712C44.4277 48.8286 44.4632 48.873 44.492 48.9303C44.7835 49.1224 44.8407 49.4604 45.3911 49.4895C45.8441 49.9471 46.6523 50.0116 47.252 50.3263C47.3664 50.5556 47.6549 50.6856 47.9426 50.8148C48.0204 50.8587 48.1068 50.8895 48.1801 50.8962C48.5737 51.0757 48.9992 51.2129 49.4305 51.3148C49.82 51.4827 50.1077 51.3011 50.4566 51.3477C50.8338 51.2992 51.2184 51.2531 51.4556 51.0596C51.7038 50.9811 51.7517 50.8193 51.7865 50.6541C51.8233 50.6373 51.8636 50.6216 51.9001 50.6051C52.2027 50.5142 51.8019 50.2099 52.1291 50.1357C52.1831 49.9241 52.2332 49.7124 52.2835 49.5001C52.4539 49.5151 52.4993 49.4786 52.4724 49.3965C52.5178 49.382 52.5921 49.4248 52.6095 49.3278C52.6143 49.2676 52.5963 49.1656 52.7391 49.1994C52.8929 49.2216 52.9248 49.305 52.8851 49.3927C52.8234 49.5159 52.9815 49.6398 53.1571 49.7066C53.2917 49.7529 53.5331 49.7953 53.6099 49.6545C53.643 49.572 53.7024 49.5394 53.8734 49.6265C54.1318 49.7633 54.4277 49.736 54.7688 49.8165C54.5636 49.5406 54.1812 49.7498 54.0256 49.5398C54.1723 49.3504 54.5425 49.6873 54.7433 49.5106C54.441 49.3633 54.0212 49.4376 53.7793 49.1565C54.4348 49.5101 54.8012 49.127 55.3492 49.2061C55.5095 49.2186 55.5044 49.1416 55.444 49.0407C55.346 48.8801 55.4343 48.8288 55.6947 48.9517C55.8334 49.0205 55.9354 49.0192 56.0129 48.9511C56.0877 48.8927 56.0237 48.8305 55.9346 48.7701C55.9205 48.7668 55.9114 48.7647 55.9037 48.7629C56.0181 48.5551 56.5138 48.5964 56.5843 48.3782C56.8218 48.1849 56.475 47.8287 56.8011 47.6564C56.8321 47.6637 56.8613 47.66 56.8867 47.6512C57.2934 47.834 57.1446 47.514 57.3325 47.5078C57.5396 47.7803 57.5869 47.7808 58.0821 47.4861C57.8044 47.471 57.4894 47.4977 57.5111 47.228C57.5168 47.2041 57.4906 46.9995 57.2345 46.9897C56.9927 46.7084 57.0352 46.4297 57.0252 46.1565C56.9835 46.1319 56.9532 46.1394 56.916 46.1413C56.9557 46.1506 56.9918 46.1593 57.0252 46.1565C57.3042 46.0454 57.6777 46.0467 58.0184 46.03C58.0261 46.1183 58.0834 46.1931 58.2486 46.2068C58.4989 46.1182 58.4939 46.117 58.6556 46.2671C58.7674 46.3912 58.9499 46.3725 59.0949 46.4321C59.2146 46.4603 59.277 46.3739 59.2613 46.3597C59.1075 46.2979 59.3309 46.163 59.0665 46.1148C58.8335 46.0709 58.9282 45.9701 58.887 45.8847C58.9005 45.8626 58.9188 45.8309 58.9346 45.7987C59.0545 45.7512 59.1084 45.7021 59.1189 45.618C59.1334 45.5962 59.1466 45.5741 59.1523 45.5502C59.3122 45.512 59.2581 45.4015 59.237 45.2953C59.3217 45.0919 59.2262 44.881 58.9155 44.6958C58.7319 44.5805 58.6439 44.4586 58.5789 44.3309C58.6186 44.2032 58.4467 44.0396 58.6925 43.9712C58.879 43.918 59.1583 43.9841 59.272 43.8592C59.5452 43.7501 59.3639 43.5849 59.2559 43.433C59.2128 43.3976 59.171 43.4128 59.1369 43.4189C59.1319 43.4177 59.1369 43.4189 59.135 43.4045C59.1801 43.4151 59.216 43.4234 59.2559 43.433C59.1911 43.3451 59.1186 43.2775 59.0558 43.1868C59.0401 43.1324 59.032 43.0693 59.02 43.0047C59.0677 42.843 58.7802 42.7497 58.7066 42.6059C58.6707 42.5975 58.6396 42.5901 58.6089 42.5828L58.5722 42.5994C58.5671 42.5983 58.5671 42.5982 58.5633 42.5973C58.5761 42.6004 58.5852 42.6025 58.6089 42.5828C58.5998 42.5808 58.59 42.542 58.6014 42.5339C58.8 42.3319 58.8 42.3319 58.365 42.2292C58.3047 42.1279 58.2329 42.035 58.1724 41.9342C58.1623 41.8559 58.1851 41.8002 58.1954 41.7155C58.2478 41.753 58.304 41.7917 58.3592 41.8159C58.4237 41.8419 58.4984 41.8595 58.5655 41.8754C58.6394 41.9181 58.7137 41.9609 58.7788 42.0015C58.7861 42.0286 58.8008 42.0069 58.8096 42.0089C58.8147 42.0102 58.8187 42.0111 58.8237 42.0123L58.7788 42.0015C58.8383 42.0662 58.8939 42.1299 58.9476 42.1787C59.0697 42.1967 59.09 42.1511 59.0525 42.0916C59.08 42.0728 59.098 42.077 59.1161 42.0815C59.2063 42.1533 59.2068 42.2545 59.3889 42.2722C59.4469 42.2859 59.4672 42.2401 59.4188 42.2035C59.4245 42.1795 59.4359 42.1316 59.4361 42.0957C59.5813 42.1301 59.7242 42.1639 59.8691 42.1834C59.9348 42.2388 60.0033 42.2658 60.064 42.3305C60.1487 42.4265 60.2878 42.3329 60.3888 42.3821C60.4455 42.2977 60.3641 42.228 60.2558 42.1518C60.1871 42.085 60.1148 42.0173 60.0494 41.9552C59.9654 41.8342 59.8677 41.7352 59.6499 41.6618C59.4975 41.4383 59.164 41.2225 59.2436 40.9664L59.2345 40.9644C59.2397 40.9657 59.2397 40.9657 59.2436 40.9664C59.4518 40.8786 59.6643 40.7911 59.8691 40.7171C60.2104 40.4005 60.2136 39.9895 59.8934 39.7003C59.7768 39.6008 59.9322 39.5364 59.9517 39.454C60.0968 39.4776 60.2422 39.5119 60.385 39.5456C60.4705 39.6385 60.558 39.7456 60.6451 39.8314C60.7066 40.106 61.1442 40.433 61.509 40.4939C61.7197 40.5331 61.88 40.5456 61.7967 40.3635C61.8855 40.3846 61.9677 40.3928 62.0282 40.3564C61.9196 40.2804 61.7585 40.2315 61.6478 40.1654C61.7663 40.2335 61.8588 40.3417 62.0282 40.3564C62.0684 40.1677 62.4392 40.0419 62.1646 39.7786C62.0536 39.6153 62.0597 39.4284 61.8397 39.29C61.4119 38.782 61.1231 38.421 60.9415 38.1731ZM65.9447 40.641C65.7045 40.6446 65.5837 40.4848 65.3956 40.4027C65.2407 40.3316 65.1557 40.2544 65.1424 40.1459C65.1351 40.0621 65.073 39.9581 64.937 39.9947C64.9101 39.9989 64.8838 40.0016 64.8581 40.0034C64.8393 39.9575 64.8172 39.9068 64.7918 39.8505C64.788 39.8498 64.7841 39.8488 64.7789 39.8475L64.7841 39.8488L64.7918 39.8505C64.876 39.8339 64.9671 39.8049 65.0549 39.7898C65.1122 39.8285 65.1719 39.8532 65.2367 39.8939C65.3304 40.0897 65.5178 40.2457 65.8203 40.3572C65.8224 40.3829 65.8219 40.4079 65.8228 40.4442C65.8135 40.5238 65.8702 40.5844 65.9447 40.641ZM68.5652 41.5961C68.5439 41.5744 68.5161 41.5531 68.4841 41.5319C68.5117 41.4346 68.4436 41.3555 68.3903 41.2756C68.7093 41.2662 68.7273 41.3927 68.7521 41.5171C68.7059 41.5224 68.6608 41.5326 68.6127 41.5372C68.5956 41.5565 68.5799 41.5763 68.5652 41.5961ZM68.8906 41.5245L68.9544 41.493L68.9426 41.5427C68.9247 41.5347 68.9074 41.5289 68.8906 41.5245ZM69.1701 41.3011C69.1598 41.2047 68.9226 41.1125 68.425 40.9547C68.9229 41.0252 69.3542 40.9019 69.7821 40.7746C69.7404 40.8937 69.7307 41.0183 69.8435 41.1814C69.8868 41.2169 70.0944 41.3273 69.9094 41.3739C69.7657 41.4125 69.6842 41.3208 69.5848 41.2467C69.5087 41.1888 69.428 41.1338 69.2719 41.1223C69.3652 41.241 69.2787 41.2757 69.1701 41.3011ZM69.9855 40.7146C70.0362 40.7 70.087 40.6858 70.138 40.6722C70.172 40.7624 70.3009 40.8316 70.0912 40.918C70.0508 40.8532 70.0208 40.7842 69.9855 40.7146ZM21.9222 6.34753C21.8949 6.35897 21.8686 6.37291 21.8432 6.39008C21.8014 6.42399 21.7519 6.45413 21.6987 6.48296C21.715 6.46503 21.7304 6.44581 21.7458 6.42497C21.7874 6.37042 21.8494 6.34774 21.9222 6.34753ZM21.3977 6.63342C21.2831 6.69541 21.1831 6.76626 21.1344 6.86433C21.0858 6.88528 21.0526 6.91207 21.0269 6.94285C21.0107 6.7735 20.941 6.59432 20.7916 6.39775C21.0403 6.56796 21.2372 6.64216 21.3977 6.63342ZM20.8141 7.24483C20.7913 7.26124 20.7646 7.2768 20.7333 7.29095C20.6444 7.26956 20.5493 7.28295 20.4597 7.27971C20.4206 7.25854 20.3866 7.231 20.3607 7.19201C20.5176 7.17549 20.6672 7.21318 20.8141 7.24483ZM17.6233 42.0816C17.8614 42.0854 17.8509 42.33 18.153 42.2791C18.2401 41.9682 18.4011 42.2329 18.6245 42.2383C18.3881 41.9903 18.3662 41.7381 18.65 41.4315C18.219 41.617 17.8911 41.741 17.5506 41.8693C17.4618 41.9017 17.3115 41.9148 17.3189 41.9986C17.3414 42.1059 17.4987 42.0675 17.6233 42.0816ZM36.3877 45.7389C36.3537 45.8054 36.4428 45.8081 36.5154 45.8019C36.6023 45.8086 36.6348 45.7564 36.6647 45.7044C36.668 45.6954 36.6676 45.6899 36.6648 45.6851C36.6766 45.6934 36.7031 45.6741 36.7695 45.5966C36.8328 45.5307 36.7225 45.4206 36.6009 45.4416C36.3033 45.5168 35.9487 45.5123 35.6829 45.6798C36.0384 45.7835 36.2834 45.5782 36.5955 45.5655C36.6693 45.5591 36.6459 45.6567 36.6614 45.6811C36.6422 45.6668 36.5805 45.687 36.5652 45.6884C36.4994 45.6942 36.4105 45.7264 36.3877 45.7389ZM33.466 45.7384C33.4598 45.7739 33.5042 45.7949 33.5378 45.8308C33.5856 45.802 33.6335 45.7732 33.6406 45.7479C33.6437 45.7229 33.6159 45.6759 33.5935 45.6779C33.5003 45.6613 33.4639 45.7136 33.466 45.7384ZM15.4078 40.0614C15.4155 40.0854 15.4807 40.1044 15.5326 40.1214C15.5716 40.0967 15.6287 40.067 15.6314 40.053C15.6213 40.043 15.5723 39.9977 15.5368 40.001C15.4621 39.9969 15.3907 40.0136 15.4078 40.0614ZM17.2177 39.5163C17.4219 39.5448 17.5422 39.4635 17.6583 39.3793C17.3856 39.234 17.3391 39.4318 17.2177 39.5163ZM18.8957 44.3529C18.8926 44.3778 18.9407 44.3984 18.9745 44.4202C19.0079 44.3925 19.0475 44.3748 19.1408 44.3316C19.0885 44.3115 19.0403 44.291 19.0048 44.294C18.9639 44.2975 18.912 44.3268 18.8957 44.3529ZM19.3 44.438C19.438 44.3305 19.5788 44.2689 19.4702 44.1829C19.4512 44.1598 19.3537 44.1545 19.3324 44.1701C19.1732 44.23 19.1579 44.3302 19.3 44.438ZM19.0425 43.7826C19.072 43.6461 18.8708 43.6986 18.7901 43.6705C18.6857 43.6302 18.5 43.5864 18.5946 43.5146C18.8546 43.2977 18.5047 43.427 18.437 43.3977C18.0519 43.3322 18.2802 43.5315 18.1897 43.5889C18.1412 43.6282 18.0954 43.6672 18.0476 43.6959C17.808 43.8402 17.6887 43.9956 17.6545 44.1676C17.6329 44.194 17.6073 44.221 17.6055 44.2457L17.6014 44.2462C17.5201 44.3629 17.5296 44.4715 17.502 44.583C17.4124 44.6512 17.391 44.7271 17.3751 44.8025C17.3498 44.9244 17.2867 45.0994 17.5856 45.0736C17.8552 45.0749 17.8481 44.9305 17.8097 44.8104C17.9574 44.5084 18.1098 44.2131 18.2595 43.9212C18.2913 43.9184 18.3166 43.9053 18.3431 43.8894C18.3584 43.9128 18.3676 43.9119 18.3769 43.911C18.3912 43.9235 18.4199 43.9321 18.432 43.92C18.5403 43.897 18.433 43.7612 18.6228 43.7448C18.7073 43.7726 18.7106 43.8112 18.6875 43.8485C18.6336 43.9629 18.7142 44.0508 18.8124 44.1411C18.8175 44.1408 18.9206 44.1212 18.9471 44.1048C19.0614 43.9999 19.0286 43.8793 19.0425 43.7826ZM17.6875 44.4577C17.6875 44.4577 17.6875 44.4577 17.6865 44.4474C17.6928 44.4572 17.6928 44.4572 17.6967 44.457C17.6928 44.4572 17.6928 44.4572 17.6875 44.4577ZM20.7277 45.2876C20.6346 45.2711 20.5038 45.1869 20.4573 45.276C20.3849 45.3915 20.5766 45.4456 20.6943 45.485C20.807 45.5136 20.9036 45.5266 20.961 45.437C21.0443 45.2953 20.8709 45.2999 20.7277 45.2876ZM78.408 33.5013C78.4117 33.5119 78.3659 33.5509 78.3652 33.5899L78.3654 33.602C78.1736 33.6917 77.9405 33.7619 77.9334 33.9063C77.9346 33.9199 78.051 33.9454 78.1076 33.9405C78.4391 33.8877 78.2804 33.7368 78.3659 33.6063C78.3776 33.675 78.49 33.677 78.5719 33.706C78.6503 33.7095 78.6701 33.648 78.6772 33.6228C78.6777 33.5487 78.6515 33.4911 78.408 33.5013ZM78.1638 34.5421C78.2958 34.5801 78.3335 34.6014 78.3797 34.5975C78.4951 34.6122 78.452 34.5419 78.4774 34.515C78.439 34.5183 78.4019 34.4864 78.3546 34.4904C78.3122 34.4798 78.2591 34.509 78.1638 34.5421ZM71.405 40.9398C71.4441 40.9612 71.475 40.9832 71.5107 40.9801C71.5475 40.9769 71.5863 40.9489 71.6499 40.9188C71.5873 40.8993 71.5429 40.8785 71.5114 40.8813C71.4715 40.8989 71.4406 40.9226 71.405 40.9398ZM77.0979 39.0098C77.1479 39.0055 77.2068 39.025 77.2765 39.0189C77.3512 39.0371 77.436 39.0051 77.3763 38.9609C77.347 38.9283 77.2592 38.9254 77.1921 38.917C77.1398 38.9112 77.0893 38.9402 77.0979 39.0098ZM77.0054 37.9733C77.0056 38.0226 77.0801 38.041 77.1566 38.0343C77.2502 38.0262 77.3297 37.9946 77.344 37.9439C77.3213 37.8965 77.2643 37.8521 77.1825 37.8592C77.081 37.868 77.0075 37.9238 77.0054 37.9733ZM76.1851 40.0384C76.0761 40.0232 75.9704 40.057 75.9483 40.1577C76.0238 40.2603 76.162 40.2945 76.3636 40.2907C76.4281 40.285 76.5389 40.3249 76.5358 40.2264C76.5259 40.0828 76.3594 40.0583 76.1851 40.0384ZM7.87528 38.4453C7.831 38.4582 7.78467 38.4732 7.73585 38.4902C7.76825 38.4649 7.79892 38.4395 7.82755 38.4145C7.84569 38.4227 7.86178 38.4327 7.87528 38.4453ZM2.14791 39.1199L2.1518 39.1196C2.1518 39.1196 2.1518 39.1196 2.14791 39.1199ZM3.01897 37.7316C3.02642 37.7555 3.0396 37.7545 3.04489 37.754C2.97393 37.7355 2.89066 37.7674 2.80977 37.7854C2.85459 37.7211 3.00882 37.7077 3.01897 37.7316ZM1.7767 38.7888C1.76742 38.7896 1.76742 38.7896 1.76212 38.7901L1.76741 38.7896C1.77141 38.7893 1.77141 38.7893 1.7767 38.7888ZM2.15893 39.0943C2.15893 39.0943 2.15893 39.0943 2.15494 39.0945C2.15893 39.0943 2.15493 39.0945 2.15893 39.0943L2.16422 39.0938L2.15893 39.0943C2.17556 39.1175 2.18118 39.0923 2.19036 39.0914C2.18874 39.1164 2.17351 39.093 2.17027 39.1179C2.16638 39.1183 2.16638 39.1183 2.15893 39.0943ZM5.0285 37.5325C5.02775 37.5221 5.02105 37.5085 5.02105 37.5085C5.03563 37.5072 5.06209 37.5049 5.07764 37.5177C5.07764 37.5177 5.07862 37.5282 5.08272 37.5278C5.06425 37.5294 5.0541 37.52 5.0285 37.5325ZM3.73159 39.9314C3.55197 39.9119 3.46892 39.7956 3.21943 39.7678C3.29449 39.9446 3.37744 40.0576 3.73159 39.9314ZM5.64186 39.1839C5.50545 39.3401 5.26471 39.5196 5.59585 39.6955C5.72848 39.5398 6.16017 39.4529 6.02711 39.2349C5.99395 39.1742 5.73561 39.1016 5.64186 39.1839ZM78.7112 31.3828C78.6997 31.4333 78.7968 31.4496 78.8639 31.4295C78.929 31.4133 79.0097 31.3959 79.0381 31.3544C79.0694 31.3025 79.0032 31.273 78.9214 31.2801C78.8313 31.2984 78.7234 31.3077 78.7112 31.3828ZM77.6254 31.3075C77.7073 31.3004 77.7566 31.2714 77.7774 31.2202C77.7784 31.1708 77.7441 31.1282 77.6611 31.1354C77.6038 31.165 77.5281 31.1925 77.509 31.2332C77.4758 31.2958 77.548 31.3142 77.6254 31.3075ZM76.782 32.1111C76.8091 31.7806 76.5537 31.8489 76.3074 31.9339C76.4647 31.9553 76.6467 31.9747 76.782 32.1111ZM78.231 30.9871C78.0954 30.9989 77.9629 31.0352 77.9661 31.1337C77.9705 31.2282 78.1249 31.2504 78.2752 31.2375C78.4108 31.2256 78.5246 31.2048 78.5517 31.1038C78.5172 30.9975 78.3812 30.9742 78.231 30.9871ZM77.8058 31.366C77.9512 31.6183 78.3054 31.6617 78.5036 31.7888C78.6008 31.8546 78.7483 31.8418 78.8515 31.7588C78.9302 31.7167 78.9198 31.6578 78.8051 31.6535C78.4079 31.6666 78.2327 31.4491 77.8058 31.366ZM78.7679 28.6081C78.6685 28.518 78.5235 28.5306 78.2761 28.4779C78.4429 28.6116 78.5257 28.7245 78.7679 28.6081ZM72.4272 21.8651C71.9431 21.8226 71.5396 21.7485 71.1025 21.8813C71.1873 21.9096 71.3468 21.9589 71.3412 21.9704C71.1256 22.331 71.6621 22.2105 71.8612 22.3028C71.7565 22.1669 71.5309 22.0774 71.6495 21.8832C71.8894 21.8625 72.1042 22.0135 72.4272 21.8651ZM79.5821 27.3449L79.6209 27.3168L79.5885 27.295C79.4742 27.2946 79.3556 27.2905 79.2402 27.29C79.1199 27.3251 78.9956 27.3607 78.7415 27.4178C79.0165 27.4185 79.1714 27.4156 79.3256 27.4165C79.3886 27.3617 79.4846 27.3534 79.5821 27.3449ZM77.6199 25.7649C77.7751 25.7021 77.9561 25.6617 78.1674 25.6187C77.8396 25.5276 77.5148 25.5804 77.2132 25.6066C77.1334 25.5888 77.1202 25.5899 77.1261 25.6881C77.1442 26.0499 77.3702 25.8717 77.6199 25.7649ZM72.2214 20.2283C72.3245 20.1453 72.4529 20.1588 72.5832 20.1618C72.6545 20.1556 72.7178 20.1502 72.7835 20.1444C72.9103 20.0736 73.0285 20.014 73.1481 19.9543C73.0378 19.939 72.9312 19.9483 72.8219 19.9578C73.0862 19.8992 72.576 19.725 72.966 19.6912C72.5688 19.6406 72.1023 19.7272 71.79 19.9519C72.0086 19.9186 72.2105 19.8414 72.3685 19.9478C71.982 20.1295 71.9775 20.1402 72.2214 20.2283ZM68.3099 16.4362C68.3353 16.3491 68.2719 16.2914 68.1701 16.2789C68.0651 16.2633 67.9515 16.2836 67.8947 16.3488C67.8414 16.4523 67.9646 16.4661 68.0479 16.5085C68.1678 16.5436 68.2463 16.5017 68.3099 16.4362ZM71.4934 20.6939C71.4895 20.6942 71.4895 20.6942 71.4895 20.6942L71.4828 20.6805C71.4881 20.68 71.4895 20.6942 71.4934 20.6939ZM12.4118 10.2111C12.3925 10.2023 12.3401 10.182 12.3025 10.1607C12.2769 10.1876 12.2567 10.214 12.2206 10.2275C12.2688 10.248 12.3067 10.2695 12.3486 10.2801C12.3659 10.2643 12.4178 10.2351 12.4118 10.2111ZM38.2842 1.53733C38.3739 1.62514 38.4629 1.70182 38.5522 1.7825C38.7165 1.59533 38.6056 1.49575 38.1878 1.42209C38.1899 1.44672 38.1894 1.47134 38.1863 1.49651C38.0768 1.57999 37.9581 1.71057 38.1721 1.79082C38.3285 1.71349 38.1 1.60278 38.2842 1.53733ZM34.1454 1.79762C34.1433 1.77311 34.1028 1.75205 34.058 1.71036C34.0212 1.75896 33.9734 1.78801 33.9754 1.81242C33.9723 1.83737 34.0056 1.87009 34.0372 1.86739C34.1302 1.88403 34.1587 1.8459 34.1454 1.79762ZM37.475 2.38409C37.475 2.38409 37.4779 2.35914 37.4789 2.33765C37.6541 2.0793 37.6166 1.8 37.7204 1.51217C37.6855 1.49046 37.6771 1.44186 37.5994 1.44866C37.5652 1.45158 37.5388 1.45384 37.5084 1.45644C37.341 1.60538 37.4283 1.75647 37.4293 1.90466C37.389 2.05284 37.2415 2.24908 37.475 2.38409ZM22.9824 4.71072C23.1531 4.72055 23.162 4.86797 23.4057 4.8468C23.329 4.74377 23.2604 4.64052 23.1899 4.56211C23.1174 4.56837 23.0436 4.57474 22.9711 4.58101C22.8831 4.45475 22.8832 4.45475 22.4266 4.57884C22.6137 4.62248 22.7986 4.59602 22.9672 4.58144C22.9741 4.61589 22.9784 4.66482 22.9824 4.71072ZM23.9076 5.09251C23.8666 5.09597 23.835 5.09878 23.7983 5.10202C23.7128 5.15872 23.6974 5.19523 23.7009 5.23389C23.8132 5.31965 23.934 5.39698 24.0599 5.47107C24.285 5.32818 24.2677 5.28033 23.9076 5.09251ZM53.4499 6.00807C53.5225 6.0018 53.5923 5.99565 53.5607 5.92426C53.5508 5.90039 53.4863 5.90611 53.43 5.88635C53.3915 5.91432 53.3408 5.94348 53.3482 5.96746C53.3528 5.99176 53.413 6.01131 53.4499 6.00807ZM47.0391 1.24032C47.1366 1.23179 47.2831 1.31409 47.3157 1.21624C47.3613 1.11352 47.1647 1.08134 47.0224 1.04742C46.9087 1.00789 46.806 1.01686 46.7734 1.11514C46.7193 1.24334 46.8934 1.22833 47.0391 1.24032ZM65.3126 5.14825C65.5033 5.15656 65.6087 5.24232 65.864 5.24491C65.752 5.0856 65.6436 4.98516 65.3126 5.14825ZM63.5654 6.01617C63.6743 5.84757 63.8666 5.66181 63.4937 5.52464C63.4047 5.67725 62.9875 5.81215 63.1789 6.01401C63.2123 6.04684 63.499 6.10635 63.5654 6.01617ZM60.6791 6.74304C60.8379 7.04308 61.1179 7.10334 61.627 6.85439C61.3311 7.14449 61.2646 7.41872 61.2993 7.69445C61.5055 7.70136 61.7225 7.64747 61.9383 7.70277C61.7979 7.85916 61.5255 7.76336 61.3484 7.90873C61.5517 7.88076 61.5062 8.22702 61.7956 7.90884C61.8639 7.85343 61.934 7.89685 62.0178 7.91435C62.6342 7.98099 62.4276 8.27767 62.4925 8.50481C62.4604 8.53224 62.4248 8.53537 62.3878 8.5385C62.0797 8.56529 61.7342 8.54596 61.6168 8.79977C61.5518 8.83001 61.4802 8.86101 61.4033 8.89233C61.1919 8.86122 61.0133 8.92613 60.8306 9.01232C60.6602 9.12583 60.5852 9.24161 60.6766 9.39282C60.7124 9.38969 60.7418 9.40794 60.7761 9.40502C60.7457 9.40772 60.7175 9.38936 60.6766 9.39282C60.7477 9.84536 60.6105 10.298 60.9975 10.7018C61.1072 10.728 61.2076 10.7543 61.341 10.7325C61.342 10.7428 61.3495 10.7667 61.3534 10.7665C61.222 10.9969 61.8989 10.8888 61.7045 11.124C61.8606 11.1353 61.9392 11.0931 62.0232 11.0508C62.1111 10.9939 62.1895 10.8881 62.3434 10.9488C62.5331 11.0065 62.3236 11.0703 62.2868 11.1229C62.1107 11.3572 62.2777 11.5365 62.3756 11.7468C62.4676 11.6433 62.4929 11.493 62.5687 11.4162C62.6831 11.2224 62.9596 11.4422 63.1872 11.2637C63.353 11.1538 63.3194 11.4707 63.5612 11.4744C63.7251 11.2665 63.7426 11.2402 63.8659 11.314C64.0904 11.4531 64.2912 11.5807 64.6691 11.4524C64.7208 11.4231 64.8334 11.4491 64.8067 11.5111C64.6843 11.7052 65.0006 11.6179 65.0441 11.6141C65.1525 11.58 65.1989 11.5019 65.1307 11.448C64.9413 11.2702 65.2212 11.3303 65.318 11.2973C65.3918 11.2909 65.4799 11.2832 65.5281 11.2544C65.6172 11.2114 65.5207 11.1704 65.468 11.175C65.3566 11.1742 65.247 11.1838 65.1363 11.1934C65.0218 11.2034 64.8605 11.2875 64.8133 11.1721C64.7749 11.0656 64.9453 11.0261 65.0995 11.0127C65.4305 10.9736 65.764 10.9446 66.0932 10.9161C66.2857 10.8994 66.3683 10.6738 66.6085 10.7972C66.818 10.8994 66.9785 10.7899 67.1393 10.7019C67.2026 10.6963 67.264 10.6416 67.2128 10.6005C67.0684 10.5143 66.8681 10.6058 66.6987 10.5957C66.5832 10.5811 66.446 10.6671 66.3518 10.5765C66.3801 10.489 66.5338 10.4866 66.6163 10.4438C66.4887 10.395 66.3597 10.332 66.2321 10.2833C66.2361 10.2829 66.2367 10.2583 66.2408 10.2469C66.4742 10.1525 66.5327 9.99937 66.6647 9.86815C66.7486 9.88564 66.8671 9.87538 66.903 9.92161C67.1385 10.1443 67.1346 10.1447 67.4108 9.85281C67.4955 9.98987 67.3857 10.1476 67.5555 10.2531C67.5984 10.274 67.6647 10.3177 67.725 10.263C67.744 10.2368 67.7015 10.191 67.6888 10.1817C67.7274 10.1536 67.7661 10.1256 67.8022 10.1114C68.1129 10.0844 68.154 9.89763 68.3297 9.79784C68.4308 9.69026 68.5352 9.61034 68.636 9.50288C68.7127 9.43645 68.7847 9.36647 68.8605 9.28968C69.0647 9.14851 68.8398 9.14333 68.719 9.08306C68.8191 8.95086 69.1662 8.89589 69.1862 8.65439C68.7023 8.89017 68.2689 9.09732 67.8397 9.30404C67.6067 9.37381 67.5439 9.53787 67.4489 9.67989C67.4171 9.55925 67.371 9.44358 67.4455 9.41237C67.8332 9.2307 67.5498 9.0998 67.4539 8.97387C67.2741 8.72168 66.9868 8.51712 67.3509 8.22821C67.3873 8.17561 67.1713 8.1944 67.0683 8.20315C67.0943 8.10541 66.8976 8.02375 67.1615 7.97623C67.3863 7.9353 67.409 7.84544 67.2205 7.81574C66.8161 7.74165 67.0233 7.57554 67.0057 7.41785C67.4013 7.18974 67.7591 6.95397 67.7244 6.61462C67.8283 6.49636 67.9287 6.35368 67.8094 6.21911C67.7571 6.08983 67.7744 5.95439 67.5591 5.88808C67.5336 5.73169 67.3084 5.6914 67.1944 5.61612C67.1963 5.59128 67.1941 5.56676 67.1879 5.54268C66.7808 5.29913 66.2302 5.38261 65.7064 5.41707C65.6317 5.39882 65.5566 5.4054 65.4803 5.41199C65.0482 5.38964 64.7884 5.53242 64.5646 5.7494C64.8177 5.57929 65.1588 5.50023 65.4803 5.41199L65.4772 5.37721C65.125 5.24923 64.7925 5.47172 64.4796 5.4742C64.0025 5.45573 63.8582 5.68719 63.899 5.79292C63.9786 6.00494 63.8033 6.18919 63.7692 6.37593C63.6181 6.19492 63.2893 6.1987 62.9927 6.17504C62.7796 6.16889 62.6154 6.15841 62.7255 6.00386C62.7694 5.92599 62.8804 5.83191 62.6733 5.81474C62.5248 5.80286 62.4457 5.80977 62.3278 5.90449C62.1314 6.10484 61.8272 6.19157 61.4939 6.03669C61.3074 5.96843 61.1349 5.98334 60.9807 6.10592C60.9691 6.107 60.9604 6.13238 60.9442 6.15852C60.9442 6.15852 60.9377 6.15906 60.9323 6.15949C60.9394 6.13422 60.9552 6.13281 60.9584 6.10786C60.8898 6.00461 60.7094 5.96055 60.5721 6.03215C60.3247 6.16284 60.0694 6.29471 59.855 6.47195C59.7579 6.52984 59.7736 6.60253 59.8343 6.69271C59.9142 6.77036 60.0596 6.7331 60.1738 6.68796C60.3857 6.62024 60.6005 6.60155 60.6791 6.74304ZM67.5412 6.10862C67.5504 6.10776 67.5463 6.10819 67.5529 6.10743L67.5504 6.10776C67.5463 6.10819 67.5463 6.10819 67.5412 6.10862ZM62.4181 8.77957C62.397 8.78141 62.3812 8.78281 62.3637 8.80906C62.3681 8.78389 62.3773 8.78303 62.3812 8.78281C62.3931 8.78184 62.4088 8.78044 62.4181 8.77957ZM63.3613 9.35361L63.3663 9.35318C63.3613 9.35361 63.3573 9.35383 63.3573 9.35383C63.3573 9.35383 63.3573 9.35383 63.3613 9.35361ZM63.3624 8.72244C63.3728 8.72146 63.3799 8.74166 63.3864 8.74112C63.357 8.76845 63.3267 8.77093 63.3024 8.79782C63.3201 8.77147 63.343 8.74501 63.3624 8.72244ZM62.5994 9.78358C62.5922 9.75939 62.5881 9.75982 62.5802 9.76057C62.5881 9.75982 62.5922 9.75939 62.5972 9.75906C62.5972 9.75906 62.5973 9.75906 62.5994 9.78358ZM63.891 10.2428C63.7468 10.2801 63.5789 10.2556 63.4614 10.3398C63.6063 10.3273 63.7531 10.3042 63.891 10.2428ZM65.4002 9.66024L65.6088 8.39302C65.6088 8.39302 65.6194 8.39205 65.6246 8.39162C65.6194 8.39205 65.6153 8.39248 65.6088 8.39302C65.6088 8.39302 65.6034 8.39346 65.6088 8.39302L65.4002 9.66024ZM66.5248 7.23079C66.5207 7.23111 66.5051 7.23241 66.4984 7.23295C66.5591 7.22787 66.6201 7.19774 66.6838 7.1675C66.6275 7.22171 66.5421 7.26438 66.5248 7.23079ZM64.5711 7.61874C64.5554 7.61993 64.5304 7.62219 64.5172 7.62327C64.5172 7.62327 64.5147 7.6236 64.5108 7.62382C64.5283 7.59779 64.5424 7.62122 64.5599 7.59498C64.5674 7.61895 64.5711 7.61874 64.5711 7.61874ZM62.3594 9.52566C62.3273 9.5531 62.2904 9.55634 62.2589 9.55893C62.2667 9.55839 62.2844 9.53204 62.2924 9.51724C62.312 9.51541 62.3383 9.52739 62.3594 9.52566ZM67.082 5.82025L67.0846 5.81993C67.082 5.82025 67.082 5.82025 67.082 5.82025ZM41.4033 3.35548C41.4033 3.35548 41.4071 3.35505 41.4147 3.37924C41.4 3.38032 41.3935 3.38086 41.3805 3.38216C41.3777 3.38226 41.3738 3.3827 41.3685 3.38313C41.3805 3.38216 41.3913 3.35645 41.4033 3.35548ZM51.2344 1.92064C51.2187 1.92204 51.203 1.91243 51.1872 1.91383C51.2016 1.91243 51.2085 1.912 51.2215 1.91092C51.2224 1.92161 51.2383 1.92042 51.2344 1.92064ZM26.0002 46.0229C26.0002 46.0229 26.0002 46.0229 26.0054 46.0223C26.0002 46.0229 26.0054 46.0223 26.0002 46.0229ZM21.2345 42.0118C21.2398 42.0112 21.2419 42.0358 21.2511 42.0351C21.2366 42.0362 21.2326 42.0366 21.2273 42.0371C21.2326 42.0366 21.2261 42.0229 21.2345 42.0118ZM22.7697 7.30801C24.2815 8.48083 23.376 7.77837 22.7697 7.30801V7.30801ZM49.9849 5.0667C50.0135 5.13831 50.0488 5.20937 50.0927 5.2407C50.0165 5.24739 49.9346 5.25452 49.8816 5.22396C49.9612 5.19231 49.9587 5.11833 49.9849 5.0667ZM22.7483 42.3672C22.8244 42.3605 22.8285 42.3602 22.8488 42.3799C22.7876 42.3639 22.7152 42.3701 22.6497 42.351C22.6824 42.3587 22.7112 42.3704 22.7483 42.3672ZM23.629 42.7743C23.5607 42.7803 23.5103 42.7847 23.4585 42.8138C23.5103 42.7847 23.5597 42.7699 23.629 42.7743ZM23.9971 7.22614C23.9989 7.2013 23.9989 7.2013 23.9989 7.2013C24.1523 7.39938 24.1358 7.26686 23.9971 7.22614ZM24.2955 42.5468L24.2862 42.5477L24.2809 42.5481C24.2862 42.5477 24.2902 42.5473 24.2955 42.5468ZM50.4649 3.46921C50.4649 3.46921 50.4608 3.46953 50.4586 3.44512C50.4857 3.46748 50.4995 3.44156 50.5192 3.43983C50.4995 3.44156 50.4857 3.46748 50.4649 3.46921ZM39.1787 3.83113C39.1853 3.83059 39.1788 3.83113 39.1853 3.83059C39.18 3.83102 39.18 3.83102 39.1787 3.83113C39.1787 3.83113 39.18 3.83102 39.1787 3.83113ZM20.9561 40.4411C20.9614 40.4406 20.9614 40.4406 20.9666 40.4545C20.9666 40.4545 20.9561 40.4411 20.9522 40.4415L20.9561 40.4411ZM74.7836 36.9983C74.7889 37.0121 74.7929 37.0117 74.7989 37.0217C74.7899 37.0224 74.7889 37.0122 74.7848 37.0125C74.7848 37.0125 74.7848 37.0125 74.7836 36.9983ZM74.0049 36.9566C74.0039 36.9463 74.0078 36.9459 74.0078 36.9459C74.0236 36.9445 74.0395 36.9432 74.0605 36.9413C74.0395 36.9432 74.0236 36.9445 74.0049 36.9566ZM74.5125 30.2654C74.5206 30.2647 74.5263 30.2395 74.5356 30.2387C74.5263 30.2395 74.5232 30.2645 74.5167 30.265L74.5125 30.2654ZM51.342 5.82381C51.3513 5.82295 51.346 5.82338 51.3551 5.82273C51.3605 5.8223 51.3513 5.82295 51.3513 5.82295C51.346 5.82338 51.346 5.82338 51.342 5.82381ZM26.4206 6.85731C26.4168 6.85752 26.4168 6.85752 26.4115 6.85806C26.4155 6.84348 26.4155 6.84348 26.4235 6.84273C26.4235 6.84273 26.4194 6.84316 26.4206 6.85731ZM25.9701 6.83657C25.9887 6.83484 25.9866 6.81043 25.9957 6.80968L25.9928 6.83463C25.9887 6.83484 25.9755 6.83614 25.9701 6.83657ZM15.7915 11.2689C15.7863 11.2556 15.7783 11.2699 15.7771 11.2564C15.781 11.2561 15.7863 11.2556 15.7956 11.2547C15.7956 11.2547 15.7903 11.2552 15.7915 11.2689C18.0871 11.444 17.9882 11.4367 15.7915 11.2689ZM74.175 29.8924C74.215 29.8785 74.2567 29.8853 74.2976 29.8818C74.3027 29.8813 74.3108 29.8948 74.3158 29.8946C74.2671 29.8987 74.2212 29.8885 74.175 29.8924ZM25.6642 46.0979C25.6642 46.0979 25.6745 46.1108 25.6703 46.1222C25.6518 46.1237 25.6498 46.0993 25.6326 46.1007C25.6456 46.0996 25.6498 46.0993 25.6642 46.0979ZM30.3363 45.4984C30.3487 45.4868 30.3423 45.4731 30.3272 45.4529C30.3323 45.4527 30.3323 45.4527 30.3364 45.4523C30.3374 45.4631 30.3394 45.4877 30.3363 45.4984ZM73.0652 38.7779C73.0856 38.7866 73.0803 38.8014 73.108 38.7989C73.087 38.8008 73.0673 38.8024 73.046 38.8043C73.046 38.8043 73.0594 38.7887 73.0652 38.7779ZM76.339 29.7436C76.3351 29.744 76.3298 29.7444 76.3298 29.7444C76.3298 29.7444 76.3351 29.744 76.339 29.7436ZM51.4549 6.25205L51.4086 6.25594C51.4201 6.25497 51.4356 6.25345 51.4522 6.25097L51.4549 6.25205ZM47.0872 2.1603C47.0679 2.18341 47.0701 2.20782 47.0831 2.22057C47.0831 2.22057 47.0804 2.22068 47.0751 2.22111C47.0819 2.20685 47.0837 2.18201 47.0872 2.1603ZM30.2356 5.71116L29.4856 5.92123C29.4802 5.92166 29.4802 5.92166 29.4802 5.92166L29.4856 5.92123L30.2356 5.71116ZM24.5383 6.19524C24.535 6.20593 24.5259 6.2068 24.53 6.20637C24.5074 6.20831 24.485 6.21025 24.4574 6.21263C24.4842 6.19999 24.5115 6.20788 24.5383 6.19524ZM22.3525 7.1959C22.3655 7.19482 22.3906 7.20703 22.409 7.2053C22.4037 7.20573 22.3944 7.20659 22.3906 7.20703C22.3748 7.19396 22.3617 7.19525 22.3525 7.1959ZM26.229 46.0736C26.2475 46.0721 26.2606 46.071 26.2802 46.083C26.267 46.0841 26.2579 46.085 26.2496 46.0966C26.2475 46.0721 26.229 46.0736 26.229 46.0736ZM31.9503 45.2382C31.9447 45.2434 31.9416 45.2488 31.9387 45.2533C31.9303 45.2559 31.9212 45.2578 31.9118 45.2592C31.9106 45.2543 31.9107 45.2475 31.9043 45.2421C31.9228 45.2406 31.9362 45.2393 31.9503 45.2382ZM73.4351 37.7013C73.4442 37.7007 73.4388 37.6869 73.4537 37.675C73.4578 37.6746 73.4671 37.674 73.4736 37.6734C73.4535 37.6998 73.4535 37.6998 73.4351 37.7013ZM75.914 36.7311C75.9389 36.729 75.9368 36.7046 75.9525 36.7032C75.9578 36.7026 75.96 36.7271 75.9639 36.7269C75.9482 36.7281 75.9296 36.7298 75.914 36.7311ZM72.8082 34.7142C72.7455 34.7582 72.717 34.7963 72.6923 34.8479C72.7078 34.7971 72.7572 34.7571 72.8082 34.7142ZM74.4739 32.7242L77.4948 30.2745C77.4632 30.2772 77.429 30.2802 77.3993 30.258C77.5713 30.2678 77.653 30.2607 77.7438 30.2528C77.7464 30.2527 77.7524 30.2768 77.7577 30.2762C77.6612 30.2463 77.5754 30.2538 77.4948 30.2745L74.4739 32.7242ZM75.3034 28.3477L75.3061 28.3476C75.4011 28.3888 75.5106 28.3791 75.6229 28.3449C75.4734 28.4566 75.3686 28.4409 75.3034 28.3477ZM75.6212 27.7132C75.6212 27.7132 75.6212 27.7132 75.6265 27.7127C75.6212 27.7132 75.6212 27.7132 75.6212 27.7132ZM51.9908 4.44438C51.9886 4.41986 51.9886 4.41986 51.9927 4.41943C52.0085 4.41803 52.0297 4.41619 52.0493 4.41457C52.0297 4.41619 52.0105 4.44254 51.9908 4.44438ZM51.7914 1.94645C51.7914 1.94645 51.7854 1.92215 51.7892 1.92193C51.83 1.91826 51.8691 1.93965 51.91 1.93619C51.864 1.94019 51.8328 1.91815 51.7914 1.94645ZM51.4449 1.97648L51.447 2.0011C51.447 2.0011 51.447 2.0011 51.4417 2.00154C51.447 2.0011 51.4449 1.97648 51.4449 1.97648ZM50.0417 1.33266C50.0417 1.33266 50.0469 1.33212 50.049 1.35686C50.0281 1.35848 50.0097 1.3602 49.9898 1.36182C50.0083 1.36031 50.0281 1.35848 50.0417 1.33266ZM22.8687 6.35055C22.8329 6.35357 22.7921 6.35725 22.7573 6.38479C22.7736 6.35876 22.7921 6.35725 22.8053 6.35595C22.8275 6.35401 22.8461 6.35249 22.8687 6.35055ZM19.8011 42.1362C19.8132 42.1209 19.8236 42.1343 19.8315 42.1191C19.8236 42.1343 19.8236 42.1343 19.8143 42.1351C19.8051 42.1358 19.809 42.1356 19.8011 42.1362ZM23.4571 44.0664C23.8005 44.171 24.1632 44.1889 24.5196 44.1826C24.5409 44.2263 24.535 44.2658 24.6065 44.2947C24.5537 44.3735 24.4964 44.4492 24.4425 44.5171C24.3554 44.2919 24.344 44.2681 23.9754 44.3495C23.4732 44.4672 23.4584 44.2955 23.4571 44.0664ZM24.5912 45.2208C24.5912 45.2208 24.5912 45.2208 24.5921 45.2312C24.5861 45.2212 24.5861 45.2212 24.5861 45.2212C24.5912 45.2208 24.5861 45.2212 24.5912 45.2208ZM27.5068 46.5731C27.5425 46.5558 27.5824 46.5419 27.6118 46.5147C27.5824 46.5419 27.5415 46.5454 27.5068 46.5731ZM76.3268 36.501C76.3175 36.5018 76.3131 36.5269 76.3049 36.5381C76.309 36.5272 76.3175 36.5018 76.3268 36.501ZM51.3756 6.67154C51.3837 6.67089 51.3929 6.67003 51.3995 6.66949C51.4033 6.66905 51.4033 6.66905 51.4033 6.66905C51.3929 6.67003 51.3837 6.67089 51.3756 6.67154ZM52.6458 2.90564C52.6458 2.90564 52.6458 2.90564 52.6499 2.90542C52.6458 2.90564 52.6458 2.90564 52.6458 2.90564ZM37.7729 2.83457C37.7636 2.83544 37.7569 2.83598 37.7423 2.83727C37.7504 2.82226 37.7636 2.83544 37.7715 2.82043C37.7729 2.83457 37.7729 2.83457 37.7729 2.83457ZM27.1138 5.78785C27.112 5.81269 27.1005 5.78904 27.0989 5.81398C27.0968 5.78936 27.1005 5.78903 27.1005 5.78903C27.1059 5.7886 27.1098 5.78817 27.1138 5.78785ZM65.2536 11.8396C65.3651 11.8404 65.4764 11.8554 65.5906 11.856C65.5802 11.8114 65.5608 11.7389 65.4333 11.7252C65.3336 11.7092 65.2861 11.7874 65.2536 11.8396ZM62.9711 11.6952C63.0355 11.6896 63.116 11.6826 63.1261 11.6465C63.0846 11.5652 63.0035 11.5475 62.8945 11.5323C62.8167 11.539 62.7724 11.5922 62.7832 11.627C62.7964 11.6856 62.8749 11.7035 62.9711 11.6952ZM58.9519 10.4419C59.0454 10.4339 59.0544 10.3838 59.0316 10.3363C59.0049 10.2891 58.9421 10.2842 58.9502 10.2834C58.7664 10.3099 58.733 10.3375 58.786 10.3821C58.818 10.4289 58.8978 10.4466 58.9519 10.4419ZM60.0089 10.3255C59.9433 10.1973 59.7242 10.3009 59.6442 10.283C59.4608 10.2496 59.3154 10.287 59.3376 10.3591C59.3847 10.4751 59.6507 10.4027 59.8024 10.439C59.906 10.4546 60.0472 10.3821 60.0089 10.3255ZM59.2598 9.35653C59.5797 9.21947 59.9597 9.03846 60.2784 9.31754C60.3133 9.35016 60.4044 9.39163 60.5135 9.33277C60.5728 9.20414 60.1751 9.1186 60.3162 9.0323C60.5405 8.83282 60.3143 8.71844 60.2533 8.60017C59.6079 8.65623 59.0316 8.98845 58.2676 8.79728C58.3823 8.9109 58.4362 8.95216 58.4932 9.01048C58.5786 9.41572 58.8272 9.52858 59.2598 9.35653ZM59.223 47.6327C58.9868 47.602 58.9617 47.8455 58.6702 47.7514C58.6291 47.431 58.4315 47.6697 58.2095 47.6426C58.4795 47.4316 58.5377 47.1852 58.3013 46.8407C58.701 47.0867 59.0074 47.257 59.3256 47.4332C59.4089 47.4782 59.5556 47.5129 59.5362 47.5948C59.4983 47.6976 59.3483 47.6369 59.223 47.6327ZM40.1266 48.5307C40.1505 48.6016 40.062 48.5913 39.9912 48.5747C39.9041 48.5686 39.8795 48.5123 39.8575 48.4564C39.8555 48.4471 39.8566 48.4417 39.8602 48.4374C39.8473 48.4439 39.824 48.421 39.7693 48.3346C39.7163 48.2603 39.8414 48.1674 39.9587 48.2056C40.2422 48.3232 40.5938 48.3703 40.8324 48.5746C40.4657 48.6255 40.2531 48.387 39.9461 48.3291C39.8741 48.3121 39.8829 48.412 39.8642 48.4339C39.8852 48.4225 39.9433 48.4514 39.9583 48.4551C40.0225 48.4703 40.1058 48.5152 40.1266 48.5307ZM43.0174 48.9539C43.0184 48.99 42.9714 49.0042 42.933 49.0349C42.8898 48.9995 42.8467 48.964 42.8433 48.9379C42.8438 48.9127 42.8781 48.8704 42.9 48.8756C42.9947 48.8726 43.0232 48.9298 43.0174 48.9539ZM61.7078 45.9551C61.6968 45.9777 61.6295 45.9871 61.5757 45.9963C61.5408 45.9663 61.4886 45.9286 61.4879 45.9144C61.4994 45.9059 61.5544 45.8682 61.5891 45.8765C61.6636 45.8833 61.7318 45.9102 61.7078 45.9551ZM59.9962 45.1534C59.7901 45.1519 59.6828 45.0541 59.58 44.9539C59.8709 44.8496 59.8883 45.0521 59.9962 45.1534ZM5.92796 41.3847C5.86359 41.3695 5.80495 41.3411 5.63506 41.2903C5.91554 41.2302 6.058 41.2424 6.19063 41.3709C6.11135 41.4134 6.01933 41.4063 5.92796 41.3847ZM57.6347 49.6955C57.6341 49.7207 57.5836 49.734 57.547 49.7507C57.5178 49.7184 57.4813 49.6952 57.3952 49.639C57.4499 49.6266 57.5005 49.6134 57.5353 49.6215C57.5753 49.6309 57.6222 49.6673 57.6347 49.6955ZM57.2223 49.721C57.1012 49.5948 56.971 49.5133 57.0909 49.444C57.113 49.4239 57.2103 49.4329 57.229 49.4513C57.3779 49.5336 57.3786 49.6351 57.2223 49.721ZM57.572 49.1099C57.5626 48.9707 57.7541 49.0518 57.8381 49.0356C57.9472 49.011 58.1373 48.9946 58.054 48.9098C57.8283 48.6575 58.1559 48.836 58.227 48.8169C58.6175 48.808 58.3627 48.972 58.444 49.0419C58.4863 49.0878 58.5259 49.1331 58.5691 49.1685C58.7852 49.3459 58.8807 49.517 58.8896 49.6921C58.9072 49.7215 58.9286 49.7519 58.9267 49.7767L58.9308 49.7776C58.9942 49.905 58.9692 50.0109 58.9803 50.1253C59.059 50.2058 59.0692 50.284 59.0739 50.3609C59.0814 50.4852 59.1184 50.6675 58.8264 50.5986C58.5595 50.5608 58.5875 50.419 58.6429 50.3057C58.5405 49.9855 58.4325 49.6712 58.3268 49.3607C58.2956 49.3533 58.2725 49.3367 58.2487 49.3171C58.2301 49.3379 58.2211 49.3358 58.2121 49.3336C58.1961 49.3439 58.1665 49.3481 58.1562 49.3345C58.0524 49.2959 58.1782 49.1772 57.9929 49.1335C57.9052 49.1487 57.8964 49.1865 57.9139 49.2267C57.9506 49.3477 57.858 49.4229 57.7478 49.498C57.7428 49.497 57.6436 49.4627 57.6198 49.4426C57.5219 49.3223 57.5719 49.2077 57.572 49.1099ZM58.8149 49.9744C58.8149 49.9744 58.8149 49.9744 58.8173 49.9644C58.8097 49.9731 58.8097 49.9731 58.8059 49.9724C58.8097 49.9731 58.8097 49.9731 58.8149 49.9744ZM55.6865 50.3548C55.781 50.352 55.9226 50.2876 55.9558 50.3826C56.0106 50.5073 55.8131 50.533 55.6909 50.5548C55.5752 50.5668 55.4777 50.5657 55.434 50.4689C55.3721 50.3166 55.543 50.3462 55.6865 50.3548ZM0.324477 30.33C0.319401 30.34 0.359038 30.3852 0.35407 30.424L0.352127 30.4359C0.528822 30.5523 0.749367 30.6557 0.735435 30.7995C0.732194 30.8129 0.613496 30.8212 0.558089 30.8082C0.237748 30.7078 0.416712 30.5816 0.350938 30.4401C0.329445 30.5064 0.217985 30.4919 0.132769 30.5089C0.0545741 30.501 0.0439892 30.4373 0.0405331 30.4111C0.0509015 30.3378 0.0851393 30.2847 0.324477 30.33ZM0.4152 31.3953C0.279222 31.4137 0.23872 31.4293 0.193683 31.4187C0.0773618 31.4165 0.130178 31.3533 0.109009 31.3229C0.146378 31.3318 0.187742 31.3055 0.234076 31.3164C0.277386 31.3121 0.325772 31.3488 0.4152 31.3953ZM1.06398 34.9581C1.05653 35.0069 0.980173 35.0143 0.905433 34.9966C0.814062 34.975 0.739969 34.9322 0.733272 34.88C0.762542 34.8364 0.825402 34.8007 0.905325 34.8196C1.00437 34.843 1.06895 34.9089 1.06398 34.9581ZM1.57625 37.1204C1.6862 37.1211 1.78599 37.1698 1.79312 37.2728C1.70359 37.3633 1.56188 37.3771 1.36305 37.3442C1.29997 37.3291 1.18452 37.3526 1.20201 37.2555C1.23247 37.115 1.40085 37.1148 1.57625 37.1204ZM58.9119 42.232C58.642 42.2075 58.5167 42.1386 58.3849 41.9845C58.6716 42.0015 58.7562 42.0973 58.9119 42.232ZM74.9643 46.9461L74.9604 46.9452C74.9604 46.9452 74.9604 46.9452 74.9643 46.9461ZM70.2572 42.5759C70.2548 42.5859 70.2485 42.5957 70.2394 42.5935C70.2485 42.5957 70.2523 42.5966 70.2575 42.5978C70.2523 42.5966 70.2548 42.5859 70.2572 42.5759ZM71.039 43.0566L71.0429 43.0576C71.039 43.0566 71.0301 43.0546 71.0248 43.0534C71.0301 43.0546 71.0338 43.0553 71.039 43.0566ZM71.4677 42.1753C71.327 42.1313 71.1788 42.1436 71.0569 42.0676C71.1951 42.075 71.327 42.1313 71.4677 42.1753ZM73.0045 42.8997L73.0081 42.9007L73.0045 42.8997ZM73.3115 44.1932C73.3167 44.1943 73.3206 44.1953 73.3258 44.1965C73.3206 44.1953 73.3167 44.1943 73.3115 44.1932C73.3077 44.1922 73.3115 44.1932 73.3115 44.1932ZM71.0924 43.716C71.0978 43.7172 71.0978 43.7172 71.1079 43.6977C71.0757 43.6901 71.0554 43.66 71.0285 43.6537C71.0446 43.6827 71.0717 43.6891 71.0924 43.716ZM70.0334 42.8337C70.0055 42.8124 69.9695 42.8039 69.9386 42.7967C69.9515 42.7997 69.9662 42.8177 69.977 42.8309C69.9948 42.8351 70.0128 42.8395 70.0334 42.8337ZM74.3036 45.4461C74.2928 45.4688 74.28 45.4659 74.2748 45.4646C74.3476 45.4565 74.4254 45.5002 74.5028 45.5297C74.4678 45.4596 74.3171 45.424 74.3036 45.4461ZM70.1576 43.5961C70.1395 43.5918 70.1176 43.5866 70.0957 43.5814C70.1033 43.5834 70.1124 43.5854 70.1214 43.5876C70.1304 43.5897 70.1485 43.5939 70.1576 43.5961ZM75.3796 46.6723C75.3885 46.6744 75.3885 46.6744 75.3937 46.6757L75.3885 46.6744C75.3848 46.6735 75.3848 46.6735 75.3796 46.6723ZM74.9571 46.9192C74.9571 46.9192 74.9571 46.9192 74.9608 46.9199C74.9571 46.9192 74.9608 46.9199 74.9571 46.9192L74.9519 46.9179L74.9571 46.9192C74.9372 46.9396 74.9353 46.914 74.9263 46.9118C74.9243 46.9367 74.9428 46.9157 74.9424 46.9409C74.9462 46.9419 74.9462 46.9419 74.9571 46.9192ZM72.3442 44.9578C72.3465 44.9477 72.355 44.9351 72.355 44.9351C72.3409 44.9317 72.3149 44.9256 72.2977 44.9361C72.2977 44.9361 72.2953 44.9463 72.2912 44.9453C72.3093 44.9495 72.3208 44.9416 72.3442 44.9578ZM71.5014 41.8478C71.9529 41.9041 72.4013 41.9847 72.8459 42.1038C72.3981 41.9981 71.9529 41.9041 71.5014 41.8478ZM75.5416 43.0768C75.5379 43.0758 75.5379 43.0758 75.5379 43.0758C75.5288 43.0739 75.5147 43.0704 75.5068 43.0685C75.5147 43.0704 75.5288 43.0739 75.5416 43.0768ZM73.2796 47.5194C73.4602 47.5261 73.5592 47.4231 73.8101 47.4317C73.7102 47.5958 73.6118 47.6956 73.2796 47.5194ZM71.4979 46.5028C71.6102 46.6771 71.8223 46.8897 71.4693 47.0157C71.3606 46.8424 70.946 46.6938 71.1093 46.4974C71.1509 46.4421 71.4171 46.4078 71.4979 46.5028ZM0.331713 28.19C0.335709 28.2416 0.237318 28.2436 0.173811 28.214C0.111709 28.1886 0.0344838 28.1597 0.0124509 28.1145C-0.0110941 28.0586 0.0586787 28.039 0.138602 28.0579C0.225114 28.089 0.330633 28.1139 0.331713 28.19ZM1.41694 28.2729C1.33702 28.2541 1.29241 28.2182 1.27924 28.1645C1.28539 28.1155 1.32546 28.0782 1.40657 28.0975C1.45896 28.135 1.52991 28.1733 1.54298 28.2162C1.56663 28.283 1.49265 28.2908 1.41694 28.2729ZM2.13495 29.1903C2.15602 28.8594 2.39881 28.964 2.63016 29.0838C2.4715 29.0821 2.28854 29.075 2.13495 29.1903ZM0.864175 27.8682C0.996805 27.8994 1.12252 27.9545 1.10503 28.0515C1.0871 28.1443 0.931028 28.144 0.78425 28.1093C0.651729 28.0779 0.542214 28.0409 0.53001 27.937C0.579476 27.8368 0.717505 27.8335 0.864175 27.8682ZM1.22998 28.3046C1.04951 28.5333 0.692772 28.5247 0.478275 28.6218C0.372539 28.6728 0.228461 28.6387 0.138386 28.5417C0.0665628 28.4887 0.0855706 28.4318 0.199515 28.4443C0.590599 28.5148 0.795591 28.3249 1.22998 28.3046ZM72.8746 40.7528C72.778 40.7697 72.7295 40.6931 72.6886 40.6476C72.8038 40.6383 72.907 40.6373 73.0183 40.6383C73.0134 40.699 72.9998 40.757 72.8746 40.7528ZM66.7178 41.7866C66.6936 41.8314 66.6325 41.8311 66.6365 41.8321C66.464 41.7912 66.4239 41.7424 66.4661 41.7018C66.5069 41.6896 66.5738 41.6656 66.6288 41.6679C66.7216 41.6898 66.7336 41.7432 66.7178 41.7866ZM67.4647 41.7137C67.5597 41.7141 67.7036 41.7953 67.6776 41.865C67.6231 41.9754 67.3975 41.8601 67.3267 41.8834C67.1381 41.9112 66.997 41.8527 67.0132 41.784C67.0525 41.6414 67.3152 41.7541 67.4647 41.7137ZM67.0156 42.8031C67.3448 42.9567 67.7253 43.1696 68.018 42.9029C68.048 42.8734 68.1327 42.8322 68.244 42.8946C68.3228 43.0396 67.9304 43.0952 68.0773 43.2276C68.3045 43.4329 68.0993 43.507 68.0478 43.6684C67.416 43.5696 66.818 43.1683 66.0845 43.3162C66.1895 43.2292 66.2416 43.1692 66.2891 43.1297C66.3442 42.695 66.5768 42.6017 67.0156 42.8031ZM0.677867 25.4363C0.789328 25.3616 0.93103 25.3951 1.18333 25.3788C0.998965 25.487 0.900573 25.5867 0.677867 25.4363ZM7.92928 19.6839C8.41433 19.7121 8.82443 19.6973 9.23765 19.892C9.14963 19.9077 8.9847 19.9334 8.98859 19.9456C9.14952 20.3337 8.63628 20.1366 8.42578 20.1991C8.54912 20.0799 8.78533 20.024 8.69612 19.8146C8.46175 19.7593 8.22738 19.8776 7.92928 19.6839ZM0.0554364 24.0685L0.0211998 24.035L0.0564094 24.0182C0.16949 24.0342 0.287431 24.0474 0.401699 24.0637C0.515644 24.116 0.633584 24.1691 0.876486 24.2624C0.604423 24.2234 0.451597 24.198 0.298879 24.1765C0.244553 24.1132 0.150696 24.091 0.0554364 24.0685ZM2.226 22.7897C2.08149 22.705 1.90825 22.6388 1.70553 22.5656C2.04304 22.523 2.35669 22.6224 2.65132 22.6919C2.73287 22.686 2.74583 22.689 2.72563 22.7853C2.65543 23.1406 2.45757 22.9315 2.226 22.7897ZM8.37027 18.0943C8.28019 17.9972 8.15123 17.9919 8.02174 17.976C7.95229 17.9596 7.8904 17.945 7.82625 17.9298C7.71112 17.8414 7.60268 17.7652 7.49306 17.6887C7.6043 17.6897 7.70842 17.7143 7.81523 17.7396C7.56229 17.6433 8.09237 17.5449 7.71133 17.4549C8.1117 17.4625 8.56068 17.6157 8.83706 17.8833C8.6257 17.8187 8.43712 17.7131 8.2654 17.7954C8.62138 18.0313 8.62429 18.0426 8.37027 18.0943ZM9.02305 18.6605C9.02693 18.6614 9.02694 18.6614 9.02694 18.6614L9.03547 18.6488C9.03028 18.6475 9.02693 18.6614 9.02305 18.6605ZM69.0003 16.8545C69.0206 16.8487 69.0754 16.8362 69.1156 16.8206C69.137 16.8509 69.1533 16.88 69.1869 16.8986C69.1364 16.9119 69.0958 16.9276 69.0528 16.932C69.0379 16.9139 68.9908 16.8774 69.0003 16.8545ZM59.3389 9.8797C59.1685 9.8648 59.1383 10.0093 58.9003 9.95304C58.991 9.86221 59.0739 9.76997 59.155 9.70258C59.2259 9.71932 59.2979 9.73627 59.3688 9.75301C59.4741 9.6408 59.4741 9.6408 59.9078 9.82991C59.7163 9.8459 59.5373 9.79287 59.3727 9.75399C59.3607 9.78714 59.3494 9.83488 59.3389 9.8797ZM58.368 10.1234C58.408 10.1328 58.4389 10.1401 58.4748 10.1486C58.5511 10.2171 58.5611 10.2555 58.552 10.2933C58.4285 10.3617 58.2977 10.4207 58.1625 10.4758C57.9604 10.3018 57.9846 10.257 58.368 10.1234ZM17.3924 4.17523C17.2025 4.15579 17.0858 4.22535 16.8328 4.191C16.9668 4.04952 17.0885 3.96592 17.3924 4.17523ZM18.9954 5.28735C18.9121 5.10472 18.7486 4.89303 19.1376 4.81138C19.2034 4.97533 19.5967 5.16931 19.3781 5.34125C19.3402 5.3689 19.048 5.38618 18.9954 5.28735ZM15.0482 4.80242C15.0391 4.80026 15.0432 4.80123 15.0366 4.7995L15.0391 4.80025C15.0432 4.80123 15.0432 4.80123 15.0482 4.80242ZM16.6323 7.53655L16.6288 7.34279C16.6288 7.34279 16.6185 7.3403 16.6135 7.33911C16.6185 7.3403 16.6225 7.34128 16.6288 7.34279C16.6288 7.34279 16.6342 7.34408 16.6288 7.34279L16.6323 7.53655ZM15.8911 6.06002C15.895 6.06099 15.9104 6.06445 15.917 6.06596C15.8576 6.05213 15.8016 6.01358 15.7429 5.97437C15.7907 6.03626 15.8691 6.09069 15.8911 6.06002ZM17.7678 6.72716C17.7833 6.73062 17.8077 6.73645 17.8205 6.73947C17.8205 6.73947 17.823 6.74012 17.8269 6.74099C17.8133 6.71258 17.7959 6.73375 17.7824 6.70524C17.7715 6.72792 17.7678 6.72716 17.7678 6.72716ZM15.5442 4.58371L15.5418 4.58295C15.5442 4.58371 15.5442 4.58371 15.5442 4.58371ZM31.7898 3.02293C31.8053 3.02661 31.8221 3.01937 31.8375 3.02304C31.8234 3.01959 31.8167 3.01807 31.804 3.01516C31.8016 3.02563 31.7861 3.02218 31.7898 3.02293ZM50.3632 50.3178C50.3632 50.3178 50.3632 50.3178 50.358 50.3166C50.3632 50.3178 50.358 50.3166 50.3632 50.3178ZM65.5637 14.1642C65.5637 14.1642 65.5637 14.1642 65.5581 14.1881C65.5581 14.1881 65.5618 14.1891 65.567 14.1904C65.5618 14.1891 65.5674 14.1652 65.5674 14.1652L65.5637 14.1642ZM58.415 41.0455C58.4116 41.0193 58.4078 41.0185 58.4026 41.0172C58.4026 41.0172 58.4168 41.0206 58.406 41.0433L58.415 41.0455ZM10.3302 37.9934C10.3302 37.9934 10.3366 37.9949 10.3372 38.0093C10.3404 37.9959 10.3366 37.9949 10.3366 37.9949C10.3314 37.9937 10.3314 37.9937 10.3314 37.9937L10.3302 37.9934ZM55.66 47.04C55.6548 47.0389 55.6492 47.0627 55.6401 47.0607C55.6544 47.0639 55.6583 47.0649 55.6635 47.0662C55.6583 47.0649 55.6666 47.0522 55.66 47.04ZM59.1725 12.4803C57.5069 13.4217 58.5045 12.8579 59.1725 12.4803V12.4803ZM54.1108 47.1723C54.0364 47.1546 54.0324 47.1537 54.0094 47.1702C54.0724 47.1633 54.143 47.1799 54.2105 47.1706C54.1771 47.1734 54.1469 47.1808 54.1108 47.1723ZM53.1802 47.4473C53.2471 47.4632 53.2962 47.4748 53.3432 47.5113C53.2962 47.4748 53.2495 47.4531 53.1802 47.4473ZM57.9701 12.2215C57.9719 12.1966 57.9719 12.1966 57.9719 12.1966C57.7914 12.3704 57.827 12.2417 57.9701 12.2215ZM52.5537 47.1257L52.5628 47.1278L52.568 47.1291C52.5628 47.1278 52.5589 47.1269 52.5537 47.1257ZM56.1631 45.5264C56.158 45.5252 56.158 45.5252 56.1509 45.538C56.1509 45.538 56.1631 45.5264 56.167 45.5273L56.1631 45.5264ZM4.648 27.6931C4.64012 27.6913 4.63807 27.6656 4.6291 27.6634C4.63807 27.6656 4.63763 27.6907 4.64401 27.6921L4.648 27.6931ZM11.0894 22.4466C11.0932 22.4475 11.0964 22.4336 11.0964 22.4336L11.0894 22.4466ZM55.6257 11.5052C55.6293 11.5059 55.6293 11.5059 55.6345 11.5072C55.6327 11.4922 55.6327 11.4922 55.6249 11.4903C55.6249 11.4903 55.6289 11.4912 55.6257 11.5052ZM56.0743 11.5499C56.0563 11.5456 56.062 11.5217 56.0529 11.5196L56.0523 11.5448C56.0563 11.5456 56.0691 11.5487 56.0743 11.5499ZM65.5029 17.4112C65.5099 17.3988 65.5157 17.4142 65.5189 17.401C65.5151 17.4001 65.5099 17.3988 65.5008 17.3966C65.5008 17.3966 65.506 17.3979 65.5029 17.4112C63.3051 17.2587 63.2062 17.2517 65.5029 17.4112ZM57.2117 41.9566C57.1914 42.0024 57.2111 42.0177 57.181 42.0465C57.2086 42.0278 57.221 42.0561 57.2537 42.0385C57.2226 42.0311 57.2332 41.9871 57.2117 41.9566ZM10.994 37.7783C10.994 37.7783 10.9977 37.7793 11.0031 37.7806C10.9977 37.7793 10.9977 37.7793 10.994 37.7783ZM5.03606 27.3731C4.99859 27.3534 4.95636 27.3541 4.91639 27.3448C4.91132 27.3435 4.90149 27.3557 4.89641 27.3547C4.94404 27.3658 4.99092 27.3624 5.03606 27.3731ZM60.7315 39.0282C60.7354 39.0291 60.7278 39.0272 60.7315 39.0282L60.7405 39.0303C60.7405 39.0303 60.7354 39.0291 60.7315 39.0282ZM59.2669 39.7405C59.2708 39.7414 59.2676 39.7546 59.2728 39.7559C59.2728 39.7559 59.276 39.7427 59.2798 39.7436C59.2798 39.7436 59.276 39.7427 59.2785 39.7319C59.2708 39.7414 59.2708 39.7414 59.2669 39.7405ZM57.3448 41.5144C57.3139 41.5071 57.2959 41.5029 57.2798 41.4738C57.2959 41.5029 57.3087 41.5059 57.3448 41.5144ZM50.6848 50.4408C50.6848 50.4408 50.6726 50.452 50.6751 50.4639C50.6931 50.4681 50.6988 50.4442 50.7155 50.4481C50.7028 50.4452 50.6988 50.4442 50.6848 50.4408ZM46.1488 49.1701C46.1382 49.1569 46.1467 49.1443 46.1645 49.1266C46.1594 49.1255 46.1594 49.1255 46.1554 49.1245C46.1529 49.1351 46.1473 49.1591 46.1488 49.1701ZM15.8415 36.5109L15.839 36.5209C15.8415 36.5109 15.8415 36.5109 15.8415 36.5109ZM2.91648 26.912C2.92036 26.913 2.92555 26.9142 2.92555 26.9142C2.92555 26.9142 2.92036 26.913 2.91648 26.912ZM57.5841 11.1229C57.5858 11.134 57.5947 11.1362 57.5907 11.1353C57.6127 11.1404 57.6347 11.1455 57.6616 11.1519C57.6369 11.1355 57.6087 11.1395 57.5841 11.1229ZM59.6016 12.43C59.589 12.427 59.5623 12.4355 59.5445 12.4311C59.5497 12.4324 59.5587 12.4346 59.5623 12.4355C59.5799 12.4248 59.5927 12.428 59.6016 12.43ZM64.5302 38.9798C64.3039 38.9656 64.1365 38.8866 64.0154 38.7603C64.1811 38.8355 64.3793 38.8821 64.5246 39.0036C64.527 38.9931 64.527 38.9931 64.5302 38.9798ZM57.7218 42.1385L57.7077 42.135C57.7129 42.1362 57.7167 42.1372 57.7167 42.1372C57.7218 42.1385 57.7257 42.1392 57.7309 42.1404C57.7257 42.1392 57.7257 42.1392 57.7218 42.1385ZM50.1293 50.3349C50.1113 50.3307 50.0985 50.3277 50.0774 50.3367C50.0902 50.3397 50.0992 50.3419 50.1056 50.3546C50.1113 50.3307 50.1293 50.3349 50.1293 50.3349ZM44.5896 48.6787C44.601 48.6926 44.5978 48.7058 44.6147 48.7099C44.6289 48.7131 44.6215 48.6975 44.6346 48.6893C44.6165 48.6851 44.6035 48.6819 44.5896 48.6787ZM44.3355 47.5966C44.318 47.6073 44.3246 47.6195 44.312 47.6164C44.321 47.6185 44.321 47.6185 44.3298 47.6207C44.3337 47.6214 44.3298 47.6207 44.3355 47.5966ZM15.1486 36.4703C15.1333 36.4666 15.1177 36.4629 15.0973 36.458C15.1177 36.4629 15.1333 36.4666 15.1525 36.4711L15.1486 36.4703ZM10.8734 38.8695C10.8786 38.8708 10.8709 38.8798 10.8761 38.881C10.88 38.8817 10.8786 38.8708 10.8825 38.8718C10.8786 38.8708 10.8786 38.8708 10.8734 38.8695ZM10.7606 38.9441C10.7554 38.9429 10.7554 38.9429 10.7517 38.942C10.7554 38.9429 10.7606 38.9441 10.7606 38.9441ZM2.32396 33.8873C2.29955 33.8816 2.30517 33.8577 2.28983 33.854C2.28465 33.8528 2.27903 33.8767 2.27514 33.8759C2.29059 33.8794 2.30863 33.8838 2.32396 33.8873ZM5.68938 32.3421C5.745 32.3946 5.76769 32.4365 5.78464 32.491C5.77665 32.4386 5.73345 32.3919 5.68938 32.3421ZM4.32982 30.1315L1.69592 27.2697C1.72681 27.2771 1.76029 27.2849 1.79291 27.2672C1.62118 27.252 1.54147 27.2331 1.45269 27.2122C1.45021 27.2117 1.4407 27.2346 1.43552 27.2334C1.53542 27.2178 1.61923 27.2376 1.69592 27.2697L4.32982 30.1315ZM4.14351 25.6811L4.14092 25.6805C4.04102 25.7074 3.93398 25.6822 3.82782 25.6319C3.95947 25.7641 4.06564 25.7638 4.14351 25.6811ZM3.92113 25.0072C3.92113 25.0072 3.92113 25.0072 3.91595 25.0059C3.92113 25.0072 3.92113 25.0072 3.92113 25.0072ZM31.235 2.96774C31.235 2.96774 31.2445 2.94463 31.2406 2.94377C31.2009 2.93426 31.1591 2.94981 31.1191 2.94042C31.1641 2.951 31.1982 2.93372 31.235 2.96774ZM31.5735 3.04767L31.5678 3.07175C31.5678 3.07175 31.5678 3.07175 31.573 3.07294C31.5678 3.07175 31.5735 3.04767 31.5735 3.04767ZM33.0551 2.61403C33.0551 2.61403 33.0501 2.61284 33.0444 2.63693C33.0648 2.64168 33.0829 2.646 33.1023 2.65053C33.0843 2.64632 33.0648 2.64168 33.0551 2.61403ZM59.2136 11.5188C59.2486 11.5269 59.2883 11.5364 59.3188 11.5688C59.3064 11.5406 59.2883 11.5364 59.2755 11.5333C59.2538 11.5282 59.2356 11.524 59.2136 11.5188ZM63.433 13.4113C63.4418 13.4135 63.4456 13.4143 63.4508 13.4154C63.4481 13.4042 63.4353 13.4011 63.4276 13.3994C63.4185 13.3972 63.4131 13.3959 63.4094 13.3951C63.4185 13.3972 63.4251 13.4094 63.433 13.4113ZM67.0819 41.3777L66.3388 40.9577L67.0819 41.3777ZM64.6366 39.9954L64.1618 39.7271C64.2256 39.7167 64.2874 39.7313 64.3529 39.7467C64.2898 39.7207 64.202 39.7365 64.1406 39.6966C64.1349 39.7207 64.1645 39.7164 64.1618 39.7271L64.6366 39.9954ZM57.0602 47.371C57.0505 47.3541 57.0383 47.3658 57.0326 47.3497C57.0383 47.3658 57.0383 47.3658 57.0472 47.3679C57.0563 47.37 57.0524 47.3692 57.0602 47.371ZM53.1631 48.7507C52.808 48.8044 52.4466 48.7696 52.0949 48.7116C52.0675 48.7518 52.0676 48.7918 51.9926 48.8099C52.0336 48.8956 52.0791 48.9788 52.1227 49.0538C52.2416 48.8436 52.2563 48.8217 52.6091 48.9557C53.089 49.1449 53.1285 48.9772 53.1631 48.7507ZM51.8735 49.7285C51.8735 49.7285 51.8735 49.7285 51.8711 49.7386C51.8786 49.7297 51.8786 49.7297 51.8786 49.7297C51.8735 49.7285 51.8786 49.7297 51.8735 49.7285ZM48.7926 50.6438C48.7599 50.6214 48.7224 50.602 48.6973 50.5707C48.7224 50.602 48.7623 50.6114 48.7926 50.6438ZM35.817 44.4167C35.8098 44.4011 35.7989 44.4125 35.7942 44.3974C35.7963 44.4119 35.7963 44.4119 35.7963 44.4119C35.8027 44.4134 35.8066 44.4143 35.817 44.4167ZM13.4537 37.2653C13.4428 37.2479 13.435 37.2355 13.442 37.2225C13.4054 37.2286 13.3804 37.2478 13.4095 37.2801C13.4339 37.2857 13.4332 37.2603 13.4537 37.2653ZM1.94897 33.5999C1.95794 33.602 1.95869 33.6274 1.96517 33.6398C1.96269 33.6284 1.95794 33.602 1.94897 33.5999ZM30.2506 3.7929C30.2506 3.7929 30.2506 3.7929 30.2466 3.79214C30.2506 3.7929 30.2506 3.7929 30.2506 3.7929ZM55.0949 10.3465C55.0931 10.3713 55.1078 10.3496 55.1058 10.3745C55.1115 10.3504 55.1078 10.3496 55.1078 10.3496C55.1026 10.3483 55.0987 10.3475 55.0949 10.3465ZM64.1949 13.4184C64.2166 13.4235 64.2238 13.4504 64.2362 13.4787L64.2414 13.4799C64.2238 13.4504 64.2129 13.4226 64.1949 13.4184ZM64.9575 15.8379C64.9519 15.8619 64.9519 15.8619 64.9519 15.8619C64.9467 15.8606 64.9519 15.8619 64.9575 15.8379ZM72.1962 40.5923C72.2024 40.6697 72.1167 40.7107 72.0116 40.7004C71.8994 40.6992 71.7943 40.6491 71.7711 40.5678C71.7469 40.4755 71.8786 40.4702 71.9707 40.4779C72.1132 40.4497 72.1609 40.5229 72.1962 40.5923Z" fill="#46A408"/>
<path d="M21.4004 35.8544C26.6548 35.8544 30.7061 32.0977 30.7061 26.6958C30.7061 21.2452 26.6302 17.5376 21.4004 17.5376C18.7732 17.5376 16.2934 18.5197 14.8447 20.091L17.4966 23.0621C18.2084 22.0554 19.559 21.3188 21.4495 21.3188C23.7822 21.3188 25.5498 22.8902 25.992 24.8545H19.5834V28.1937H26.0409C25.7218 30.379 23.8804 32.0731 21.4741 32.0731C19.559 32.0731 18.1103 31.3611 17.2755 30.2069L14.722 33.0306C16.0968 34.6512 18.405 35.8544 21.4004 35.8544ZM33.4805 35.3878H37.6056V27.3835H37.6545L44.112 35.3878H49.5873L41.6567 26.0085L49.1454 18.0041H43.8911L37.679 25.0755H37.6056V18.0041H33.4805V35.3878ZM58.5985 35.8544C64.0493 35.8544 68.076 32.1222 68.076 26.6224C68.076 21.0486 64.0493 17.5376 58.5985 17.5376C53.1722 17.5376 49.1454 21.0486 49.1454 26.6224C49.1454 32.1222 53.1722 35.8544 58.5985 35.8544ZM58.5985 32.024C55.6766 32.024 53.6386 29.7651 53.6386 26.6224C53.6386 23.5776 55.6522 21.3188 58.5985 21.3188C61.5449 21.3188 63.5827 23.5776 63.5827 26.6224C63.5827 29.7651 61.5204 32.024 58.5985 32.024Z" fill="#FEFEFE"/>
<path d="M73.3539 35.3878H77.5525V21.589H82.463V18.0041H68.4434V21.589H73.3539V35.3878ZM100.043 35.8544C105.445 35.8544 108.956 31.8274 108.956 26.6469C108.956 21.466 105.445 17.5376 100.043 17.5376C95.3536 17.5376 92.1126 20.484 91.3268 24.6335H88.5768V18.0041H84.3783V35.3878H88.5768V28.0708H91.2286C91.7934 32.564 95.1327 35.8544 100.043 35.8544ZM100.043 32.024C97.2195 32.024 95.5992 29.5933 95.5992 26.6469C95.5992 23.7005 97.2195 21.3188 100.043 21.3188C102.842 21.3188 104.463 23.7005 104.463 26.6469C104.463 29.5933 102.842 32.024 100.043 32.024ZM111.731 35.3878H115.929V28.1201H122.706V35.3878H126.904V18.0041H122.706V24.5845H115.929V18.0041H111.731V35.3878ZM130.489 35.3878H134.982L141.612 24.216H141.685V35.3878H145.835V18.0041H141.415L134.737 29.4458H134.639V18.0041H130.489V35.3878ZM149.42 35.3878H153.618V28.1201H160.395V35.3878H164.594V18.0041H160.395V24.5845H153.618V18.0041H149.42V35.3878ZM168.178 35.3878H172.377V21.589H179.105V18.0041H168.178V35.3878Z" fill="#383838"/>
</svg>
