<svg width="180" height="51" viewBox="0 0 180 51" fill="none" xmlns="http://www.w3.org/2000/svg">
<path fill-rule="evenodd" clip-rule="evenodd" d="M15.7061 36.9582C15.4504 36.9233 15.3189 36.7438 15.0854 36.7612C15.0999 36.6415 15.2481 36.6006 15.4077 36.6384C15.5923 36.6966 15.6742 36.8277 15.7061 36.9582ZM61.6212 37.7693C61.7662 37.7548 61.9108 37.739 62.055 37.7225C62.5739 38.1123 63.235 38.6467 63.4604 38.7113C63.5539 38.8093 63.6984 38.894 63.8657 38.9335C64.038 39.0208 64.2083 39.1117 64.3776 39.1882C64.3815 39.1892 64.3815 39.1892 64.3815 39.1892L64.3776 39.1882C64.4329 39.3023 64.5147 39.4103 64.6132 39.5144C64.6053 39.5173 64.5982 39.5199 64.5923 39.5205C64.5547 39.7732 64.6418 39.9389 65.0779 39.8917C65.2765 39.9378 65.4132 39.9624 65.4979 39.955C65.7167 40.0918 65.9587 40.3376 65.8765 40.3691C65.3123 40.6123 65.5784 40.7125 65.988 40.7966C66.0639 40.8148 66.1017 40.8857 66.1655 40.9159C66.18 40.9146 66.2274 40.9104 66.2556 40.8969C66.3572 40.8004 66.1279 40.7105 66.2988 40.6006C66.3611 40.8 66.5373 40.7491 66.7972 40.7161C66.9768 40.6951 67.0265 40.6544 67.0298 40.6075C67.0859 40.6584 67.1521 40.7062 67.2388 40.7492C67.4414 40.8982 67.6039 41.0845 67.9486 41.1152L67.9561 41.1171C68.1016 41.1865 68.2312 41.1052 68.3839 41.1416C68.5002 41.2142 68.6291 41.2799 68.7795 41.3344C68.8775 41.3662 68.9627 41.485 69.1177 41.4461C69.02 41.7684 69.1083 42.1238 69.0825 42.4524C69.1222 42.4618 69.1452 42.4459 69.1759 42.453C69.1811 42.4543 69.1811 42.4543 69.1811 42.4543C69.1453 42.4459 69.1096 42.4587 69.0825 42.4524C69.0084 42.5865 69.0847 42.7422 69.2647 42.8713C69.4496 42.9402 69.6255 43.0291 69.8317 43.0305C69.9065 43.0482 69.9768 43.09 70.0515 43.1297C70.188 43.3855 70.5235 43.3929 70.8212 43.4379C70.861 43.4474 70.9011 43.4568 70.9296 43.4742C70.8799 43.7008 71.1095 44.0405 70.5057 44.06C70.4336 44.043 70.3666 44.1143 70.2914 44.0347C69.992 43.7151 70.0574 44.0772 69.8544 44.0038C70.0439 44.1751 70.3011 44.1096 70.4465 44.2703C70.2509 44.3218 70.0269 44.2468 69.8302 44.2223C69.8104 44.5065 69.899 44.7876 70.2063 45.1091C69.6898 44.8391 69.4286 44.8747 69.2904 45.178C69.2229 45.325 69.0056 45.2735 68.7988 45.1994C68.6777 45.1596 68.542 45.1022 68.4659 45.1821C68.4157 45.2566 68.4077 45.3307 68.5071 45.4047C68.7317 45.5807 68.9845 45.7416 69.2371 45.8985C69.3865 45.9843 69.5532 45.9519 69.6161 45.8404C69.615 45.8289 69.5929 45.8236 69.5845 45.7964C69.5911 45.8091 69.5962 45.8103 69.6002 45.8113C69.6002 45.8113 69.5962 45.8103 69.5985 45.7996C69.614 45.8145 69.6238 45.831 69.6395 45.8459C69.7924 45.9685 69.961 46.0084 70.1457 45.9403C70.4605 45.8157 70.7645 45.9382 70.9745 46.1362C71.0953 46.2405 71.175 46.2592 71.3133 46.2668C71.5207 46.2399 71.4044 46.14 71.3489 46.0761C71.236 45.8979 71.3932 45.8883 71.5944 45.9106C71.8945 45.9058 72.2084 45.9293 72.3416 45.7618C72.3953 45.9482 72.5827 46.1442 72.52 46.3529C72.4858 46.4567 72.6473 46.7044 73.1147 46.7284C73.4114 46.7373 73.7614 46.9823 74.1013 46.8891L74.1011 46.8496C73.7753 46.7221 73.43 46.6186 73.163 46.4438C73.4029 46.6592 73.6737 46.8351 74.1011 46.8496C74.1757 46.856 74.2445 46.8582 74.3259 46.8522C74.8334 46.9249 75.3772 47.0389 75.7618 46.8196C75.7625 46.7946 75.7591 46.7684 75.7559 46.7424C75.8625 46.6698 76.0845 46.6211 76.0997 46.4763C76.2949 46.4213 76.2759 46.2833 76.3133 46.1656C76.4165 46.0277 76.3151 45.8813 76.1963 45.752C76.2104 45.3941 75.8396 45.1222 75.4348 44.8748C75.4408 44.7279 75.2218 44.5283 75.6155 44.4837C75.8029 44.4669 75.7691 44.3685 75.5426 44.3149C75.2747 44.2409 75.4669 44.1633 75.4364 44.0915C75.5329 44.103 75.7508 44.1292 75.7101 44.0838C75.3295 43.7555 75.5887 43.5674 75.7506 43.3202C75.8362 43.1926 76.1025 43.0786 75.7106 42.8737C75.6318 42.8337 75.6733 42.6917 75.6876 42.5974C75.7895 42.7585 75.8725 42.9013 76.1088 42.9931C76.5358 43.2456 76.9819 43.4741 77.4763 43.7392C77.4301 43.5041 77.0877 43.4232 76.9825 43.2753C77.0922 43.2254 77.3178 43.2428 77.0945 43.0782C77.022 43.0105 76.9471 42.9309 76.872 42.8521C76.7564 42.7489 76.651 42.6375 76.5469 42.5263C76.3626 42.4322 76.3053 42.2198 76.0074 42.1747C75.9657 42.1503 75.9283 42.1306 75.8889 42.0962C75.8946 42.0721 75.9328 42.0307 75.9135 42.0154C75.8455 41.9628 75.79 41.9862 75.7496 42.0126C75.5926 42.102 75.7114 42.2783 75.6407 42.3988C75.3537 42.1066 75.3576 42.1076 75.1397 42.3164C75.1027 42.3581 74.987 42.3307 74.9042 42.3472C74.765 42.2171 74.6996 42.0392 74.4626 41.9327C74.4563 41.92 74.4555 41.9056 74.4513 41.8827C74.5752 41.8362 74.6931 41.8135 74.8158 41.7666C74.7284 41.6989 74.5878 41.702 74.5494 41.6059C74.6298 41.5239 74.7743 41.6085 74.8855 41.6095C75.0507 41.6233 75.253 41.7217 75.3861 41.6307C75.4463 41.5943 75.3707 41.5399 75.3109 41.5119C75.1407 41.421 74.9755 41.3096 74.7851 41.4016C74.5592 41.5072 74.4528 41.2836 74.2663 41.2397C73.9382 41.2014 73.6127 41.1357 73.2863 41.0693C73.1395 41.0346 72.9619 40.9926 72.9997 40.8785C73.0284 40.7734 73.1929 40.8883 73.3055 40.8895C73.4201 40.9166 73.5263 40.9271 73.6284 40.926C73.6848 40.9286 73.776 40.8996 73.6862 40.8424C73.6378 40.8056 73.5446 40.8091 73.4777 40.7931C73.3793 40.7554 73.1121 40.7933 73.2815 40.635C73.3473 40.5746 73.2922 40.4858 73.1814 40.4597C73.1415 40.4503 72.8252 40.3283 72.9564 40.5436C72.9965 40.593 72.8796 40.6266 72.8294 40.6041C72.8037 40.5928 72.7788 40.5832 72.7549 40.5745C72.7362 40.5578 72.7102 40.5375 72.6781 40.5126C72.7283 40.4984 72.725 40.4504 72.7548 40.4286C72.7845 40.4013 72.7803 40.3522 72.7077 40.3585C72.6439 40.3887 72.5894 40.4182 72.5511 40.4358C72.5181 40.4986 72.5637 40.5192 72.6178 40.5145C72.6389 40.517 72.6555 40.5167 72.669 40.5145C72.659 40.5236 72.6476 40.532 72.6353 40.5399C72.3776 40.4853 72.2232 40.5881 72.053 40.6801C71.9359 40.7394 71.9164 40.7237 71.7462 40.4959C71.503 40.4888 71.5651 40.8249 71.3912 40.6866C71.2314 40.5623 71.063 40.6121 70.9292 40.5979C70.9869 40.5271 71.0529 40.4586 71.1183 40.3901C71.2101 40.3862 71.2766 40.3642 71.2971 40.3139C71.2943 40.2778 71.2743 40.2602 71.2466 40.2515C71.3441 40.14 71.4257 40.0243 71.4555 39.8954C71.2474 40.0368 71.101 40.1842 70.8177 40.2684C70.7816 40.2222 70.692 40.2113 70.6035 40.2027C70.5896 40.1816 70.5743 40.16 70.5573 40.139C70.5504 40.1585 70.5429 40.1775 70.535 40.1961C70.4364 40.1851 70.3596 40.166 70.3943 40.0862C70.474 39.9206 70.7769 40.0427 70.9657 40.0015C71.0198 39.9968 71.062 39.9789 71.111 39.9641C71.0399 39.8469 70.8908 39.8741 70.7483 39.8969C70.5777 39.9363 70.4971 39.8941 70.4613 39.8021C70.435 39.7304 70.4467 39.6338 70.5645 39.5989C70.7777 39.5804 71.0126 39.486 71.216 39.6132C71.3901 39.7216 71.5827 39.814 71.8415 39.8761C71.9216 39.7777 71.7568 39.6752 71.7931 39.5934L71.8578 39.6266C71.9177 39.6661 72.0012 39.7325 72.0588 39.6848C72.1142 39.6266 72.0702 39.5626 72.0014 39.4985C72.4416 39.3959 72.9096 39.2348 73.3628 39.4022C73.7906 39.5626 74.2222 39.4862 74.6844 39.3968C74.8376 39.3729 75.0184 39.4067 75.1805 39.3784C75.6324 39.2931 76.0968 39.2143 76.469 38.8677C75.826 38.9694 75.2889 39.3586 74.7922 38.9884C74.9894 38.996 75.2093 38.9769 75.4825 38.989C75.4322 38.8835 75.2355 38.8017 75.3341 38.7477C75.8337 38.4465 75.185 38.5877 75.0951 38.5C75.5103 38.4041 76.07 38.4752 76.2318 38.1088C76.4958 38.0613 76.7465 38.0889 77.0011 38.1163C77.2193 38.122 77.4382 38.0888 77.4695 37.9307C77.5335 37.5826 77.432 37.2528 77.0548 36.9931C77.13 36.9723 77.2099 36.944 77.2864 36.9236C77.7473 36.7882 78.2117 36.6491 78.6775 36.5099C78.7178 36.485 78.7574 36.4815 78.7974 36.4534C78.6199 36.3205 78.4432 36.1806 78.0779 36.2974C78.0324 36.326 77.881 36.3391 77.9375 36.2849C78.1568 36.0468 77.609 36.1438 77.6372 35.9931C77.8586 35.8543 77.9159 35.7011 77.8109 35.5302C77.6154 35.5577 77.3137 35.7073 77.239 35.5656C77.1379 35.3944 77.0316 35.4387 76.8475 35.5041C76.7698 35.5108 76.7019 35.5415 76.6412 35.4972C76.3004 35.259 75.848 35.1534 75.1558 35.2238C75.5577 35.02 75.8339 34.8375 76.1796 35.0752C76.2532 34.9597 76.1452 34.7857 76.0752 34.8054C75.6248 34.9049 75.3675 34.6341 74.9574 34.6945C74.8599 34.7029 74.6867 34.7427 74.6725 34.6238C74.7537 34.5673 74.8416 34.5706 74.9351 34.5762C75.0597 34.5901 75.2274 34.6711 75.2757 34.522C75.3194 34.3699 75.1344 34.3652 74.9591 34.3804C74.7763 34.3964 74.5918 34.4123 74.4095 34.4385C74.4175 34.378 74.4629 34.2891 74.4068 34.2555C74.261 34.1336 74.256 34.0495 74.4523 33.9376C74.5251 33.9065 74.5684 33.8535 74.6782 33.879C74.8756 33.936 74.5926 34.0698 74.7803 34.1523C75.0055 33.8895 75.4139 33.9739 75.8249 33.9381C75.6609 33.7937 75.244 33.8688 75.2975 33.6452C74.8743 33.6924 74.4282 33.7805 74.5296 33.3448C75.0588 33.7368 75.0423 33.3639 75.1205 33.1491C75.3316 33.1803 75.148 33.3898 75.4121 33.3423C75.5575 33.3049 75.6363 33.1889 75.5703 33.1453C75.3092 33.0126 75.5065 32.8226 75.4382 32.6486C75.6983 32.5413 75.7172 32.4058 75.7139 32.2469C75.6885 32.2142 75.6562 32.178 75.6195 32.1214C75.7483 32.0009 75.8802 31.9154 76.1471 31.9307C76.2626 31.9315 76.3248 31.852 76.34 31.7799C76.3862 31.7513 76.4308 31.6979 76.4753 31.6448C76.4821 31.5844 76.4901 31.5239 76.4955 31.4493C76.6251 31.4133 76.5132 31.3627 76.5221 31.3268C76.9933 31.3106 77.4829 31.2784 77.8222 31.5032C78.0581 31.6661 78.3377 31.522 78.6046 31.5093C78.4936 31.4696 78.5065 31.2039 78.2297 31.4574C78.1305 31.5505 77.9581 31.4914 77.8222 31.5032C77.9231 31.4241 77.5159 31.2756 77.9482 31.2383C78.0389 31.2303 78.1384 31.3067 78.1829 31.2074C78.2215 31.1299 78.2647 31.017 78.0706 30.9981C77.883 30.965 77.7204 30.9407 77.6434 30.8168C78.2791 30.7369 78.228 30.3039 78.7094 30.114C78.7703 30.0977 78.6857 30.07 78.6312 30.0254C78.676 30.0215 78.7177 30.0283 78.7639 30.0242C78.7855 30.012 78.8093 29.9957 78.8343 29.9934C78.8693 30.0293 78.9351 30.0236 79.0096 30.0419C79.0597 30.0376 79.1125 30.0329 79.155 30.0045C79.2807 29.9547 79.4263 29.9174 79.5501 29.8611C79.6422 29.7894 79.7533 29.7089 79.8586 29.6505C79.9828 29.5551 79.6531 29.5485 79.789 29.4628C79.7803 29.4388 79.7808 29.4141 79.7761 29.3898C79.77 29.3196 79.8248 29.2159 79.5715 29.2625C79.3531 29.2568 79.1383 29.2756 78.9149 29.2702C78.3659 29.2931 77.8845 29.1906 77.3767 29.1357C77.0216 28.8983 76.4906 29.0678 76.0621 29.0063C76.2677 28.8682 76.4524 28.7183 76.7224 28.5857C77.008 28.4511 76.6488 28.5178 76.5796 28.4881C76.5495 28.4311 76.5221 28.3594 76.4907 28.3023C76.4959 28.242 76.5062 28.1918 76.5145 28.1663C76.5108 28.1666 76.5108 28.1666 76.5053 28.167C76.5108 28.1666 76.5044 28.1562 76.5098 28.1558C76.543 28.065 76.4927 27.9597 76.6623 27.9098C76.985 27.8961 77.2232 27.8117 77.3668 27.6297C77.5062 27.5226 77.4208 27.3325 77.7453 27.2933C77.8686 27.2936 77.9973 27.3072 78.0886 27.2285C78.2339 27.2372 78.3882 27.2238 78.5317 27.2251C78.5687 27.2219 78.6055 27.2188 78.6462 27.2151C78.7659 27.1697 79.0934 27.3356 78.9909 27.0865C78.9625 27.0186 78.865 27.0272 78.7837 27.0094C78.773 26.887 78.6469 26.8875 78.4766 26.9269C78.2627 26.9701 78.0478 26.9888 77.8528 26.8823C77.9673 26.823 78.0739 26.7676 78.2743 26.6761C77.9337 26.7305 77.7423 26.6021 77.4925 26.7088C77.5281 26.5824 77.3595 26.5366 77.3102 26.442C77.3741 26.4155 77.4413 26.3461 77.3569 26.3534C77.0987 26.3759 77.0868 26.2678 77.0126 26.1787C76.7539 26.1024 76.3391 26.1877 76.236 25.9782C76.1892 25.8835 76.244 25.7481 76.0057 25.8039C75.8388 25.8536 75.8517 26.0006 75.9283 26.0895C75.9669 26.1212 76.1166 26.133 76.0097 26.2163C75.969 26.2198 75.9456 26.1971 75.91 26.2002C75.8121 26.1735 75.6938 26.184 75.604 26.1318C75.3402 25.9818 75.0267 26.009 74.6834 26.1376C74.4455 26.1336 74.1691 26.0835 74.002 26.2708C73.9639 26.2742 73.9232 26.2776 73.8862 26.2808C73.8532 26.2695 73.8177 26.2725 73.7808 26.2758C73.7008 26.2723 73.6312 26.264 73.5533 26.2707C73.1681 26.3887 72.8495 26.5257 72.599 26.7312C72.5021 26.6793 71.6865 26.936 72.0562 26.6086C72.3484 26.5339 72.3516 26.4349 72.0986 26.362C71.9518 26.2758 72.0302 26.1242 71.8097 26.0939C71.2747 26.1403 71.4154 26.318 71.8097 26.0939C71.8172 25.7052 71.5407 25.3023 71.8576 24.9004C71.8594 24.8756 71.8626 24.8507 71.8679 24.8364C71.6264 24.7476 71.7643 24.542 71.5903 24.4369C71.5891 24.4226 71.5961 24.3974 71.5952 24.3871C71.6382 24.1156 71.9017 23.8489 71.479 23.642C71.4802 23.6419 71.4834 23.6168 71.4834 23.6168C72.2617 23.6234 71.712 23.2832 71.9009 23.1679C72.2224 23.1542 72.5252 23.3712 72.8517 23.1102C72.8705 23.0382 72.8506 22.9906 72.7448 22.9504C72.7448 22.9504 72.7357 22.9513 72.7307 22.9516C72.7505 22.9389 72.7692 22.9236 72.7921 22.8969L72.8442 22.9169L72.8969 22.9125C72.9872 22.8196 73.1958 22.9003 73.2941 22.7931C73.1361 22.7468 72.9956 22.7343 72.848 22.6978C72.8057 22.6274 72.7017 22.6365 72.6148 22.6439C72.6197 22.6221 72.6228 22.5971 72.6228 22.5971C72.521 22.5566 72.4913 22.4604 72.3175 22.4754C72.2706 22.4093 72.2069 22.4395 72.1458 22.4551C72.151 22.4548 72.1551 22.4545 72.1594 22.4436C72.173 22.4176 72.1688 22.3687 72.1079 22.3246C71.9709 22.3364 71.8368 22.3371 71.7212 22.3334C71.6562 22.2436 72.0203 22.1874 71.8028 22.0827C71.6829 22.0475 71.5389 22.0705 71.4522 22.1873C71.3632 22.2936 71.2301 22.1961 71.118 22.2057C71.1167 22.1916 71.12 22.1666 71.1216 22.1418C71.0623 22.1322 71.0063 22.1359 70.9513 22.1455C70.9586 21.6661 70.8806 21.0815 70.6856 20.3386C70.6851 20.3292 70.6829 20.32 70.6784 20.3116C70.6563 20.2277 70.6326 20.1424 70.6075 20.0547C70.7251 20.0745 70.8354 20.1099 70.9658 20.1621C70.9639 20.4301 71.1906 20.5338 71.6491 20.4942C71.7874 20.4821 71.9858 20.4264 72.0723 20.5528C72.1271 20.6325 72.2284 20.6842 72.4072 20.6473C72.1966 20.5317 72.7653 20.3725 72.3966 20.281C72.2013 20.1887 72.6958 20.0118 72.3247 19.9591C71.9979 19.8782 71.7827 19.6921 71.4407 19.623C71.3352 19.5971 71.2032 19.4995 71.1203 19.6158C70.9714 19.7983 70.714 19.6756 70.5329 19.7622C70.5208 19.7632 70.5225 19.7423 70.5135 19.7398L70.5124 19.7364C70.5354 19.6893 70.5513 19.6398 70.5974 19.6013C70.7076 19.6022 70.787 19.5706 70.8395 19.5166C70.6433 19.3838 70.5869 19.1852 70.3037 19.1048C70.1138 18.5605 69.8773 17.9512 69.5859 17.2628C69.5547 17.2807 69.5129 17.2961 69.4858 17.2896C69.3572 17.2593 69.2216 17.2632 69.0846 17.2454C69.0446 17.2359 69.0227 17.2307 68.9738 17.2194C68.9649 17.2171 68.9558 17.215 68.9521 17.2142C68.7964 17.1774 68.6361 17.1648 68.5324 16.9886C68.4816 16.9047 68.297 16.9328 68.2633 17.0008C68.1924 17.0818 68.093 17.0835 67.9911 17.0594C67.9422 17.0479 67.8878 17.0603 67.8387 17.0487C67.7423 17.0261 67.6501 16.9789 67.5285 16.9754C67.715 16.8819 68.0372 16.922 67.7292 16.7015C67.6979 16.6782 67.6694 16.6555 67.6432 16.6339C67.7006 16.6178 67.7593 16.5941 67.8085 16.5724C67.9425 16.5113 68.0768 16.4504 68.0345 16.3339C67.9978 16.2772 67.9008 16.3207 67.8251 16.3519C67.7022 16.3775 67.5629 16.4123 67.48 16.4616C67.3619 16.2735 67.5534 16.1797 68.023 16.171C67.7142 16.0115 67.6088 15.9866 67.4436 16.1099C67.3612 16.1775 67.2957 16.2991 67.1384 16.2113C66.6528 15.9484 66.59 16.1575 66.4475 16.3227C66.3392 16.149 66.2249 15.9954 66.11 15.8313L66.092 15.8269L66.0649 15.8205C65.8245 15.7273 65.7756 15.5786 65.6442 15.461C65.6365 15.6324 65.7767 15.7524 66.0649 15.8205C65.9978 15.667 65.9237 15.5271 65.641 15.4349C65.6372 15.4341 65.6372 15.4341 65.6372 15.4341C65.5597 15.3653 65.5425 15.2994 65.6489 15.2632C65.5951 15.1749 65.4322 15.1109 65.4669 15.0219C65.4181 14.9346 65.4059 14.9064 65.546 14.889C65.6493 14.888 65.7483 14.9002 65.8518 14.8993C65.8861 14.9328 65.9195 14.9519 65.9486 14.9841C66.0276 14.9663 66.101 14.9949 66.1712 15.0367C66.2151 15.0471 66.2639 15.0586 66.3023 15.0929C66.3657 15.0827 66.3803 15.0608 66.4267 15.0605C66.6416 15.1226 66.8535 15.1979 67.0564 15.1733C67.2749 15.0986 67.4899 15.063 67.7057 15.0015C67.9252 15.0787 68.0824 15.0293 68.2522 14.983C68.3547 14.9059 68.4714 14.8718 68.634 14.8743C68.698 14.8389 68.796 14.7862 68.7722 14.7085C68.71 14.5928 68.7413 14.477 68.5167 14.3988C68.4465 14.2811 68.3225 14.1905 68.1502 14.1499C67.9465 14.0398 67.7459 13.9167 67.4938 13.857C67.4881 13.881 67.4768 13.9289 67.4712 13.9528C67.466 13.9516 67.466 13.9516 67.4621 13.9506C67.4948 13.9331 67.5132 13.9122 67.4938 13.857C67.3145 13.764 67.1379 13.6612 66.9597 13.5578C66.7912 13.518 66.6187 13.4771 66.4501 13.4373C66.4103 13.428 66.3702 13.4186 66.3303 13.409C66.2647 13.2559 66.068 13.2713 65.9361 13.2147C65.639 13.0688 65.3601 12.8798 64.9656 12.8878C64.9426 12.9043 64.9575 12.9218 64.9614 12.9226L64.9575 12.9218C64.9607 12.9085 64.9607 12.9085 64.9656 12.8878C64.8103 12.8729 64.6364 12.8318 64.4959 12.8744C64.1996 12.8803 63.9379 12.6195 63.6292 12.695C63.1955 12.5925 62.8159 12.2786 62.3221 12.3608C62.1812 12.4285 62.0239 12.3409 61.8696 12.355C61.622 12.1953 61.7339 11.9976 61.5347 11.8748C61.4559 11.6325 61.0807 11.4967 60.9021 11.3027C60.7211 11.1368 60.4419 11.1686 60.2165 11.0935C59.9442 10.9173 59.5728 10.8043 59.4178 10.5693C59.452 10.465 59.7941 10.3223 59.2323 10.3015C59.1063 10.2823 58.9696 10.1887 58.8261 10.1402C58.9097 10.3842 58.6621 10.3396 58.4203 10.3336C58.0179 10.1733 57.6976 10.3612 57.3115 10.2699C57.2401 10.2784 57.1462 10.2562 57.0816 10.2769L57.0873 10.2529C57.1582 10.2696 57.2368 10.2522 57.3115 10.2699C57.072 10.2133 56.8385 10.0929 56.5982 10.1373C56.5545 10.1271 56.5108 10.1167 56.4656 10.1061C56.0966 9.98276 55.7483 9.83533 55.3855 9.70292C55.1349 9.61857 54.889 9.50981 54.6397 9.41444C54.6323 9.34813 54.5664 9.31054 54.4677 9.30903C54.4408 9.29466 54.4133 9.28235 54.3853 9.27123L54.3817 9.22694C54.4043 9.10533 54.426 9.0185 54.4442 8.90758C54.5976 8.86967 54.775 8.92507 54.8998 8.81869C55.0705 8.82863 55.2106 8.79179 55.2681 8.688C55.3333 8.70701 55.3995 8.75075 55.4863 8.69384C55.9915 8.68898 56.0324 8.42739 56.1999 8.22963C56.6398 8.19151 56.662 7.91069 56.9766 7.78832C57.0101 7.76089 56.9589 7.69112 56.8265 7.72741C56.672 7.69134 56.5351 7.76316 56.3813 7.76608C56.1124 7.74005 55.8488 7.76284 55.5869 7.83498C55.6574 7.92754 55.7988 7.89061 55.9161 7.88045C55.912 7.88078 55.9027 7.88164 55.9027 7.88164C55.8196 7.82516 55.6835 7.86177 55.5869 7.83498C55.4244 7.8595 55.2592 7.89849 55.2182 8.03598C54.9145 8.08696 54.6732 8.18189 54.4907 8.34271C54.453 8.38116 54.4083 8.44866 54.3679 8.50159C54.275 8.65398 54.1039 8.76426 53.8295 8.63281C53.6609 8.58378 53.5728 8.64081 53.466 8.71047C53.4252 8.71403 53.3936 8.71684 53.3567 8.71986C53.1395 8.6097 52.9109 8.57622 52.6637 8.59188C52.4987 8.54771 52.3294 8.50504 52.1784 8.42145C52.0386 8.34358 51.8727 8.28493 51.7156 8.22218C51.7215 8.16667 51.7285 8.11439 51.734 8.07043C51.7991 7.99407 51.8632 7.9391 51.9285 7.83466C51.8878 7.83812 51.8469 7.84168 51.806 7.84524C51.8449 7.86652 51.886 7.86306 51.9285 7.83466C52.0275 7.70581 52.2035 7.54629 51.9087 7.42359C51.7839 7.31419 51.5 7.34929 51.3098 7.28135C51.05 7.19452 51.2109 7.04677 51.1652 6.93055C51.2132 6.77816 51.2984 6.67534 51.4778 6.5857C51.4818 6.58537 51.4818 6.58537 51.4796 6.56086C51.5765 6.53159 51.6702 6.50912 51.7775 6.4751C51.8819 6.4414 51.9876 6.43222 52.0919 6.41267C52.1964 6.37898 52.2528 6.32476 52.3378 6.29268C52.2801 6.34701 52.1869 6.33037 52.1439 6.38351C52.436 6.47791 52.444 6.30812 52.5534 6.22453C52.7244 6.11415 52.8388 5.98076 52.8263 5.83755C52.8022 5.69466 52.6752 5.54723 52.7479 5.40639C53.0644 4.89219 53.0423 4.4106 53.1301 3.89142C53.1489 3.74162 53.3083 3.57248 53.0956 3.4324C53.186 3.33995 53.2781 3.27158 53.3578 3.16595C53.4775 3.12048 53.5859 3.08635 53.6959 3.03775C53.9037 2.92489 53.8459 2.86948 53.6226 2.85047C53.6479 2.60454 53.6758 2.4083 53.7045 2.187C53.4333 2.0305 53.9189 1.81546 53.6704 1.65713C53.6384 1.61036 53.6073 1.58833 53.5788 1.58034C53.6037 1.395 53.6231 1.24844 53.4206 1.11776C53.2695 0.862541 52.923 0.737795 52.593 0.593069C52.244 0.57784 52.044 0.337747 51.6206 0.399201C51.1731 0.41335 50.7331 0.451583 50.291 0.528266C50.2267 0.520058 50.1317 0.528482 50.0488 0.549218C49.7298 0.623093 49.4026 0.69038 49.2138 0.8863C49.2178 0.885868 49.2178 0.88587 49.2178 0.88587L49.2138 0.8863C48.5421 1.05435 47.7634 0.952291 47.166 1.27252C46.7332 1.21118 46.5334 1.40148 46.2829 1.55722C46.2129 1.56317 46.132 1.58055 46.0831 1.53552C46.2262 1.31897 46.6309 1.56198 46.8225 1.29186C46.479 1.35677 46.1749 1.30903 45.9226 1.42978C45.7492 1.5151 45.6834 1.47525 45.6354 1.39489C45.5557 1.24272 45.3116 1.28851 45.1747 1.3005C44.9908 1.341 44.8462 1.46337 44.9227 1.61144C44.9701 1.68143 44.9467 1.7822 44.7877 1.79613C44.6359 1.8092 44.6609 1.69774 44.6431 1.66048C44.5432 1.24596 44.1456 1.63337 43.8941 1.58099C43.6728 1.54038 43.5399 1.66112 43.5087 1.77313C43.4652 1.93222 43.6576 1.91548 43.8348 1.87865C43.946 1.84441 44.0822 1.75844 44.157 1.87227C44.3097 2.10254 44.311 2.11626 44.6726 2.00026C44.7594 1.99281 44.7747 2.01624 44.834 2.01106C44.6787 2.07057 44.5277 2.1222 44.3728 2.17123C44.3043 2.17717 44.2655 2.20525 44.205 2.21054C43.9795 2.22998 43.7564 2.27405 43.5462 2.26757C43.4336 2.13256 43.8463 2.11809 43.681 2.00177C43.5847 1.94647 43.4475 2.03255 43.3205 2.06819C43.2934 2.04584 43.2177 2.01732 43.2231 2.00264C43.3302 1.8133 43.3941 1.59989 43.0192 1.48735C42.9916 1.48972 42.9729 1.42783 42.9894 1.40548C43.4037 0.992037 42.6859 1.14972 42.4622 0.974866C42.4593 1.12326 42.7399 1.14508 42.6365 1.23861C42.5216 1.33679 42.3744 1.26129 42.2435 1.25125C42.1136 1.22414 41.9126 1.17068 41.9512 1.31227C41.9847 1.45365 42.0376 1.61868 42.3942 1.56641C42.3942 1.61252 42.6414 1.61576 42.4611 1.68067C42.3482 1.73986 42.191 1.77831 42.0526 1.7903C41.6454 1.77626 41.2656 2.05221 40.8496 1.89463C40.7317 1.88016 40.6192 1.84052 40.5066 1.83987C40.4664 1.8537 40.4325 1.90619 40.3939 1.93416C40.2351 1.92325 40.2841 1.77075 40.0793 1.8133C40.1259 1.87292 40.1646 1.95403 40.2137 2.04476C39.9258 2.3381 39.4094 2.21335 39.0136 2.31855C38.7068 2.22491 38.3086 2.33356 38.0628 2.16108C37.6742 2.22631 37.3002 2.30105 36.9807 2.4177C36.9422 2.35948 36.8587 2.3476 36.7637 2.36586C36.6179 2.37871 36.4187 2.38205 36.4488 2.49038C36.4647 2.57905 36.5868 2.54428 36.6807 2.54925C36.5866 2.59914 36.4999 2.65509 36.4226 2.71827C36.0274 2.60843 35.6054 2.54028 35.2327 2.38681L35.2288 2.38583C35.2288 2.38583 35.2288 2.38584 35.2327 2.38681C35.0744 2.16561 34.7603 2.05156 34.4554 1.93222C34.3764 1.8996 34.2836 1.87757 34.2188 1.87638C33.7925 1.7363 33.3627 1.63477 32.922 1.55593C32.5119 1.43367 32.2792 1.64223 31.9318 1.60669L31.9032 1.61447C31.9148 1.5731 31.8242 1.55917 31.7563 1.56511C31.6756 1.596 31.6535 1.61782 31.633 1.6878L31.6283 1.6891C31.6233 1.68791 31.6173 1.68931 31.6102 1.69428C31.377 1.76265 31.1654 1.84668 31.0369 2.00577C30.8175 2.10578 30.8154 2.25353 30.8132 2.44059C30.7838 2.44437 30.7499 2.46166 30.7115 2.50324C30.4426 2.62399 30.8919 2.90717 30.6008 3.02263C30.5972 3.24577 30.5964 3.44396 30.5857 3.69096C30.362 3.67735 30.2968 3.72379 30.486 3.8656C30.5879 3.92965 30.6902 3.97912 30.8019 4.04154C30.8656 4.15754 30.9467 4.23854 31.0227 4.34309C30.9214 4.39051 30.8902 4.45369 30.8869 4.5226C30.7638 4.54301 30.6463 4.57379 30.5412 4.63416C30.3534 4.68946 30.1729 4.76496 29.9914 4.83008C29.7341 4.92318 29.4359 4.85352 29.1784 4.94662C29.0806 4.93377 29.0099 4.96142 28.993 5.026C28.7325 5.08411 28.4734 5.15604 28.2132 5.20324C27.8351 5.28165 27.469 5.37702 27.0861 5.44549C27.0398 5.44949 26.995 5.45338 26.9503 5.45727C26.719 5.37853 26.4705 5.46375 26.2254 5.48502C26.3018 5.47833 26.3771 5.50695 26.4497 5.50068L26.4517 5.52509C26.3908 5.49539 26.2947 5.50371 26.2254 5.48502C25.8301 5.51926 25.5404 5.28694 25.1191 5.38717C24.8789 5.35812 24.6275 5.36633 24.7456 5.13703C24.5964 5.16425 24.4477 5.23694 24.3203 5.23769C23.7614 5.17689 24.0792 5.36773 24.0979 5.47584C23.9186 5.67684 23.5593 5.73862 23.2703 5.86153C23.0855 5.66021 22.8562 5.49572 22.6344 5.33328C22.5089 5.24255 22.3239 5.26005 22.2412 5.35228C22.2408 5.37745 22.2561 5.38112 22.2595 5.40715C22.2544 5.40596 22.2478 5.40445 22.2478 5.40445C22.2356 5.37615 22.2307 5.3498 22.2194 5.3471C22.0846 5.20345 21.9161 5.1636 21.7217 5.20421C21.3694 5.30908 21.081 5.17916 20.9158 4.95245C20.8127 4.84164 20.7355 4.82339 20.587 4.81356C20.3794 4.80049 20.4757 4.90968 20.5079 4.99317C20.5943 5.16198 20.4304 5.14859 20.2187 5.12375C19.9217 5.1042 19.5969 5.05279 19.4212 5.21004C19.4145 5.02028 19.2677 4.81248 19.3772 4.61418C19.4331 4.51558 19.3238 4.26565 18.8492 4.21478C18.5398 4.16683 18.2431 3.89855 17.8761 3.97415L17.868 4.00806C18.1733 4.14199 18.4993 4.26965 18.7251 4.47475C18.535 4.22753 18.2988 4.04867 17.868 4.00806C17.7935 3.99056 17.72 3.97318 17.6435 3.98031C17.1302 3.87036 16.5976 3.70792 16.1595 3.8898C16.1497 3.9128 16.1441 3.93667 16.1425 3.96151C16.0187 4.01951 15.79 4.02664 15.7421 4.17774C15.5194 4.21219 15.5169 4.34871 15.4464 4.46903C15.3089 4.58481 15.3875 4.74055 15.4731 4.87264C15.3897 5.20335 15.7095 5.48859 16.0679 5.77156C16.0276 5.92503 16.2085 6.11955 15.7976 6.13413C15.6068 6.13618 15.6163 6.22831 15.8326 6.30143C16.087 6.38675 15.8805 6.43903 15.892 6.53958C15.7914 6.51593 15.5804 6.46603 15.6088 6.52338C15.9271 6.86197 15.6133 7.02268 15.3988 7.24614C15.2938 7.34886 15.0292 7.43223 15.2757 7.63183C15.2372 7.64382 15.1993 7.65688 15.1619 7.67017C15.118 7.61163 15.0586 7.55871 14.9692 7.51702C14.5745 7.25014 14.1757 6.9824 13.7311 6.6789C13.7159 6.92083 14.0513 7.02549 14.1312 7.17076C14.003 7.21299 13.7797 7.18545 13.9612 7.3548C14.0251 7.44174 14.0863 7.52134 14.1524 7.59824C14.2367 7.7192 14.3283 7.81338 14.4127 7.93446C14.4272 7.9458 14.4403 7.95746 14.4527 7.96977C14.3086 8.02486 14.3091 8.12487 14.2422 8.21505C14.2074 8.28839 14.2967 8.3547 14.3549 8.39909C14.5161 8.42015 14.6267 8.47091 14.7169 8.56196C14.8783 8.63238 15.0266 8.7041 15.2549 8.65949C15.4596 8.75162 15.6672 8.81815 15.8725 8.92367C15.9854 8.95434 16.1058 8.95315 16.2299 8.94095C16.2437 8.95531 16.2535 8.97206 16.2569 8.99171C16.1505 9.06764 16.0273 8.96266 15.9108 8.96039C15.7418 8.94581 15.5569 8.82625 15.4015 8.89062C15.3449 8.92388 15.3977 8.98685 15.4596 9.00154C15.6059 9.11192 15.7488 9.24358 15.9708 9.17284C16.2264 9.08557 16.2755 9.32069 16.4635 9.36519C16.6288 9.40429 16.7951 9.4436 16.9615 9.48432C16.8659 9.54513 16.8119 9.62397 16.7597 9.70778C16.9724 9.68931 17.1129 9.63304 17.1811 9.53908L17.099 9.51823C17.0155 9.5933 16.9284 9.66922 16.7597 9.70778L16.732 9.71016L16.7135 9.71189C16.576 9.85758 16.4407 9.99302 16.3082 10.1493C16.1912 9.96516 16.1593 9.74904 15.6409 9.9388C15.4724 10.0028 15.4253 9.87303 15.3535 9.79418C15.208 9.64827 15.1 9.65756 14.7715 9.77064C15.4015 9.87508 15.5001 10.0603 14.9852 10.3382C14.6485 10.5118 14.973 10.5187 15.1441 10.6383C15.0231 10.6241 14.9252 10.6574 14.8265 10.6658C14.7764 10.6702 14.7243 10.65 14.6741 10.6543C14.5698 10.6634 14.4718 10.6473 14.4135 10.5568C14.3899 10.4848 14.2113 10.43 14.1488 10.5057C14.0208 10.6651 13.8604 10.6542 13.7008 10.6682C13.6971 10.6684 13.6879 10.6692 13.6786 10.6701C13.6287 10.6742 13.6062 10.6761 13.5653 10.6798C13.4271 10.6776 13.2937 10.6541 13.1619 10.6655C13.1341 10.6678 13.095 10.6466 13.0667 10.6243C10.3926 15.0256 10.7855 16.1598 11.5181 17.4185C11.3739 17.4934 11.2871 17.611 11.1343 17.6848C11.1785 17.7458 11.2524 17.7886 11.3616 17.8037C11.4025 17.8494 11.4106 17.9018 11.4271 17.9528C11.4154 17.95 11.4149 17.9752 11.4021 17.9723C11.2354 17.8603 10.963 17.9443 10.8421 17.7421C10.7771 17.615 10.6323 17.6925 10.5241 17.7028C10.1757 17.7217 9.93581 17.8745 9.60067 17.9073C9.22589 17.9056 9.68945 18.1523 9.48284 18.2153C9.10471 18.2523 9.64441 18.4923 9.41933 18.5762C9.59073 18.6386 9.69852 18.6022 9.7643 18.5313C9.8683 18.4187 10.0566 18.5026 10.1916 18.5346C10.6393 18.6403 10.8788 18.5705 10.9158 18.305C11.2851 18.2167 11.4927 18.2271 12.0698 18.4001L12.1134 18.4914C11.9843 18.4701 11.8544 18.4565 11.7479 18.5158C11.8897 18.6017 12.0356 18.6203 12.1795 18.639C12.1942 18.673 12.2084 18.7081 12.2227 18.7433C12.1644 18.7487 12.1078 18.7553 12.0617 18.7742C11.8829 18.8584 11.6722 18.8591 11.5763 18.638C11.5377 18.5531 11.4804 18.4637 11.3252 18.4525C10.998 18.4508 11.3067 18.697 11.1208 18.7541C10.9854 18.8092 11.1425 18.8571 11.2585 18.8844C11.3294 18.9011 11.4297 18.9248 11.4645 18.9331C11.7696 19.2237 12.0077 19.3069 12.3885 19.2155C12.4914 19.5622 12.5695 19.9582 12.6061 20.4237L12.5566 20.412C12.4778 20.4293 12.4013 20.4476 12.3289 20.4558C12.2683 20.5173 12.219 20.5816 12.159 20.6393C12.0605 20.7171 12.0104 20.7918 11.7677 20.6227C11.5998 20.4819 11.3472 20.498 11.1309 20.4363C11.0866 20.4111 11.0338 20.3986 10.9719 20.3841C10.7964 20.3572 10.66 20.2384 10.4746 20.2412C10.4726 20.2661 10.4723 20.2912 10.4689 20.3051C10.3594 20.2793 10.2135 20.3566 10.1409 20.2383C10.072 20.1102 9.93289 20.0666 9.80912 20.0841C9.57874 20.156 9.93084 20.2646 9.85361 20.344C9.73859 20.3308 9.60607 20.3108 9.47215 20.2793C9.40561 20.314 9.39427 20.3618 9.40399 20.3894C9.40669 20.4008 9.41069 20.4017 9.41576 20.4028C9.35766 20.3785 9.29901 20.3394 9.24296 20.3981C9.07317 20.358 9.02987 20.4488 8.92327 20.4742C8.92327 20.4742 8.92272 20.4994 8.92435 20.5215C8.83945 20.5016 8.73782 20.4776 8.68587 20.5411C8.53456 20.5559 8.39361 20.5479 8.23063 20.5707C8.31228 20.6911 8.53045 20.6415 8.60638 20.7465L8.65779 20.7586L8.71233 20.7462C8.73102 20.776 8.74722 20.7938 8.76515 20.8092C8.76018 20.8082 8.75132 20.806 8.75132 20.806C8.64084 20.8304 8.61416 20.8747 8.62236 20.9487C8.9075 21.2542 9.23864 21.0835 9.55477 21.1436C9.72498 21.285 9.13171 21.5419 9.90276 21.6483C9.90276 21.6483 9.90233 21.6736 9.90341 21.6738C9.45519 21.8173 9.67735 22.1193 9.68038 22.3942C9.67811 22.4042 9.68135 22.4303 9.67811 22.4442C9.49083 22.523 9.59721 22.7464 9.34546 22.7992C9.3487 22.8141 9.34816 22.8393 9.34643 22.8641C9.60175 23.3076 9.26974 23.6662 9.22071 24.0519C9.57842 24.3307 9.74345 24.1754 9.22071 24.0519C8.99833 24.0499 9.05384 24.2113 8.89605 24.2752C8.63511 24.3106 8.62388 24.4091 8.90221 24.5255C9.2206 24.903 8.45075 24.5306 8.34739 24.568C8.12932 24.3283 7.83393 24.1467 7.46996 23.9741C7.39392 23.9561 7.32383 23.9542 7.24412 23.946C7.20805 23.9375 7.17338 23.9293 7.13914 23.9359C7.10296 23.9272 7.06321 23.9179 7.02595 23.9091C6.88781 23.6995 6.60711 23.7089 6.37112 23.6785C6.05002 23.5015 5.74383 23.4291 5.46108 23.5393C5.36474 23.5778 5.24906 23.5503 5.1484 23.5626C5.11363 23.5544 5.08716 23.5734 5.04742 23.564C4.95367 23.466 5.10347 23.4761 5.14635 23.4504C5.23502 23.3735 5.26904 23.2299 5.11114 23.1565C4.88347 23.0669 4.91803 23.2088 4.85798 23.2957C4.72567 23.4881 4.32757 23.3435 4.06058 23.3815C3.97418 23.4588 3.94674 23.5641 3.69455 23.5044C3.61215 23.4849 3.66853 23.5633 3.72793 23.5988C3.66539 23.6852 3.49194 23.706 3.50879 23.8364C3.27723 23.6945 3.06921 23.7937 2.74001 23.6907C2.92513 23.8104 3.02255 23.8804 3.12721 23.9558C2.91876 24.0329 2.70901 23.9833 2.50348 23.9095C2.34072 23.8458 2.21608 23.827 2.18778 23.9467C2.10473 23.9524 2.00947 23.9298 1.97156 23.9928C1.83396 24.2243 2.18217 24.1078 2.29395 24.17C2.3337 24.1795 2.36967 24.1879 2.40574 24.1965C2.54798 24.216 2.69864 24.2517 2.8438 24.2642C2.92265 24.3552 3.05204 24.3604 3.17397 24.378C3.48945 24.4639 3.37735 24.6395 3.49972 24.7658C3.61539 24.9667 3.83885 25.0847 4.15616 25.145C4.31677 25.2189 4.25164 25.3159 4.27152 25.4105C4.2767 25.4117 4.26882 25.421 4.27422 25.4223C4.26882 25.421 4.26881 25.421 4.26514 25.4203C4.26968 25.4466 4.2726 25.4978 4.26903 25.5583C4.22972 25.6101 4.19224 25.6771 4.15401 25.7293C4.08143 25.7486 3.73571 25.6304 3.9987 25.805C4.24667 25.9754 4.4076 26.1506 4.5911 26.3169C4.15811 26.3156 3.65729 26.071 3.2715 26.2545C2.76118 26.2352 2.26998 26.2667 1.73017 26.1644C1.50833 26.1373 1.29858 26.0877 1.0816 26.0617C0.837729 25.9788 0.876935 26.0893 0.860734 26.1578C0.852526 26.1812 0.849395 26.2058 0.837406 26.2282C0.959343 26.3328 0.632088 26.2914 0.741281 26.4039C0.836973 26.477 0.935256 26.5727 1.01594 26.6569C1.13031 26.7306 1.26888 26.7887 1.38607 26.8562C1.42398 26.8904 1.4755 26.9026 1.52453 26.9142C1.60089 26.9071 1.66526 26.9221 1.705 26.8917C1.72941 26.8976 1.75058 26.9171 1.77024 26.9323C1.81539 26.943 1.85761 26.9424 1.90136 26.9527C1.84087 26.9889 1.75328 27.0042 1.81107 27.0291C2.25993 27.2868 2.14664 27.7079 2.76399 27.879C2.66981 27.9906 2.50532 27.991 2.31501 27.9965C2.12017 27.987 2.14653 28.105 2.17353 28.1873C2.20312 28.292 2.31275 28.2308 2.40131 28.2518C2.8235 28.3515 2.39915 28.4394 2.4875 28.5322C2.35476 28.501 2.17569 28.5344 2.0909 28.4279C1.85383 28.137 1.82802 28.4017 1.71246 28.425C1.97469 28.4761 2.23045 28.6592 2.4875 28.5322C2.85579 28.3591 3.33566 28.4619 3.79943 28.5462C3.8031 28.5831 3.68494 28.617 3.80807 28.6713C3.80256 28.7459 3.80169 28.8069 3.79964 28.8676C3.83604 28.9267 3.87233 28.9859 3.91402 29.0209C3.91845 29.0946 3.96856 29.1823 4.08305 29.198C4.34928 29.2217 4.46733 29.3254 4.57738 29.4633C4.53288 29.514 4.49552 29.5451 4.46571 29.5738C4.43935 29.7305 4.43838 29.8673 4.6802 30.0111C4.58753 30.1734 4.75516 30.39 4.47748 30.4835C4.40587 30.5171 4.467 30.6433 4.60546 30.7014C4.85992 30.7867 4.70861 30.5527 4.92203 30.5525C4.96825 30.7764 4.89783 31.143 5.47825 30.8317C5.51551 31.2776 5.08684 31.1258 4.67491 31.0177C4.69543 31.2467 4.29376 31.112 4.1107 31.2311C4.51215 31.3261 4.92851 31.3018 5.11319 31.5944C5.31084 31.54 5.05023 31.3666 5.25382 31.3388C5.36614 31.3294 5.40135 31.3883 5.46885 31.4296C5.64684 31.5687 5.62978 31.6513 5.46777 31.7507C5.4074 31.7757 5.43947 31.8704 5.43861 31.9313C5.26202 31.879 5.08176 31.8365 4.90313 31.7943C4.73194 31.7536 4.54822 31.7316 4.5695 31.8884C4.59564 32.0429 4.7733 31.9872 4.89859 31.9915C4.9919 31.9995 5.07928 32.0089 5.15154 32.0766C5.12021 32.1921 4.95464 32.1277 4.85938 32.1053C4.46236 31.9861 4.16859 32.2167 3.73722 32.0529C3.6709 32.0232 3.5387 32.1797 3.59487 32.3047C3.97148 32.1196 4.21827 32.3403 4.58624 32.6002C3.91154 32.4302 3.44863 32.4691 3.07699 32.6554C3.01045 32.6903 2.9477 32.6502 2.87188 32.6323C2.69919 32.5408 2.60047 32.4815 2.47551 32.6364C2.38111 32.7657 2.1043 32.5739 1.91486 32.5184C1.78611 32.6723 1.82057 32.8321 2.01962 33.0016C2.02556 33.1548 1.49764 32.9794 1.68016 33.2468C1.72822 33.3086 1.58026 33.2737 1.53944 33.2387C1.1949 33.0702 0.999737 33.1831 0.804897 33.2887C0.840322 33.3224 0.879096 33.3316 0.915277 33.3621C1.35604 33.5673 1.7954 33.7723 2.23174 33.973C2.30443 34.0044 2.37938 34.044 2.45078 34.0754C2.04003 34.2777 1.89164 34.5893 1.9046 34.943C1.90654 34.982 1.92047 35.0153 1.94337 35.0437L1.89455 35.0784C1.64981 35.2088 1.87544 35.2244 1.97685 35.2896C1.87803 35.3928 1.63999 35.4337 1.50423 35.5565C1.51578 35.4954 1.47193 35.4627 1.42203 35.461C1.35453 35.4596 1.26716 35.4497 1.23346 35.4778C1.16801 35.5127 1.24728 35.5567 1.32386 35.5496C1.38866 35.565 1.44731 35.5558 1.49494 35.5649C1.46243 35.5962 1.43661 35.633 1.42095 35.677C1.87468 35.5131 2.28898 35.3708 2.68806 35.2145C2.81119 35.2266 2.93409 35.2469 3.05744 35.2842C3.06824 35.3622 3.1541 35.4391 3.1892 35.5126C3.30239 35.7567 3.50263 35.9641 3.21717 36.2028C3.07169 36.134 2.92005 36.0655 2.75859 36.0151C2.93539 36.2358 3.15248 36.3788 3.38512 36.4879C3.36298 36.5043 3.32216 36.518 3.25087 36.5269C3.01899 36.5471 2.97125 36.6396 3.15421 36.6834C3.5373 36.7846 3.29159 36.9504 3.27625 37.0965C2.83981 37.2827 2.4336 37.498 2.39558 37.8541C2.25928 37.9648 2.13778 38.0949 2.21986 38.2463C2.23974 38.3682 2.20096 38.5021 2.38619 38.5847C2.38014 38.7302 2.5928 38.8107 2.68784 38.8978C2.68082 38.9232 2.6737 38.9485 2.67078 38.9734C3.01953 39.2461 3.57402 39.2122 4.08672 39.2138C4.16643 39.2316 4.2349 39.2394 4.30953 39.2439C4.73453 39.2915 5.02798 39.1568 5.29658 38.9783C5.00702 39.1126 4.6504 39.165 4.30953 39.2439L4.30359 39.2829C4.62642 39.4245 5.00821 39.2327 5.30307 39.267C5.769 39.3109 5.9647 39.0894 5.94602 38.9817C5.91416 38.7661 6.12789 38.5993 6.20814 38.4227C6.31571 38.6077 6.62968 38.63 6.92594 38.6782C7.12823 38.6854 7.28236 38.7177 7.14487 38.8776C7.0806 38.9327 6.95111 39.0147 7.15232 39.0714C7.29035 39.0839 7.37189 39.077 7.50657 38.9912C7.7431 38.8259 8.0615 38.7488 8.35495 38.9176C8.52786 39.0118 8.70045 38.9967 8.86959 38.8976C8.88719 38.8851 8.89929 38.8704 8.91668 38.8579C8.91754 38.8688 8.91344 38.8692 8.91344 38.8692C8.91754 38.8688 8.92273 38.8683 8.93104 38.8567C8.91884 38.8823 8.89627 38.8844 8.89335 38.8955C8.91398 38.9488 8.95729 38.9895 9.01302 39.0126C9.02749 39.0851 9.15224 39.1794 9.37159 39.3188C9.43434 39.186 9.41976 39.0055 9.78892 39.0708C9.72455 39.1421 9.64581 39.2106 9.65888 39.3108C9.51524 39.378 9.44439 39.4591 9.5917 39.595C9.77693 39.7254 9.89304 39.5905 10.0093 39.5707C10.6305 39.4434 10.9438 39.0943 11.439 38.8612C11.4367 38.9112 11.4415 38.9378 11.4444 38.989C11.6655 39.0411 11.6692 38.8651 11.8706 38.8875C12.0516 38.9948 11.6003 39.1229 12.0601 39.2462C12.3127 39.3167 12.4795 39.3926 12.5701 39.2043C12.7233 39.3377 12.4834 39.3936 12.5699 39.5037C12.5958 39.5211 12.6422 39.5321 12.6563 39.5356C12.7238 39.515 12.7716 39.4503 12.8492 39.4434C13.2667 39.4196 13.5446 39.3589 13.0216 39.0364C12.9099 38.9741 13.5412 38.563 13.7168 38.6299C14.2782 38.8244 14.4158 38.6686 14.4152 38.3831C14.3997 38.3794 14.3784 38.3603 14.3515 38.3539C14.0206 38.2759 13.7476 38.4136 13.3915 38.3042C13.2621 38.2482 13.1856 38.342 13.1663 38.424C13.1374 38.5295 13.0421 38.5935 12.8785 38.6414C12.6084 38.7151 12.4413 38.9498 11.9961 38.6717C11.9002 38.6237 11.7707 38.6544 11.6472 38.6757C11.7657 38.5666 11.8839 38.4568 11.9984 38.3469C12.2557 37.9706 12.7273 37.6994 13.1067 37.3879C13.6125 37.421 13.8816 37.3001 13.8746 36.9734C13.8708 36.9724 13.8658 36.9711 13.8618 36.9702C13.8658 36.9711 13.8708 36.9724 13.8746 36.9734C13.9056 36.9805 13.9415 36.9784 13.9774 36.987C14.4493 36.9972 14.7733 36.9257 14.6437 36.5589C14.6486 36.5096 14.6477 36.4733 14.649 36.4338C14.7051 36.2993 14.6123 36.129 14.7872 36.0439L14.8297 36.0434L14.8766 36.0398C14.9808 36.0643 15.1161 36.0604 15.0709 36.1615C15.2608 36.2317 15.4521 36.313 15.6393 36.3717C15.9513 36.6551 16.4235 36.756 16.8542 36.8831C17.18 36.9706 17.5083 37.0589 17.839 37.1371C17.8603 37.1567 17.8922 37.2002 17.8934 37.2004C18.2794 37.1518 18.6465 37.2905 19.0198 37.3914C18.9729 37.4323 18.9253 37.4712 18.8792 37.5176C18.9202 37.514 18.9569 37.5109 19.0031 37.5069C18.999 37.521 19.0042 37.5204 18.999 37.521C18.9662 37.5101 18.9271 37.4888 18.8792 37.5176C18.7504 37.6523 18.5471 37.7895 18.8016 37.937C18.896 38.0771 19.1819 38.0521 19.3587 38.1319C19.5919 38.2351 19.3982 38.3722 19.4189 38.5042C19.3361 38.6211 19.2313 38.7289 19.033 38.8165C18.6986 38.9547 18.5736 39.1495 18.6279 39.3631C18.5917 39.465 18.5222 39.5666 18.6748 39.6275C18.6769 39.6519 18.6868 39.6758 18.6981 39.6994C18.6962 39.7841 18.7424 39.8405 18.8542 39.905C18.8652 39.9391 18.8787 39.973 18.8888 39.9969C18.8357 40.0755 18.9148 40.1889 18.6779 40.1985C18.4092 40.208 18.6107 40.3738 18.4496 40.4126C18.4321 40.4245 18.4812 40.519 18.6038 40.5084C18.7559 40.4705 18.9337 40.5154 19.0623 40.4088C19.2441 40.2838 19.2389 40.2843 19.4739 40.4082C19.6392 40.4185 19.7068 40.3529 19.7272 40.2667C20.0619 40.3326 20.4316 40.3855 20.6915 40.5357C20.7242 40.5434 20.7611 40.5401 20.8018 40.5366C20.7653 40.5293 20.7364 40.5176 20.6915 40.5357C20.642 40.8046 20.6437 41.0865 20.3636 41.3299C20.1089 41.3024 20.0532 41.5011 20.0554 41.5256C20.0378 41.7955 19.73 41.7233 19.4529 41.6981C19.9002 42.0616 19.9472 42.0679 20.1916 41.8283C20.3766 41.8617 20.1829 42.1566 20.6118 42.0349C20.6356 42.0471 20.6641 42.055 20.6958 42.0524C20.9934 42.2701 20.5987 42.5722 20.8057 42.798C20.8438 43.024 21.3402 43.0551 21.4234 43.2773C21.4153 43.2778 21.4061 43.2787 21.3917 43.2799C21.2947 43.3268 21.2224 43.3791 21.2879 43.4476C21.3547 43.5264 21.4556 43.5423 21.6027 43.4944C21.8782 43.4106 21.958 43.4741 21.8378 43.6188C21.7635 43.7099 21.7473 43.7853 21.9077 43.7961C22.4614 43.7974 22.7682 44.2296 23.4682 43.9747C23.1881 44.2178 22.7835 44.0834 22.463 44.1854C22.636 44.3893 23.0513 44.1096 23.1688 44.3182C22.9845 44.5035 22.6365 44.241 22.3935 44.4843C22.7425 44.4541 23.0315 44.524 23.3069 44.4261C23.4887 44.3647 23.5427 44.4055 23.5636 44.492C23.6191 44.6425 23.8642 44.6356 24.0039 44.6092C24.1875 44.5687 24.362 44.469 24.3188 44.3381C24.2922 44.2456 24.3357 44.1677 24.4911 44.1679C24.6375 44.1553 24.6048 44.2535 24.6008 44.3138C24.6039 44.4123 24.6836 44.3807 24.7265 44.4017C24.688 44.479 24.7276 44.5216 24.8984 44.5315C24.9172 44.7489 24.9361 44.9656 24.9589 45.1827C25.272 45.3037 24.8312 45.5467 25.1175 45.6804C25.1513 45.7021 25.1888 45.7236 25.2228 45.7454C25.2332 45.914 25.2571 46.081 25.4914 46.1947C25.698 46.4204 26.0718 46.5218 26.438 46.6245C26.79 46.629 27.0484 46.8504 27.4581 46.7407C27.8995 46.7024 28.3404 46.6285 28.7559 46.5079C28.8295 46.5119 28.9193 46.4938 29.0028 46.4618C29.3061 46.3756 29.6105 46.2888 29.7569 46.0786C30.3958 45.8541 31.2048 45.9074 31.7195 45.5204C32.2682 45.5714 32.3738 45.2451 32.6901 45.0975C32.7074 45.0731 32.7254 45.0515 32.7436 45.0302L32.7488 45.0308L32.786 44.9796L32.7868 44.9784L32.7876 44.9773L32.7895 44.975L32.7899 44.9744L32.7912 44.9726L32.8016 44.9584H32.8018L32.8035 44.956L32.8045 44.9544L32.8052 44.9535C33.4431 44.9334 33.8574 44.6432 34.329 44.4327C34.8665 44.3755 35.1596 44.1357 35.4581 43.907C35.5301 43.909 35.5998 43.904 35.6655 43.8889C35.7106 43.8997 35.7506 43.9091 35.7994 43.91C36.1767 44.0099 36.5455 44.1223 36.9207 44.2255C37.1795 44.2974 37.4426 44.3849 37.6894 44.4684C37.7156 44.5359 37.7864 44.5638 37.8827 44.5647C38.1475 44.6744 38.4319 44.6439 38.6965 44.7317C38.8713 44.8089 39.0561 44.8892 39.241 44.9581C39.5474 45.1569 39.9256 45.1199 40.2684 45.2621C40.392 45.3311 40.5272 45.3631 40.6662 45.396C40.697 45.4034 40.6821 45.4502 40.7179 45.4588C40.8541 45.5269 41.0004 45.5974 41.1358 45.6801C41.2378 45.7546 41.3729 45.7866 41.4046 45.9171C41.4053 45.9314 41.4322 45.9378 41.4388 45.9505C41.6346 46.1338 41.8757 46.292 42.1896 46.4021C42.1851 46.524 42.183 46.6247 42.3688 46.7192C42.7421 47.0422 42.9713 47.4577 43.6465 47.6312C44.0826 47.9079 44.4505 48.255 45.0787 48.3674C45.1073 48.4248 45.1429 48.4692 45.1717 48.5265C45.4632 48.7186 45.5204 49.0566 46.0708 49.0857C46.5238 49.5433 47.332 49.6078 47.9317 49.9225C48.046 50.1518 48.3346 50.2818 48.6222 50.411C48.7001 50.4548 48.7865 50.4857 48.8597 50.4924C49.2534 50.6719 49.6789 50.8091 50.1102 50.9109C50.4997 51.0789 50.7874 50.8973 51.1363 50.9439C51.5135 50.8954 51.8981 50.8493 52.1353 50.6558C52.3835 50.5773 52.4313 50.4155 52.4662 50.2503C52.503 50.2335 52.5432 50.2178 52.5797 50.2012C52.8824 50.1104 52.4816 49.8061 52.8088 49.7319C52.8628 49.5203 52.9129 49.3086 52.9632 49.0963C53.1336 49.1113 53.179 49.0748 53.1521 48.9927C53.1975 48.9782 53.2718 49.021 53.2892 48.924C53.294 48.8638 53.2759 48.7618 53.4188 48.7956C53.5726 48.8178 53.6045 48.9012 53.5647 48.9889C53.5031 49.1121 53.6612 49.236 53.8368 49.3028C53.9714 49.3491 54.2128 49.3915 54.2896 49.2507C54.3227 49.1682 54.3821 49.1356 54.5531 49.2227C54.8114 49.3595 55.1074 49.3322 55.4485 49.4127C55.2432 49.1368 54.8609 49.346 54.7053 49.136C54.8519 48.9466 55.2222 49.2835 55.423 49.1068C55.1207 48.9595 54.7008 49.0338 54.459 48.7527C55.1145 49.1063 55.4809 48.7232 56.0289 48.8023C56.1891 48.8148 56.1841 48.7378 56.1237 48.6369C56.0257 48.4763 56.114 48.425 56.3744 48.5479C56.5131 48.6167 56.6151 48.6154 56.6926 48.5473C56.7674 48.4889 56.7034 48.4267 56.6143 48.3663C56.6002 48.363 56.5911 48.3609 56.5834 48.3591C56.6977 48.1513 57.1935 48.1926 57.264 47.9744C57.5015 47.7811 57.1547 47.4249 57.4808 47.2526C57.5118 47.2598 57.541 47.2562 57.5664 47.2474C57.9731 47.4302 57.8243 47.1102 58.0121 47.104C58.2193 47.3765 58.2666 47.377 58.7618 47.0823C58.4841 47.0672 58.1691 47.0938 58.1908 46.8242C58.1965 46.8003 58.1703 46.5957 57.9142 46.5859C57.6724 46.3046 57.7149 46.0259 57.7049 45.7527C57.6632 45.7281 57.6328 45.7356 57.5957 45.7375C57.6354 45.7468 57.6715 45.7555 57.7049 45.7527C57.9839 45.6416 58.3573 45.6429 58.6981 45.6262C58.7058 45.7145 58.7631 45.7893 58.9282 45.803C59.1786 45.7144 59.1736 45.7132 59.3353 45.8633C59.4471 45.9873 59.6296 45.9687 59.7746 46.0283C59.8942 46.0565 59.9567 45.9701 59.941 45.9559C59.7872 45.8941 60.0106 45.7592 59.7462 45.711C59.5132 45.6671 59.6079 45.5663 59.5667 45.4809C59.5802 45.4588 59.5985 45.4271 59.6143 45.3949C59.7342 45.3474 59.7881 45.2983 59.7985 45.2141C59.8131 45.1924 59.8263 45.1703 59.832 45.1464C59.9919 45.1082 59.9378 44.9977 59.9167 44.8915C60.0014 44.688 59.9059 44.4772 59.5952 44.292C59.4116 44.1766 59.3235 44.0548 59.2586 43.9271C59.2983 43.7994 59.1264 43.6358 59.3721 43.5674C59.5587 43.5141 59.838 43.5802 59.9517 43.4554C60.2248 43.3463 60.0436 43.1811 59.9356 43.0292C59.8925 42.9938 59.8507 43.009 59.8166 43.0151C59.8116 43.0139 59.8166 43.0151 59.8146 43.0007C59.8598 43.0113 59.8956 43.0196 59.9356 43.0292C59.8708 42.9413 59.7983 42.8737 59.7355 42.783C59.7198 42.7286 59.7117 42.6655 59.6997 42.6009C59.7474 42.4392 59.4598 42.3459 59.3863 42.2021C59.3504 42.1937 59.3193 42.1863 59.2886 42.179L59.2519 42.1956C59.2467 42.1944 59.2467 42.1944 59.243 42.1935C59.2558 42.1966 59.2649 42.1987 59.2886 42.179C59.2795 42.1769 59.2696 42.1382 59.2811 42.1301C59.4797 41.9281 59.4797 41.9281 59.0447 41.8254C58.9844 41.7241 58.9126 41.6312 58.8521 41.5304C58.8419 41.4521 58.8647 41.3964 58.8751 41.3117C58.9275 41.3492 58.9837 41.3879 59.0388 41.4121C59.1034 41.4381 59.1781 41.4557 59.2452 41.4716C59.3191 41.5143 59.3934 41.5571 59.4584 41.5977C59.4658 41.6248 59.4805 41.6031 59.4893 41.6051C59.4944 41.6064 59.4984 41.6073 59.5034 41.6085L59.4584 41.5977C59.518 41.6624 59.5736 41.7261 59.6273 41.7748C59.7494 41.7929 59.7697 41.7473 59.7322 41.6878C59.7597 41.669 59.7777 41.6732 59.7957 41.6776C59.886 41.7495 59.8865 41.8507 60.0686 41.8684C60.1266 41.8821 60.1469 41.8363 60.0985 41.7997C60.1042 41.7757 60.1155 41.7278 60.1158 41.6919C60.261 41.7262 60.4039 41.76 60.5487 41.7796C60.6145 41.835 60.683 41.862 60.7437 41.9267C60.8284 42.0227 60.9675 41.9291 61.0685 41.9783C61.1252 41.8939 61.0438 41.8242 60.9355 41.748C60.8668 41.6812 60.7945 41.6135 60.7291 41.5514C60.6451 41.4304 60.5473 41.3314 60.3296 41.258C60.1772 41.0345 59.8437 40.8187 59.9233 40.5626L59.9142 40.5606C59.9194 40.5618 59.9194 40.5618 59.9233 40.5626C60.1315 40.4748 60.344 40.3873 60.5487 40.3133C60.89 39.9967 60.8933 39.5857 60.573 39.2965C60.4565 39.197 60.6119 39.1326 60.6314 39.0502C60.7765 39.0738 60.9219 39.1081 61.0647 39.1418C61.1502 39.2347 61.2377 39.3418 61.3248 39.4276C61.3863 39.7022 61.8238 40.0292 62.1887 40.0901C62.3994 40.1293 62.5597 40.1418 62.4764 39.9597C62.5652 39.9808 62.6474 39.989 62.7079 39.9526C62.5993 39.8766 62.4382 39.8277 62.3275 39.7616C62.446 39.8297 62.5385 39.9379 62.7079 39.9526C62.748 39.7639 63.1189 39.6381 62.8443 39.3748C62.7332 39.2115 62.7394 39.0246 62.5194 38.8862C62.0916 38.3782 61.8028 38.0172 61.6212 37.7693ZM66.6244 40.2372C66.3842 40.2407 66.2634 40.081 66.0753 39.9989C65.9203 39.9277 65.8354 39.8506 65.8221 39.7421C65.8148 39.6583 65.7527 39.5543 65.6166 39.5909C65.5897 39.5951 65.5635 39.5978 65.5378 39.5996C65.519 39.5537 65.4969 39.503 65.4715 39.4467C65.4677 39.4459 65.4638 39.445 65.4586 39.4437L65.4638 39.445L65.4715 39.4467C65.5557 39.4301 65.6468 39.4011 65.7346 39.386C65.7919 39.4247 65.8515 39.4494 65.9164 39.4901C66.0101 39.6859 66.1975 39.8419 66.5 39.9533C66.5021 39.979 66.5016 40.0041 66.5025 40.0404C66.4932 40.12 66.5499 40.1806 66.6244 40.2372ZM69.2449 41.1923C69.2235 41.1706 69.1958 41.1493 69.1638 41.1281C69.1914 41.0308 69.1233 40.9517 69.07 40.8718C69.389 40.8624 69.407 40.9889 69.4318 41.1133C69.3856 41.1186 69.3405 41.1288 69.2924 41.1334C69.2753 41.1527 69.2596 41.1725 69.2449 41.1923ZM69.5702 41.1207L69.6341 41.0892L69.6223 41.1389C69.6044 41.1309 69.5871 41.1251 69.5702 41.1207ZM69.8498 40.8973C69.8395 40.8009 69.6023 40.7087 69.1046 40.5509C69.6025 40.6214 70.0339 40.4981 70.4618 40.3708C70.4201 40.4899 70.4104 40.6144 70.5232 40.7776C70.5665 40.8131 70.7741 40.9234 70.5891 40.9701C70.4454 41.0087 70.3639 40.917 70.2645 40.8429C70.1884 40.785 70.1077 40.73 69.9516 40.7185C70.0449 40.8372 69.9584 40.8719 69.8498 40.8973ZM70.6652 40.3108C70.7159 40.2962 70.7667 40.282 70.8177 40.2684C70.8517 40.3586 70.9806 40.4278 70.7709 40.5142C70.7305 40.4494 70.7005 40.3804 70.6652 40.3108ZM22.6019 5.94372C22.5746 5.95516 22.5482 5.9691 22.5229 5.98627C22.4811 6.02019 22.4316 6.05032 22.3784 6.07915C22.3947 6.06123 22.4101 6.042 22.4254 6.02116C22.4671 5.96662 22.5291 5.94393 22.6019 5.94372ZM22.0773 6.22961C21.9627 6.2916 21.8627 6.36245 21.8141 6.46052C21.7655 6.48147 21.7323 6.50826 21.7066 6.53904C21.6904 6.36969 21.6207 6.19051 21.4713 5.99394C21.72 6.16416 21.9168 6.23835 22.0773 6.22961ZM21.4938 6.84102C21.471 6.85743 21.4443 6.87299 21.413 6.88714C21.3241 6.86575 21.229 6.87914 21.1394 6.8759C21.1003 6.85473 21.0663 6.82719 21.0404 6.78821C21.1973 6.77168 21.3469 6.80937 21.4938 6.84102ZM18.303 41.6777C18.5411 41.6816 18.5306 41.9262 18.8327 41.8753C18.9198 41.5643 19.0808 41.8291 19.3042 41.8345C19.0678 41.5865 19.0459 41.3343 19.3297 41.0277C18.8987 41.2132 18.5708 41.3372 18.2303 41.4655C18.1414 41.4979 17.9912 41.511 17.9986 41.5948C18.0211 41.702 18.1784 41.6637 18.303 41.6777ZM37.0674 45.3351C37.0334 45.4016 37.1225 45.4043 37.1951 45.3981C37.282 45.4048 37.3145 45.3526 37.3444 45.3005C37.3477 45.2916 37.3473 45.2861 37.3445 45.2813C37.3563 45.2896 37.3828 45.2703 37.4492 45.1928C37.5125 45.1269 37.4022 45.0168 37.2806 45.0378C36.983 45.1129 36.6283 45.1085 36.3626 45.276C36.7181 45.3797 36.9631 45.1744 37.2752 45.1616C37.349 45.1553 37.3256 45.2529 37.3411 45.2773C37.3218 45.263 37.2602 45.2832 37.2448 45.2846C37.1791 45.2904 37.0902 45.3226 37.0674 45.3351ZM34.1456 45.3346C34.1395 45.3701 34.1839 45.3911 34.2175 45.427C34.2653 45.3982 34.3132 45.3693 34.3203 45.3441C34.3234 45.3191 34.2956 45.2721 34.2732 45.2741C34.18 45.2575 34.1436 45.3098 34.1456 45.3346ZM16.0875 39.6576C16.0952 39.6816 16.1604 39.7006 16.2123 39.7176C16.2513 39.6928 16.3084 39.6631 16.3111 39.6492C16.3009 39.6392 16.252 39.5939 16.2165 39.5971C16.1417 39.593 16.0704 39.6098 16.0875 39.6576ZM17.8974 39.1125C18.1016 39.1409 18.2219 39.0597 18.338 38.9755C18.0653 38.8302 18.0188 39.028 17.8974 39.1125ZM19.5754 43.9491C19.5723 43.974 19.6204 43.9946 19.6542 44.0164C19.6876 43.9887 19.7272 43.971 19.8205 43.9278C19.7682 43.9077 19.72 43.8872 19.6845 43.8902C19.6436 43.8937 19.5917 43.9229 19.5754 43.9491ZM19.9797 44.0342C20.1177 43.9267 20.2584 43.8651 20.1499 43.7791C20.1309 43.756 20.0334 43.7507 20.0121 43.7663C19.8529 43.8262 19.8375 43.9264 19.9797 44.0342ZM19.7222 43.3788C19.7517 43.2423 19.5505 43.2948 19.4698 43.2667C19.3654 43.2264 19.1797 43.1826 19.2743 43.1108C19.5343 42.8939 19.1843 43.0232 19.1167 42.9939C18.7316 42.9284 18.9599 43.1277 18.8694 43.1851C18.8209 43.2244 18.7751 43.2634 18.7273 43.2921C18.4877 43.4364 18.3684 43.5918 18.3342 43.7637C18.3126 43.7902 18.287 43.8172 18.2852 43.8419L18.2811 43.8424C18.1998 43.9591 18.2093 44.0677 18.1817 44.1792C18.0921 44.2474 18.0707 44.3233 18.0548 44.3987C18.0294 44.5206 17.9664 44.6956 18.2653 44.6698C18.5349 44.6711 18.5278 44.5267 18.4894 44.4066C18.6371 44.1046 18.7895 43.8093 18.9392 43.5174C18.971 43.5146 18.9963 43.5015 19.0228 43.4856C19.0381 43.509 19.0473 43.5081 19.0566 43.5072C19.0709 43.5197 19.0996 43.5283 19.1117 43.5162C19.22 43.4932 19.1127 43.3574 19.3025 43.341C19.387 43.3688 19.3903 43.4074 19.3672 43.4447C19.3133 43.5591 19.3939 43.647 19.492 43.7373C19.4972 43.737 19.6003 43.7174 19.6268 43.701C19.7411 43.5961 19.7083 43.4755 19.7222 43.3788ZM18.3672 44.0538C18.3672 44.0538 18.3672 44.0538 18.3662 44.0436C18.3725 44.0534 18.3725 44.0534 18.3764 44.0532C18.3725 44.0534 18.3725 44.0534 18.3672 44.0538ZM21.4074 44.8838C21.3143 44.8673 21.1835 44.7831 21.1369 44.8722C21.0646 44.9877 21.2563 45.0418 21.374 45.0812C21.4867 45.1098 21.5833 45.1228 21.6407 45.0332C21.724 44.8915 21.5506 44.8961 21.4074 44.8838ZM79.0877 33.0974C79.0914 33.1081 79.0456 33.1471 79.0449 33.1861L79.045 33.1982C78.8533 33.2879 78.6202 33.3581 78.6131 33.5025C78.6143 33.5161 78.7307 33.5416 78.7872 33.5367C79.1188 33.4839 78.9601 33.333 79.0456 33.2025C79.0573 33.2712 79.1697 33.2732 79.2515 33.3022C79.33 33.3057 79.3498 33.2442 79.3568 33.2189C79.3574 33.1449 79.3311 33.0873 79.0877 33.0974ZM78.8435 34.1383C78.9755 34.1763 79.0132 34.1976 79.0594 34.1937C79.1748 34.2084 79.1317 34.1381 79.157 34.1112C79.1187 34.1145 79.0816 34.0826 79.0342 34.0865C78.9919 34.076 78.9388 34.1052 78.8435 34.1383ZM72.0847 40.536C72.1238 40.5574 72.1547 40.5793 72.1904 40.5763C72.2272 40.5731 72.2659 40.5451 72.3296 40.515C72.267 40.4955 72.2226 40.4747 72.1911 40.4775C72.1512 40.4951 72.1202 40.5188 72.0847 40.536ZM77.7776 38.606C77.8276 38.6017 77.8865 38.6212 77.9561 38.6151C78.0309 38.6333 78.1157 38.6012 78.0559 38.5571C78.0267 38.5244 77.9389 38.5216 77.8718 38.5132C77.8195 38.5074 77.769 38.5364 77.7776 38.606ZM77.6851 37.5695C77.6853 37.6188 77.7598 37.6372 77.8363 37.6305C77.9299 37.6224 78.0094 37.5907 78.0237 37.5401C78.001 37.4927 77.9439 37.4483 77.8622 37.4554C77.7607 37.4642 77.6872 37.52 77.6851 37.5695ZM76.8648 39.6346C76.7558 39.6194 76.6501 39.6532 76.628 39.7539C76.7035 39.8565 76.8416 39.8907 77.0433 39.8869C77.1078 39.8812 77.2186 39.9211 77.2155 39.8226C77.2056 39.679 77.0391 39.6545 76.8648 39.6346ZM8.55497 38.0415C8.51069 38.0544 8.46435 38.0694 8.41554 38.0864C8.44794 38.0611 8.47861 38.0357 8.50723 38.0107C8.52538 38.0189 8.54147 38.0289 8.55497 38.0415ZM2.8276 38.7161L2.83149 38.7158C2.83149 38.7158 2.83149 38.7158 2.8276 38.7161ZM3.69866 37.3278C3.70611 37.3517 3.71929 37.3507 3.72458 37.3502C3.65362 37.3316 3.57035 37.3636 3.48945 37.3815C3.53428 37.3173 3.68851 37.3039 3.69866 37.3278ZM2.45639 38.385C2.4471 38.3858 2.4471 38.3858 2.44181 38.3863L2.4471 38.3858C2.4511 38.3854 2.4511 38.3854 2.45639 38.385ZM2.83862 38.6905C2.83862 38.6905 2.83862 38.6905 2.83462 38.6907C2.83862 38.6905 2.83462 38.6907 2.83862 38.6905L2.84391 38.69L2.83862 38.6905C2.85525 38.7137 2.86087 38.6885 2.87005 38.6876C2.86843 38.7126 2.8532 38.6892 2.84996 38.7141C2.84607 38.7145 2.84607 38.7145 2.83862 38.6905ZM5.70819 37.1287C5.70743 37.1183 5.70074 37.1047 5.70074 37.1047C5.71532 37.1034 5.74178 37.1011 5.75733 37.1139C5.75733 37.1139 5.75831 37.1244 5.76241 37.124C5.74394 37.1256 5.73379 37.1162 5.70819 37.1287ZM4.41127 39.5276C4.23166 39.508 4.14861 39.3918 3.89912 39.364C3.97418 39.5408 4.05713 39.6537 4.41127 39.5276ZM6.32155 38.7801C6.18514 38.9363 5.94439 39.1158 6.27554 39.2917C6.40816 39.136 6.83986 39.0491 6.7068 38.8311C6.67364 38.7704 6.41529 38.6978 6.32155 38.7801ZM79.3909 30.979C79.3794 31.0295 79.4765 31.0458 79.5436 31.0257C79.6087 31.0095 79.6894 30.9921 79.7178 30.9506C79.7491 30.8987 79.6829 30.8692 79.6011 30.8763C79.511 30.8946 79.4031 30.9039 79.3909 30.979ZM78.3051 30.9037C78.387 30.8966 78.4363 30.8676 78.4571 30.8164C78.458 30.767 78.4238 30.7244 78.3407 30.7316C78.2835 30.7612 78.2078 30.7887 78.1887 30.8293C78.1555 30.892 78.2277 30.9104 78.3051 30.9037ZM77.4617 31.7073C77.4888 31.3768 77.2334 31.4451 76.9871 31.5301C77.1444 31.5515 77.3264 31.5709 77.4617 31.7073ZM78.9107 30.5833C78.775 30.5951 78.6426 30.6314 78.6458 30.7299C78.6502 30.8244 78.8046 30.8466 78.9549 30.8337C79.0905 30.8218 79.2042 30.8009 79.2313 30.7C79.1969 30.5937 79.0609 30.5704 78.9107 30.5833ZM78.4855 30.9622C78.6309 31.2145 78.9851 31.2579 79.1833 31.385C79.2805 31.4508 79.428 31.438 79.5312 31.355C79.6099 31.3129 79.5994 31.254 79.4847 31.2497C79.0876 31.2628 78.9124 31.0452 78.4855 30.9622ZM79.4476 28.2043C79.3482 28.1142 79.2032 28.1268 78.9558 28.074C79.1226 28.2078 79.2054 28.3207 79.4476 28.2043ZM73.1069 21.4613C72.6228 21.4188 72.2193 21.3447 71.7822 21.4775C71.867 21.5058 72.0265 21.5551 72.0209 21.5666C71.8053 21.9272 72.3417 21.8067 72.5409 21.899C72.4361 21.7631 72.2106 21.6736 72.3292 21.4794C72.5691 21.4587 72.7839 21.6097 73.1069 21.4613ZM80.2618 26.9411L80.3006 26.913L80.2682 26.8912C80.1539 26.8908 80.0353 26.8866 79.9199 26.8862C79.7996 26.9213 79.6752 26.9568 79.4212 27.014C79.6962 27.0147 79.8511 27.0118 80.0053 27.0127C80.0683 26.9579 80.1643 26.9496 80.2618 26.9411ZM78.2996 25.3611C78.4548 25.2983 78.6358 25.2579 78.8471 25.2148C78.5193 25.1238 78.1945 25.1766 77.8929 25.2027C77.813 25.185 77.7999 25.1861 77.8058 25.2843C77.8238 25.6461 78.0499 25.4679 78.2996 25.3611ZM72.9011 19.8244C73.0041 19.7415 73.1326 19.755 73.2629 19.758C73.3342 19.7518 73.3975 19.7464 73.4632 19.7406C73.59 19.6698 73.7082 19.6102 73.8278 19.5504C73.7175 19.5352 73.6109 19.5445 73.5016 19.554C73.7659 19.4954 73.2557 19.3211 73.6457 19.2873C73.2484 19.2368 72.782 19.3234 72.4697 19.5481C72.6883 19.5148 72.8902 19.4376 73.0482 19.544C72.6617 19.7257 72.6572 19.7364 72.9011 19.8244ZM68.9896 16.0324C69.015 15.9453 68.9516 15.8876 68.8497 15.8751C68.7448 15.8595 68.6311 15.8798 68.5743 15.945C68.5211 16.0485 68.6443 16.0623 68.7276 16.1047C68.8475 16.1398 68.926 16.0979 68.9896 16.0324ZM72.173 20.2901C72.1692 20.2904 72.1692 20.2904 72.1692 20.2904L72.1625 20.2767C72.1677 20.2762 72.1692 20.2904 72.173 20.2901ZM13.0915 9.80725C13.0721 9.79851 13.0198 9.7782 12.9822 9.75692C12.9566 9.78382 12.9364 9.81017 12.9003 9.82367C12.9485 9.84419 12.9864 9.86568 13.0283 9.87627C13.0456 9.8605 13.0975 9.83134 13.0915 9.80725ZM38.9638 1.13352C39.0536 1.22133 39.1426 1.29801 39.2319 1.37869C39.3962 1.19152 39.2853 1.09194 38.8675 1.01828C38.8695 1.04291 38.8691 1.06753 38.866 1.0927C38.7565 1.17619 38.6378 1.30676 38.8518 1.38701C39.0082 1.30968 38.7797 1.19897 38.9638 1.13352ZM34.8251 1.39382C34.8229 1.3693 34.7824 1.34824 34.7377 1.30655C34.7009 1.35515 34.6531 1.3842 34.6551 1.40861C34.652 1.43356 34.6852 1.46629 34.7169 1.46359C34.8099 1.48022 34.8384 1.44209 34.8251 1.39382ZM38.1547 1.98028C38.1547 1.98028 38.1576 1.95533 38.1586 1.93384C38.3337 1.67549 38.2963 1.39619 38.4001 1.10836C38.3652 1.08665 38.3567 1.03805 38.2791 1.04485C38.2449 1.04777 38.2185 1.05004 38.188 1.05263C38.0206 1.20157 38.108 1.35266 38.109 1.50085C38.0687 1.64903 37.9212 1.84527 38.1547 1.98028ZM23.6621 4.30691C23.8327 4.31674 23.8417 4.46416 24.0854 4.443C24.0087 4.33996 23.9401 4.23671 23.8696 4.1583C23.7971 4.16456 23.7233 4.17093 23.6508 4.1772C23.5628 4.05094 23.5628 4.05094 23.1063 4.17504C23.2934 4.21867 23.4783 4.19221 23.6469 4.17763C23.6538 4.21208 23.6581 4.26101 23.6621 4.30691ZM24.5873 4.68871C24.5463 4.69216 24.5147 4.69497 24.478 4.69821C24.3925 4.75491 24.3771 4.79142 24.3805 4.83008C24.4929 4.91584 24.6137 4.99317 24.7395 5.06726C24.9647 4.92437 24.9473 4.87653 24.5873 4.68871ZM54.1296 5.60426C54.2022 5.598 54.272 5.59184 54.2404 5.52045C54.2305 5.49658 54.166 5.5023 54.1097 5.48254C54.0712 5.51051 54.0205 5.53967 54.0279 5.56365C54.0325 5.58795 54.0927 5.6075 54.1296 5.60426ZM47.7188 0.836511C47.8163 0.827979 47.9628 0.910279 47.9954 0.812427C48.041 0.709714 47.8444 0.677528 47.702 0.643614C47.5884 0.604085 47.4857 0.613049 47.4531 0.711333C47.399 0.839535 47.5731 0.824523 47.7188 0.836511ZM65.9923 4.74444C66.183 4.75275 66.2884 4.83851 66.5436 4.8411C66.4316 4.68179 66.3233 4.58135 65.9923 4.74444ZM64.2451 5.61236C64.354 5.44376 64.5463 5.258 64.1734 5.12083C64.0844 5.27344 63.6672 5.40834 63.8585 5.6102C63.892 5.64303 64.1787 5.70254 64.2451 5.61236ZM61.3588 6.33923C61.5175 6.63927 61.7976 6.69953 62.3067 6.45058C62.0108 6.74068 61.9443 7.01491 61.9789 7.29064C62.1852 7.29755 62.4022 7.24366 62.618 7.29896C62.4776 7.45535 62.2052 7.35955 62.0281 7.50492C62.2313 7.47695 62.1859 7.82321 62.4753 7.50503C62.5436 7.44962 62.6137 7.49304 62.6975 7.51054C63.3139 7.57718 63.1073 7.87386 63.1722 8.101C63.1401 8.12843 63.1045 8.13156 63.0675 8.1347C62.7594 8.16148 62.4139 8.14215 62.2965 8.39596C62.2315 8.4262 62.1598 8.4572 62.0829 8.48852C61.8716 8.45741 61.6929 8.52233 61.5103 8.60851C61.3399 8.72203 61.2649 8.83781 61.3563 8.98901C61.392 8.98588 61.4215 9.00413 61.4558 9.00121C61.4254 9.00392 61.3972 8.98556 61.3563 8.98901C61.4274 9.44155 61.2902 9.8942 61.6772 10.298C61.7869 10.3242 61.8872 10.3505 62.0207 10.3287C62.0217 10.339 62.0292 10.3629 62.0331 10.3627C61.9017 10.5931 62.5786 10.485 62.3842 10.7202C62.5402 10.7314 62.6189 10.6893 62.7029 10.647C62.7908 10.5901 62.8692 10.4843 63.0231 10.545C63.2128 10.6027 63.0033 10.6665 62.9665 10.7191C62.7904 10.9534 62.9574 11.1327 63.0553 11.343C63.1473 11.2395 63.1726 11.0892 63.2484 11.0124C63.3628 10.8186 63.6393 11.0384 63.8669 10.8599C64.0326 10.75 63.9991 11.0669 64.2409 11.0706C64.4048 10.8627 64.4223 10.8364 64.5456 10.9102C64.7701 11.0493 64.9709 11.1769 65.3488 11.0485C65.4005 11.0193 65.5131 11.0453 65.4864 11.1073C65.364 11.3014 65.6803 11.2141 65.7238 11.2103C65.8322 11.1762 65.8785 11.0981 65.8104 11.0442C65.621 10.8663 65.9009 10.9265 65.9977 10.8935C66.0714 10.8871 66.1596 10.8794 66.2077 10.8506C66.2969 10.8076 66.2004 10.7666 66.1477 10.7712C66.0362 10.7704 65.9267 10.7799 65.816 10.7896C65.7015 10.7996 65.5402 10.8837 65.493 10.7683C65.4546 10.6618 65.625 10.6223 65.7792 10.6089C66.1102 10.5698 66.4437 10.5408 66.7729 10.5123C66.9654 10.4956 67.048 10.2699 67.2882 10.3934C67.4976 10.4956 67.6581 10.386 67.819 10.2981C67.8822 10.2925 67.9437 10.2378 67.8925 10.1967C67.7481 10.1105 67.5478 10.202 67.3784 10.1919C67.2628 10.1773 67.1257 10.2632 67.0315 10.1727C67.0598 10.0851 67.2135 10.0828 67.296 10.04C67.1683 9.99118 67.0394 9.92822 66.9118 9.87951C66.9158 9.87908 66.9164 9.85445 66.9205 9.84311C67.1539 9.74871 67.2124 9.59557 67.3444 9.46434C67.4283 9.48184 67.5468 9.47158 67.5826 9.5178C67.8182 9.74051 67.8143 9.74094 68.0905 9.449C68.1752 9.58606 68.0654 9.74375 68.2352 9.84927C68.2781 9.87022 68.3444 9.91385 68.4047 9.8592C68.4237 9.83296 68.3812 9.78716 68.3685 9.77787C68.407 9.74979 68.4458 9.72182 68.4819 9.70756C68.7926 9.68056 68.8337 9.49382 69.0094 9.39403C69.1105 9.28646 69.2149 9.20653 69.3157 9.09907C69.3924 9.03265 69.4644 8.96266 69.5402 8.88587C69.7444 8.74471 69.5195 8.73952 69.3987 8.67925C69.4987 8.54706 69.8459 8.49208 69.8659 8.25058C69.382 8.48636 68.9486 8.69351 68.5194 8.90023C68.2864 8.97 68.2235 9.13406 68.1286 9.27609C68.0967 9.15545 68.0507 9.03977 68.1251 9.00856C68.5129 8.8269 68.2295 8.696 68.1336 8.57006C67.9538 8.31787 67.6665 8.11331 68.0305 7.8244C68.0669 7.7718 67.851 7.79059 67.748 7.79934C67.774 7.7016 67.5772 7.61995 67.8412 7.57242C68.066 7.53149 68.0886 7.44163 67.9002 7.41193C67.4958 7.33784 67.703 7.17173 67.6854 7.01404C68.081 6.78594 68.4388 6.55016 68.4041 6.21081C68.508 6.09255 68.6084 5.94987 68.4891 5.8153C68.4367 5.68602 68.4541 5.55058 68.2388 5.48427C68.2133 5.32788 67.9881 5.28759 67.874 5.21231C67.876 5.18747 67.8738 5.16295 67.8676 5.13887C67.4605 4.89532 66.9099 4.97881 66.3861 5.01326C66.3114 4.99501 66.2363 5.0016 66.16 5.00818C65.7279 4.98583 65.4681 5.12861 65.2442 5.34559C65.4974 5.17548 65.8385 5.09642 66.16 5.00818L66.1569 4.97341C65.8047 4.84542 65.4722 5.06791 65.1592 5.07039C64.6822 5.05193 64.5379 5.28338 64.5787 5.38912C64.6583 5.60113 64.483 5.78538 64.4489 5.97212C64.2978 5.79111 63.969 5.79489 63.6723 5.77123C63.4593 5.76508 63.2951 5.7546 63.4051 5.60005C63.4491 5.52218 63.5601 5.42811 63.353 5.41093C63.2045 5.39905 63.1254 5.40596 63.0075 5.50068C62.8111 5.70103 62.5069 5.78776 62.1736 5.63288C61.987 5.56462 61.8146 5.57953 61.6604 5.70211C61.6488 5.70319 61.6401 5.72857 61.6239 5.75471C61.6239 5.75471 61.6173 5.75525 61.6119 5.75568C61.6191 5.73041 61.6348 5.729 61.6381 5.70406C61.5695 5.6008 61.3891 5.55674 61.2517 5.62834C61.0044 5.75903 60.7491 5.8909 60.5347 6.06814C60.4376 6.12603 60.4533 6.19872 60.514 6.2889C60.5939 6.36656 60.7393 6.32929 60.8535 6.28415C61.0654 6.21643 61.2802 6.19774 61.3588 6.33923ZM68.2208 5.70481C68.2301 5.70395 68.226 5.70438 68.2326 5.70362L68.2301 5.70395C68.226 5.70438 68.226 5.70438 68.2208 5.70481ZM63.0978 8.37576C63.0767 8.3776 63.0609 8.379 63.0434 8.40525C63.0478 8.38008 63.057 8.37922 63.0609 8.379C63.0728 8.37803 63.0885 8.37663 63.0978 8.37576ZM64.041 8.94981L64.046 8.94937C64.041 8.94981 64.037 8.95002 64.037 8.95002C64.037 8.95002 64.037 8.95002 64.041 8.94981ZM64.042 8.31863C64.0525 8.31766 64.0595 8.33785 64.0661 8.33731C64.0366 8.36464 64.0064 8.36712 63.9821 8.39401C63.9998 8.36766 64.0227 8.3412 64.042 8.31863ZM63.2791 9.37977C63.2719 9.35558 63.2678 9.35601 63.2599 9.35676C63.2678 9.35601 63.2719 9.35558 63.2769 9.35525C63.2769 9.35525 63.2769 9.35525 63.2791 9.37977ZM64.5707 9.83901C64.4265 9.87627 64.2586 9.85175 64.1411 9.93599C64.286 9.92347 64.4328 9.90035 64.5707 9.83901ZM66.0799 9.25643L66.2885 7.98921C66.2885 7.98921 66.2991 7.98824 66.3043 7.98781C66.2991 7.98824 66.295 7.98867 66.2885 7.98921C66.2885 7.98921 66.2831 7.98965 66.2885 7.98921L66.0799 9.25643ZM67.2045 6.82698C67.2004 6.8273 67.1847 6.8286 67.1781 6.82914C67.2388 6.82406 67.2998 6.79393 67.3635 6.76369C67.3072 6.81791 67.2218 6.86057 67.2045 6.82698ZM65.2508 7.21493C65.2351 7.21612 65.2101 7.21839 65.1969 7.21947C65.1969 7.21947 65.1943 7.21979 65.1905 7.22001C65.208 7.19398 65.2221 7.21741 65.2396 7.19117C65.247 7.21514 65.2508 7.21493 65.2508 7.21493ZM63.0391 9.12186C63.007 9.14929 62.9701 9.15253 62.9386 9.15512C62.9463 9.15458 62.964 9.12823 62.972 9.11343C62.9917 9.1116 63.0179 9.12358 63.0391 9.12186ZM67.7617 5.41644L67.7643 5.41612C67.7617 5.41644 67.7617 5.41644 67.7617 5.41644ZM42.083 2.95167C42.083 2.95167 42.0868 2.95124 42.0943 2.97543C42.0797 2.97651 42.0732 2.97705 42.0602 2.97835C42.0574 2.97846 42.0535 2.97889 42.0482 2.97932C42.0602 2.97835 42.071 2.95264 42.083 2.95167ZM51.9141 1.51683C51.8983 1.51824 51.8827 1.50862 51.8669 1.51003C51.8813 1.50862 51.8882 1.50819 51.9011 1.50711C51.9021 1.5178 51.918 1.51662 51.9141 1.51683ZM26.6798 45.619C26.6798 45.619 26.6798 45.619 26.6851 45.6185C26.6798 45.619 26.6851 45.6185 26.6798 45.619ZM21.9142 41.608C21.9194 41.6074 21.9216 41.632 21.9308 41.6313C21.9163 41.6324 21.9123 41.6328 21.907 41.6332C21.9123 41.6328 21.9058 41.6191 21.9142 41.608ZM23.4494 6.9042C24.9612 8.07702 24.0557 7.37456 23.4494 6.9042V6.9042ZM50.6646 4.66289C50.6932 4.7345 50.7284 4.80557 50.7724 4.83689C50.6961 4.84358 50.6143 4.85071 50.5613 4.82015C50.6409 4.7885 50.6384 4.71452 50.6646 4.66289ZM23.4279 41.9634C23.5041 41.9567 23.5082 41.9564 23.5285 41.9761C23.4673 41.9601 23.3949 41.9663 23.3294 41.9472C23.3621 41.9549 23.3909 41.9666 23.4279 41.9634ZM24.3087 42.3705C24.2403 42.3765 24.19 42.3809 24.1382 42.41C24.19 42.3809 24.2394 42.3661 24.3087 42.3705ZM24.6768 6.82233C24.6786 6.79749 24.6786 6.79749 24.6786 6.79749C24.832 6.99557 24.8155 6.86305 24.6768 6.82233ZM24.9752 42.143L24.9659 42.1439L24.9606 42.1443C24.9659 42.1439 24.9699 42.1435 24.9752 42.143ZM51.1446 3.0654C51.1446 3.0654 51.1405 3.06572 51.1383 3.04131C51.1654 3.06367 51.1791 3.03775 51.1989 3.03602C51.1791 3.03775 51.1654 3.06367 51.1446 3.0654ZM39.8584 3.42732C39.865 3.42678 39.8584 3.42732 39.865 3.42678C39.8597 3.42722 39.8597 3.42721 39.8584 3.42732C39.8584 3.42732 39.8597 3.42721 39.8584 3.42732ZM21.6358 40.0373C21.6411 40.0368 21.6411 40.0368 21.6463 40.0507C21.6463 40.0507 21.6358 40.0373 21.6319 40.0377L21.6358 40.0373ZM75.4633 36.5945C75.4686 36.6083 75.4726 36.6079 75.4786 36.6178C75.4696 36.6186 75.4686 36.6083 75.4645 36.6087C75.4645 36.6087 75.4645 36.6087 75.4633 36.5945ZM74.6846 36.5528C74.6836 36.5425 74.6875 36.5421 74.6875 36.5421C74.7033 36.5407 74.7191 36.5394 74.7402 36.5375C74.7191 36.5394 74.7033 36.5407 74.6846 36.5528ZM75.1922 29.8616C75.2003 29.8609 75.206 29.8357 75.2153 29.8348C75.206 29.8357 75.2029 29.8607 75.1964 29.8612L75.1922 29.8616ZM52.0217 5.42C52.031 5.41914 52.0257 5.41957 52.0348 5.41892C52.0402 5.41849 52.031 5.41914 52.031 5.41914C52.0257 5.41957 52.0257 5.41957 52.0217 5.42ZM27.1003 6.4535C27.0965 6.45372 27.0965 6.45371 27.0912 6.45425C27.0952 6.43967 27.0952 6.43967 27.1032 6.43892C27.1032 6.43892 27.0991 6.43935 27.1003 6.4535ZM26.6498 6.43276C26.6684 6.43103 26.6662 6.40662 26.6754 6.40587L26.6725 6.43082C26.6684 6.43103 26.6552 6.43233 26.6498 6.43276ZM16.4712 10.865C16.466 10.8518 16.458 10.8661 16.4568 10.8526C16.4607 10.8523 16.466 10.8518 16.4753 10.8509C16.4753 10.8509 16.47 10.8514 16.4712 10.865C18.7668 11.0402 18.6679 11.0329 16.4712 10.865ZM74.8547 29.4886C74.8947 29.4746 74.9363 29.4815 74.9773 29.478C74.9823 29.4775 74.9905 29.491 74.9955 29.4907C74.9468 29.4948 74.9009 29.4847 74.8547 29.4886ZM26.3438 45.6941C26.3438 45.6941 26.3542 45.707 26.35 45.7184C26.3315 45.7199 26.3295 45.6955 26.3123 45.6969C26.3253 45.6958 26.3295 45.6955 26.3438 45.6941ZM31.016 45.0946C31.0284 45.083 31.0219 45.0693 31.0069 45.0491C31.012 45.0489 31.012 45.0489 31.0161 45.0485C31.0171 45.0593 31.0191 45.0839 31.016 45.0946ZM73.7448 38.3741C73.7653 38.3827 73.76 38.3975 73.7877 38.3951C73.7667 38.397 73.747 38.3986 73.7257 38.4005C73.7257 38.4005 73.7391 38.3849 73.7448 38.3741ZM77.0187 29.3398C77.0148 29.3402 77.0095 29.3406 77.0095 29.3406C77.0095 29.3406 77.0148 29.3402 77.0187 29.3398ZM52.1346 5.84824L52.0883 5.85213C52.0998 5.85116 52.1153 5.84965 52.1319 5.84716L52.1346 5.84824ZM47.7668 1.75649C47.7476 1.77961 47.7498 1.80402 47.7627 1.81676C47.7627 1.81676 47.76 1.81687 47.7548 1.8173C47.7616 1.80304 47.7634 1.7782 47.7668 1.75649ZM30.9152 5.30736L30.1653 5.51742C30.1599 5.51786 30.1599 5.51786 30.1599 5.51786L30.1653 5.51742L30.9152 5.30736ZM25.218 5.79143C25.2147 5.80212 25.2056 5.80299 25.2097 5.80256C25.1871 5.8045 25.1646 5.80644 25.1371 5.80882C25.1639 5.79618 25.1912 5.80407 25.218 5.79143ZM23.0322 6.79209C23.0452 6.79101 23.0703 6.80322 23.0887 6.80149C23.0834 6.80192 23.0741 6.80278 23.0703 6.80322C23.0545 6.79015 23.0414 6.79144 23.0322 6.79209ZM26.9087 45.6698C26.9272 45.6683 26.9402 45.6672 26.9599 45.6792C26.9467 45.6803 26.9375 45.6812 26.9293 45.6928C26.9272 45.6683 26.9087 45.6698 26.9087 45.6698ZM32.63 44.8344C32.6244 44.8396 32.6213 44.845 32.6184 44.8495C32.6099 44.8521 32.6009 44.8539 32.5915 44.8553C32.5903 44.8505 32.5904 44.8437 32.584 44.8383C32.6025 44.8368 32.6159 44.8355 32.63 44.8344ZM74.1148 37.2975C74.1239 37.2969 74.1185 37.283 74.1334 37.2712C74.1375 37.2708 74.1468 37.2702 74.1533 37.2695C74.1332 37.296 74.1332 37.296 74.1148 37.2975ZM76.5937 36.3273C76.6186 36.3252 76.6165 36.3007 76.6322 36.2993C76.6375 36.2988 76.6397 36.3233 76.6436 36.3231C76.6279 36.3243 76.6093 36.326 76.5937 36.3273ZM73.4879 34.3104C73.4251 34.3544 73.3967 34.3925 73.372 34.444C73.3874 34.3933 73.4369 34.3533 73.4879 34.3104ZM75.1535 32.3203L78.1745 29.8707C78.1429 29.8734 78.1087 29.8764 78.0789 29.8542C78.251 29.864 78.3326 29.8569 78.4235 29.849C78.4261 29.8489 78.4321 29.873 78.4374 29.8724C78.3409 29.8425 78.2551 29.85 78.1745 29.8707L75.1535 32.3203ZM75.9831 27.9439L75.9858 27.9438C76.0807 27.9849 76.1903 27.9753 76.3026 27.9411C76.1531 28.0528 76.0482 28.0371 75.9831 27.9439ZM76.3009 27.3094C76.3009 27.3094 76.3009 27.3094 76.3062 27.3089C76.3009 27.3094 76.3009 27.3094 76.3009 27.3094ZM52.6705 4.04057C52.6683 4.01605 52.6683 4.01606 52.6724 4.01562C52.6882 4.01422 52.7094 4.01238 52.729 4.01076C52.7094 4.01238 52.6902 4.03873 52.6705 4.04057ZM52.4711 1.54264C52.4711 1.54264 52.465 1.51834 52.4689 1.51813C52.5097 1.51445 52.5487 1.53584 52.5897 1.53238C52.5437 1.53638 52.5125 1.51435 52.4711 1.54264ZM52.1246 1.57267L52.1267 1.59729C52.1267 1.59729 52.1267 1.59729 52.1214 1.59773C52.1267 1.59729 52.1246 1.57267 52.1246 1.57267ZM50.7214 0.928856C50.7214 0.928856 50.7266 0.928316 50.7287 0.953049C50.7078 0.954669 50.6893 0.956396 50.6695 0.958016C50.6879 0.956504 50.7078 0.954669 50.7214 0.928856ZM23.5484 5.94674C23.5126 5.94976 23.4718 5.95344 23.437 5.98098C23.4533 5.95495 23.4718 5.95344 23.485 5.95214C23.5072 5.9502 23.5258 5.94868 23.5484 5.94674ZM20.4808 41.7324C20.4929 41.7171 20.5033 41.7305 20.5112 41.7153C20.5033 41.7305 20.5033 41.7305 20.494 41.7313C20.4848 41.732 20.4887 41.7318 20.4808 41.7324ZM24.1368 43.6625C24.4802 43.7672 24.8429 43.7851 25.1993 43.7788C25.2206 43.8225 25.2147 43.862 25.2862 43.8909C25.2333 43.9697 25.1761 44.0454 25.1222 44.1132C25.035 43.8881 25.0237 43.8643 24.6551 43.9457C24.1529 44.0634 24.1381 43.8917 24.1368 43.6625ZM25.2709 44.817C25.2709 44.817 25.2709 44.817 25.2718 44.8274C25.2657 44.8174 25.2657 44.8174 25.2657 44.8174C25.2709 44.817 25.2657 44.8174 25.2709 44.817ZM28.1865 46.1693C28.2221 46.1519 28.2621 46.1381 28.2915 46.1109C28.2621 46.1381 28.2212 46.1416 28.1865 46.1693ZM77.0065 36.0972C76.9972 36.098 76.9928 36.1231 76.9845 36.1343C76.9886 36.1234 76.9972 36.098 77.0065 36.0972ZM52.0553 6.26773C52.0634 6.26708 52.0726 6.26622 52.0791 6.26568C52.083 6.26525 52.083 6.26525 52.083 6.26525C52.0726 6.26622 52.0634 6.26708 52.0553 6.26773ZM53.3255 2.50183C53.3255 2.50183 53.3255 2.50183 53.3296 2.50162C53.3255 2.50183 53.3255 2.50183 53.3255 2.50183ZM38.4525 2.43076C38.4433 2.43163 38.4366 2.43217 38.422 2.43346C38.4301 2.41845 38.4433 2.43163 38.4511 2.41662C38.4525 2.43077 38.4525 2.43076 38.4525 2.43076ZM27.7935 5.38404C27.7916 5.40888 27.7802 5.38523 27.7786 5.41018C27.7765 5.38555 27.7802 5.38523 27.7802 5.38523C27.7856 5.38479 27.7895 5.38436 27.7935 5.38404ZM65.9333 11.4357C66.0448 11.4366 66.1561 11.4516 66.2703 11.4522C66.2599 11.4076 66.2405 11.3351 66.113 11.3214C66.0133 11.3054 65.9658 11.3836 65.9333 11.4357ZM63.6507 11.2913C63.7152 11.2858 63.7957 11.2788 63.8058 11.2427C63.7643 11.1614 63.6831 11.1437 63.5742 11.1285C63.4964 11.1352 63.4521 11.1884 63.4629 11.2232C63.4761 11.2818 63.5546 11.2997 63.6507 11.2913ZM59.6316 10.0381C59.7251 10.0301 59.7341 9.97995 59.7113 9.93254C59.6846 9.88534 59.6217 9.88037 59.6298 9.87962C59.4461 9.90608 59.4126 9.93373 59.4657 9.97833C59.4976 10.0251 59.5775 10.0428 59.6316 10.0381ZM60.6886 9.92174C60.6229 9.79354 60.4039 9.89711 60.3239 9.87918C60.1405 9.84581 59.9951 9.88318 60.0173 9.95533C60.0643 10.0713 60.3304 9.99885 60.4821 10.0351C60.5857 10.0508 60.7268 9.97833 60.6886 9.92174ZM59.9395 8.95272C60.2594 8.81566 60.6394 8.63465 60.9581 8.91373C60.993 8.94635 61.0841 8.98782 61.1932 8.92896C61.2525 8.80033 60.8548 8.71479 60.9959 8.62849C61.2202 8.42901 60.9939 8.31463 60.933 8.19637C60.2876 8.25242 59.7113 8.58464 58.9473 8.39347C59.062 8.5071 59.1159 8.54835 59.1729 8.60668C59.2583 9.01191 59.5069 9.12477 59.9395 8.95272ZM59.9027 47.2289C59.6665 47.1982 59.6414 47.4417 59.3499 47.3475C59.3088 47.0272 59.1112 47.2659 58.8891 47.2388C59.1592 47.0278 59.2174 46.7814 58.981 46.4369C59.3807 46.6829 59.6871 46.8532 60.0053 47.0294C60.0885 47.0744 60.2353 47.1091 60.2159 47.1909C60.178 47.2938 60.0279 47.2331 59.9027 47.2289ZM40.8063 48.1269C40.8302 48.1978 40.7417 48.1875 40.6708 48.1709C40.5838 48.1648 40.5592 48.1084 40.5371 48.0526C40.5352 48.0433 40.5363 48.0379 40.5398 48.0336C40.527 48.0401 40.5037 48.0172 40.449 47.9308C40.396 47.8565 40.521 47.7636 40.6383 47.8018C40.9219 47.9194 41.2735 47.9665 41.5121 48.1708C41.1454 48.2217 40.9328 47.9832 40.6258 47.9253C40.5538 47.9083 40.5626 48.0082 40.5438 48.0301C40.5649 48.0187 40.623 48.0476 40.638 48.0513C40.7022 48.0665 40.7854 48.1114 40.8063 48.1269ZM43.6971 48.5501C43.6981 48.5861 43.6511 48.6004 43.6127 48.6311C43.5695 48.5956 43.5264 48.5602 43.523 48.5341C43.5235 48.5089 43.5578 48.4666 43.5797 48.4718C43.6743 48.4687 43.7029 48.526 43.6971 48.5501ZM62.3875 45.5513C62.3765 45.5739 62.3092 45.5833 62.2554 45.5925C62.2204 45.5625 62.1683 45.5248 62.1676 45.5106C62.1791 45.5021 62.234 45.4644 62.2688 45.4727C62.3432 45.4795 62.4115 45.5064 62.3875 45.5513ZM60.6759 44.7496C60.4698 44.7481 60.3624 44.6502 60.2597 44.5501C60.5506 44.4458 60.568 44.6483 60.6759 44.7496ZM6.60765 40.9809C6.54328 40.9657 6.48463 40.9373 6.31474 40.8865C6.59523 40.8264 6.73769 40.8386 6.87032 40.9671C6.79104 41.0096 6.69902 41.0025 6.60765 40.9809ZM58.3143 49.2917C58.3138 49.3169 58.2633 49.3302 58.2267 49.3469C58.1975 49.3146 58.161 49.2914 58.0749 49.2351C58.1296 49.2228 58.1802 49.2095 58.215 49.2176C58.2549 49.227 58.3019 49.2634 58.3143 49.2917ZM57.902 49.3172C57.7809 49.191 57.6507 49.1095 57.7705 49.0402C57.7927 49.0201 57.89 49.0291 57.9087 49.0475C58.0576 49.1298 58.0583 49.2313 57.902 49.3172ZM58.2517 48.7061C58.2423 48.5669 58.4338 48.648 58.5178 48.6318C58.6269 48.6072 58.817 48.5908 58.7337 48.506C58.508 48.2537 58.8356 48.4322 58.9066 48.4131C59.2972 48.4042 59.0424 48.5682 59.1237 48.6381C59.166 48.684 59.2056 48.7293 59.2488 48.7647C59.4649 48.9421 59.5604 49.1132 59.5693 49.2883C59.5869 49.3177 59.6082 49.3481 59.6064 49.3729L59.6105 49.3738C59.6739 49.5012 59.6489 49.6071 59.66 49.7215C59.7387 49.802 59.7489 49.8801 59.7536 49.957C59.7611 50.0814 59.7981 50.2637 59.5061 50.1948C59.2392 50.157 59.2672 50.0152 59.3226 49.9019C59.2202 49.5817 59.1122 49.2674 59.0064 48.9569C58.9753 48.9495 58.9522 48.9328 58.9284 48.9133C58.9098 48.9341 58.9008 48.932 58.8917 48.9298C58.8758 48.9401 58.8462 48.9443 58.8359 48.9307C58.7321 48.8921 58.8579 48.7734 58.6726 48.7297C58.5849 48.7449 58.576 48.7827 58.5935 48.8229C58.6303 48.9439 58.5377 49.0191 58.4275 49.0942C58.4225 49.0932 58.3233 49.0589 58.2994 49.0388C58.2016 48.9185 58.2516 48.8039 58.2517 48.7061ZM59.4946 49.5706C59.4946 49.5706 59.4946 49.5706 59.497 49.5606C59.4894 49.5693 59.4894 49.5693 59.4855 49.5686C59.4894 49.5693 59.4894 49.5693 59.4946 49.5706ZM56.3662 49.951C56.4607 49.9482 56.6023 49.8838 56.6355 49.9788C56.6903 50.1035 56.4927 50.1292 56.3706 50.151C56.2549 50.163 56.1574 50.1619 56.1137 50.065C56.0518 49.9128 56.2227 49.9424 56.3662 49.951ZM1.00416 29.9262C0.999088 29.9361 1.03873 29.9814 1.03376 30.0202L1.03181 30.0321C1.20851 30.1485 1.42905 30.2519 1.41512 30.3957C1.41188 30.4091 1.29318 30.4174 1.23778 30.4044C0.917436 30.304 1.0964 30.1778 1.03063 30.0363C1.00913 30.1026 0.897672 30.0881 0.812457 30.1051C0.734262 30.0972 0.723677 30.0335 0.720221 30.0073C0.730589 29.934 0.764827 29.8809 1.00416 29.9262ZM1.09489 30.9915C0.95891 31.0099 0.918408 31.0255 0.87337 31.0149C0.757049 31.0127 0.809865 30.9494 0.788696 30.9191C0.826066 30.928 0.86743 30.9017 0.913764 30.9126C0.957073 30.9083 1.00546 30.945 1.09489 30.9915ZM1.74367 34.5543C1.73622 34.6031 1.65986 34.6105 1.58512 34.5928C1.49375 34.5712 1.41966 34.5284 1.41296 34.4762C1.44223 34.4326 1.50509 34.3968 1.58501 34.4157C1.68405 34.4392 1.74864 34.5051 1.74367 34.5543ZM2.25594 36.7166C2.36588 36.7173 2.46568 36.766 2.47281 36.869C2.38327 36.9595 2.24157 36.9733 2.04273 36.9403C1.97966 36.9253 1.8642 36.9488 1.8817 36.8517C1.91216 36.7112 2.08054 36.7109 2.25594 36.7166ZM59.5916 41.8282C59.3217 41.8037 59.1964 41.7348 59.0645 41.5807C59.3513 41.5977 59.4359 41.6935 59.5916 41.8282ZM75.644 46.5423L75.6401 46.5414C75.6401 46.5414 75.6401 46.5414 75.644 46.5423ZM70.9369 42.1721C70.9344 42.1821 70.9282 42.1918 70.9191 42.1897C70.9282 42.1918 70.932 42.1928 70.9372 42.194C70.932 42.1928 70.9344 42.1821 70.9369 42.1721ZM71.7187 42.6528L71.7226 42.6538C71.7187 42.6528 71.7098 42.6508 71.7045 42.6496C71.7098 42.6508 71.7135 42.6515 71.7187 42.6528ZM72.1473 41.7715C72.0067 41.7275 71.8585 41.7397 71.7366 41.6638C71.8747 41.6712 72.0067 41.7275 72.1473 41.7715ZM73.6841 42.4959L73.6878 42.4969L73.6841 42.4959ZM73.9912 43.7893C73.9964 43.7905 74.0003 43.7915 74.0055 43.7927C74.0003 43.7915 73.9964 43.7905 73.9912 43.7893C73.9874 43.7884 73.9912 43.7893 73.9912 43.7893ZM71.7721 43.3122C71.7775 43.3134 71.7775 43.3134 71.7876 43.2939C71.7554 43.2863 71.7351 43.2562 71.7082 43.2499C71.7243 43.2789 71.7514 43.2853 71.7721 43.3122ZM70.713 42.4299C70.6852 42.4086 70.6492 42.4001 70.6183 42.3928C70.6312 42.3959 70.6459 42.4139 70.6567 42.4271C70.6745 42.4313 70.6925 42.4357 70.713 42.4299ZM74.9833 45.0423C74.9725 45.065 74.9597 45.0621 74.9545 45.0608C75.0273 45.0527 75.105 45.0964 75.1825 45.1259C75.1475 45.0558 74.9968 45.0202 74.9833 45.0423ZM70.8372 43.1923C70.8192 43.188 70.7973 43.1828 70.7754 43.1776C70.783 43.1796 70.7921 43.1816 70.8011 43.1838C70.8101 43.1859 70.8282 43.1901 70.8372 43.1923ZM76.0593 46.2685C76.0682 46.2706 76.0682 46.2706 76.0734 46.2719L76.0682 46.2706C76.0645 46.2697 76.0645 46.2697 76.0593 46.2685ZM75.6367 46.5154C75.6367 46.5154 75.6367 46.5154 75.6405 46.5161C75.6367 46.5154 75.6405 46.5161 75.6367 46.5154L75.6316 46.5141L75.6367 46.5154C75.6169 46.5358 75.615 46.5102 75.606 46.508C75.604 46.5329 75.6225 46.5119 75.6221 46.5371C75.6258 46.5381 75.6258 46.5381 75.6367 46.5154ZM73.0239 44.554C73.0262 44.5439 73.0347 44.5313 73.0347 44.5313C73.0206 44.5279 72.9946 44.5218 72.9774 44.5323C72.9774 44.5323 72.975 44.5425 72.9709 44.5415C72.989 44.5457 73.0005 44.5378 73.0239 44.554ZM72.181 41.444C72.6326 41.5003 73.0809 41.5809 73.5256 41.7C73.0778 41.5943 72.6326 41.5003 72.181 41.444ZM76.2213 42.673C76.2176 42.672 76.2176 42.672 76.2176 42.672C76.2085 42.6701 76.1944 42.6666 76.1865 42.6647C76.1944 42.6666 76.2085 42.6701 76.2213 42.673ZM73.9593 47.1156C74.1399 47.1223 74.2388 47.0193 74.4897 47.0279C74.3898 47.192 74.2914 47.2918 73.9593 47.1156ZM72.1776 46.099C72.2899 46.2733 72.502 46.4859 72.149 46.6119C72.0403 46.4386 71.6257 46.29 71.789 46.0936C71.8306 46.0383 72.0968 46.004 72.1776 46.099ZM1.0114 27.7862C1.0154 27.8378 0.917006 27.8398 0.853499 27.8102C0.791396 27.7848 0.714171 27.7559 0.692138 27.7107C0.668593 27.6548 0.738366 27.6352 0.818289 27.6541C0.904801 27.6852 1.01032 27.7101 1.0114 27.7862ZM2.09663 27.8691C2.01671 27.8503 1.9721 27.8144 1.95892 27.7607C1.96508 27.7117 2.00515 27.6744 2.08626 27.6937C2.13864 27.7312 2.2096 27.7695 2.22267 27.8124C2.24632 27.8792 2.17234 27.887 2.09663 27.8691ZM2.81464 28.7864C2.8357 28.4556 3.0785 28.5602 3.30984 28.6799C3.15118 28.6783 2.96822 28.6712 2.81464 28.7864ZM1.54386 27.4644C1.67649 27.4956 1.80221 27.5507 1.78471 27.6476C1.76678 27.7405 1.61072 27.7402 1.46394 27.7055C1.33142 27.6741 1.2219 27.6371 1.2097 27.5332C1.25916 27.433 1.39719 27.4297 1.54386 27.4644ZM1.90967 27.9008C1.7292 28.1295 1.37246 28.1209 1.15796 28.218C1.05223 28.269 0.908149 28.2349 0.818073 28.1379C0.74625 28.0848 0.765258 28.028 0.879203 28.0405C1.27029 28.111 1.47528 27.9211 1.90967 27.9008ZM73.5543 40.349C73.4576 40.3659 73.4092 40.2892 73.3683 40.2438C73.4835 40.2345 73.5867 40.2335 73.698 40.2345C73.6931 40.2952 73.6795 40.3532 73.5543 40.349ZM67.3975 41.3828C67.3733 41.4276 67.3122 41.4273 67.3162 41.4283C67.1437 41.3874 67.1035 41.3386 67.1458 41.298C67.1866 41.2858 67.2534 41.2618 67.3085 41.2641C67.4013 41.286 67.4133 41.3394 67.3975 41.3828ZM68.1444 41.3099C68.2394 41.3103 68.3833 41.3915 68.3573 41.4612C68.3028 41.5716 68.0772 41.4563 68.0063 41.4796C67.8178 41.5074 67.6767 41.4489 67.6929 41.3802C67.7322 41.2376 67.9949 41.3503 68.1444 41.3099ZM67.6953 42.3993C68.0245 42.5529 68.405 42.7658 68.6977 42.4991C68.7277 42.4696 68.8124 42.4284 68.9237 42.4908C69.0025 42.6357 68.6101 42.6914 68.757 42.8238C68.9842 43.0291 68.779 43.1032 68.7275 43.2645C68.0957 43.1658 67.4976 42.7645 66.7642 42.9123C66.8692 42.8254 66.9213 42.7654 66.9687 42.7259C67.0239 42.2912 67.2565 42.1979 67.6953 42.3993ZM1.35755 25.0325C1.46902 24.9578 1.61072 24.9913 1.86302 24.975C1.67865 25.0832 1.58026 25.1829 1.35755 25.0325ZM8.60897 19.2801C9.09402 19.3083 9.50411 19.2935 9.91734 19.4882C9.82932 19.5039 9.66439 19.5296 9.66828 19.5418C9.82921 19.9299 9.31597 19.7328 9.10547 19.7953C9.22881 19.6761 9.46502 19.6202 9.3758 19.4108C9.14143 19.3555 8.90706 19.4738 8.60897 19.2801ZM0.735124 23.6647L0.700887 23.6312L0.736097 23.6144C0.849178 23.6304 0.967118 23.6436 1.08139 23.6599C1.19533 23.7122 1.31327 23.7653 1.55617 23.8586C1.28411 23.8196 1.13128 23.7942 0.978566 23.7727C0.92424 23.7094 0.830384 23.6872 0.735124 23.6647ZM2.90569 22.3859C2.76118 22.3012 2.58794 22.235 2.38522 22.1618C2.72273 22.1192 3.03638 22.2186 3.33101 22.2881C3.41256 22.2822 3.42551 22.2852 3.40532 22.3815C3.33511 22.7368 3.13725 22.5277 2.90569 22.3859ZM9.04996 17.6905C8.95988 17.5934 8.83092 17.5881 8.70142 17.5722C8.63198 17.5558 8.57009 17.5412 8.50594 17.526C8.3908 17.4375 8.28237 17.3614 8.17274 17.2849C8.28399 17.2859 8.3881 17.3105 8.49492 17.3358C8.24197 17.2395 8.77206 17.1411 8.39102 17.0511C8.79139 17.0587 9.24037 17.2119 9.51675 17.4795C9.30539 17.4149 9.11681 17.3092 8.94508 17.3915C9.30107 17.6275 9.30398 17.6388 9.04996 17.6905ZM9.70273 18.2567C9.70662 18.2576 9.70662 18.2576 9.70662 18.2576L9.71516 18.245C9.70997 18.2437 9.70662 18.2576 9.70273 18.2567ZM69.68 16.4507C69.7003 16.4449 69.755 16.4324 69.7953 16.4168C69.8167 16.447 69.833 16.4762 69.8666 16.4948C69.8161 16.5081 69.7755 16.5238 69.7325 16.5282C69.7176 16.5101 69.6705 16.4736 69.68 16.4507ZM60.0186 9.47589C59.8482 9.46099 59.818 9.6055 59.5799 9.54923C59.6707 9.4584 59.7536 9.36616 59.8347 9.29877C59.9056 9.31551 59.9776 9.33247 60.0485 9.34921C60.1538 9.23699 60.1538 9.23699 60.5875 9.42611C60.396 9.44209 60.217 9.38906 60.0524 9.35018C60.0404 9.38334 60.0291 9.43107 60.0186 9.47589ZM59.0477 9.71955C59.0877 9.72895 59.1185 9.73629 59.1545 9.74483C59.2308 9.8133 59.2408 9.85164 59.2317 9.88944C59.1082 9.95792 58.9774 10.0169 58.8422 10.072C58.6401 9.89798 58.6643 9.85316 59.0477 9.71955ZM18.0721 3.77142C17.8822 3.75198 17.7655 3.82154 17.5125 3.78719C17.6465 3.64571 17.7682 3.56211 18.0721 3.77142ZM19.6751 4.88355C19.5918 4.70091 19.4283 4.48922 19.8172 4.40757C19.8831 4.57152 20.2764 4.7655 20.0578 4.93744C20.0199 4.96509 19.7277 4.98237 19.6751 4.88355ZM15.7279 4.39861C15.7188 4.39645 15.7229 4.39742 15.7163 4.39569L15.7188 4.39644C15.7229 4.39742 15.7229 4.39742 15.7279 4.39861ZM17.312 7.13274L17.3085 6.93898C17.3085 6.93898 17.2981 6.93649 17.2932 6.93531C17.2981 6.93649 17.3021 6.93747 17.3085 6.93898C17.3085 6.93898 17.3139 6.94028 17.3085 6.93898L17.312 7.13274ZM16.5707 5.65621C16.5747 5.65718 16.5901 5.66064 16.5967 5.66215C16.5373 5.64833 16.4813 5.60977 16.4226 5.57056C16.4704 5.63245 16.5488 5.68688 16.5707 5.65621ZM18.4475 6.32335C18.463 6.32681 18.4874 6.33264 18.5002 6.33566C18.5002 6.33566 18.5027 6.33631 18.5066 6.33718C18.493 6.30877 18.4756 6.32994 18.4621 6.30143C18.4512 6.32411 18.4475 6.32335 18.4475 6.32335ZM16.2239 4.1799L16.2214 4.17914C16.2239 4.1799 16.2239 4.1799 16.2239 4.1799ZM32.4695 2.61913C32.485 2.6228 32.5018 2.61556 32.5172 2.61923C32.5031 2.61578 32.4964 2.61427 32.4837 2.61135C32.4813 2.62183 32.4657 2.61837 32.4695 2.61913ZM51.0428 49.914C51.0428 49.914 51.0428 49.914 51.0377 49.9128C51.0428 49.914 51.0377 49.9128 51.0428 49.914ZM66.2434 13.7604C66.2434 13.7604 66.2434 13.7604 66.2378 13.7843C66.2378 13.7843 66.2414 13.7853 66.2467 13.7866C66.2414 13.7853 66.2471 13.7614 66.2471 13.7614L66.2434 13.7604ZM59.0947 40.6417C59.0913 40.6155 59.0874 40.6147 59.0823 40.6134C59.0823 40.6134 59.0965 40.6168 59.0857 40.6395L59.0947 40.6417ZM11.0099 37.5896C11.0099 37.5896 11.0163 37.5911 11.0169 37.6054C11.0201 37.592 11.0163 37.5911 11.0163 37.5911C11.0111 37.5899 11.0111 37.5899 11.0111 37.5899L11.0099 37.5896ZM56.3397 46.6362C56.3345 46.635 56.3289 46.6589 56.3198 46.6569C56.3341 46.6601 56.338 46.6611 56.3432 46.6624C56.338 46.6611 56.3463 46.6484 56.3397 46.6362ZM59.8522 12.0765C58.1866 13.0179 59.1842 12.4541 59.8522 12.0765V12.0765ZM54.7905 46.7685C54.7161 46.7508 54.7121 46.7499 54.6891 46.7664C54.752 46.7595 54.8227 46.7761 54.8902 46.7668C54.8568 46.7696 54.8266 46.777 54.7905 46.7685ZM53.8599 47.0435C53.9268 47.0594 53.9759 47.071 54.0229 47.1075C53.9759 47.071 53.9292 47.0492 53.8599 47.0435ZM58.6498 11.8176C58.6515 11.7928 58.6515 11.7928 58.6515 11.7928C58.4711 11.9666 58.5067 11.8378 58.6498 11.8176ZM53.2334 46.7219L53.2425 46.724L53.2476 46.7253C53.2425 46.724 53.2386 46.7231 53.2334 46.7219ZM56.8428 45.1226C56.8377 45.1214 56.8377 45.1214 56.8306 45.1342C56.8306 45.1342 56.8428 45.1226 56.8467 45.1235L56.8428 45.1226ZM5.32769 27.2893C5.31981 27.2875 5.31776 27.2617 5.30879 27.2596C5.31776 27.2617 5.31732 27.2869 5.32369 27.2883L5.32769 27.2893ZM11.7691 22.0428C11.7729 22.0437 11.7761 22.0298 11.7761 22.0298L11.7691 22.0428ZM56.3054 11.1014C56.309 11.1021 56.309 11.1021 56.3142 11.1034C56.3124 11.0884 56.3124 11.0884 56.3046 11.0865C56.3046 11.0865 56.3086 11.0874 56.3054 11.1014ZM56.754 11.1461C56.736 11.1418 56.7417 11.1179 56.7326 11.1158L56.732 11.141C56.736 11.1418 56.7488 11.1449 56.754 11.1461ZM66.1826 17.0074C66.1896 16.9949 66.1954 17.0104 66.1986 16.9972C66.1948 16.9962 66.1896 16.995 66.1805 16.9928C66.1805 16.9928 66.1857 16.9941 66.1826 17.0074C63.9848 16.8549 63.8859 16.8478 66.1826 17.0074ZM57.8914 41.5528C57.8711 41.5986 57.8908 41.6139 57.8607 41.6426C57.8883 41.624 57.9007 41.6523 57.9334 41.6347C57.9023 41.6273 57.9129 41.5832 57.8914 41.5528ZM11.6737 37.3745C11.6737 37.3745 11.6774 37.3755 11.6828 37.3768C11.6774 37.3755 11.6774 37.3755 11.6737 37.3745ZM5.71575 26.9693C5.67827 26.9496 5.63604 26.9503 5.59608 26.941C5.591 26.9397 5.58118 26.9519 5.5761 26.9509C5.62373 26.962 5.6706 26.9586 5.71575 26.9693ZM61.4112 38.6244C61.415 38.6253 61.4075 38.6234 61.4112 38.6244L61.4202 38.6265C61.4202 38.6265 61.415 38.6253 61.4112 38.6244ZM59.9466 39.3366C59.9505 39.3376 59.9473 39.3508 59.9524 39.3521C59.9524 39.3521 59.9557 39.3389 59.9595 39.3398C59.9595 39.3398 59.9557 39.3389 59.9582 39.3281C59.9505 39.3376 59.9505 39.3376 59.9466 39.3366ZM58.0245 41.1106C57.9936 41.1033 57.9755 41.0991 57.9594 41.07C57.9755 41.0991 57.9884 41.1021 58.0245 41.1106ZM51.3645 50.037C51.3645 50.037 51.3523 50.0482 51.3548 50.0601C51.3728 50.0643 51.3785 50.0404 51.3952 50.0443C51.3825 50.0414 51.3785 50.0404 51.3645 50.037ZM46.8285 48.7663C46.8179 48.7531 46.8264 48.7405 46.8442 48.7228C46.8391 48.7217 46.8391 48.7217 46.8351 48.7207C46.8326 48.7313 46.827 48.7553 46.8285 48.7663ZM16.5212 36.1071L16.5187 36.1171C16.5212 36.1071 16.5212 36.1071 16.5212 36.1071ZM3.59616 26.5082C3.60005 26.5092 3.60523 26.5104 3.60523 26.5104C3.60523 26.5104 3.60005 26.5092 3.59616 26.5082ZM58.2638 10.7191C58.2655 10.7302 58.2744 10.7324 58.2704 10.7314C58.2924 10.7366 58.3144 10.7417 58.3412 10.7481C58.3166 10.7317 58.2884 10.7357 58.2638 10.7191ZM60.2813 12.0262C60.2687 12.0232 60.242 12.0317 60.2242 12.0273C60.2294 12.0286 60.2383 12.0307 60.242 12.0317C60.2596 12.021 60.2724 12.0242 60.2813 12.0262ZM65.2099 38.576C64.9836 38.5618 64.8162 38.4828 64.695 38.3565C64.8608 38.4317 65.059 38.4783 65.2043 38.5998C65.2066 38.5893 65.2066 38.5893 65.2099 38.576ZM58.4015 41.7347L58.3874 41.7312C58.3925 41.7324 58.3964 41.7334 58.3964 41.7334C58.4015 41.7347 58.4054 41.7354 58.4106 41.7366C58.4054 41.7354 58.4054 41.7354 58.4015 41.7347ZM50.809 49.9311C50.791 49.9269 50.7782 49.9239 50.7571 49.9329C50.7699 49.9359 50.7789 49.938 50.7853 49.9508C50.791 49.9269 50.809 49.9311 50.809 49.9311ZM45.2692 48.2749C45.2807 48.2888 45.2775 48.302 45.2944 48.3061C45.3086 48.3093 45.3012 48.2937 45.3143 48.2855C45.2961 48.2812 45.2832 48.2781 45.2692 48.2749ZM45.0152 47.1928C44.9977 47.2035 45.0043 47.2157 44.9917 47.2125C45.0006 47.2147 45.0006 47.2147 45.0095 47.2169C45.0134 47.2176 45.0095 47.2169 45.0152 47.1928ZM15.8283 36.0665C15.813 36.0628 15.7974 36.0591 15.777 36.0542C15.7974 36.0591 15.813 36.0628 15.8322 36.0672L15.8283 36.0665ZM11.5531 38.4657C11.5583 38.467 11.5506 38.476 11.5558 38.4771C11.5597 38.4779 11.5583 38.467 11.5621 38.468C11.5583 38.467 11.5583 38.467 11.5531 38.4657ZM11.4403 38.5403C11.4351 38.5391 11.4351 38.5391 11.4313 38.5382C11.4351 38.5391 11.4403 38.5403 11.4403 38.5403ZM3.00365 33.4834C2.97924 33.4778 2.98486 33.4539 2.96952 33.4502C2.96434 33.449 2.95872 33.4729 2.95483 33.4721C2.97028 33.4756 2.98831 33.48 3.00365 33.4834ZM6.36907 31.9383C6.42469 31.9908 6.44737 32.0327 6.46433 32.0872C6.45634 32.0348 6.41314 31.9881 6.36907 31.9383ZM5.00951 29.7277L2.3756 26.8659C2.40649 26.8733 2.43998 26.8811 2.47259 26.8634C2.30087 26.8482 2.22116 26.8293 2.13238 26.8083C2.12989 26.8079 2.12039 26.8308 2.11521 26.8296C2.21511 26.814 2.29892 26.8338 2.3756 26.8659L5.00951 29.7277ZM4.8232 25.2773L4.82061 25.2767C4.7207 25.3036 4.61367 25.2784 4.5075 25.2281C4.63916 25.3603 4.74533 25.36 4.8232 25.2773ZM4.60082 24.6034C4.60082 24.6034 4.60082 24.6034 4.59564 24.6021C4.60082 24.6034 4.60082 24.6034 4.60082 24.6034ZM31.9147 2.56393C31.9147 2.56393 31.9242 2.54082 31.9203 2.53996C31.8806 2.53045 31.8388 2.546 31.7988 2.53661C31.8438 2.54719 31.8779 2.52991 31.9147 2.56393ZM32.2532 2.64386L32.2475 2.66794C32.2475 2.66794 32.2475 2.66794 32.2527 2.66913C32.2475 2.66794 32.2532 2.64386 32.2532 2.64386ZM33.7348 2.21022C33.7348 2.21022 33.7298 2.20903 33.7241 2.23312C33.7445 2.23787 33.7626 2.24219 33.782 2.24673C33.764 2.24251 33.7445 2.23787 33.7348 2.21022ZM59.8933 11.115C59.9283 11.1231 59.968 11.1326 59.9985 11.165C59.986 11.1368 59.968 11.1326 59.9552 11.1294C59.9334 11.1244 59.9153 11.1202 59.8933 11.115ZM64.1127 13.0075C64.1215 13.0097 64.1253 13.0104 64.1305 13.0116C64.1278 13.0004 64.1149 12.9973 64.1073 12.9955C64.0982 12.9934 64.0928 12.9921 64.0891 12.9913C64.0982 12.9934 64.1048 13.0056 64.1127 13.0075ZM67.7616 40.9739L67.0185 40.5539L67.7616 40.9739ZM65.3163 39.5916L64.8415 39.3232C64.9053 39.3129 64.9671 39.3275 65.0326 39.3429C64.9695 39.3169 64.8817 39.3326 64.8203 39.2928C64.8146 39.3169 64.8442 39.3126 64.8415 39.3232L65.3163 39.5916ZM57.7399 46.9672C57.7302 46.9503 57.7179 46.962 57.7123 46.9459C57.7179 46.962 57.7179 46.962 57.7269 46.9641C57.736 46.9662 57.7321 46.9654 57.7399 46.9672ZM53.8427 48.3469C53.4877 48.4006 53.1262 48.3658 52.7746 48.3078C52.7472 48.348 52.7473 48.388 52.6723 48.4061C52.7132 48.4918 52.7588 48.575 52.8023 48.65C52.9213 48.4398 52.9359 48.4179 53.2888 48.5519C53.7687 48.7411 53.8082 48.5734 53.8427 48.3469ZM52.5532 49.3247C52.5532 49.3247 52.5532 49.3247 52.5508 49.3348C52.5583 49.3259 52.5583 49.3259 52.5583 49.3259C52.5532 49.3247 52.5583 49.3259 52.5532 49.3247ZM49.4722 50.24C49.4396 50.2176 49.402 50.1982 49.377 50.1669C49.402 50.1982 49.442 50.2076 49.4722 50.24ZM36.4967 44.0129C36.4895 43.9972 36.4785 44.0087 36.4739 43.9936C36.476 44.008 36.476 44.0081 36.476 44.0081C36.4824 44.0096 36.4863 44.0105 36.4967 44.0129ZM14.1334 36.8615C14.1225 36.8441 14.1147 36.8317 14.1217 36.8187C14.0851 36.8248 14.0601 36.844 14.0892 36.8763C14.1136 36.8819 14.1129 36.8565 14.1334 36.8615ZM2.62866 33.196C2.63762 33.1982 2.63838 33.2236 2.64486 33.236C2.64238 33.2246 2.63762 33.1982 2.62866 33.196ZM30.9303 3.38909C30.9303 3.38909 30.9302 3.38909 30.9263 3.38833C30.9302 3.38909 30.9303 3.38909 30.9303 3.38909ZM55.7746 9.94269C55.7728 9.96753 55.7875 9.94582 55.7855 9.97066C55.7912 9.94658 55.7875 9.94582 55.7875 9.94582C55.7823 9.94453 55.7784 9.94366 55.7746 9.94269ZM64.8745 13.0146C64.8962 13.0197 64.9035 13.0466 64.9159 13.0749L64.9211 13.0761C64.9035 13.0466 64.8926 13.0188 64.8745 13.0146ZM65.6372 15.4341C65.6315 15.458 65.6315 15.458 65.6315 15.458C65.6264 15.4568 65.6315 15.458 65.6372 15.4341ZM72.8758 40.1885C72.8821 40.2659 72.7963 40.3068 72.6913 40.2966C72.579 40.2954 72.4739 40.2453 72.4508 40.164C72.4266 40.0717 72.5583 40.0664 72.6504 40.0741C72.7929 40.0459 72.8406 40.1191 72.8758 40.1885Z" fill="#46A408"/>
<path d="M22.0801 35.4506C27.3345 35.4506 31.3857 31.6939 31.3857 26.292C31.3857 20.8414 27.3099 17.1338 22.0801 17.1338C19.4529 17.1338 16.9731 18.1159 15.5244 19.6872L18.1763 22.6583C18.8881 21.6516 20.2387 20.915 22.1292 20.915C24.4619 20.915 26.2295 22.4864 26.6717 24.4507H20.2631V27.7899H26.7206C26.4014 29.9752 24.5601 31.6692 22.1537 31.6692C20.2387 31.6692 18.7899 30.9573 17.9552 29.8031L15.4017 32.6268C16.7765 34.2474 19.0847 35.4506 22.0801 35.4506ZM34.1602 34.984H38.2853V26.9797H38.3342L44.7917 34.984H50.267L42.3364 25.6047L49.8251 17.6003H44.5708L38.3587 24.6717H38.2853V17.6003H34.1602V34.984ZM59.2782 35.4506C64.729 35.4506 68.7557 31.7184 68.7557 26.2186C68.7557 20.6448 64.729 17.1338 59.2782 17.1338C53.8519 17.1338 49.8251 20.6448 49.8251 26.2186C49.8251 31.7184 53.8519 35.4506 59.2782 35.4506ZM59.2782 31.6202C56.3563 31.6202 54.3183 29.3613 54.3183 26.2186C54.3183 23.1738 56.3319 20.915 59.2782 20.915C62.2246 20.915 64.2624 23.1738 64.2624 26.2186C64.2624 29.3613 62.2001 31.6202 59.2782 31.6202Z" fill="#FEFEFE"/>
<path d="M74.0336 34.984H78.2321V21.1851H83.1427V17.6003H69.123V21.1851H74.0336V34.984ZM100.723 35.4506C106.125 35.4506 109.636 31.4236 109.636 26.2431C109.636 21.0622 106.125 17.1338 100.723 17.1338C96.0333 17.1338 92.7923 20.0802 92.0065 24.2297H89.2565V17.6003H85.058V34.984H89.2565V27.667H91.9083C92.4731 32.1602 95.8124 35.4506 100.723 35.4506ZM100.723 31.6202C97.8992 31.6202 96.2789 29.1895 96.2789 26.2431C96.2789 23.2967 97.8992 20.915 100.723 20.915C103.522 20.915 105.143 23.2967 105.143 26.2431C105.143 29.1895 103.522 31.6202 100.723 31.6202ZM112.41 34.984H116.609V27.7163H123.386V34.984H127.584V17.6003H123.386V24.1806H116.609V17.6003H112.41V34.984ZM131.169 34.984H135.662L142.291 23.8122H142.365V34.984H146.515V17.6003H142.095L135.417 29.042H135.318V17.6003H131.169V34.984ZM150.099 34.984H154.298V27.7163H161.075V34.984H165.273V17.6003H161.075V24.1806H154.298V17.6003H150.099V34.984ZM168.858 34.984H173.057V21.1851H179.784V17.6003H168.858V34.984Z" fill="white"/>
</svg>
