<svg width="154" height="106" viewBox="0 0 154 106" fill="none" xmlns="http://www.w3.org/2000/svg">
<path d="M146.596 81.2894H141.697L140.823 83.3452H140.429V82.6016C140.429 82.1205 140.035 81.7268 139.554 81.7268H137.367V80.1084C137.367 78.8837 136.405 77.9214 135.18 77.9214H131.156V76.3467H135.18C135.574 76.3467 135.88 76.0406 135.88 75.6469V75.0783C135.88 74.6846 135.574 74.3784 135.18 74.3784H121.402C121.008 74.3784 120.702 74.6846 120.702 75.0783V75.6469C120.702 76.0406 121.008 76.3467 121.402 76.3467H125.907V77.9214H121.446C121.14 77.9214 120.79 78.0089 120.527 78.1838L118.121 79.846H115.934V86.0133H114.535V80.8957C114.535 80.5021 114.229 80.1959 113.835 80.1959H113.266C112.873 80.1959 112.566 80.5021 112.566 80.8957V93.143C112.566 93.5367 112.873 93.8429 113.266 93.8429H113.835C114.229 93.8429 114.535 93.5367 114.535 93.143V88.0254H115.934V94.1053H118.69L124.814 98.698H138.067C139.379 98.698 140.429 97.6483 140.429 96.3361V95.2426H140.823L141.697 97.2983H146.596L148.171 93.7554V84.8761L146.596 81.2894Z" fill="#424242"/>
<path d="M126.496 90.2017L130.357 83.5342L132.964 83.5344L130.247 88.019H134.242L127.812 95.1863L129.853 90.2019L126.496 90.2017Z" fill="#F6F8FA"/>
<path d="M66.1134 78.3609H58.4813L57.1185 81.5637H56.5052V80.4052C56.5052 79.6557 55.8919 79.0424 55.1423 79.0424H51.7351V76.5211C51.7351 74.613 50.236 73.1139 48.3279 73.1139H42.0587V70.6607H48.3279C48.9412 70.6607 49.4182 70.1837 49.4182 69.5704V68.6845C49.4182 68.0712 48.9412 67.5942 48.3279 67.5942H26.8627C26.2494 67.5942 25.7724 68.0712 25.7724 68.6845V69.5704C25.7724 70.1837 26.2494 70.6607 26.8627 70.6607H33.8815V73.1139H26.9308C26.4538 73.1139 25.9087 73.2502 25.4998 73.5227L21.7519 76.1122H18.3447V85.7205H16.1641V77.7476C16.1641 77.1344 15.6871 76.6573 15.0738 76.6573H14.188C13.5747 76.6573 13.0977 77.1344 13.0977 77.7476V96.8279C13.0977 97.4412 13.5747 97.9182 14.188 97.9182H15.0738C15.6871 97.9182 16.1641 97.4412 16.1641 96.8279V88.8551H18.3447V98.327H22.6378L32.1779 105.482H52.8254C54.8697 105.482 56.5052 103.847 56.5052 101.802V100.099H57.1185L58.4813 103.302H66.1134L68.5666 97.7819V83.9487L66.1134 78.3609Z" fill="#68B800"/>
<path d="M28.7383 90.8479L35.5626 79.0635L40.1698 79.0638L35.3677 86.9902H42.429L31.0642 99.6578L34.6719 90.8482L28.7383 90.8479Z" fill="#F6F8FA"/>
<path d="M45.0547 92.2514L49.6097 84.3857L52.6848 84.386L49.4796 89.6765H54.1927L46.6071 98.1317L49.0152 92.2517L45.0547 92.2514Z" fill="#F6F8FA"/>
<path fill-rule="evenodd" clip-rule="evenodd" d="M118.193 52.4814L118.193 16.8893C118.193 15.8993 119.01 15.0893 120.009 15.0893L137.719 15.0893C138.717 15.0893 139.534 15.8993 139.534 16.8893L139.534 30.5787C139.883 30.6258 140.404 30.7191 141.186 30.8579C143.472 31.2636 147.991 32.0573 150.272 32.4806C152.554 32.904 152.598 32.9569 152.589 33.4331C152.581 33.9094 152.518 34.809 152.474 35.2632C152.429 35.7174 152.403 35.7263 152.265 35.7351C152.127 35.7439 151.878 35.7527 151.753 35.7571C151.629 35.7615 151.629 35.7615 151.611 35.5013C151.593 35.2412 151.558 34.7208 151.518 34.4562C151.478 34.1917 151.433 34.1828 149.347 33.9579C147.261 33.733 143.134 33.2921 141.008 33.0672C140.338 32.9963 139.867 32.9467 139.534 32.8996L139.534 52.4814C139.534 53.4714 138.717 54.2814 137.719 54.2814L120.009 54.2814C119.01 54.2814 118.193 53.4714 118.193 52.4814ZM107.997 4.76688L149.921 4.76688L149.921 3.20328L107.997 3.20328L107.997 4.76688ZM149.921 5.26688L107.997 5.26688L107.997 7.04098L149.921 7.04098L149.921 5.26688ZM107.997 2.70328L149.921 2.70328L149.921 1.13088L107.997 1.13088L107.997 2.70328ZM107.492 7.04098L107.492 0.630878L150.425 0.630876L150.425 7.04098L150.709 7.04098L151.399 2.91818L153.057 9.05188L105.078 9.05188L106.252 3.07228L106.252 2.54308L107.266 7.04098L107.492 7.04098ZM140.259 50.4857C140.259 46.5611 140.259 42.6366 140.259 38.712C140.743 38.8391 141.227 38.9661 141.616 39.1684C142.005 39.3707 142.3 39.6484 142.448 39.9589C142.596 40.2694 142.598 40.6132 142.606 42.0743C142.615 43.5354 142.63 46.1142 142.617 47.62C142.604 49.1258 142.563 49.5589 142.389 49.867C142.215 50.1751 141.906 50.3587 141.529 50.441C141.151 50.5233 140.705 50.5045 140.259 50.4857ZM143.592 29.1682C143.766 28.9447 143.766 28.4905 143.766 25.9307C143.766 23.3709 143.766 18.7052 143.766 16.0109C143.766 13.3166 143.766 12.5934 143.468 12.2318C143.17 11.8702 142.574 11.8702 141.626 11.8702C140.678 11.8702 139.378 11.8702 138.568 11.8702C137.758 11.8702 137.438 11.8702 137.278 12.0906C137.118 12.311 137.118 12.7517 137.118 13.1927C137.118 13.6337 137.118 14.0748 137.323 14.2954C137.527 14.516 137.936 14.516 138.443 14.516C138.95 14.516 139.555 14.516 139.858 14.9018C140.16 15.2876 140.16 16.0591 140.16 18.3169C140.16 20.5747 140.16 24.3189 140.16 26.4025C140.16 28.4861 140.16 28.9095 140.354 29.1237C140.548 29.3379 140.936 29.3433 141.364 29.3507C141.791 29.3581 142.258 29.3678 142.665 29.3762C143.072 29.3846 143.419 29.3917 143.592 29.1682ZM117.48 50.4857C117.48 46.5611 117.48 42.6366 117.48 38.712C116.997 38.8391 116.513 38.9661 116.124 39.1684C115.734 39.3708 115.44 39.6484 115.292 39.9589C115.143 40.2696 115.141 40.6132 115.133 42.0743C115.125 43.5354 115.11 46.1142 115.123 47.62C115.136 49.1258 115.176 49.5588 115.35 49.867C115.525 50.1751 115.833 50.3587 116.211 50.441C116.588 50.5233 117.034 50.5045 117.48 50.4857ZM114.147 29.1682C113.974 28.9447 113.974 28.4905 113.974 25.9307C113.974 23.3708 113.974 18.7052 113.974 16.0109C113.974 13.3165 113.974 12.5934 114.272 12.2318C114.57 11.8702 115.166 11.8702 116.114 11.8702C117.062 11.8702 118.361 11.8702 119.171 11.8702C119.981 11.8702 120.301 11.8702 120.461 12.0906C120.622 12.311 120.622 12.7517 120.622 13.1927C120.622 13.6337 120.622 14.0748 120.417 14.2954C120.212 14.516 119.803 14.516 119.296 14.516C118.789 14.516 118.184 14.516 117.882 14.9018C117.58 15.2876 117.58 16.0591 117.58 18.3169C117.58 20.5747 117.58 24.3188 117.58 26.4025C117.58 28.4861 117.58 28.9094 117.386 29.1237C117.192 29.3379 116.803 29.3432 116.376 29.3507C115.949 29.3581 115.481 29.3677 115.075 29.3762C114.668 29.3846 114.321 29.3917 114.147 29.1682ZM122.488 13.9083L122.488 10.1797C122.488 9.96948 122.662 9.79758 122.874 9.79758L134.431 9.79758C134.643 9.79758 134.816 9.96948 134.816 10.1797L134.816 13.9083C134.816 14.1185 134.643 14.2904 134.431 14.2904L122.874 14.2904C122.662 14.2904 122.488 14.1185 122.488 13.9083ZM121.324 34.809L121.324 28.6464L125.524 25.4381L132.128 25.4381L136.33 28.5908L136.33 35.1415L132.564 38.2532L125.577 38.2532L121.324 34.9917L121.324 34.809ZM122.08 29.0125L122.08 34.6264L125.832 37.5032L132.295 37.5032L135.573 34.7942L135.573 28.9622L131.876 26.1881L125.778 26.1881L122.08 29.0125Z" fill="#424242"/>
<path fill-rule="evenodd" clip-rule="evenodd" d="M28.5482 52.4814L28.5482 16.8893C28.5482 15.8993 29.3651 15.0893 30.3635 15.0893L48.0738 15.0893C49.0722 15.0893 49.8892 15.8993 49.8892 16.8893L49.8892 30.5787C50.2381 30.6258 50.7588 30.7191 51.541 30.8579C53.827 31.2636 58.3456 32.0573 60.6271 32.4806C62.9086 32.904 62.9531 32.9569 62.9442 33.4331C62.9354 33.9094 62.873 34.809 62.8286 35.2632C62.7841 35.7174 62.7575 35.7263 62.6196 35.7351C62.4817 35.7439 62.2326 35.7527 62.1081 35.7571C61.9836 35.7615 61.9836 35.7615 61.9657 35.5013C61.948 35.2412 61.9124 34.7208 61.8724 34.4562C61.8323 34.1917 61.7878 34.1828 59.702 33.9579C57.6162 33.733 53.4889 33.2921 51.363 33.0672C50.6927 32.9963 50.2215 32.9467 49.8892 32.8996L49.8892 52.4814C49.8892 53.4714 49.0722 54.2814 48.0738 54.2814L30.3635 54.2814C29.3651 54.2814 28.5482 53.4714 28.5482 52.4814ZM3.22323 4.76688L75.4038 4.76688L75.4038 3.20328L3.22323 3.20328L3.22323 4.76688ZM75.4038 5.26688L3.22323 5.26688L3.22323 7.04098L75.4038 7.04097L75.4038 5.26688ZM3.22323 2.70328L75.4038 2.70328L75.4038 1.13088L3.22323 1.13088L3.22323 2.70328ZM2.71895 7.04098L2.71895 0.630878L75.9081 0.630875L75.9081 7.04097L76.1916 7.04097L76.8823 2.91818L78.5398 9.05188L0.304686 9.05188L1.47874 3.07228L1.47874 2.54308L2.49284 7.04098L2.71895 7.04098ZM50.6139 50.4857C50.6139 46.5611 50.6139 42.6366 50.6139 38.712C51.0977 38.8391 51.5816 38.9661 51.9707 39.1684C52.3598 39.3707 52.6544 39.6484 52.8027 39.9589C52.951 40.2694 52.9529 40.6132 52.9611 42.0743C52.9694 43.5354 52.9843 46.1142 52.9714 47.62C52.9585 49.1258 52.9182 49.5589 52.7438 49.867C52.5694 50.1751 52.2608 50.3587 51.8835 50.441C51.5062 50.5233 51.06 50.5045 50.6139 50.4857ZM53.947 29.1682C54.1204 28.9447 54.1204 28.4905 54.1204 25.9307C54.1204 23.3709 54.1204 18.7052 54.1204 16.0109C54.1204 13.3166 54.1204 12.5934 53.8224 12.2318C53.5245 11.8702 52.9283 11.8702 51.9805 11.8702C51.0327 11.8702 49.7331 11.8702 48.9231 11.8702C48.1132 11.8702 47.7929 11.8702 47.6329 12.0906C47.4728 12.311 47.4727 12.7517 47.4727 13.1927C47.4727 13.6337 47.4728 14.0748 47.6773 14.2954C47.8819 14.516 48.2911 14.516 48.7981 14.516C49.3051 14.516 49.91 14.516 50.2123 14.9018C50.5147 15.2876 50.5147 16.0591 50.5147 18.3169C50.5147 20.5747 50.5147 24.3189 50.5147 26.4025C50.5147 28.4861 50.5148 28.9095 50.7087 29.1237C50.9027 29.3379 51.2909 29.3433 51.7183 29.3507C52.1457 29.3581 52.6129 29.3678 53.0197 29.3762C53.4266 29.3846 53.7736 29.3917 53.947 29.1682ZM27.8351 50.4857C27.8351 46.5611 27.8351 42.6366 27.8351 38.712C27.3513 38.8391 26.8674 38.9661 26.4783 39.1684C26.0891 39.3708 25.7946 39.6484 25.6463 39.9589C25.4981 40.2696 25.4962 40.6132 25.4879 42.0743C25.4796 43.5354 25.4648 46.1142 25.4776 47.62C25.4906 49.1258 25.5309 49.5588 25.7052 49.867C25.8797 50.1751 26.1882 50.3587 26.5655 50.441C26.9428 50.5233 27.389 50.5045 27.8351 50.4857ZM24.5021 29.1682C24.3287 28.9447 24.3287 28.4905 24.3287 25.9307C24.3287 23.3708 24.3287 18.7052 24.3287 16.0109C24.3287 13.3165 24.3287 12.5934 24.6266 12.2318C24.9246 11.8702 25.5207 11.8702 26.4685 11.8702C27.4164 11.8702 28.716 11.8702 29.5259 11.8702C30.3359 11.8702 30.6561 11.8702 30.8162 12.0906C30.9763 12.311 30.9763 12.7517 30.9763 13.1927C30.9763 13.6337 30.9763 14.0748 30.7717 14.2954C30.5672 14.516 30.158 14.516 29.651 14.516C29.144 14.516 28.5392 14.516 28.2367 14.9018C27.9343 15.2876 27.9343 16.0591 27.9343 18.3169C27.9343 20.5747 27.9343 24.3188 27.9343 26.4025C27.9343 28.4861 27.9343 28.9094 27.7403 29.1237C27.5464 29.3379 27.1583 29.3432 26.7308 29.3507C26.3033 29.3581 25.8363 29.3677 25.4293 29.3762C25.0225 29.3846 24.6755 29.3917 24.5021 29.1682ZM32.843 13.9083L32.843 10.1797C32.843 9.96947 33.0164 9.79758 33.2284 9.79758L44.7859 9.79757C44.9978 9.79757 45.1712 9.96947 45.1712 10.1797L45.1712 13.9083C45.1712 14.1185 44.9978 14.2904 44.7859 14.2904L33.2284 14.2904C33.0164 14.2904 32.843 14.1185 32.843 13.9083ZM31.6786 34.809L31.6786 28.6464L35.8791 25.4381L42.4829 25.4381L46.6845 28.5908L46.6845 35.1415L42.9184 38.2532L35.9321 38.2532L31.6786 34.9917L31.6786 34.809ZM32.435 29.0125L32.435 34.6264L36.1868 37.5032L42.6495 37.5032L45.9281 34.7942L45.9281 28.9622L42.231 26.1881L36.1329 26.1881L32.435 29.0125Z" fill="#68B800"/>
</svg>
