<svg width="161" height="154" viewBox="0 0 161 154" fill="none" xmlns="http://www.w3.org/2000/svg">
<path fill-rule="evenodd" clip-rule="evenodd" d="M159.06 35.6693L123.468 35.6693C122.478 35.6693 121.668 34.8525 121.668 33.854L121.668 16.1438C121.668 15.1454 122.478 14.3284 123.468 14.3284L137.157 14.3284C137.205 13.9795 137.298 13.4588 137.437 12.6766C137.842 10.3906 138.636 5.87202 139.059 3.59049C139.483 1.30895 139.536 1.26448 140.012 1.27335C140.488 1.28223 141.388 1.34455 141.842 1.38902C142.296 1.4335 142.305 1.46013 142.314 1.598C142.323 1.73587 142.331 1.98496 142.336 2.10952C142.34 2.23398 142.34 2.23399 142.08 2.25184C141.82 2.26959 141.3 2.30519 141.035 2.34523C140.77 2.38527 140.762 2.42974 140.537 4.51562C140.312 6.60139 139.871 10.7287 139.646 12.8546C139.575 13.5249 139.525 13.9961 139.478 14.3284L159.06 14.3284C160.05 14.3284 160.86 15.1454 160.86 16.1438L160.86 33.854C160.86 34.8525 160.05 35.6693 159.06 35.6693ZM111.346 45.8661L111.346 3.94197L109.782 3.94197L109.782 45.8661L111.346 45.8661ZM111.846 3.94197L111.846 45.8661L113.62 45.8661L113.62 3.94197L111.846 3.94197ZM109.282 45.8661L109.282 3.94197L107.71 3.94197L107.71 45.8661L109.282 45.8661ZM113.62 46.3704L107.21 46.3704L107.21 3.4377L113.62 3.43769L113.62 3.15418L109.497 2.46354L115.631 0.805977L115.631 48.7847L109.651 47.6106L109.122 47.6106L113.62 46.5965L113.62 46.3704ZM157.064 13.6036C153.14 13.6036 149.215 13.6036 145.291 13.6036C145.418 13.1198 145.545 12.6359 145.747 12.2468C145.949 11.8577 146.227 11.5631 146.538 11.4149C146.848 11.2666 147.192 11.2647 148.653 11.2564C150.114 11.2482 152.693 11.2333 154.199 11.2462C155.705 11.2591 156.138 11.2994 156.446 11.4738C156.754 11.6482 156.937 11.9568 157.02 12.3341C157.102 12.7114 157.083 13.1576 157.064 13.6036ZM135.747 10.2706C135.523 10.0972 135.069 10.0972 132.509 10.0972C129.95 10.0972 125.284 10.0972 122.59 10.0972C119.895 10.0972 119.172 10.0972 118.811 10.3951C118.449 10.6931 118.449 11.2892 118.449 12.2371C118.449 13.1849 118.449 14.4845 118.449 15.2945C118.449 16.1044 118.449 16.4246 118.669 16.5847C118.89 16.7447 119.33 16.7449 119.771 16.7449C120.212 16.7449 120.654 16.7448 120.874 16.5402C121.095 16.3357 121.095 15.9265 121.095 15.4195C121.095 14.9125 121.095 14.3076 121.481 14.0052C121.866 13.7029 122.638 13.7029 124.896 13.7029C127.153 13.7029 130.898 13.7029 132.981 13.7029C135.065 13.7029 135.488 13.7028 135.702 13.5088C135.917 13.3149 135.922 12.9267 135.929 12.4993C135.937 12.0719 135.947 11.6047 135.955 11.1978C135.963 10.791 135.97 10.444 135.747 10.2706ZM157.064 36.3825C153.14 36.3825 149.215 36.3825 145.291 36.3825C145.418 36.8663 145.545 37.3502 145.747 37.7393C145.95 38.1285 146.227 38.423 146.538 38.5712C146.848 38.7195 147.192 38.7214 148.653 38.7297C150.114 38.7379 152.693 38.7527 154.199 38.7399C155.705 38.7269 156.138 38.6867 156.446 38.5123C156.754 38.3378 156.937 38.0293 157.02 37.652C157.102 37.2747 157.083 36.8285 157.064 36.3825ZM135.747 39.7155C135.523 39.8889 135.069 39.8889 132.509 39.8889C129.95 39.8889 125.284 39.8889 122.59 39.8889C119.895 39.8889 119.172 39.8889 118.811 39.591C118.449 39.2929 118.449 38.6969 118.449 37.749C118.449 36.8012 118.449 35.5016 118.449 34.6916C118.449 33.8817 118.449 33.5615 118.669 33.4014C118.89 33.2413 119.33 33.2413 119.771 33.2413C120.212 33.2413 120.654 33.2412 120.874 33.4459C121.095 33.6504 121.095 34.0596 121.095 34.5666C121.095 35.0736 121.095 35.6784 121.481 35.9809C121.866 36.2832 122.638 36.2832 124.896 36.2832C127.153 36.2832 130.898 36.2832 132.981 36.2832C135.065 36.2832 135.488 36.2832 135.702 36.4773C135.917 36.6712 135.922 37.0593 135.929 37.4868C135.937 37.9142 135.946 38.3813 135.955 38.7883C135.963 39.1951 135.97 39.542 135.747 39.7155ZM120.487 31.3745L116.758 31.3745C116.548 31.3745 116.376 31.2012 116.376 30.9892L116.376 19.4317C116.376 19.2197 116.548 19.0464 116.758 19.0464L120.487 19.0464C120.697 19.0464 120.869 19.2197 120.869 19.4317L120.869 30.9892C120.869 31.2012 120.697 31.3745 120.487 31.3745ZM141.388 32.539L135.225 32.539L132.017 28.3385L132.017 21.7346L135.17 17.533L141.72 17.533L144.832 21.2992L144.832 28.2854L141.57 32.539L141.388 32.539ZM135.591 31.7826L141.205 31.7826L144.082 28.0308L144.082 21.568L141.373 18.2894L135.541 18.2894L132.767 21.9866L132.767 28.0846L135.591 31.7826Z" fill="#424242"/>
<path fill-rule="evenodd" clip-rule="evenodd" d="M159.06 125.314L123.468 125.314C122.478 125.314 121.668 124.497 121.668 123.499L121.668 105.788C121.668 104.79 122.478 103.973 123.468 103.973L137.157 103.973C137.205 103.624 137.298 103.103 137.437 102.321C137.842 100.035 138.636 95.5165 139.059 93.235C139.483 90.9535 139.536 90.909 140.012 90.9178C140.488 90.9267 141.388 90.989 141.842 91.0335C142.296 91.078 142.305 91.1046 142.314 91.2425C142.323 91.3804 142.331 91.6295 142.336 91.754C142.34 91.8785 142.34 91.8785 142.08 91.8963C141.82 91.9141 141.3 91.9497 141.035 91.9897C140.77 92.0298 140.762 92.0742 140.537 94.1601C140.312 96.2459 139.871 100.373 139.646 102.499C139.575 103.169 139.525 103.641 139.478 103.973L159.06 103.973C160.05 103.973 160.86 104.79 160.86 105.788L160.86 123.499C160.86 124.497 160.05 125.314 159.06 125.314ZM111.346 150.639L111.346 78.4583L109.782 78.4583L109.782 150.639L111.346 150.639ZM111.846 78.4583L111.846 150.639L113.62 150.639L113.62 78.4583L111.846 78.4583ZM109.282 150.639L109.282 78.4583L107.71 78.4583L107.71 150.639L109.282 150.639ZM113.62 151.143L107.21 151.143L107.21 77.954L113.62 77.954L113.62 77.6705L109.497 76.9798L115.631 75.3223L115.631 153.557L109.651 152.383L109.122 152.383L113.62 151.369L113.62 151.143ZM157.064 103.248C153.14 103.248 149.215 103.248 145.291 103.248C145.418 102.764 145.545 102.28 145.747 101.891C145.949 101.502 146.227 101.208 146.538 101.059C146.848 100.911 147.192 100.909 148.653 100.901C150.114 100.893 152.693 100.878 154.199 100.891C155.705 100.904 156.138 100.944 156.446 101.118C156.754 101.293 156.937 101.601 157.02 101.979C157.102 102.356 157.083 102.802 157.064 103.248ZM135.747 99.9151C135.523 99.7417 135.069 99.7417 132.509 99.7417C129.95 99.7417 125.284 99.7417 122.59 99.7417C119.895 99.7417 119.172 99.7417 118.811 100.04C118.449 100.338 118.449 100.934 118.449 101.882C118.449 102.829 118.449 104.129 118.449 104.939C118.449 105.749 118.449 106.069 118.669 106.229C118.89 106.389 119.33 106.389 119.771 106.389C120.212 106.389 120.654 106.389 120.874 106.185C121.095 105.98 121.095 105.571 121.095 105.064C121.095 104.557 121.095 103.952 121.481 103.65C121.866 103.347 122.638 103.347 124.896 103.347C127.153 103.347 130.898 103.347 132.981 103.347C135.065 103.347 135.488 103.347 135.702 103.153C135.917 102.959 135.922 102.571 135.929 102.144C135.937 101.716 135.947 101.249 135.955 100.842C135.963 100.435 135.97 100.088 135.747 99.9151ZM157.064 126.027C153.14 126.027 149.215 126.027 145.291 126.027C145.418 126.511 145.545 126.995 145.747 127.384C145.95 127.773 146.227 128.067 146.538 128.216C146.848 128.364 147.192 128.366 148.653 128.374C150.114 128.382 152.693 128.397 154.199 128.384C155.705 128.371 156.138 128.331 156.446 128.157C156.754 127.982 156.937 127.674 157.02 127.297C157.102 126.919 157.083 126.473 157.064 126.027ZM135.747 129.36C135.523 129.533 135.069 129.533 132.509 129.533C129.95 129.533 125.284 129.533 122.59 129.533C119.895 129.533 119.172 129.533 118.811 129.235C118.449 128.937 118.449 128.341 118.449 127.394C118.449 126.446 118.449 125.146 118.449 124.336C118.449 123.526 118.449 123.206 118.669 123.046C118.89 122.886 119.33 122.886 119.771 122.886C120.212 122.886 120.654 122.886 120.874 123.09C121.095 123.295 121.095 123.704 121.095 124.211C121.095 124.718 121.095 125.323 121.481 125.625C121.866 125.928 122.638 125.928 124.896 125.928C127.153 125.928 130.898 125.928 132.981 125.928C135.065 125.928 135.488 125.928 135.702 126.122C135.917 126.316 135.922 126.704 135.929 127.131C135.937 127.559 135.946 128.026 135.955 128.433C135.963 128.84 135.97 129.187 135.747 129.36ZM120.487 121.019L116.758 121.019C116.548 121.019 116.376 120.846 116.376 120.634L116.376 109.076C116.376 108.864 116.548 108.691 116.758 108.691L120.487 108.691C120.697 108.691 120.869 108.864 120.869 109.076L120.869 120.634C120.869 120.846 120.697 121.019 120.487 121.019ZM141.388 122.183L135.225 122.183L132.017 117.983L132.017 111.379L135.17 107.178L141.72 107.178L144.832 110.944L144.832 117.93L141.57 122.183L141.388 122.183ZM135.591 121.427L141.205 121.427L144.082 117.675L144.082 111.213L141.373 107.934L135.541 107.934L132.767 111.631L132.767 117.729L135.591 121.427Z" fill="#68B800"/>
<path d="M0.727295 149.899L104.587 149.899" stroke="#424242" stroke-opacity="0.15"/>
<path d="M0.727295 78.9814L104.587 78.9814" stroke="#424242" stroke-opacity="0.15"/>
<path d="M0.727295 93.1652L104.587 93.1652" stroke="#424242" stroke-opacity="0.15"/>
<path d="M0.727295 107.349L104.587 107.349" stroke="#424242" stroke-opacity="0.15"/>
<path d="M0.727295 135.716L104.587 135.716" stroke="#424242" stroke-opacity="0.15"/>
<path d="M0.727295 121.532L104.587 121.532" stroke="#424242" stroke-opacity="0.15"/>
<path d="M0.727295 46.4603L104.587 46.4603" stroke="#424242" stroke-opacity="0.15"/>
<path d="M0.727295 3.90979L104.587 3.90979" stroke="#424242" stroke-opacity="0.15"/>
<path d="M0.727295 32.2771L104.587 32.2771" stroke="#424242" stroke-opacity="0.15"/>
<path d="M0.727295 18.0929L104.587 18.0929" stroke="#424242" stroke-opacity="0.15"/>
<path d="M71.6578 15.0765C71.6578 15.1993 71.7003 15.3004 71.7855 15.3799C71.8706 15.4594 72.0079 15.541 72.1977 15.6247V14.6412C71.8378 14.6942 71.6578 14.8394 71.6578 15.0765Z" fill="#424242"/>
<path d="M71.6578 15.0765C71.6578 15.1993 71.7003 15.3004 71.7855 15.3799C71.8706 15.4594 72.0079 15.541 72.1977 15.6247V14.6412C71.8378 14.6942 71.6578 14.8394 71.6578 15.0765Z" fill="#424242"/>
<path d="M72.7709 17.0686V18.1107C73.1503 18.0465 73.34 17.882 73.34 17.6168C73.34 17.4996 73.2925 17.4007 73.1977 17.3197C73.1029 17.2388 72.9606 17.155 72.7709 17.0686Z" fill="#424242"/>
<path d="M72.7709 17.0686V18.1107C73.1503 18.0465 73.34 17.882 73.34 17.6168C73.34 17.4996 73.2925 17.4007 73.1977 17.3197C73.1029 17.2388 72.9606 17.155 72.7709 17.0686Z" fill="#424242"/>
<path d="M72.4987 10.6283C69.2819 10.6283 66.6641 13.2461 66.6641 16.4629C66.6641 19.6798 69.2819 22.2976 72.4987 22.2976C75.7155 22.2976 78.3333 19.6798 78.3333 16.4629C78.3333 13.2461 75.7155 10.6283 72.4987 10.6283ZM74.1188 18.6231C73.798 18.8924 73.3488 19.0535 72.7712 19.1065V19.9644H72.1979V19.1232C71.5172 19.1092 70.92 18.9893 70.4067 18.7633V17.6584C70.6494 17.7784 70.9417 17.8845 71.2835 17.9765C71.6252 18.0686 71.93 18.123 72.1979 18.1397V16.8424L71.9175 16.7335C71.3651 16.5159 70.9738 16.2795 70.7436 16.0242C70.5134 15.7689 70.3983 15.4529 70.3983 15.0763C70.3983 14.6718 70.5567 14.339 70.8733 14.0781C71.1899 13.8172 71.6315 13.659 72.1979 13.6032V12.9628H72.7712V13.5864C73.4101 13.6143 73.9876 13.7427 74.5038 13.9714L74.1105 14.9507C73.6752 14.7722 73.2289 14.6634 72.7712 14.6243V15.8589C73.3153 16.0681 73.7024 16.2495 73.9326 16.4029C74.1628 16.5563 74.3316 16.7252 74.439 16.9093C74.5463 17.0934 74.6001 17.3083 74.6001 17.5538C74.6001 17.9974 74.4396 18.3538 74.1188 18.6231Z" fill="#424242"/>
<path d="M72.4987 10.6283C69.2819 10.6283 66.6641 13.2461 66.6641 16.4629C66.6641 19.6798 69.2819 22.2976 72.4987 22.2976C75.7155 22.2976 78.3333 19.6798 78.3333 16.4629C78.3333 13.2461 75.7155 10.6283 72.4987 10.6283ZM74.1188 18.6231C73.798 18.8924 73.3488 19.0535 72.7712 19.1065V19.9644H72.1979V19.1232C71.5172 19.1092 70.92 18.9893 70.4067 18.7633V17.6584C70.6494 17.7784 70.9417 17.8845 71.2835 17.9765C71.6252 18.0686 71.93 18.123 72.1979 18.1397V16.8424L71.9175 16.7335C71.3651 16.5159 70.9738 16.2795 70.7436 16.0242C70.5134 15.7689 70.3983 15.4529 70.3983 15.0763C70.3983 14.6718 70.5567 14.339 70.8733 14.0781C71.1899 13.8172 71.6315 13.659 72.1979 13.6032V12.9628H72.7712V13.5864C73.4101 13.6143 73.9876 13.7427 74.5038 13.9714L74.1105 14.9507C73.6752 14.7722 73.2289 14.6634 72.7712 14.6243V15.8589C73.3153 16.0681 73.7024 16.2495 73.9326 16.4029C74.1628 16.5563 74.3316 16.7252 74.439 16.9093C74.5463 17.0934 74.6001 17.3083 74.6001 17.5538C74.6001 17.9974 74.4396 18.3538 74.1188 18.6231Z" fill="#424242"/>
<path d="M64.9817 26.7455C64.9817 26.8684 65.0242 26.9695 65.1093 27.0489C65.1945 27.1285 65.3318 27.2101 65.5216 27.2938V26.3103C65.1616 26.3632 64.9817 26.5084 64.9817 26.7455Z" fill="#424242"/>
<path d="M64.9817 26.7455C64.9817 26.8684 65.0242 26.9695 65.1093 27.0489C65.1945 27.1285 65.3318 27.2101 65.5216 27.2938V26.3103C65.1616 26.3632 64.9817 26.5084 64.9817 26.7455Z" fill="#424242"/>
<path d="M66.0947 28.7377V29.7798C66.4741 29.7155 66.6639 29.551 66.6639 29.2859C66.6639 29.1687 66.6164 29.0698 66.5216 28.9888C66.4268 28.9078 66.2845 28.8241 66.0947 28.7377Z" fill="#424242"/>
<path d="M66.0947 28.7377V29.7798C66.4741 29.7155 66.6639 29.551 66.6639 29.2859C66.6639 29.1687 66.6164 29.0698 66.5216 28.9888C66.4268 28.9078 66.2845 28.8241 66.0947 28.7377Z" fill="#424242"/>
<path d="M65.8229 22.2972C62.6061 22.2972 59.9883 24.915 59.9883 28.1319C59.9883 31.3487 62.6061 33.9665 65.8229 33.9665C69.0397 33.9665 71.6575 31.3487 71.6575 28.1319C71.6575 24.915 69.0397 22.2972 65.8229 22.2972ZM67.443 30.292C67.1222 30.5613 66.673 30.7224 66.0955 30.7754V31.6333H65.5221V30.7921C64.8414 30.7782 64.2442 30.6582 63.7309 30.4322V29.3274C63.9736 29.4473 64.2659 29.5534 64.6077 29.6454C64.9494 29.7375 65.2543 29.7919 65.5221 29.8087V28.5113L65.2417 28.4025C64.6893 28.1849 64.298 27.9484 64.0678 27.6931C63.8376 27.4378 63.7226 27.1218 63.7226 26.7452C63.7226 26.3407 63.8809 26.008 64.1975 25.7471C64.5142 25.4862 64.9557 25.3279 65.5221 25.2721V24.6318H66.0955V25.2553C66.7343 25.2832 67.3119 25.4116 67.8281 25.6404L67.4347 26.6197C66.9994 26.4411 66.5531 26.3323 66.0955 26.2933V27.5278C66.6395 27.7371 67.0266 27.9185 67.2568 28.0719C67.487 28.2253 67.6558 28.3941 67.7632 28.5783C67.8706 28.7624 67.9243 28.9772 67.9243 29.2227C67.9243 29.6664 67.7638 30.0227 67.443 30.292Z" fill="#424242"/>
<path d="M65.8229 22.2972C62.6061 22.2972 59.9883 24.915 59.9883 28.1319C59.9883 31.3487 62.6061 33.9665 65.8229 33.9665C69.0397 33.9665 71.6575 31.3487 71.6575 28.1319C71.6575 24.915 69.0397 22.2972 65.8229 22.2972ZM67.443 30.292C67.1222 30.5613 66.673 30.7224 66.0955 30.7754V31.6333H65.5221V30.7921C64.8414 30.7782 64.2442 30.6582 63.7309 30.4322V29.3274C63.9736 29.4473 64.2659 29.5534 64.6077 29.6454C64.9494 29.7375 65.2543 29.7919 65.5221 29.8087V28.5113L65.2417 28.4025C64.6893 28.1849 64.298 27.9484 64.0678 27.6931C63.8376 27.4378 63.7226 27.1218 63.7226 26.7452C63.7226 26.3407 63.8809 26.008 64.1975 25.7471C64.5142 25.4862 64.9557 25.3279 65.5221 25.2721V24.6318H66.0955V25.2553C66.7343 25.2832 67.3119 25.4116 67.8281 25.6404L67.4347 26.6197C66.9994 26.4411 66.5531 26.3323 66.0955 26.2933V27.5278C66.6395 27.7371 67.0266 27.9185 67.2568 28.0719C67.487 28.2253 67.6558 28.3941 67.7632 28.5783C67.8706 28.7624 67.9243 28.9772 67.9243 29.2227C67.9243 29.6664 67.7638 30.0227 67.443 30.292Z" fill="#424242"/>
<path d="M79.8297 31.7415C79.8297 31.8643 79.8722 31.9654 79.9574 32.0449C80.0425 32.1244 80.1798 32.2061 80.3696 32.2897V31.3063C80.0097 31.3592 79.8297 31.5044 79.8297 31.7415Z" fill="#424242"/>
<path d="M79.8297 31.7415C79.8297 31.8643 79.8722 31.9654 79.9574 32.0449C80.0425 32.1244 80.1798 32.2061 80.3696 32.2897V31.3063C80.0097 31.3592 79.8297 31.5044 79.8297 31.7415Z" fill="#424242"/>
<path d="M80.9427 33.7336V34.7757C81.3221 34.7115 81.5119 34.547 81.5119 34.2819C81.5119 34.1647 81.4644 34.0657 81.3696 33.9847C81.2748 33.9038 81.1325 33.8201 80.9427 33.7336Z" fill="#424242"/>
<path d="M80.9427 33.7336V34.7757C81.3221 34.7115 81.5119 34.547 81.5119 34.2819C81.5119 34.1647 81.4644 34.0657 81.3696 33.9847C81.2748 33.9038 81.1325 33.8201 80.9427 33.7336Z" fill="#424242"/>
<path d="M80.6706 27.2933C77.4537 27.2933 74.8359 29.9111 74.8359 33.128C74.8359 36.3448 77.4537 38.9626 80.6706 38.9626C83.8874 38.9626 86.5052 36.3448 86.5052 33.128C86.5052 29.9111 83.8874 27.2933 80.6706 27.2933ZM82.2907 35.2881C81.9699 35.5574 81.5206 35.7185 80.9431 35.7715V36.6294H80.3698V35.7882C79.6891 35.7743 79.0919 35.6543 78.5786 35.4283V34.3235C78.8213 34.4434 79.1136 34.5495 79.4553 34.6415C79.7971 34.7336 80.1019 34.788 80.3698 34.8048V33.5074L80.0894 33.3986C79.5369 33.181 79.1456 32.9445 78.9155 32.6892C78.6853 32.4339 78.5702 32.1179 78.5702 31.7413C78.5702 31.3368 78.7286 31.0041 79.0452 30.7432C79.3618 30.4822 79.8033 30.324 80.3698 30.2682V29.6279H80.9431V30.2514C81.582 30.2793 82.1595 30.4077 82.6757 30.6365L82.2823 31.6157C81.8471 31.4372 81.4007 31.3284 80.9431 31.2894V32.5239C81.4872 32.7331 81.8743 32.9146 82.1045 33.0679C82.3346 33.2214 82.5035 33.3902 82.6108 33.5743C82.7182 33.7585 82.772 33.9733 82.772 34.2188C82.772 34.6625 82.6115 35.0188 82.2907 35.2881Z" fill="#424242"/>
<path d="M80.6706 27.2933C77.4537 27.2933 74.8359 29.9111 74.8359 33.128C74.8359 36.3448 77.4537 38.9626 80.6706 38.9626C83.8874 38.9626 86.5052 36.3448 86.5052 33.128C86.5052 29.9111 83.8874 27.2933 80.6706 27.2933ZM82.2907 35.2881C81.9699 35.5574 81.5206 35.7185 80.9431 35.7715V36.6294H80.3698V35.7882C79.6891 35.7743 79.0919 35.6543 78.5786 35.4283V34.3235C78.8213 34.4434 79.1136 34.5495 79.4553 34.6415C79.7971 34.7336 80.1019 34.788 80.3698 34.8048V33.5074L80.0894 33.3986C79.5369 33.181 79.1456 32.9445 78.9155 32.6892C78.6853 32.4339 78.5702 32.1179 78.5702 31.7413C78.5702 31.3368 78.7286 31.0041 79.0452 30.7432C79.3618 30.4822 79.8033 30.324 80.3698 30.2682V29.6279H80.9431V30.2514C81.582 30.2793 82.1595 30.4077 82.6757 30.6365L82.2823 31.6157C81.8471 31.4372 81.4007 31.3284 80.9431 31.2894V32.5239C81.4872 32.7331 81.8743 32.9146 82.1045 33.0679C82.3346 33.2214 82.5035 33.3902 82.6108 33.5743C82.7182 33.7585 82.772 33.9733 82.772 34.2188C82.772 34.6625 82.6115 35.0188 82.2907 35.2881Z" fill="#424242"/>
<path d="M91.181 101.634C91.181 101.757 91.2235 101.858 91.3087 101.938C91.3938 102.017 91.5311 102.099 91.7209 102.183V101.199C91.361 101.252 91.181 101.397 91.181 101.634Z" fill="#424242"/>
<path d="M91.181 101.634C91.181 101.757 91.2235 101.858 91.3087 101.938C91.3938 102.017 91.5311 102.099 91.7209 102.183V101.199C91.361 101.252 91.181 101.397 91.181 101.634Z" fill="#68B800"/>
<path d="M92.2941 103.626V104.669C92.6735 104.604 92.8632 104.44 92.8632 104.175C92.8632 104.058 92.8157 103.959 92.7209 103.878C92.6261 103.797 92.4838 103.713 92.2941 103.626Z" fill="#424242"/>
<path d="M92.2941 103.626V104.669C92.6735 104.604 92.8632 104.44 92.8632 104.175C92.8632 104.058 92.8157 103.959 92.7209 103.878C92.6261 103.797 92.4838 103.713 92.2941 103.626Z" fill="#68B800"/>
<path d="M92.0215 97.1863C88.8047 97.1863 86.1869 99.8041 86.1869 103.021C86.1869 106.238 88.8047 108.856 92.0215 108.856C95.2383 108.856 97.8561 106.238 97.8561 103.021C97.8561 99.8041 95.2383 97.1863 92.0215 97.1863ZM93.6416 105.181C93.3208 105.45 92.8716 105.611 92.2941 105.664V106.522H91.7207V105.681C91.04 105.667 90.4428 105.547 89.9295 105.321V104.216C90.1722 104.336 90.4645 104.442 90.8063 104.534C91.148 104.627 91.4529 104.681 91.7207 104.698V103.4L91.4403 103.292C90.8879 103.074 90.4966 102.837 90.2664 102.582C90.0362 102.327 89.9212 102.011 89.9212 101.634C89.9212 101.23 90.0795 100.897 90.3962 100.636C90.7128 100.375 91.1543 100.217 91.7207 100.161V99.5208H92.2941V100.144C92.9329 100.172 93.5105 100.301 94.0267 100.529L93.6333 101.509C93.198 101.33 92.7517 101.221 92.2941 101.182V102.417C92.8381 102.626 93.2252 102.808 93.4554 102.961C93.6856 103.114 93.8544 103.283 93.9618 103.467C94.0692 103.651 94.1229 103.866 94.1229 104.112C94.1229 104.555 93.9624 104.912 93.6416 105.181Z" fill="#424242"/>
<path d="M92.0215 97.1863C88.8047 97.1863 86.1869 99.8041 86.1869 103.021C86.1869 106.238 88.8047 108.856 92.0215 108.856C95.2383 108.856 97.8561 106.238 97.8561 103.021C97.8561 99.8041 95.2383 97.1863 92.0215 97.1863ZM93.6416 105.181C93.3208 105.45 92.8716 105.611 92.2941 105.664V106.522H91.7207V105.681C91.04 105.667 90.4428 105.547 89.9295 105.321V104.216C90.1722 104.336 90.4645 104.442 90.8063 104.534C91.148 104.627 91.4529 104.681 91.7207 104.698V103.4L91.4403 103.292C90.8879 103.074 90.4966 102.837 90.2664 102.582C90.0362 102.327 89.9212 102.011 89.9212 101.634C89.9212 101.23 90.0795 100.897 90.3962 100.636C90.7128 100.375 91.1543 100.217 91.7207 100.161V99.5208H92.2941V100.144C92.9329 100.172 93.5105 100.301 94.0267 100.529L93.6333 101.509C93.198 101.33 92.7517 101.221 92.2941 101.182V102.417C92.8381 102.626 93.2252 102.808 93.4554 102.961C93.6856 103.114 93.8544 103.283 93.9618 103.467C94.0692 103.651 94.1229 103.866 94.1229 104.112C94.1229 104.555 93.9624 104.912 93.6416 105.181Z" fill="#68B800"/>
<path d="M50.4502 121.535C50.4502 121.658 50.4927 121.759 50.5779 121.839C50.663 121.918 50.8003 122 50.9901 122.084V121.1C50.6302 121.153 50.4502 121.298 50.4502 121.535Z" fill="#424242"/>
<path d="M50.4502 121.535C50.4502 121.658 50.4927 121.759 50.5779 121.839C50.663 121.918 50.8003 122 50.9901 122.084V121.1C50.6302 121.153 50.4502 121.298 50.4502 121.535Z" fill="#68B800"/>
<path d="M51.5632 123.527V124.57C51.9426 124.505 52.1324 124.341 52.1324 124.076C52.1324 123.959 52.0849 123.86 51.9901 123.779C51.8953 123.698 51.753 123.614 51.5632 123.527Z" fill="#424242"/>
<path d="M51.5632 123.527V124.57C51.9426 124.505 52.1324 124.341 52.1324 124.076C52.1324 123.959 52.0849 123.86 51.9901 123.779C51.8953 123.698 51.753 123.614 51.5632 123.527Z" fill="#68B800"/>
<path d="M51.2911 117.087C48.0742 117.087 45.4564 119.705 45.4564 122.922C45.4564 126.139 48.0742 128.756 51.2911 128.756C54.5079 128.756 57.1257 126.139 57.1257 122.922C57.1257 119.705 54.5079 117.087 51.2911 117.087ZM52.9112 125.082C52.5904 125.351 52.1411 125.512 51.5636 125.565V126.423H50.9902V125.582C50.3095 125.568 49.7124 125.448 49.199 125.222V124.117C49.4418 124.237 49.7341 124.343 50.0758 124.435C50.4175 124.527 50.7224 124.582 50.9902 124.599V123.301L50.7098 123.192C50.1574 122.975 49.7661 122.738 49.5359 122.483C49.3058 122.228 49.1907 121.912 49.1907 121.535C49.1907 121.131 49.3491 120.798 49.6657 120.537C49.9823 120.276 50.4238 120.118 50.9902 120.062V119.422H51.5636V120.045C52.2024 120.073 52.78 120.202 53.2962 120.43L52.9028 121.41C52.4676 121.231 52.0212 121.122 51.5636 121.083V122.318C52.1077 122.527 52.4948 122.708 52.7249 122.862C52.9551 123.015 53.124 123.184 53.2313 123.368C53.3387 123.552 53.3925 123.767 53.3925 124.013C53.3925 124.456 53.232 124.813 52.9112 125.082Z" fill="#424242"/>
<path d="M51.2911 117.087C48.0742 117.087 45.4564 119.705 45.4564 122.922C45.4564 126.139 48.0742 128.756 51.2911 128.756C54.5079 128.756 57.1257 126.139 57.1257 122.922C57.1257 119.705 54.5079 117.087 51.2911 117.087ZM52.9112 125.082C52.5904 125.351 52.1411 125.512 51.5636 125.565V126.423H50.9902V125.582C50.3095 125.568 49.7124 125.448 49.199 125.222V124.117C49.4418 124.237 49.7341 124.343 50.0758 124.435C50.4175 124.527 50.7224 124.582 50.9902 124.599V123.301L50.7098 123.192C50.1574 122.975 49.7661 122.738 49.5359 122.483C49.3058 122.228 49.1907 121.912 49.1907 121.535C49.1907 121.131 49.3491 120.798 49.6657 120.537C49.9823 120.276 50.4238 120.118 50.9902 120.062V119.422H51.5636V120.045C52.2024 120.073 52.78 120.202 53.2962 120.43L52.9028 121.41C52.4676 121.231 52.0212 121.122 51.5636 121.083V122.318C52.1077 122.527 52.4948 122.708 52.7249 122.862C52.9551 123.015 53.124 123.184 53.2313 123.368C53.3387 123.552 53.3925 123.767 53.3925 124.013C53.3925 124.456 53.232 124.813 52.9112 125.082Z" fill="#68B800"/>
<path d="M67.9863 131.145C67.9863 131.268 68.0288 131.369 68.114 131.449C68.1991 131.528 68.3364 131.61 68.5262 131.694V130.71C68.1663 130.763 67.9863 130.908 67.9863 131.145Z" fill="#424242"/>
<path d="M67.9863 131.145C67.9863 131.268 68.0288 131.369 68.114 131.449C68.1991 131.528 68.3364 131.61 68.5262 131.694V130.71C68.1663 130.763 67.9863 130.908 67.9863 131.145Z" fill="#68B800"/>
<path d="M69.0994 133.138V134.18C69.4787 134.115 69.6685 133.951 69.6685 133.686C69.6685 133.569 69.621 133.47 69.5262 133.389C69.4314 133.308 69.2891 133.224 69.0994 133.138Z" fill="#424242"/>
<path d="M69.0994 133.138V134.18C69.4787 134.115 69.6685 133.951 69.6685 133.686C69.6685 133.569 69.621 133.47 69.5262 133.389C69.4314 133.308 69.2891 133.224 69.0994 133.138Z" fill="#68B800"/>
<path d="M68.8262 126.698C65.6094 126.698 62.9916 129.315 62.9916 132.532C62.9916 135.749 65.6094 138.367 68.8262 138.367C72.043 138.367 74.6608 135.749 74.6608 132.532C74.6608 129.315 72.043 126.698 68.8262 126.698ZM70.4463 134.692C70.1255 134.962 69.6763 135.123 69.0988 135.176V136.034H68.5254V135.192C67.8447 135.178 67.2475 135.058 66.7342 134.832V133.728C66.9769 133.848 67.2692 133.954 67.611 134.046C67.9527 134.138 68.2576 134.192 68.5254 134.209V132.912L68.245 132.803C67.6926 132.585 67.3013 132.349 67.0711 132.093C66.8409 131.838 66.7258 131.522 66.7258 131.145C66.7258 130.741 66.8842 130.408 67.2008 130.147C67.5175 129.886 67.959 129.728 68.5254 129.672V129.032H69.0988V129.656C69.7376 129.683 70.3152 129.812 70.8314 130.041L70.438 131.02C70.0027 130.841 69.5564 130.733 69.0988 130.694V131.928C69.6428 132.137 70.0299 132.319 70.2601 132.472C70.4903 132.626 70.6591 132.794 70.7665 132.979C70.8739 133.163 70.9276 133.378 70.9276 133.623C70.9276 134.067 70.7671 134.423 70.4463 134.692Z" fill="#424242"/>
<path d="M68.8262 126.698C65.6094 126.698 62.9916 129.315 62.9916 132.532C62.9916 135.749 65.6094 138.367 68.8262 138.367C72.043 138.367 74.6608 135.749 74.6608 132.532C74.6608 129.315 72.043 126.698 68.8262 126.698ZM70.4463 134.692C70.1255 134.962 69.6763 135.123 69.0988 135.176V136.034H68.5254V135.192C67.8447 135.178 67.2475 135.058 66.7342 134.832V133.728C66.9769 133.848 67.2692 133.954 67.611 134.046C67.9527 134.138 68.2576 134.192 68.5254 134.209V132.912L68.245 132.803C67.6926 132.585 67.3013 132.349 67.0711 132.093C66.8409 131.838 66.7258 131.522 66.7258 131.145C66.7258 130.741 66.8842 130.408 67.2008 130.147C67.5175 129.886 67.959 129.728 68.5254 129.672V129.032H69.0988V129.656C69.7376 129.683 70.3152 129.812 70.8314 130.041L70.438 131.02C70.0027 130.841 69.5564 130.733 69.0988 130.694V131.928C69.6428 132.137 70.0299 132.319 70.2601 132.472C70.4903 132.626 70.6591 132.794 70.7665 132.979C70.8739 133.163 70.9276 133.378 70.9276 133.623C70.9276 134.067 70.7671 134.423 70.4463 134.692Z" fill="#68B800"/>
<path d="M55.4431 94.9613C55.4431 95.0842 55.4856 95.1853 55.5708 95.2648C55.6559 95.3443 55.7932 95.4259 55.983 95.5096V94.5261C55.6231 94.5791 55.4431 94.7243 55.4431 94.9613Z" fill="#424242"/>
<path d="M55.4431 94.9613C55.4431 95.0842 55.4856 95.1853 55.5708 95.2648C55.6559 95.3443 55.7932 95.4259 55.983 95.5096V94.5261C55.6231 94.5791 55.4431 94.7243 55.4431 94.9613Z" fill="#68B800"/>
<path d="M56.5562 96.9534V97.9955C56.9355 97.9312 57.1253 97.7667 57.1253 97.5016C57.1253 97.3844 57.0778 97.2855 56.983 97.2045C56.8882 97.1235 56.7459 97.0398 56.5562 96.9534Z" fill="#424242"/>
<path d="M56.5562 96.9534V97.9955C56.9355 97.9312 57.1253 97.7667 57.1253 97.5016C57.1253 97.3844 57.0778 97.2855 56.983 97.2045C56.8882 97.1235 56.7459 97.0398 56.5562 96.9534Z" fill="#68B800"/>
<path d="M56.2832 90.5129C53.0664 90.5129 50.4486 93.1307 50.4486 96.3476C50.4486 99.5644 53.0664 102.182 56.2832 102.182C59.5 102.182 62.1179 99.5644 62.1179 96.3476C62.1179 93.1307 59.5 90.5129 56.2832 90.5129ZM57.9034 98.5077C57.5826 98.777 57.1333 98.9381 56.5558 98.9911V99.849H55.9824V99.0078C55.3017 98.9939 54.7045 98.8739 54.1912 98.6479V97.5431C54.434 97.663 54.7263 97.7691 55.068 97.8611C55.4097 97.9532 55.7146 98.0076 55.9824 98.0244V96.727L55.702 96.6182C55.1496 96.4006 54.7583 96.1641 54.5281 95.9088C54.298 95.6535 54.1829 95.3375 54.1829 94.9609C54.1829 94.5564 54.3413 94.2237 54.6579 93.9628C54.9745 93.7019 55.416 93.5436 55.9824 93.4878V92.8475H56.5558V93.471C57.1946 93.4989 57.7722 93.6273 58.2884 93.8561L57.895 94.8354C57.4598 94.6568 57.0134 94.548 56.5558 94.509V95.7435C57.0998 95.9528 57.487 96.1342 57.7171 96.2876C57.9473 96.441 58.1162 96.6098 58.2235 96.794C58.3309 96.9781 58.3846 97.1929 58.3846 97.4384C58.3846 97.8821 58.2241 98.2384 57.9034 98.5077Z" fill="#424242"/>
<path d="M56.2832 90.5129C53.0664 90.5129 50.4486 93.1307 50.4486 96.3476C50.4486 99.5644 53.0664 102.182 56.2832 102.182C59.5 102.182 62.1179 99.5644 62.1179 96.3476C62.1179 93.1307 59.5 90.5129 56.2832 90.5129ZM57.9034 98.5077C57.5826 98.777 57.1333 98.9381 56.5558 98.9911V99.849H55.9824V99.0078C55.3017 98.9939 54.7045 98.8739 54.1912 98.6479V97.5431C54.434 97.663 54.7263 97.7691 55.068 97.8611C55.4097 97.9532 55.7146 98.0076 55.9824 98.0244V96.727L55.702 96.6182C55.1496 96.4006 54.7583 96.1641 54.5281 95.9088C54.298 95.6535 54.1829 95.3375 54.1829 94.9609C54.1829 94.5564 54.3413 94.2237 54.6579 93.9628C54.9745 93.7019 55.416 93.5436 55.9824 93.4878V92.8475H56.5558V93.471C57.1946 93.4989 57.7722 93.6273 58.2884 93.8561L57.895 94.8354C57.4598 94.6568 57.0134 94.548 56.5558 94.509V95.7435C57.0998 95.9528 57.487 96.1342 57.7171 96.2876C57.9473 96.441 58.1162 96.6098 58.2235 96.794C58.3309 96.9781 58.3846 97.1929 58.3846 97.4384C58.3846 97.8821 58.2241 98.2384 57.9034 98.5077Z" fill="#68B800"/>
<path d="M72.8703 104.101H67.2143C61.2504 108.937 59.4259 116.506 63.1065 118.53C65.5192 119.857 74.5654 119.857 76.9784 118.53C80.6587 116.506 78.8342 108.56 72.8703 104.101ZM70.8522 115.929V116.507C70.8522 116.953 70.4889 117.316 70.0418 117.316C69.5954 117.316 69.2319 116.953 69.2319 116.506V115.931H68.0498C67.6034 115.931 67.2397 115.567 67.2397 115.121C67.2397 114.674 67.6032 114.31 68.0498 114.31H70.7592C71.2244 114.31 71.6027 113.932 71.6027 113.466C71.6027 113.001 71.2242 112.623 70.7592 112.623H69.2942C69.2792 112.623 69.2641 112.622 69.249 112.622C67.9365 112.586 66.8616 111.481 66.8616 110.159C66.8616 108.832 67.9164 107.746 69.2319 107.697V107.119C69.2319 106.673 69.5952 106.309 70.0418 106.309C70.4887 106.309 70.8522 106.673 70.8522 107.119V107.695H71.9288C72.3754 107.695 72.7389 108.058 72.7389 108.505C72.7389 108.952 72.3757 109.315 71.9288 109.315H69.3254C68.8602 109.315 68.4816 109.694 68.4816 110.159C68.4816 110.624 68.8604 111.003 69.3254 111.003H70.7592C72.1174 111.003 73.2227 112.108 73.2227 113.467C73.2227 114.794 72.1677 115.88 70.8522 115.929ZM67.2663 102.908H73.0439C73.0439 102.908 77.8794 98.4935 76.2466 97.812C74.6139 97.1305 72.7299 98.1353 72.4159 99.14C72.4159 99.14 69.9667 94.7441 68.8363 99.14C68.8363 99.14 62.5548 95.7145 64.3147 100.047C64.8033 101.25 67.2663 102.908 67.2663 102.908Z" fill="#68B800"/>
</svg>
