<svg width="156" height="116" viewBox="0 0 156 116" fill="none" xmlns="http://www.w3.org/2000/svg">
<path d="M9.53059 84.5384H4.69101C4.33659 84.5384 4.04659 84.8284 4.04659 85.1828V86.2757C3.37495 86.2964 2.7491 86.4974 2.21863 86.838L6.23483 90.8542H18.3837L22.3993 86.8381C21.8973 86.5152 21.309 86.3212 20.679 86.2833V84.9852C20.6661 83.8253 19.7253 82.8909 18.5589 82.8909H13.816C12.6625 82.8909 11.7152 83.8188 11.6959 84.9788V86.2676H10.175V85.1828C10.175 84.8284 9.89146 84.5384 9.53059 84.5384ZM12.9849 84.9789C12.9918 84.5479 13.365 84.1797 13.8162 84.1797H18.5587C19.02 84.1797 19.385 84.5397 19.39 84.9991V86.2676H12.9849V84.9789Z" fill="#424242"/>
<path d="M24.055 111.516V89.8636C24.055 89.0589 23.787 88.3182 23.3403 87.7189L19.2942 91.7655V109.617L23.3394 113.662C23.7866 113.062 24.055 112.321 24.055 111.516Z" fill="#424242"/>
<path d="M18.0026 109.239V92.1428H6.60889V109.239H18.0026ZM11.7504 96.582C11.982 96.1893 12.6289 96.1893 12.8605 96.582C13.2639 97.2673 15.2771 100.754 15.2771 102.145C15.2771 103.783 13.9442 105.116 12.3054 105.116C10.6667 105.116 9.33382 103.783 9.33382 102.145C9.33382 100.754 11.347 97.2673 11.7504 96.582Z" fill="#424242"/>
<path d="M0.557495 89.8635V111.516C0.557495 112.322 0.826134 113.063 1.27417 113.663L5.32077 109.617V91.7655L1.27326 87.718C0.82574 88.3175 0.557495 89.0585 0.557495 89.8635Z" fill="#424242"/>
<path d="M20.4651 115.112C21.1763 115.112 21.8382 114.901 22.3967 114.542L18.3824 110.528H6.2335L2.21863 114.542C2.77805 114.901 3.44142 115.112 4.15487 115.112H20.4651Z" fill="#424242"/>
<path d="M40.956 84.5387H36.1164C35.762 84.5387 35.472 84.8287 35.472 85.1832V86.276C34.8004 86.2967 34.1745 86.4978 33.644 86.8384L37.6602 90.8546H49.8091L53.8247 86.8385C53.3227 86.5155 52.7344 86.3216 52.1044 86.2836V84.9856C52.0916 83.8256 51.1507 82.8912 49.9843 82.8912H45.2414C44.0879 82.8912 43.1406 83.8192 43.1213 84.9791V86.268H41.6004V85.1832C41.6004 84.8287 41.3169 84.5387 40.956 84.5387ZM44.4103 84.9793C44.4172 84.5482 44.7904 84.1801 45.2416 84.1801H49.9841C50.4454 84.1801 50.8104 84.54 50.8154 84.9994V86.268H44.4103V84.9793Z" fill="#424242"/>
<path d="M55.4804 111.516V89.8639C55.4804 89.0593 55.2124 88.3186 54.7657 87.7192L50.7196 91.7659V109.617L54.7648 113.662C55.212 113.063 55.4804 112.322 55.4804 111.516Z" fill="#424242"/>
<path d="M49.428 109.239V92.1432H38.0343V109.239H49.428ZM43.1758 96.5824C43.4074 96.1897 44.0543 96.1897 44.2859 96.5824C44.6893 97.2677 46.7025 100.755 46.7025 102.146C46.7025 103.784 45.3696 105.116 43.7309 105.116C42.0921 105.116 40.7592 103.784 40.7592 102.146C40.7592 100.755 42.7724 97.2677 43.1758 96.5824Z" fill="#424242"/>
<path d="M31.9829 89.8639V111.516C31.9829 112.322 32.2515 113.063 32.6996 113.663L36.7462 109.617V91.7659L32.6987 87.7184C32.2512 88.3179 31.9829 89.0589 31.9829 89.8639Z" fill="#424242"/>
<path d="M51.8905 115.112C52.6017 115.112 53.2636 114.902 53.8221 114.543L49.8079 110.528H37.6589L33.644 114.543C34.2035 114.902 34.8668 115.112 35.5803 115.112H51.8905Z" fill="#424242"/>
<path d="M72.3879 84.5387H67.5483C67.1939 84.5387 66.9039 84.8287 66.9039 85.1832V86.276C66.2323 86.2967 65.6064 86.4978 65.0759 86.8384L69.0921 90.8546H81.241L85.2566 86.8385C84.7546 86.5155 84.1663 86.3216 83.5363 86.2836V84.9856C83.5234 83.8256 82.5826 82.8912 81.4162 82.8912H76.6733C75.5198 82.8912 74.5725 83.8192 74.5532 84.9791V86.268H73.0323V85.1832C73.0323 84.8287 72.7488 84.5387 72.3879 84.5387ZM75.8422 84.9793C75.8491 84.5482 76.2223 84.1801 76.6735 84.1801H81.416C81.8773 84.1801 82.2423 84.54 82.2473 84.9994V86.268H75.8422V84.9793Z" fill="#424242"/>
<path d="M86.9123 111.516V89.8639C86.9123 89.0593 86.6443 88.3186 86.1976 87.7192L82.1515 91.7659V109.617L86.1967 113.662C86.6439 113.063 86.9123 112.322 86.9123 111.516Z" fill="#424242"/>
<path d="M80.8599 109.239V92.1432H69.4662V109.239H80.8599ZM74.6077 96.5824C74.8393 96.1897 75.4862 96.1897 75.7178 96.5824C76.1212 97.2677 78.1344 100.755 78.1344 102.146C78.1344 103.784 76.8015 105.116 75.1627 105.116C73.524 105.116 72.1911 103.784 72.1911 102.146C72.1911 100.755 74.2043 97.2677 74.6077 96.5824Z" fill="#424242"/>
<path d="M63.4148 89.8639V111.516C63.4148 112.322 63.6834 113.063 64.1315 113.663L68.1781 109.617V91.7659L64.1306 87.7184C63.683 88.3179 63.4148 89.0589 63.4148 89.8639Z" fill="#424242"/>
<path d="M83.3224 115.112C84.0336 115.112 84.6955 114.902 85.254 114.543L81.2397 110.528H69.0908L65.0759 114.543C65.6353 114.902 66.2987 115.112 67.0122 115.112H83.3224Z" fill="#424242"/>
<path d="M127.415 67.6787C127.415 66.7727 126.703 66.0609 125.798 66.0609H106.578C105.672 66.0609 104.961 66.7727 104.961 67.6787V69.9436H127.351V67.6787H127.415Z" fill="#424242"/>
<path d="M144.173 91.1691C146.502 91.1691 148.638 91.8163 150.45 92.9811V85.5393C150.45 84.6333 149.738 83.9215 148.832 83.9215H137.896V76.2856C137.896 75.8326 137.572 75.5091 137.184 75.4443V66.8378H134.272V68.0026H135.954V75.5091C135.631 75.6385 135.372 75.8973 135.372 76.2856V83.9862H129.548L127.348 71.5617H105.023L103.534 83.9862C102.175 85.0216 101.205 86.4452 100.687 87.3512C100.428 87.8042 100.493 88.4513 100.881 88.8395L101.399 89.3572C103.987 87.4806 107.158 86.3158 110.588 86.3158C118.741 86.3158 125.407 92.5928 125.989 100.617H132.525C133.625 95.1812 138.413 91.1691 144.173 91.1691ZM116.218 82.5626C116.218 83.145 115.7 83.6627 115.117 83.6627H107.676C107.029 83.6627 106.511 83.145 106.576 82.4979L107.029 74.7325C107.093 74.1501 107.546 73.6971 108.129 73.6971H115.117C115.7 73.6971 116.218 74.2148 116.218 74.7972V82.5626ZM126.248 88.9043H123.789C123.465 88.9043 123.142 88.7748 122.883 88.5807L118.741 85.4099C118.353 85.151 118.159 84.698 118.159 84.1803V75.2502C118.159 74.409 118.871 73.6971 119.712 73.6971H124.565C125.342 73.6971 125.989 74.2795 126.054 74.9914L127.801 87.0923C127.866 88.063 127.154 88.9043 126.248 88.9043Z" fill="#424242"/>
<path d="M123.013 99.5812C122.883 98.6106 122.624 97.7046 122.301 96.8634L123.077 96.0868C122.624 95.1162 122.107 94.1455 121.46 93.3042L120.424 93.6278C119.842 92.916 119.195 92.2042 118.418 91.6218L118.677 90.5864C117.836 89.9393 116.865 89.4216 115.895 88.9686L115.247 89.8099C114.406 89.4863 113.5 89.2274 112.53 89.098L112.271 88.0627C111.753 87.9332 111.235 87.9332 110.653 87.9332C110.135 87.9332 109.553 87.9979 109.035 88.0627L108.776 89.0333C107.806 89.1627 106.9 89.4216 106.058 89.7451L105.282 88.9686C104.311 89.4216 103.341 89.9393 102.499 90.5864L102.758 91.6218C102.046 92.2042 101.335 92.8513 100.752 93.6278L99.7167 93.369C99.0696 94.2102 98.5519 95.1809 98.099 96.1515L98.8755 96.9281C98.6814 97.7046 98.4225 98.6106 98.2931 99.5812L97.2577 99.8401C97.193 100.358 97.1283 100.875 97.1283 101.458C97.1283 101.976 97.193 102.558 97.2577 103.076L98.2931 103.334C98.4225 104.24 98.6814 105.146 99.0049 106.052L98.2284 106.829C98.6814 107.8 99.1991 108.77 99.8462 109.611L100.882 109.353C101.464 110.064 102.111 110.776 102.888 111.359L102.629 112.394C103.47 113.041 104.441 113.559 105.411 114.012L106.188 113.235C107.029 113.559 107.935 113.818 108.906 113.947L109.165 114.982C109.682 115.047 110.2 115.112 110.782 115.112C111.3 115.112 111.882 115.047 112.4 114.982L112.659 113.947C113.63 113.818 114.536 113.559 115.377 113.235L116.153 114.012C117.124 113.559 118.095 113.041 118.936 112.394L118.483 111.229C119.195 110.647 119.907 110 120.489 109.223L121.524 109.482C122.171 108.641 122.689 107.67 123.142 106.699L122.301 106.052C122.624 105.211 122.883 104.305 123.013 103.334L124.048 103.076C124.113 102.558 124.178 102.04 124.178 101.458C124.178 100.94 124.113 100.358 124.048 99.8401L123.013 99.5812ZM110.653 108.058C107.029 108.058 104.052 105.082 104.052 101.458C104.052 97.834 107.029 94.8573 110.653 94.8573C114.277 94.8573 117.253 97.834 117.253 101.458C117.253 105.082 114.277 108.058 110.653 108.058Z" fill="#424242"/>
<path d="M155.305 104.887C155.37 104.434 155.37 104.046 155.37 103.593C155.37 103.14 155.305 102.752 155.305 102.299L154.464 102.105C154.334 101.328 154.14 100.617 153.881 99.9694L154.528 99.387C154.205 98.6105 153.752 97.8339 153.234 97.1868L152.393 97.4457C151.94 96.8633 151.422 96.3456 150.84 95.8926L151.099 95.0514C150.387 94.5337 149.675 94.0807 148.899 93.7571L148.316 94.4042C147.604 94.1454 146.893 93.9513 146.181 93.8218L145.987 92.9806C145.534 92.9159 145.145 92.9159 144.692 92.9159C144.239 92.9159 143.851 92.9806 143.398 92.9806L143.075 93.7571C142.298 93.8866 141.586 94.0807 140.939 94.3395L140.357 93.6924C139.58 94.016 138.804 94.469 138.157 94.9866L138.415 95.8279C137.833 96.2809 137.315 96.7986 136.862 97.381L135.956 97.1221C135.439 97.8339 134.986 98.5458 134.662 99.3223L135.309 99.9047C135.05 100.617 134.856 101.328 134.727 102.04L133.886 102.234C133.821 102.687 133.821 103.076 133.821 103.529C133.821 103.981 133.886 104.37 133.886 104.823L134.727 105.017C134.856 105.793 135.05 106.505 135.309 107.152L134.662 107.735C134.986 108.511 135.439 109.288 135.956 109.935L136.798 109.676C137.251 110.258 137.768 110.776 138.351 111.229L138.092 112.07C138.804 112.588 139.515 113.041 140.292 113.365L140.874 112.717C141.586 112.976 142.298 113.17 143.01 113.3L143.204 114.141C143.657 114.206 144.045 114.206 144.498 114.206C144.951 114.206 145.339 114.141 145.792 114.141L145.987 113.3C146.763 113.17 147.475 112.976 148.122 112.717L148.704 113.365C149.481 113.041 150.258 112.588 150.905 112.07L150.84 111.423C151.422 110.97 151.94 110.453 152.393 109.87L153.234 110.129C153.752 109.417 154.205 108.705 154.528 107.929L153.881 107.346C154.14 106.635 154.334 105.923 154.464 105.211L155.305 104.887ZM144.563 109.158C141.522 109.158 138.998 106.699 138.998 103.593C138.998 100.552 141.457 98.0281 144.563 98.0281C147.604 98.0281 150.128 100.487 150.128 103.593C150.128 106.699 147.669 109.158 144.563 109.158Z" fill="#424242"/>
<path d="M110.658 104.499C112.338 104.499 113.699 103.138 113.699 101.458C113.699 99.7782 112.338 98.4165 110.658 98.4165C108.978 98.4165 107.616 99.7782 107.616 101.458C107.616 103.138 108.978 104.499 110.658 104.499Z" fill="#424242"/>
<path d="M144.561 106.247C146.026 106.247 147.214 105.059 147.214 103.594C147.214 102.128 146.026 100.941 144.561 100.941C143.096 100.941 141.908 102.128 141.908 103.594C141.908 105.059 143.096 106.247 144.561 106.247Z" fill="#424242"/>
<path d="M23.5724 100.11H32.4403" stroke="#424242"/>
<path d="M55.4797 100.11H64.3477" stroke="#424242"/>
<path d="M85.726 100.11H100.53" stroke="#424242"/>
<path d="M42.997 21.3869H38.5457C38.2197 21.3869 37.953 21.6536 37.953 21.9796V22.9848C37.3353 23.0038 36.7596 23.1888 36.2717 23.502L39.9657 27.1959H51.1397L54.8331 23.5021C54.3714 23.2051 53.8303 23.0267 53.2509 22.9918V21.7979C53.239 20.731 52.3737 19.8716 51.3009 19.8716H46.9385C45.8776 19.8716 45.0063 20.7251 44.9885 21.792V22.9774H43.5897V21.9796C43.5897 21.6536 43.3289 21.3869 42.997 21.3869ZM46.1741 21.7921C46.1804 21.3956 46.5237 21.057 46.9387 21.057H51.3007C51.7249 21.057 52.0607 21.3881 52.0653 21.8106V22.9774H46.1741V21.7921Z" fill="#68B800"/>
<path d="M56.3568 46.1995V26.2845C56.3568 25.5444 56.1103 24.8631 55.6995 24.3119L51.978 28.0338V44.4526L55.6986 48.1732C56.11 47.6218 56.3568 46.9401 56.3568 46.1995Z" fill="#68B800"/>
<path d="M50.7893 44.1055V28.3813H40.3098V44.1055H50.7893ZM45.0388 32.4643C45.2518 32.1031 45.8468 32.1031 46.0598 32.4643C46.4308 33.0947 48.2825 36.3019 48.2825 37.5811C48.2825 39.0878 47.0565 40.3137 45.5493 40.3137C44.042 40.3137 42.8161 39.0878 42.8161 37.5811C42.8161 36.3019 44.6677 33.0947 45.0388 32.4643Z" fill="#68B800"/>
<path d="M34.745 26.2849V46.1999C34.745 46.9409 34.9921 47.6228 35.4042 48.1744L39.1261 44.453V28.0343L35.4033 24.3115C34.9917 24.8629 34.745 25.5444 34.745 26.2849Z" fill="#68B800"/>
<path d="M53.0541 49.5071C53.7082 49.5071 54.317 49.3133 54.8307 48.9832L51.1386 45.291H39.9644L36.2717 48.9832C36.7863 49.3133 37.3964 49.5071 38.0526 49.5071H53.0541Z" fill="#68B800"/>
<path d="M71.8993 21.3868H67.4481C67.1221 21.3868 66.8554 21.6535 66.8554 21.9795V22.9847C66.2376 23.0037 65.662 23.1886 65.1741 23.5019L68.868 27.1958H80.0421L83.7355 23.502C83.2737 23.2049 82.7326 23.0266 82.1532 22.9917V21.7978C82.1414 20.7309 81.276 19.8715 80.2032 19.8715H75.8409C74.7799 19.8715 73.9086 20.725 73.8909 21.7918V22.9773H72.492V21.9795C72.492 21.6535 72.2312 21.3868 71.8993 21.3868ZM75.0764 21.792C75.0828 21.3955 75.426 21.0569 75.841 21.0569H80.203C80.6273 21.0569 80.963 21.388 80.9676 21.8105V22.9773H75.0764V21.792Z" fill="#68B800"/>
<path d="M85.2592 46.1995V26.2845C85.2592 25.5444 85.0127 24.8631 84.6018 24.3119L80.8804 28.0338V44.4526L84.601 48.1732C85.0123 47.6218 85.2592 46.9401 85.2592 46.1995Z" fill="#68B800"/>
<path d="M79.6917 44.1054V28.3812H69.2122V44.1054H79.6917ZM73.9411 32.4642C74.1541 32.103 74.7491 32.103 74.9621 32.4642C75.3332 33.0945 77.1848 36.3018 77.1848 37.581C77.1848 39.0876 75.9589 40.3136 74.4516 40.3136C72.9444 40.3136 71.7184 39.0876 71.7184 37.581C71.7184 36.3018 73.5701 33.0945 73.9411 32.4642Z" fill="#68B800"/>
<path d="M63.6473 26.2848V46.1998C63.6473 46.9407 63.8944 47.6227 64.3065 48.1743L68.0284 44.4529V28.0341L64.3057 24.3114C63.8941 24.8628 63.6473 25.5443 63.6473 26.2848Z" fill="#68B800"/>
<path d="M81.9564 49.507C82.6106 49.507 83.2194 49.3131 83.7331 48.983L80.0409 45.2909H68.8668L65.1741 48.9831C65.6886 49.3132 66.2988 49.507 66.955 49.507H81.9564Z" fill="#68B800"/>
<path d="M127.413 2.07523C127.413 1.16931 126.701 0.45752 125.795 0.45752H106.577C105.671 0.45752 104.959 1.16931 104.959 2.07523V4.34001H127.348V2.07523H127.413Z" fill="#68B800"/>
<path d="M144.169 25.5645C146.499 25.5645 148.634 26.2116 150.446 27.3764V19.9349C150.446 19.029 149.734 18.3172 148.828 18.3172H137.892V10.6817C137.892 10.2287 137.569 9.90516 137.181 9.84045V1.23425H134.269V2.399H135.951V9.90515C135.628 10.0346 135.369 10.2934 135.369 10.6817V18.3819H129.545L127.345 5.95795H105.021L103.532 18.3819C102.173 19.4173 101.203 20.8408 100.685 21.7468C100.426 22.1997 100.491 22.8468 100.879 23.235L101.397 23.7527C103.985 21.8762 107.156 20.7114 110.586 20.7114C118.739 20.7114 125.404 26.9881 125.986 35.0119H132.522C133.622 29.5765 138.41 25.5645 144.169 25.5645ZM116.215 16.9584C116.215 17.5407 115.698 18.0584 115.115 18.0584H107.674C107.027 18.0584 106.509 17.5407 106.574 16.8936L107.027 9.12866C107.091 8.54628 107.544 8.09332 108.127 8.09332H115.115C115.698 8.09332 116.215 8.61099 116.215 9.19336V16.9584ZM126.245 23.2998H123.786C123.462 23.2998 123.139 23.1703 122.88 22.9762L118.739 19.8055C118.351 19.5467 118.156 19.0937 118.156 18.5761V9.64632C118.156 8.80511 118.868 8.09332 119.709 8.09332H124.563C125.339 8.09332 125.986 8.6757 126.051 9.38749L127.798 21.4879C127.863 22.4585 127.151 23.2998 126.245 23.2998Z" fill="#68B800"/>
<path d="M123.01 33.976C122.88 33.0053 122.622 32.0994 122.298 31.2582L123.075 30.4817C122.622 29.5111 122.104 28.5405 121.457 27.6993L120.422 28.0228C119.839 27.311 119.192 26.5992 118.416 26.0169L118.674 24.9815C117.833 24.3344 116.863 23.8168 115.892 23.3638L115.245 24.205C114.404 23.8815 113.498 23.6227 112.527 23.4932L112.268 22.4579C111.751 22.3285 111.233 22.3285 110.651 22.3285C110.133 22.3285 109.551 22.3932 109.033 22.4579L108.774 23.4285C107.803 23.5579 106.898 23.8168 106.056 24.1403L105.28 23.3638C104.309 23.8168 103.339 24.3344 102.497 24.9815L102.756 26.0169C102.044 26.5992 101.333 27.2463 100.75 28.0228L99.7149 27.764C99.0678 28.6052 98.5502 29.5758 98.0972 30.5464L98.8737 31.3229C98.6796 32.0994 98.4208 33.0053 98.2913 33.976L97.256 34.2348C97.1913 34.7525 97.1266 35.2701 97.1266 35.8525C97.1266 36.3702 97.1913 36.9525 97.256 37.4702L98.2913 37.729C98.4208 38.635 98.6796 39.5409 99.0031 40.4468L98.2266 41.2233C98.6796 42.1939 99.1972 43.1645 99.8443 44.0057L100.88 43.7469C101.462 44.4587 102.109 45.1705 102.886 45.7529L102.627 46.7882C103.468 47.4353 104.439 47.9529 105.409 48.4059L106.186 47.6294C107.027 47.9529 107.933 48.2118 108.903 48.3412L109.162 49.3765C109.68 49.4412 110.198 49.5059 110.78 49.5059C111.298 49.5059 111.88 49.4412 112.398 49.3765L112.657 48.3412C113.627 48.2118 114.533 47.9529 115.374 47.6294L116.151 48.4059C117.121 47.9529 118.092 47.4353 118.933 46.7882L118.48 45.6235C119.192 45.0411 119.904 44.394 120.486 43.6175L121.522 43.8763C122.169 43.0351 122.686 42.0645 123.139 41.0939L122.298 40.4468C122.622 39.6056 122.88 38.6997 123.01 37.729L124.045 37.4702C124.11 36.9525 124.175 36.4349 124.175 35.8525C124.175 35.3348 124.11 34.7525 124.045 34.2348L123.01 33.976ZM110.651 42.4527C107.027 42.4527 104.05 39.4762 104.05 35.8525C104.05 32.2289 107.027 29.2523 110.651 29.2523C114.274 29.2523 117.251 32.2289 117.251 35.8525C117.251 39.4762 114.274 42.4527 110.651 42.4527Z" fill="#68B800"/>
<path d="M155.302 39.2822C155.367 38.8292 155.367 38.441 155.367 37.988C155.367 37.5351 155.302 37.1468 155.302 36.6938L154.461 36.4997C154.332 35.7232 154.138 35.0114 153.879 34.3644L154.526 33.782C154.202 33.0055 153.749 32.229 153.232 31.5819L152.391 31.8407C151.938 31.2584 151.42 30.7407 150.838 30.2877L151.096 29.4465C150.385 28.9289 149.673 28.4759 148.896 28.1524L148.314 28.7994C147.602 28.5406 146.89 28.3465 146.179 28.2171L145.984 27.3759C145.532 27.3112 145.143 27.3112 144.69 27.3112C144.237 27.3112 143.849 27.3759 143.396 27.3759L143.073 28.1524C142.296 28.2818 141.584 28.4759 140.937 28.7347L140.355 28.0877C139.578 28.4112 138.802 28.8642 138.155 29.3818L138.414 30.223C137.831 30.676 137.314 31.1936 136.861 31.776L135.955 31.5172C135.437 32.229 134.984 32.9408 134.661 33.7173L135.308 34.2996C135.049 35.0114 134.855 35.7232 134.725 36.435L133.884 36.6291C133.819 37.0821 133.819 37.4703 133.819 37.9233C133.819 38.3763 133.884 38.7645 133.884 39.2175L134.725 39.4116C134.855 40.1881 135.049 40.8999 135.308 41.547L134.661 42.1293C134.984 42.9058 135.437 43.6823 135.955 44.3294L136.796 44.0706C137.249 44.653 137.767 45.1706 138.349 45.6236L138.09 46.4648C138.802 46.9825 139.514 47.4354 140.29 47.759L140.873 47.1119C141.584 47.3707 142.296 47.5648 143.008 47.6942L143.202 48.5355C143.655 48.6002 144.043 48.6002 144.496 48.6002C144.949 48.6002 145.337 48.5355 145.79 48.5355L145.984 47.6942C146.761 47.5648 147.473 47.3707 148.12 47.1119L148.702 47.759C149.479 47.4354 150.255 46.9825 150.902 46.4648L150.838 45.8177C151.42 45.3647 151.938 44.8471 152.391 44.2647L153.232 44.5235C153.749 43.8118 154.202 43.1 154.526 42.3235L153.879 41.7411C154.138 41.0293 154.332 40.3175 154.461 39.6057L155.302 39.2822ZM144.561 43.5529C141.52 43.5529 138.996 41.094 138.996 37.988C138.996 34.9467 141.455 32.4231 144.561 32.4231C147.602 32.4231 150.126 34.882 150.126 37.988C150.126 41.094 147.667 43.5529 144.561 43.5529Z" fill="#68B800"/>
<path d="M110.652 38.8947C112.332 38.8947 113.693 37.5331 113.693 35.8534C113.693 34.1738 112.332 32.8121 110.652 32.8121C108.972 32.8121 107.611 34.1738 107.611 35.8534C107.611 37.5331 108.972 38.8947 110.652 38.8947Z" fill="#68B800"/>
<path d="M144.559 40.6414C146.024 40.6414 147.212 39.4536 147.212 37.9884C147.212 36.5231 146.024 35.3353 144.559 35.3353C143.094 35.3353 141.906 36.5231 141.906 37.9884C141.906 39.4536 143.094 40.6414 144.559 40.6414Z" fill="#68B800"/>
<path d="M56.3544 35.7085H64.5107" stroke="#68B800"/>
<path d="M84.1669 35.7085H97.7832" stroke="#68B800"/>
</svg>
