<svg width="166" height="178" viewBox="0 0 166 178" fill="none" xmlns="http://www.w3.org/2000/svg">
<path fill-rule="evenodd" clip-rule="evenodd" d="M119.831 52.7023L119.831 45.581C119.831 45.1302 120.203 44.7614 120.657 44.7614L121.629 44.7614C122.083 44.7614 122.455 45.1302 122.455 45.581L122.455 52.7023C122.455 53.1531 122.083 53.5219 121.629 53.5219L120.657 53.5219C120.203 53.5219 119.831 53.1531 119.831 52.7023ZM124.199 15.7204C124.306 16.2172 123.558 16.9589 122.661 17.1779C121.764 17.397 120.717 17.093 120.61 16.5965C120.503 16.1 121.335 15.4108 122.233 15.1918C123.13 14.973 124.092 15.2239 124.199 15.7204ZM135.174 15.7204C135.067 16.2172 135.815 16.9589 136.713 17.1779C137.61 17.397 138.656 17.093 138.763 16.5965C138.87 16.1 138.038 15.4108 137.141 15.1918C136.244 14.973 135.281 15.2239 135.174 15.7204ZM130.569 33.54L130.569 31.1803L130.478 31.0505L129.834 31.0681C129.504 31.0769 129.171 31.086 128.839 31.0938L128.845 33.531C129.036 33.5297 129.23 33.5297 129.425 33.5297C129.811 33.5297 130.201 33.5297 130.569 33.54ZM131.809 31.0087L131.809 33.6506C131.84 33.6568 131.871 33.6633 131.9 33.6701C132.509 33.8104 132.777 34.0914 133.146 34.4764C133.515 34.8614 133.983 35.3509 134.534 35.926C135.085 36.5012 135.718 37.1621 136.019 37.8467C136.319 38.5314 136.288 39.2398 136.181 41.625C136.074 44.0102 135.892 48.0724 135.762 50.9708C135.662 53.1834 135.594 54.7176 135.092 55.7058L139.277 59.3769L165.787 59.3769L165.787 68.5083L94.0558 68.5083L94.0558 59.3769L121.007 59.3769L124.393 56.405C123.571 55.5806 123.487 54.0433 123.342 51.4047C123.189 48.5929 122.967 44.5308 122.835 42.1093C122.702 39.6879 122.66 38.9074 122.981 38.1341C123.302 37.3606 123.987 36.5943 124.547 35.9691C125.106 35.3438 125.539 34.8593 125.882 34.4762C126.224 34.0932 126.476 33.8114 127.047 33.6706C127.211 33.6301 127.401 33.6013 127.611 33.5808L127.604 31.1171C125.954 31.1373 124.455 31.0994 123.597 30.8673C122.361 30.5329 122.456 29.7955 123.015 25.4225C123.574 21.0496 124.598 13.041 125.193 8.39346C125.787 3.7458 125.952 2.4593 126.566 1.81284C127.181 1.16638 128.245 1.16015 129.462 1.15294C130.68 1.14557 132.05 1.13753 132.803 1.71891C133.557 2.3003 133.692 3.47125 134.232 8.11891C134.772 12.7666 135.716 20.8907 136.224 25.2637C136.732 29.6366 136.804 30.2584 135.688 30.5999C134.882 30.8466 133.456 30.9473 131.809 31.0087ZM137.413 59.3769L134.275 56.6247C133.163 57.339 131.241 57.3389 129.397 57.3389C127.959 57.3389 126.568 57.3387 125.539 57.0345L122.871 59.3769L137.413 59.3769ZM124.805 15.4857C124.805 15.1516 125.08 14.8786 125.417 14.8786L133.768 14.8785C134.105 14.8785 134.38 15.1516 134.38 15.4857C134.38 15.8197 134.105 16.0928 133.768 16.0928L125.417 16.0928C125.08 16.0928 124.805 15.8197 124.805 15.4857ZM134.763 8.0796L134.763 1.74644C134.763 0.929518 135.437 0.261427 136.261 0.261427L138.02 0.261427C138.844 0.261427 139.518 0.929518 139.518 1.74644L139.518 8.0796C139.518 8.89652 138.844 9.56445 138.02 9.56445L136.261 9.56445C135.437 9.56445 134.763 8.89652 134.763 8.0796ZM119.738 8.08107L119.738 1.8315C119.738 0.967864 120.451 0.261428 121.322 0.261428L123.183 0.261428C124.054 0.261428 124.766 0.967864 124.766 1.8315L124.766 8.08107C124.766 8.94471 124.054 9.65114 123.183 9.65114L121.322 9.65114C120.451 9.65114 119.738 8.94471 119.738 8.08107ZM137.397 34.2517L137.397 23.6038C137.397 22.7869 138.071 22.1188 138.895 22.1188L140.654 22.1188C141.478 22.1188 142.152 22.7869 142.152 23.6038L142.152 34.2517C142.152 35.0686 141.478 35.7366 140.654 35.7366L138.895 35.7366C138.071 35.7366 137.397 35.0686 137.397 34.2517ZM116.914 34.1666L116.914 23.6888C116.914 22.8254 117.627 22.1188 118.498 22.1188L120.359 22.1188C121.23 22.1188 121.942 22.8254 121.942 23.6888L121.942 34.1666C121.942 35.0301 121.23 35.7366 120.359 35.7366L118.498 35.7366C117.627 35.7366 116.914 35.0301 116.914 34.1666ZM136.553 52.7023L136.553 45.581C136.553 45.1302 136.925 44.7614 137.38 44.7614L138.351 44.7614C138.806 44.7614 139.178 45.1302 139.178 45.581L139.178 52.7023C139.178 53.1531 138.806 53.5219 138.351 53.5219L137.38 53.5219C136.925 53.5219 136.553 53.1531 136.553 52.7023Z" fill="#68B800"/>
<path fill-rule="evenodd" clip-rule="evenodd" d="M26.1305 104.091L26.1305 96.9692C26.1305 96.5184 26.5025 96.1496 26.9571 96.1496L27.9283 96.1496C28.3829 96.1496 28.7548 96.5184 28.7548 96.9692L28.7548 104.091C28.7548 104.541 28.3829 104.91 27.9283 104.91L26.9571 104.91C26.5025 104.91 26.1305 104.541 26.1305 104.091ZM30.4989 67.1086C30.6058 67.6054 29.858 68.3471 28.9605 68.5661C28.0633 68.7852 27.0169 68.4812 26.9098 67.9847C26.8027 67.4882 27.635 66.799 28.5323 66.58C29.4293 66.3612 30.3917 66.6121 30.4989 67.1086ZM41.4738 67.1086C41.3669 67.6054 42.1147 68.3471 43.0122 68.5661C43.9093 68.7852 44.9558 68.4812 45.0629 67.9847C45.17 67.4882 44.3377 66.799 43.4404 66.58C42.5434 66.3612 41.5809 66.6121 41.4738 67.1086ZM36.8688 84.9282L36.8688 82.5685L36.778 82.4387L36.1335 82.4563C35.8032 82.4651 35.4704 82.4741 35.139 82.482L35.1449 84.9192C35.3352 84.9179 35.5294 84.9179 35.7252 84.9179C36.1103 84.9179 36.5005 84.9178 36.8688 84.9282ZM38.1086 82.3969L38.1086 85.0388C38.1398 85.045 38.1703 85.0515 38.1998 85.0583C38.8082 85.1986 39.077 85.4796 39.4458 85.8646C39.8146 86.2496 40.2831 86.739 40.8339 87.3142C41.3847 87.8894 42.0177 88.5502 42.3182 89.2349C42.6189 89.9195 42.5872 90.628 42.4802 93.0132C42.3733 95.3984 42.1913 99.4606 42.0613 102.359C41.9622 104.572 41.8934 106.106 41.3918 107.094L45.577 110.765L72.0865 110.765L72.0865 119.896L0.355469 119.896L0.355468 110.765L27.3067 110.765L30.6924 107.793C29.8703 106.969 29.7864 105.431 29.6421 102.793C29.4885 99.9811 29.2666 95.919 29.1342 93.4975C29.002 91.0761 28.9593 90.2956 29.2805 89.5222C29.6019 88.7488 30.2871 87.9825 30.8464 87.3573C31.4056 86.732 31.8387 86.2475 32.1814 85.8644C32.5241 85.4814 32.776 85.1996 33.3467 85.0588C33.5105 85.0183 33.7008 84.9895 33.9102 84.969L33.9041 82.5053C32.2533 82.5254 30.7548 82.4876 29.897 82.2555C28.6611 81.9211 28.7555 81.1837 29.3146 76.8107C29.8738 72.4378 30.8981 64.4291 31.4924 59.7817C32.0867 55.134 32.2513 53.8475 32.8658 53.201C33.4802 52.5546 34.5445 52.5484 35.7619 52.5411C36.9794 52.5338 38.3498 52.5257 39.1029 53.1071C39.8563 53.6885 39.9922 54.8594 40.5319 59.5071C41.0718 64.1548 42.0155 72.2789 42.5234 76.6519C43.0314 81.0248 43.1034 81.6465 41.9878 81.9881C41.1819 82.2348 39.7559 82.3355 38.1086 82.3969ZM43.7126 110.765L40.5749 108.013C39.4628 108.727 37.5411 108.727 35.6962 108.727C34.2585 108.727 32.8676 108.727 31.839 108.423L29.1704 110.765L43.7126 110.765ZM31.1042 66.8739C31.1042 66.5398 31.3796 66.2667 31.7165 66.2667L40.0675 66.2667C40.4044 66.2667 40.6798 66.5398 40.6798 66.8739C40.6798 67.2079 40.4044 67.481 40.0675 67.481L31.7165 67.481C31.3796 67.481 31.1042 67.2079 31.1042 66.8739ZM41.0629 59.4678L41.0629 53.1346C41.0629 52.3177 41.7367 51.6496 42.5604 51.6496L44.3201 51.6496C45.1437 51.6496 45.8177 52.3177 45.8177 53.1346L45.8177 59.4678C45.8177 60.2847 45.1437 60.9527 44.3201 60.9527L42.5604 60.9527C41.7367 60.9527 41.0629 60.2847 41.0629 59.4678ZM26.0381 59.4693L26.0381 53.2197C26.0381 52.3561 26.7508 51.6496 27.6218 51.6496L29.4824 51.6496C30.3534 51.6496 31.066 52.3561 31.066 53.2197L31.066 59.4693C31.066 60.3329 30.3534 61.0393 29.4824 61.0393L27.6218 61.0393C26.7508 61.0393 26.0381 60.3329 26.0381 59.4693ZM43.6968 85.6399L43.6968 74.992C43.6968 74.1751 44.3706 73.507 45.1943 73.507L46.954 73.507C47.7776 73.507 48.4516 74.1751 48.4516 74.992L48.4516 85.6399C48.4516 86.4568 47.7776 87.1247 46.954 87.1248L45.1943 87.1248C44.3706 87.1248 43.6968 86.4568 43.6968 85.6399ZM23.214 85.5548L23.214 75.077C23.214 74.2136 23.9266 73.507 24.7976 73.507L26.6582 73.507C27.5292 73.507 28.2419 74.2136 28.2419 75.077L28.2419 85.5548C28.2419 86.4183 27.5292 87.1248 26.6582 87.1248L24.7976 87.1248C23.9266 87.1248 23.214 86.4183 23.214 85.5548ZM42.853 104.091L42.853 96.9692C42.853 96.5184 43.2249 96.1496 43.6795 96.1496L44.6507 96.1496C45.1054 96.1496 45.4773 96.5184 45.4773 96.9692L45.4773 104.091C45.4773 104.541 45.1054 104.91 44.6507 104.91L43.6795 104.91C43.2249 104.91 42.853 104.541 42.853 104.091Z" fill="#424242"/>
<path d="M1.16895 125.099V177.121" stroke="#424242" stroke-opacity="0.15"/>
<path d="M72.0869 125.099V177.121" stroke="#424242" stroke-opacity="0.15"/>
<path d="M57.9032 125.099V177.121" stroke="#424242" stroke-opacity="0.15"/>
<path d="M43.7195 125.099V177.121" stroke="#424242" stroke-opacity="0.15"/>
<path d="M15.3522 125.099V177.121" stroke="#424242" stroke-opacity="0.15"/>
<path d="M29.5361 125.099V177.121" stroke="#424242" stroke-opacity="0.15"/>
<path d="M94.0558 73.2612V177.121" stroke="#424242" stroke-opacity="0.15"/>
<path d="M164.974 73.2612V177.121" stroke="#424242" stroke-opacity="0.15"/>
<path d="M150.79 73.2612V177.121" stroke="#424242" stroke-opacity="0.15"/>
<path d="M136.606 73.2612V177.121" stroke="#424242" stroke-opacity="0.15"/>
<path d="M108.239 73.2612V177.121" stroke="#424242" stroke-opacity="0.15"/>
<path d="M122.423 73.2612V177.121" stroke="#424242" stroke-opacity="0.15"/>
<path d="M11.8869 141.965H9.88124L6.98919 143.823V145.754L9.71078 144.016H9.77896V153.601H11.8869V141.965ZM19.1426 153.823C21.9494 153.828 23.6256 151.612 23.6256 147.794C23.6256 143.999 21.9381 141.806 19.1426 141.806C16.3471 141.806 14.6653 143.993 14.6596 147.794C14.6596 151.607 16.3358 153.823 19.1426 153.823ZM19.1426 152.044C17.6937 152.044 16.7846 150.59 16.7903 147.794C16.796 145.022 17.6994 143.561 19.1426 143.561C20.5915 143.561 21.4949 145.022 21.5006 147.794C21.5006 150.59 20.5971 152.044 19.1426 152.044ZM34.5275 151.209L32.0048 144.874H29.5048V153.601H31.4878V147.72L33.8116 153.601H35.2491L37.6525 147.658V153.601H39.6185V144.874H37.1185L34.5275 151.209ZM43.6753 150.817V144.874H41.6923V153.601H43.8116L47.2946 147.652V153.601H49.2832V144.874H47.1696L43.6753 150.817ZM53.3784 144.874H51.3954V153.601H53.3784V150.073H56.7591V153.601H58.7364V144.874H56.7591V148.385H53.3784V144.874Z" fill="#424242"/>
<path d="M103.987 114.555H101.981L99.0888 116.413V118.345L101.81 116.606H101.879V126.191H103.987V114.555ZM111.242 126.413C114.049 126.419 115.725 124.203 115.725 120.385C115.725 116.589 114.038 114.396 111.242 114.396C108.447 114.396 106.765 116.583 106.759 120.385C106.759 124.197 108.435 126.413 111.242 126.413ZM111.242 124.635C109.793 124.635 108.884 123.18 108.89 120.385C108.896 117.612 109.799 116.152 111.242 116.152C112.691 116.152 113.594 117.612 113.6 120.385C113.6 123.18 112.697 124.635 111.242 124.635ZM126.627 123.799L124.104 117.464H121.604V126.191H123.587V120.311L125.911 126.191H127.349L129.752 120.248V126.191H131.718V117.464H129.218L126.627 123.799ZM135.775 123.407V117.464H133.792V126.191H135.911L139.394 120.243V126.191H141.383V117.464H139.269L135.775 123.407ZM145.478 117.464H143.495V126.191H145.478V122.663H148.859V126.191H150.836V117.464H148.859V120.975H145.478V117.464Z" fill="#68B800"/>
</svg>
