<svg width="123" height="45" viewBox="0 0 123 45" fill="none" xmlns="http://www.w3.org/2000/svg">
<path fill-rule="evenodd" clip-rule="evenodd" d="M52.5715 23.9767C53.7948 22.8495 54.4037 21.3955 54.4037 19.6094C54.4037 17.8396 53.7948 16.3911 52.5715 15.2584C51.3483 14.1312 49.777 13.5649 47.8579 13.5649H43.6227V25.6431H47.8579C49.7879 25.6485 51.3591 25.0931 52.5715 23.9767ZM47.6893 15.3129C49.1953 15.3129 50.3696 15.6995 51.2015 16.4673C52.0496 17.2515 52.4682 18.297 52.4682 19.6094C52.4682 20.9218 52.0442 21.9673 51.2015 22.7515C50.3696 23.5248 49.1953 23.9059 47.6893 23.9059H45.5147V15.3129H47.6893ZM66.3699 24.9079V22.9911C65.4565 23.7262 64.3148 24.0965 62.9393 24.0965C61.6454 24.0965 60.5798 23.6772 59.7371 22.8386C58.889 21.9891 58.4704 20.9109 58.4704 19.6094C58.4704 18.3079 58.889 17.2406 59.7208 16.402C60.5689 15.5525 61.6182 15.1277 62.8741 15.1277C64.0212 15.1168 65.1521 15.449 66.1144 16.0752V14.1584C65.163 13.6193 64.081 13.347 62.8578 13.347C61.031 13.347 59.5196 13.9406 58.3344 15.1223C57.1329 16.2931 56.5349 17.7906 56.5349 19.6094C56.5349 21.4282 57.1329 22.9257 58.3344 24.1129C59.5577 25.2837 61.0637 25.8718 62.8578 25.8718C64.1952 25.8718 65.3641 25.5505 66.3699 24.9079ZM70.5671 16.4673L73.9106 21.0252H75.0088L78.3524 16.4673V25.6485H80.239V13.5703H78.3524L74.4978 19.005L70.6051 13.5703H68.6859V25.6485H70.5725V16.4673H70.5671ZM83.7837 24.6302C84.6971 25.4579 85.8007 25.8718 87.0892 25.8718C88.3777 25.8718 89.4162 25.5941 90.1936 25.0441V23.4757C89.3781 23.9713 88.443 24.2381 87.4861 24.2327C86.6162 24.2327 85.8986 24.0312 85.3332 23.6282C84.7678 23.2253 84.4252 22.6698 84.3111 21.9564H90.7536V21.4718C90.7536 19.7673 90.161 18.4931 88.9703 17.6436C88.3669 17.1861 87.6275 16.952 86.7576 16.952C85.4908 16.952 84.447 17.3767 83.6369 18.2262C82.8377 19.0649 82.4354 20.1267 82.4354 21.401C82.4463 22.7297 82.8921 23.8025 83.7837 24.6302ZM85.0613 19.103C85.4908 18.7163 86.0291 18.5257 86.6815 18.5257C87.3665 18.5257 87.9047 18.7327 88.2908 19.1465C88.655 19.5223 88.8725 20.0178 88.8888 20.546H84.3274C84.3818 19.9852 84.6427 19.4678 85.0613 19.103ZM99.3273 24.4941V25.6485H101.176V13.5703H99.3273V18.3352C98.6205 17.4149 97.6202 16.9574 96.3262 16.952C95.1356 16.952 94.1624 17.3822 93.3958 18.248C92.6293 19.0975 92.2487 20.154 92.2487 21.4064C92.2487 22.6698 92.6293 23.7317 93.3958 24.5812C94.1624 25.4416 95.141 25.8772 96.3262 25.8772C97.6202 25.8718 98.6205 25.4144 99.3273 24.4941ZM94.8909 23.4213C94.3744 22.8713 94.1189 22.196 94.1189 21.401C94.1189 20.6168 94.3744 19.9579 94.8909 19.4188C95.4074 18.8688 96.049 18.5911 96.8264 18.5911C97.3429 18.5911 97.8539 18.7381 98.2889 19.0158C98.7238 19.2772 99.0772 19.653 99.3273 20.0941V22.7188C99.0881 23.1708 98.7292 23.5465 98.2997 23.8134C97.8594 24.0911 97.3483 24.2381 96.8264 24.2381C96.049 24.2327 95.402 23.9658 94.8909 23.4213ZM105.824 17.1753H103.97V25.6485H105.824V17.1753ZM105.715 15.3238C105.938 15.1005 106.058 14.801 106.053 14.4852C106.058 14.1693 105.938 13.8644 105.715 13.6411C105.503 13.4178 105.21 13.2926 104.9 13.298C104.585 13.2926 104.286 13.4178 104.068 13.6411C103.845 13.8644 103.726 14.1693 103.736 14.4852C103.726 14.7955 103.851 15.1005 104.068 15.3238C104.286 15.547 104.59 15.6668 104.9 15.6614C105.204 15.6668 105.498 15.5416 105.715 15.3238ZM116.013 23.9767C115.882 23.8297 115.817 23.6228 115.817 23.3559V20.1975C115.817 19.1738 115.463 18.3787 114.762 17.8069C114.061 17.2352 113.115 16.952 111.924 16.952C110.712 16.952 109.69 17.1916 108.858 17.6762V19.3153C109.652 18.8144 110.576 18.553 111.516 18.5584C113.164 18.5584 113.985 19.1738 113.985 20.4045V20.8728C113.207 20.4371 112.31 20.2193 111.294 20.2193C110.331 20.2193 109.532 20.4644 108.896 20.9599C108.244 21.4446 107.917 22.1307 107.917 23.0292C107.917 23.9277 108.216 24.6248 108.809 25.1149C109.412 25.6213 110.168 25.8718 111.071 25.8718C112.375 25.8718 113.408 25.4361 114.175 24.5594C114.392 25.3653 114.98 25.7683 115.942 25.7683C116.409 25.7683 116.768 25.6757 117.024 25.4906V24.0748C116.872 24.1564 116.698 24.2 116.529 24.1946C116.328 24.2054 116.138 24.1238 116.013 23.9767ZM112.919 23.9822C112.5 24.1673 112.044 24.2653 111.582 24.2653C111.022 24.2653 110.581 24.151 110.255 23.9223C109.929 23.6936 109.766 23.3559 109.766 22.9203C109.755 22.5282 109.956 22.1579 110.288 21.9564C110.636 21.7277 111.12 21.6134 111.734 21.6134C112.522 21.6134 113.294 21.8203 113.979 22.2178V23.2525C113.686 23.5683 113.321 23.8188 112.919 23.9822Z" fill="#262626"/>
<path fill-rule="evenodd" clip-rule="evenodd" d="M43.9052 29.0518H43.7585V32.8255H43.9052V29.0518ZM43.6932 27.5216C43.6008 27.6142 43.6008 27.7013 43.6932 27.7939C43.7856 27.8864 43.8781 27.8864 43.9705 27.7939C44.0629 27.7013 44.0629 27.6142 43.9705 27.5216C43.8781 27.429 43.7856 27.429 43.6932 27.5216ZM47.4554 29.3731C47.7545 29.1934 48.097 29.0953 48.4504 29.0899C49.3692 29.0899 49.8313 29.58 49.8313 30.5602V32.8255H49.9781V30.533C49.9781 30.0265 49.8476 29.6344 49.5921 29.3622C49.3365 29.0899 48.9614 28.9538 48.4667 28.9538C48.1241 28.9538 47.7816 29.0354 47.4826 29.1934C47.1945 29.3349 46.9389 29.5419 46.7378 29.7978V29.0518H46.591V32.8255H46.7378V30.032C46.9172 29.7597 47.1673 29.5364 47.4554 29.3731ZM54.6102 32.7439V32.5914C54.4036 32.7221 54.1643 32.7929 53.9143 32.7929C53.3923 32.7929 53.1314 32.5151 53.1314 31.9597V29.1934H54.6754V29.0572H53.1314V27.7721H52.9846V29.0572H51.9407V29.1934H52.9846V31.9978C52.9846 32.3082 53.0661 32.5424 53.2347 32.6948C53.3978 32.8528 53.6261 32.929 53.9143 32.929C54.1589 32.9344 54.4036 32.8691 54.6102 32.7439ZM59.8403 32.5914V32.4389C59.5032 32.6731 59.09 32.7929 58.5898 32.7929C58.0353 32.7929 57.5732 32.6186 57.2035 32.2701C56.8392 31.9161 56.6598 31.475 56.6598 30.9468V30.8924H60.1502V30.8379C60.1502 30.6909 60.1339 30.5439 60.1067 30.4023C60.0686 30.2335 60.0143 30.0646 59.9381 29.9067C59.862 29.7379 59.7587 29.58 59.6283 29.4384C59.4869 29.2914 59.3129 29.177 59.1172 29.1008C58.8889 29.0082 58.6442 28.9592 58.3941 28.9646C57.8396 28.9646 57.3883 29.1498 57.0404 29.5255C56.687 29.9067 56.5076 30.3805 56.5076 30.9468C56.5076 31.5186 56.7087 31.9924 57.1056 32.3681C57.5025 32.7439 57.9972 32.929 58.5898 32.929C59.1118 32.929 59.5304 32.8146 59.8403 32.5914ZM57.1654 29.6072C57.4753 29.2642 57.8885 29.0953 58.3995 29.0953C58.6605 29.0899 58.9215 29.1443 59.1553 29.2587C59.3618 29.3567 59.5358 29.5092 59.6663 29.6943C59.8838 30.0047 60.0034 30.3696 60.0088 30.7453H56.6707C56.6924 30.326 56.8664 29.9176 57.1654 29.6072ZM62.5695 30.1627C62.7163 29.8686 62.9338 29.6072 63.2056 29.4166C63.472 29.2097 63.7982 29.0953 64.1353 29.0953V28.9592C63.7819 28.9646 63.4448 29.0736 63.1567 29.275C62.9175 29.4439 62.7163 29.6617 62.5695 29.9176V29.0572H62.4227V32.831H62.5695V30.1627ZM66.9298 29.3731C67.2288 29.1934 67.5713 29.0953 67.9247 29.0899C68.8435 29.0899 69.3056 29.58 69.3056 30.5602V32.8255H69.4524V30.533C69.4524 30.0265 69.3219 29.6344 69.0664 29.3622C68.8109 29.0899 68.4357 28.9538 67.941 28.9538C67.5985 28.9538 67.256 29.0354 66.9515 29.1934C66.6634 29.3349 66.4078 29.5419 66.2067 29.7978V29.0518H66.0599V32.8255H66.2067V30.032C66.3915 29.7597 66.6362 29.5364 66.9298 29.3731ZM74.987 32.5914V32.4389C74.6499 32.6731 74.2367 32.7929 73.7365 32.7929C73.182 32.7929 72.7199 32.6186 72.3502 32.2701C71.9859 31.9161 71.8065 31.475 71.8065 30.9468V30.8924H75.2969V30.8379C75.2969 30.6909 75.2806 30.5439 75.2534 30.4023C75.2153 30.2335 75.161 30.0646 75.0849 29.9067C75.0087 29.7379 74.9054 29.58 74.775 29.4384C74.6336 29.2914 74.4596 29.177 74.2639 29.1008C74.0356 29.0082 73.7909 28.9592 73.5408 28.9646C72.9863 28.9646 72.535 29.1498 72.1871 29.5255C71.8337 29.9067 71.6543 30.3805 71.6543 30.9468C71.6543 31.5186 71.8554 31.9924 72.2523 32.3681C72.6492 32.7439 73.1439 32.929 73.7365 32.929C74.2639 32.929 74.6771 32.8146 74.987 32.5914ZM72.3121 29.6072C72.622 29.2642 73.0352 29.0953 73.5463 29.0953C73.8072 29.0899 74.0682 29.1443 74.302 29.2587C74.5086 29.3567 74.6825 29.5092 74.813 29.6943C75.0305 30.0047 75.1501 30.3696 75.1555 30.7453H71.8174C71.8391 30.326 72.0185 29.9176 72.3121 29.6072ZM79.6245 32.7439V32.5914C79.4179 32.7221 79.1787 32.7929 78.9286 32.7929C78.4067 32.7929 78.1457 32.5151 78.1457 31.9597V29.1934H79.6898V29.0572H78.1457V27.7721H77.9989V29.0572H76.9551V29.1934H77.9989V31.9978C77.9989 32.3082 78.0805 32.5424 78.249 32.6948C78.4176 32.8473 78.6405 32.929 78.9286 32.929C79.1733 32.9344 79.4125 32.8691 79.6245 32.7439ZM88.0786 32.134C88.0786 32.3627 88.133 32.5424 88.2472 32.6676C88.3559 32.7929 88.5136 32.8582 88.6821 32.8582C88.7582 32.8582 88.8398 32.8473 88.9104 32.8201V32.684C88.8398 32.7112 88.7636 32.7275 88.6875 32.7221C88.5516 32.7275 88.4211 32.6676 88.345 32.5587C88.258 32.428 88.2145 32.2701 88.22 32.1122V30.3097C88.22 29.8632 88.0732 29.531 87.7796 29.3023C87.486 29.0736 87.0946 28.9592 86.5944 28.9592C86.0562 28.9592 85.6049 29.0899 85.2461 29.3458V29.5038C85.6375 29.2315 86.1051 29.0844 86.5835 29.0953C87.062 29.0953 87.4316 29.1988 87.6872 29.4057C87.9427 29.6127 88.0732 29.9122 88.0732 30.3043V30.9632C87.5839 30.6637 87.0185 30.5003 86.4422 30.4948C85.9637 30.4948 85.5723 30.6092 85.2733 30.8379C84.9851 31.0394 84.8166 31.3661 84.8275 31.7146C84.8275 32.0958 84.9743 32.3953 85.2678 32.6132C85.5777 32.8255 85.9474 32.9344 86.3226 32.929C87.0021 32.9399 87.6491 32.6458 88.0786 32.134ZM85.3874 32.526C85.1156 32.3409 84.9797 32.0686 84.9797 31.7146C84.9797 31.3934 85.1156 31.132 85.3929 30.9305C85.6701 30.729 86.0344 30.631 86.4911 30.631C87.0239 30.631 87.5567 30.7944 88.0841 31.1265V31.9161C87.8938 32.1666 87.6491 32.379 87.3718 32.5369C87.0674 32.7057 86.7249 32.7983 86.3769 32.7929C86.029 32.7983 85.6865 32.7057 85.3874 32.526ZM93.9448 34.0127C94.2982 33.7132 94.4776 33.2884 94.4776 32.733V29.0518H94.3308V29.8087C93.934 29.2424 93.374 28.9592 92.6563 28.9592C92.0637 28.9592 91.5799 29.1552 91.2047 29.5528C90.4653 30.3369 90.4653 31.5567 91.2047 32.3409C91.5799 32.733 92.0637 32.929 92.6563 32.929C93.374 32.929 93.934 32.6458 94.3308 32.0795V32.733C94.3308 33.2394 94.1677 33.6369 93.8361 33.9146C93.5099 34.1924 93.0587 34.334 92.4932 34.334C91.9767 34.3448 91.4711 34.2087 91.0308 33.9473V34.1052C91.482 34.3503 91.9931 34.4755 92.5095 34.4646C93.113 34.4592 93.5915 34.3122 93.9448 34.0127ZM91.3298 32.2592C90.9818 31.9052 90.7915 31.4315 90.797 30.9414C90.7861 30.4513 90.9764 29.9775 91.3298 29.629C91.6777 29.275 92.1616 29.079 92.6618 29.0899C93.0152 29.0899 93.3631 29.1825 93.6621 29.3676C93.9557 29.5364 94.1895 29.7869 94.3363 30.0864V31.7909C94.1895 32.0904 93.9557 32.3409 93.6621 32.5097C93.3631 32.6948 93.0152 32.7874 92.6618 32.7874C92.1616 32.8038 91.6777 32.6077 91.3298 32.2592ZM100.099 32.5914V32.4389C99.7621 32.6731 99.3435 32.7929 98.8488 32.7929C98.2942 32.7929 97.8321 32.6186 97.4624 32.2701C97.0981 31.9161 96.9133 31.475 96.9133 30.9468V30.8924H100.404V30.8379C100.404 30.6909 100.387 30.5439 100.36 30.4023C100.322 30.2335 100.268 30.0646 100.192 29.9067C100.116 29.7379 100.007 29.58 99.8817 29.4384C99.7349 29.2914 99.561 29.177 99.3707 29.1008C99.1423 29.0082 98.8977 28.9592 98.6476 28.9646C98.0931 28.9646 97.6418 29.1498 97.2939 29.5255C96.9405 29.9067 96.7611 30.3805 96.7611 30.9468C96.7611 31.5186 96.9622 31.9924 97.3591 32.3681C97.756 32.7439 98.2507 32.929 98.8433 32.929C99.3707 32.929 99.7893 32.8146 100.099 32.5914ZM97.4243 29.6072C97.7342 29.2642 98.1474 29.0953 98.6585 29.0953C98.9194 29.0899 99.1804 29.1443 99.4142 29.2587C99.6208 29.3567 99.7948 29.5092 99.9252 29.6943C100.143 30.0047 100.262 30.3696 100.268 30.7453H96.9296C96.9513 30.326 97.1253 29.9176 97.4243 29.6072ZM103.546 29.3731C103.845 29.1934 104.188 29.0953 104.541 29.0899C105.46 29.0899 105.922 29.58 105.922 30.5602V32.8255H106.069V30.533C106.069 30.0265 105.938 29.6344 105.683 29.3622C105.427 29.0899 105.052 28.9538 104.557 28.9538C104.215 28.9538 103.872 29.0354 103.568 29.1934C103.28 29.3349 103.024 29.5419 102.823 29.7978V29.0518H102.676V32.8255H102.823V30.032C103.013 29.7597 103.258 29.5364 103.546 29.3731ZM108.836 32.3409C109.2 32.733 109.684 32.929 110.282 32.929C110.761 32.929 111.174 32.8092 111.527 32.575V32.4117C111.163 32.6676 110.728 32.7983 110.282 32.7874C109.787 32.7983 109.309 32.6077 108.961 32.2592C108.613 31.9052 108.423 31.4315 108.428 30.9414C108.417 30.4513 108.608 29.9775 108.961 29.629C109.304 29.275 109.787 29.079 110.282 29.0899C110.695 29.0844 111.098 29.1988 111.451 29.4166V29.2533C111.098 29.0463 110.695 28.9374 110.282 28.9483C109.69 28.9483 109.206 29.1443 108.836 29.5419C108.097 30.3369 108.097 31.5513 108.836 32.3409ZM114.436 34.1815C114.621 33.9963 114.816 33.6914 115.018 33.2721L117.018 29.0518H116.855L115.213 32.4988L113.539 29.0518H113.376L115.132 32.6731C114.882 33.2557 114.659 33.6805 114.463 33.9419C114.273 34.1924 114.044 34.3176 113.773 34.3176C113.599 34.3176 113.43 34.2741 113.283 34.1869V34.334C113.435 34.4156 113.609 34.4592 113.783 34.4538C114.028 34.4646 114.267 34.3612 114.436 34.1815Z" fill="#262626"/>
<path fill-rule="evenodd" clip-rule="evenodd" d="M6.77264 8.36963L22.8545 12.3993L38.4687 8.36963V31.8072C38.4687 32.6622 40.5021 33.1577 40.5021 33.1577H36.8051V10.7221L22.8327 14.2617L8.69724 10.7221V33.1577H6.77264V8.36963Z" fill="#262626"/>
<path fill-rule="evenodd" clip-rule="evenodd" d="M33.9458 15.8735L23.8389 21.5968L34.0001 27.2493L26.28 21.6022L33.9458 15.8735Z" fill="#262626"/>
<path fill-rule="evenodd" clip-rule="evenodd" d="M11.8669 15.9061C11.8669 15.9061 18.2007 15.5412 21.9684 21.6021C18.8042 27.0095 12.5085 27.2764 12.503 27.2764L11.8887 27.2927L11.8669 15.9061Z" fill="#262626"/>
<path fill-rule="evenodd" clip-rule="evenodd" d="M12.2856 16.4344C12.2856 16.4344 18.0649 16.1076 21.4737 21.5804C18.614 26.4651 12.9163 26.7591 12.9163 26.7591L12.302 26.7755L12.2856 16.4344Z" fill="#EAC63C"/>
<path d="M16.0314 24.8208C16.8181 24.8208 17.4558 23.414 17.4558 21.6787C17.4558 19.9434 16.8181 18.5366 16.0314 18.5366C15.2447 18.5366 14.607 19.9434 14.607 21.6787C14.607 23.414 15.2447 24.8208 16.0314 24.8208Z" fill="#2D2D2D"/>
<path fill-rule="evenodd" clip-rule="evenodd" d="M15.9337 18.1333L16.3142 20.9704L16.8851 18.3348" fill="#EAC63C"/>
</svg>
