<svg width="16" height="16" viewBox="0 0 16 16" fill="none" xmlns="http://www.w3.org/2000/svg">
<g clip-path="url(#clip0)">
<path d="M12.7598 3.07886L11.7397 14.7031H4.26116L3.24129 3.07886L1.94897 3.19214L2.98747 15.0272C3.04213 15.5727 3.51544 16.0004 4.06529 16.0004H11.9356C12.4852 16.0004 12.9587 15.5729 13.0143 15.0194L14.0521 3.19214L12.7598 3.07886Z" fill="#CF2034"/>
<path d="M10.3784 0H5.62162C5.0255 0 4.54053 0.484969 4.54053 1.08109V3.13516H5.83781V1.29728H10.1621V3.13512H11.4594V1.08106C11.4595 0.484969 10.9745 0 10.3784 0Z" fill="#CF2034"/>
<path d="M14.9191 2.48608H1.08127C0.722992 2.48608 0.432617 2.77646 0.432617 3.13474C0.432617 3.49302 0.722992 3.7834 1.08127 3.7834H14.9191C15.2774 3.7834 15.5678 3.49302 15.5678 3.13474C15.5678 2.77646 15.2774 2.48608 14.9191 2.48608Z" fill="#CF2034"/>
</g>
<defs>
<clipPath id="clip0">
<rect width="16" height="16" fill="white"/>
</clipPath>
</defs>
</svg>
