<svg width="21" height="26" viewBox="0 0 21 26" fill="none" xmlns="http://www.w3.org/2000/svg">
<path d="M19.804 18.9477L13.9447 24.8069C13.808 24.9437 13.6213 25.0215 13.4268 25.0215H3.17285C1.96128 25.0215 0.975586 24.0358 0.975586 22.8242V2.21875C0.975586 1.00718 1.96128 0.0214859 3.17285 0.0214859H17.8213C19.0329 0.0214859 20.0186 1.00718 20.0186 2.21875V18.4297C20.0186 18.6294 19.9347 18.8169 19.804 18.9477ZM14.1592 22.5208L17.5179 19.1621H14.8916C14.4877 19.1621 14.1592 19.4907 14.1592 19.8945V22.5208ZM17.8213 1.48633H3.17285C2.76899 1.48633 2.44043 1.81489 2.44043 2.21875V22.8242C2.44043 23.2281 2.76899 23.5566 3.17285 23.5566H12.6943V19.8945C12.6943 18.683 13.68 17.6973 14.8916 17.6973H18.5537V2.21875C18.5537 1.81489 18.2251 1.48633 17.8213 1.48633Z" fill="white"/>
<path d="M14.8916 14.6699H6.10254C5.69805 14.6699 5.37012 14.342 5.37012 13.9375C5.37012 13.533 5.69805 13.2051 6.10254 13.2051H14.8916C15.2961 13.2051 15.624 13.533 15.624 13.9375C15.624 14.342 15.2961 14.6699 14.8916 14.6699Z" fill="white"/>
<path d="M14.8916 11.7402H6.10254C5.69805 11.7402 5.37012 11.4123 5.37012 11.0078C5.37012 10.6033 5.69805 10.2754 6.10254 10.2754H14.8916C15.2961 10.2754 15.624 10.6033 15.624 11.0078C15.624 11.4123 15.2961 11.7402 14.8916 11.7402Z" fill="white"/>
<path d="M14.8916 8.81055H6.10254C5.69805 8.81055 5.37012 8.48262 5.37012 8.07813C5.37012 7.67363 5.69805 7.3457 6.10254 7.3457H14.8916C15.2961 7.3457 15.624 7.67363 15.624 8.07813C15.624 8.48262 15.2961 8.81055 14.8916 8.81055Z" fill="white"/>
<path d="M11.9619 5.88086H6.10254C5.69805 5.88086 5.37012 5.55293 5.37012 5.14844C5.37012 4.74395 5.69805 4.41602 6.10254 4.41602H11.9619C12.3664 4.41602 12.6943 4.74395 12.6943 5.14844C12.6943 5.55293 12.3664 5.88086 11.9619 5.88086Z" fill="white"/>
</svg>
