<svg width="52" height="44" viewBox="0 0 52 44" fill="none" xmlns="http://www.w3.org/2000/svg">
<path fill-rule="evenodd" clip-rule="evenodd" d="M24.3353 33.6143C24.3353 36.7656 23.2849 39.275 21.184 41.1425C19.0831 43.0099 16.5154 43.9437 13.4807 43.9437C9.39564 43.9437 6.12761 42.7182 3.67656 40.2671C1.22551 37.8161 0 34.1395 0 29.2374C0 24.5687 0.671108 20.5129 2.01335 17.0698C3.3556 13.6266 4.98961 10.7379 6.91544 8.40357C8.84126 6.06923 10.8546 4.23097 12.9555 2.88873C15.0564 1.54648 16.9238 0.583584 18.5579 0L23.8101 7.17805C20.542 8.81209 17.7117 10.913 15.319 13.4807C12.9263 16.0485 11.73 19.3165 11.73 23.2849C12.1968 23.1682 12.8971 23.1098 13.8309 23.1098C16.5154 23.1098 18.9372 24.1019 21.0965 26.0861C23.2557 28.0703 24.3353 30.5796 24.3353 33.6143ZM52 33.6143C52 36.7656 50.9496 39.275 48.8487 41.1425C46.7478 43.0099 44.18 43.9437 41.1454 43.9437C37.0603 43.9437 33.7923 42.7182 31.3412 40.2671C28.8902 37.8161 27.6647 34.1395 27.6647 29.2374C27.6647 24.5687 28.3358 20.5129 29.678 17.0698C31.0203 13.6266 32.6543 10.7379 34.5801 8.40357C36.5059 6.06923 38.5193 4.23097 40.6202 2.88873C42.7211 1.54648 44.5885 0.583584 46.2225 0L51.4748 7.17805C48.2067 8.81209 45.3764 10.913 42.9837 13.4807C40.591 16.0485 39.3946 19.3165 39.3946 23.2849C39.8615 23.1682 40.5618 23.1098 41.4955 23.1098C44.18 23.1098 46.6019 24.1019 48.7611 26.0861C50.9204 28.0703 52 30.5796 52 33.6143Z" fill="#46A408"/>
</svg>
