<svg width="23" height="22" viewBox="0 0 23 22" fill="none" xmlns="http://www.w3.org/2000/svg">
<g clip-path="url(#clip0)">
<path d="M21.7031 20.032L16.6414 14.9703C17.8961 13.4406 18.6523 11.4812 18.6523 9.3457C18.6523 4.44727 14.6777 0.472656 9.7793 0.472656C4.87656 0.472656 0.90625 4.44727 0.90625 9.3457C0.90625 14.2441 4.87656 18.2188 9.7793 18.2188C11.9148 18.2188 13.8699 17.4668 15.3996 16.2121L20.4613 21.2695C20.8051 21.6133 21.3594 21.6133 21.7031 21.2695C22.0469 20.9301 22.0469 20.3715 21.7031 20.032ZM9.7793 16.4527C5.85625 16.4527 2.66797 13.2645 2.66797 9.3457C2.66797 5.42695 5.85625 2.23438 9.7793 2.23438C13.698 2.23438 16.8906 5.42695 16.8906 9.3457C16.8906 13.2645 13.698 16.4527 9.7793 16.4527Z" fill="white"/>
</g>
<defs>
<clipPath id="clip0">
<rect width="22" height="22" fill="white" transform="translate(0.433594)"/>
</clipPath>
</defs>
</svg>
