<svg width="23" height="23" viewBox="0 0 23 23" fill="none" xmlns="http://www.w3.org/2000/svg">
<g clip-path="url(#clip0)">
<path d="M21.8359 20.1004L16.7742 15.0387C18.0289 13.509 18.7852 11.5496 18.7852 9.41406C18.7852 4.51562 14.8105 0.541016 9.91211 0.541016C5.00938 0.541016 1.03906 4.51562 1.03906 9.41406C1.03906 14.3125 5.00938 18.2871 9.91211 18.2871C12.0477 18.2871 14.0027 17.5352 15.5324 16.2805L20.5941 21.3379C20.9379 21.6816 21.4922 21.6816 21.8359 21.3379C22.1797 20.9984 22.1797 20.4398 21.8359 20.1004ZM9.91211 16.5211C5.98906 16.5211 2.80078 13.3328 2.80078 9.41406C2.80078 5.49531 5.98906 2.30273 9.91211 2.30273C13.8309 2.30273 17.0234 5.49531 17.0234 9.41406C17.0234 13.3328 13.8309 16.5211 9.91211 16.5211Z" fill="#7A8086"/>
</g>
<defs>
<clipPath id="clip0">
<rect width="22" height="22" fill="white" transform="translate(0.566406 0.0683594)"/>
</clipPath>
</defs>
</svg>
