<svg width="26" height="26" viewBox="0 0 26 26" fill="none" xmlns="http://www.w3.org/2000/svg">
<g clip-path="url(#clip0)">
<path d="M12.7047 12.5426C14.3591 12.5426 15.7915 11.9492 16.9622 10.7785C18.1326 9.60795 18.7262 8.17573 18.7262 6.52111C18.7262 4.86706 18.1328 3.43464 16.9621 2.26372C15.7913 1.09338 14.3589 0.5 12.7047 0.5C11.05 0.5 9.61781 1.09338 8.44727 2.26391C7.27673 3.43445 6.68317 4.86687 6.68317 6.52111C6.68317 8.17573 7.27673 9.60814 8.44727 10.7787C9.61819 11.949 11.0506 12.5426 12.7047 12.5426ZM9.48335 3.29979C10.3815 2.40162 11.4351 1.96503 12.7047 1.96503C13.974 1.96503 15.0278 2.40162 15.9262 3.29979C16.8243 4.19815 17.2611 5.25196 17.2611 6.52111C17.2611 7.79064 16.8243 8.84425 15.9262 9.74261C15.0278 10.641 13.974 11.0776 12.7047 11.0776C11.4355 11.0776 10.3819 10.6408 9.48335 9.74261C8.58498 8.84444 8.1482 7.79064 8.1482 6.52111C8.1482 5.25196 8.58498 4.19815 9.48335 3.29979Z" fill="white"/>
<path d="M23.2407 19.7239C23.2069 19.2368 23.1386 18.7054 23.0381 18.1443C22.9366 17.5789 22.806 17.0445 22.6496 16.556C22.4878 16.0512 22.2683 15.5526 21.9965 15.0748C21.7148 14.5789 21.3837 14.1471 21.0121 13.7917C20.6236 13.42 20.1479 13.1211 19.5978 12.9031C19.0497 12.6862 18.4422 12.5764 17.7923 12.5764C17.5371 12.5764 17.2903 12.6811 16.8137 12.9914C16.5203 13.1827 16.1772 13.404 15.7942 13.6487C15.4667 13.8573 15.023 14.0528 14.4751 14.2298C13.9404 14.4028 13.3976 14.4906 12.8616 14.4906C12.3261 14.4906 11.7832 14.4028 11.2482 14.2298C10.7008 14.053 10.257 13.8575 9.93005 13.6489C9.55067 13.4064 9.20735 13.1852 8.90961 12.9912C8.43335 12.6809 8.18654 12.5762 7.93134 12.5762C7.28131 12.5762 6.67401 12.6862 6.12603 12.9033C5.57633 13.1209 5.10045 13.4198 4.71154 13.7919C4.33999 14.1474 4.00887 14.5791 3.72735 15.0748C3.45593 15.5526 3.23621 16.051 3.07446 16.5562C2.91825 17.0447 2.7876 17.5789 2.68613 18.1443C2.58542 18.7047 2.51733 19.2362 2.48357 19.7245C2.45038 20.2019 2.43359 20.6988 2.43359 21.2008C2.43359 22.5058 2.84844 23.5623 3.6665 24.3414C4.47446 25.1103 5.54333 25.5001 6.84357 25.5001H18.8812C20.1811 25.5001 21.25 25.1103 22.0581 24.3414C22.8764 23.5629 23.2912 22.506 23.2912 21.2006C23.291 20.6969 23.274 20.2 23.2407 19.7239ZM21.048 23.28C20.5141 23.7881 19.8053 24.0351 18.881 24.0351H6.84357C5.91908 24.0351 5.21031 23.7881 4.67664 23.2802C4.15307 22.7818 3.89863 22.1015 3.89863 21.2008C3.89863 20.7324 3.91408 20.2698 3.94498 19.8258C3.97511 19.3902 4.03672 18.9116 4.12808 18.4031C4.2183 17.9009 4.33312 17.4296 4.46969 17.0029C4.60072 16.5938 4.77944 16.1887 5.00108 15.7984C5.2126 15.4265 5.45598 15.1074 5.72453 14.8503C5.97573 14.6098 6.29235 14.4129 6.66543 14.2653C7.01047 14.1288 7.39823 14.054 7.81918 14.0427C7.87049 14.07 7.96185 14.1221 8.10986 14.2186C8.41103 14.4149 8.75817 14.6388 9.14193 14.8839C9.57452 15.1597 10.1318 15.4088 10.7977 15.6237C11.4784 15.8438 12.1727 15.9556 12.8618 15.9556C13.551 15.9556 14.2454 15.8438 14.9258 15.6239C15.5922 15.4086 16.1493 15.1597 16.5825 14.8835C16.9752 14.6325 17.3126 14.415 17.6138 14.2186C17.7618 14.1223 17.8532 14.07 17.9045 14.0427C18.3256 14.054 18.7134 14.1288 19.0586 14.2653C19.4315 14.4129 19.7481 14.61 19.9993 14.8503C20.2679 15.1072 20.5113 15.4263 20.7228 15.7986C20.9446 16.1887 21.1235 16.594 21.2544 17.0027C21.3911 17.43 21.5061 17.9011 21.5962 18.4029C21.6873 18.9124 21.7491 19.3911 21.7793 19.826V19.8264C21.8103 20.2687 21.826 20.731 21.8262 21.2008C21.826 22.1016 21.5715 22.7818 21.048 23.28Z" fill="white"/>
</g>
<defs>
<clipPath id="clip0">
<rect width="25" height="25" fill="white" transform="translate(0.382812 0.5)"/>
</clipPath>
</defs>
</svg>
