<svg width="26" height="26" viewBox="0 0 26 26" fill="none" xmlns="http://www.w3.org/2000/svg">
<g clip-path="url(#clip0)">
<path d="M12.8374 12.611C14.4919 12.611 15.9243 12.0176 17.095 10.8469C18.2654 9.67631 18.8589 8.24409 18.8589 6.58947C18.8589 4.93542 18.2655 3.503 17.0948 2.33208C15.9241 1.16173 14.4917 0.568359 12.8374 0.568359C11.1828 0.568359 9.75056 1.16173 8.58002 2.33227C7.40948 3.50281 6.81592 4.93523 6.81592 6.58947C6.81592 8.24409 7.40948 9.6765 8.58002 10.847C9.75095 12.0174 11.1834 12.611 12.8374 12.611ZM9.6161 3.36815C10.5143 2.46998 11.5679 2.03339 12.8374 2.03339C14.1068 2.03339 15.1606 2.46998 16.0589 3.36815C16.9571 4.26651 17.3939 5.32032 17.3939 6.58947C17.3939 7.85899 16.9571 8.91261 16.0589 9.81097C15.1606 10.7093 14.1068 11.1459 12.8374 11.1459C11.5683 11.1459 10.5146 10.7091 9.6161 9.81097C8.71774 8.9128 8.28095 7.85899 8.28095 6.58947C8.28095 5.32032 8.71774 4.26651 9.6161 3.36815Z" fill="#7A8086"/>
<path d="M23.3735 19.7921C23.3397 19.3049 23.2714 18.7735 23.1709 18.2124C23.0695 17.6471 22.9388 17.1126 22.7824 16.6242C22.6207 16.1193 22.4011 15.6207 22.1293 15.1429C21.8476 14.647 21.5165 14.2152 21.1449 13.8598C20.7564 13.4881 20.2807 13.1892 19.7306 12.9712C19.1825 12.7543 18.575 12.6445 17.9251 12.6445C17.6699 12.6445 17.4231 12.7492 16.9465 13.0595C16.6531 13.2508 16.31 13.4721 15.927 13.7168C15.5995 13.9255 15.1559 14.121 14.6079 14.298C14.0732 14.471 13.5304 14.5587 12.9945 14.5587C12.4589 14.5587 11.916 14.471 11.381 14.298C10.8336 14.1211 10.3898 13.9256 10.0629 13.717C9.68349 13.4746 9.34016 13.2533 9.04243 13.0593C8.56616 12.749 8.31935 12.6443 8.06415 12.6443C7.41412 12.6443 6.80682 12.7543 6.25884 12.9714C5.70914 13.189 5.23326 13.4879 4.84435 13.86C4.4728 14.2156 4.14169 14.6472 3.86016 15.1429C3.58875 15.6207 3.36902 16.1191 3.20728 16.6243C3.05106 17.1128 2.92041 17.6471 2.81894 18.2124C2.71823 18.7728 2.65014 19.3044 2.61638 19.7926C2.58319 20.27 2.56641 20.7669 2.56641 21.2689C2.56641 22.5739 2.98125 23.6304 3.79932 24.4096C4.60727 25.1784 5.67615 25.5683 6.97639 25.5683H19.014C20.3139 25.5683 21.3828 25.1784 22.1909 24.4096C23.0092 23.631 23.424 22.5741 23.424 21.2687C23.4238 20.765 23.4069 20.2681 23.3735 19.7921ZM21.1808 23.3481C20.6469 23.8562 19.9382 24.1032 19.0139 24.1032H6.97639C6.0519 24.1032 5.34312 23.8562 4.80945 23.3483C4.28588 22.8499 4.03144 22.1696 4.03144 21.2689C4.03144 20.8005 4.04689 20.3379 4.07779 19.8939C4.10793 19.4583 4.16953 18.9797 4.26089 18.4712C4.35111 17.969 4.46593 17.4977 4.6025 17.071C4.73354 16.6619 4.91225 16.2568 5.13389 15.8666C5.34541 15.4946 5.58879 15.1755 5.85735 14.9184C6.10854 14.6779 6.42516 14.4811 6.79824 14.3334C7.14328 14.1969 7.53104 14.1221 7.952 14.1108C8.0033 14.1381 8.09467 14.1902 8.24268 14.2867C8.54385 14.483 8.89098 14.7069 9.27474 14.952C9.70733 15.2278 10.2647 15.4769 10.9305 15.6918C11.6112 15.912 12.3055 16.0237 12.9946 16.0237C13.6838 16.0237 14.3782 15.912 15.0586 15.692C15.725 15.4767 16.2822 15.2278 16.7153 14.9516C17.108 14.7006 17.4454 14.4832 17.7466 14.2867C17.8946 14.1904 17.986 14.1381 18.0373 14.1108C18.4584 14.1221 18.8462 14.1969 19.1914 14.3334C19.5643 14.4811 19.8809 14.6781 20.1321 14.9184C20.4007 15.1753 20.6441 15.4944 20.8556 15.8667C21.0774 16.2568 21.2563 16.6621 21.3872 17.0709C21.5239 17.4981 21.6389 17.9692 21.729 18.471C21.8201 18.9805 21.8819 19.4592 21.9121 19.8941V19.8945C21.9432 20.3368 21.9588 20.7991 21.959 21.2689C21.9588 22.1698 21.7044 22.8499 21.1808 23.3481Z" fill="#7A8086"/>
</g>
<defs>
<clipPath id="clip0">
<rect width="25" height="25" fill="white" transform="translate(0.515625 0.568359)"/>
</clipPath>
</defs>
</svg>
